%TF.GenerationSoftware,KiCad,Pcbnew,9.0.0*%
%TF.CreationDate,2025-08-18T16:34:53+09:00*%
%TF.ProjectId,SMORES,534d4f52-4553-42e6-9b69-6361645f7063,rev?*%
%TF.SameCoordinates,Original*%
%TF.FileFunction,Copper,L4,Bot*%
%TF.FilePolarity,Positive*%
%FSLAX46Y46*%
G04 Gerber Fmt 4.6, Leading zero omitted, Abs format (unit mm)*
G04 Created by KiCad (PCBNEW 9.0.0) date 2025-08-18 16:34:53*
%MOMM*%
%LPD*%
G01*
G04 APERTURE LIST*
G04 Aperture macros list*
%AMRoundRect*
0 Rectangle with rounded corners*
0 $1 Rounding radius*
0 $2 $3 $4 $5 $6 $7 $8 $9 X,Y pos of 4 corners*
0 Add a 4 corners polygon primitive as box body*
4,1,4,$2,$3,$4,$5,$6,$7,$8,$9,$2,$3,0*
0 Add four circle primitives for the rounded corners*
1,1,$1+$1,$2,$3*
1,1,$1+$1,$4,$5*
1,1,$1+$1,$6,$7*
1,1,$1+$1,$8,$9*
0 Add four rect primitives between the rounded corners*
20,1,$1+$1,$2,$3,$4,$5,0*
20,1,$1+$1,$4,$5,$6,$7,0*
20,1,$1+$1,$6,$7,$8,$9,0*
20,1,$1+$1,$8,$9,$2,$3,0*%
G04 Aperture macros list end*
%TA.AperFunction,Conductor*%
%ADD10C,0.200000*%
%TD*%
%TA.AperFunction,SMDPad,CuDef*%
%ADD11RoundRect,0.150000X-0.500000X0.150000X-0.500000X-0.150000X0.500000X-0.150000X0.500000X0.150000X0*%
%TD*%
%TA.AperFunction,SMDPad,CuDef*%
%ADD12RoundRect,0.175000X-0.175000X0.350000X-0.175000X-0.350000X0.175000X-0.350000X0.175000X0.350000X0*%
%TD*%
%TA.AperFunction,SMDPad,CuDef*%
%ADD13R,1.350000X1.800000*%
%TD*%
%TA.AperFunction,SMDPad,CuDef*%
%ADD14R,1.450000X0.600000*%
%TD*%
%TA.AperFunction,SMDPad,CuDef*%
%ADD15R,1.450000X0.300000*%
%TD*%
%TA.AperFunction,HeatsinkPad*%
%ADD16O,1.600000X1.000000*%
%TD*%
%TA.AperFunction,HeatsinkPad*%
%ADD17O,2.100000X1.000000*%
%TD*%
%TA.AperFunction,SMDPad,CuDef*%
%ADD18R,1.000000X2.000000*%
%TD*%
%TA.AperFunction,SMDPad,CuDef*%
%ADD19R,2.000000X1.000000*%
%TD*%
%TA.AperFunction,SMDPad,CuDef*%
%ADD20R,0.900000X0.900000*%
%TD*%
%TA.AperFunction,ViaPad*%
%ADD21C,0.600000*%
%TD*%
%TA.AperFunction,Conductor*%
%ADD22C,0.500000*%
%TD*%
%TA.AperFunction,Conductor*%
%ADD23C,0.400000*%
%TD*%
G04 APERTURE END LIST*
D10*
%TO.N,VBUS*%
X172240000Y-78080000D02*
X171796667Y-78080000D01*
X171523042Y-78318571D01*
X171250000Y-78318571D01*
X171250000Y-78178571D01*
X171570000Y-78178571D01*
X172060000Y-77688571D01*
X172240000Y-77688571D01*
X172240000Y-78080000D01*
%TA.AperFunction,Conductor*%
G36*
X172240000Y-78080000D02*
G01*
X171796667Y-78080000D01*
X171523042Y-78318571D01*
X171250000Y-78318571D01*
X171250000Y-78178571D01*
X171570000Y-78178571D01*
X172060000Y-77688571D01*
X172240000Y-77688571D01*
X172240000Y-78080000D01*
G37*
%TD.AperFunction*%
%TO.N,Net-(SW1-A)*%
X181500000Y-78505556D02*
X181850000Y-78850694D01*
X181850000Y-79600000D01*
X180700000Y-79600000D01*
X180500000Y-78450437D01*
X180500000Y-78100000D01*
X181500000Y-78100000D01*
X181500000Y-78505556D01*
%TA.AperFunction,Conductor*%
G36*
X181500000Y-78505556D02*
G01*
X181850000Y-78850694D01*
X181850000Y-79600000D01*
X180700000Y-79600000D01*
X180500000Y-78450437D01*
X180500000Y-78100000D01*
X181500000Y-78100000D01*
X181500000Y-78505556D01*
G37*
%TD.AperFunction*%
%TD*%
D11*
%TO.P,SW1,1,A*%
%TO.N,Net-(SW1-A)*%
X181300000Y-79375000D03*
%TO.P,SW1,2,B*%
%TO.N,GND*%
X181300000Y-82375000D03*
%TO.P,SW1,3,C*%
%TO.N,unconnected-(SW1-C-Pad3)*%
X181300000Y-83875000D03*
D12*
%TO.P,SW1,SH*%
%TO.N,N/C*%
X184350000Y-77950000D03*
X182150000Y-77950000D03*
X184350000Y-85300000D03*
X182150000Y-85300000D03*
%TD*%
D13*
%TO.P,SW3,1,1*%
%TO.N,GND*%
X175325000Y-77000000D03*
%TO.P,SW3,2,2*%
%TO.N,SW0*%
X179475000Y-77000000D03*
%TD*%
%TO.P,SW2,1,1*%
%TO.N,GND*%
X175325000Y-80500000D03*
%TO.P,SW2,2,2*%
%TO.N,RESET*%
X179475000Y-80500000D03*
%TD*%
D14*
%TO.P,J1,A1,GND*%
%TO.N,GND*%
X172795000Y-83580000D03*
%TO.P,J1,A4,VBUS*%
%TO.N,VBUS*%
X172795000Y-82780000D03*
D15*
%TO.P,J1,A5,CC1*%
%TO.N,Net-(J1-CC1)*%
X172795000Y-81580000D03*
%TO.P,J1,A6,D+*%
%TO.N,D+*%
X172795000Y-80580000D03*
%TO.P,J1,A7,D-*%
%TO.N,D-*%
X172795000Y-80080000D03*
%TO.P,J1,A8*%
%TO.N,N/C*%
X172795000Y-79080000D03*
D14*
%TO.P,J1,A9,VBUS*%
%TO.N,VBUS*%
X172795000Y-77880000D03*
%TO.P,J1,A12,GND*%
%TO.N,GND*%
X172795000Y-77080000D03*
%TO.P,J1,B1,GND*%
X172795000Y-77080000D03*
%TO.P,J1,B4,VBUS*%
%TO.N,VBUS*%
X172795000Y-77880000D03*
D15*
%TO.P,J1,B5,CC2*%
%TO.N,Net-(J1-CC2)*%
X172795000Y-78580000D03*
%TO.P,J1,B6,D+*%
%TO.N,D+*%
X172795000Y-79580000D03*
%TO.P,J1,B7,D-*%
%TO.N,D-*%
X172795000Y-81080000D03*
%TO.P,J1,B8*%
%TO.N,N/C*%
X172795000Y-82080000D03*
D14*
%TO.P,J1,B9,VBUS*%
%TO.N,VBUS*%
X172795000Y-82780000D03*
%TO.P,J1,B12,GND*%
%TO.N,GND*%
X172795000Y-83580000D03*
D16*
%TO.P,J1,S1,SHIELD*%
%TO.N,unconnected-(J1-SHIELD-PadS1)_3*%
X167700000Y-84650000D03*
D17*
%TO.N,unconnected-(J1-SHIELD-PadS1)_2*%
X171880000Y-84650000D03*
D16*
%TO.N,unconnected-(J1-SHIELD-PadS1)_1*%
X167700000Y-76010000D03*
D17*
%TO.N,unconnected-(J1-SHIELD-PadS1)*%
X171880000Y-76010000D03*
%TD*%
D18*
%TO.P,U7,1,P1.11*%
%TO.N,unconnected-(U7-P1.11-Pad1)*%
X184170000Y-100300000D03*
%TO.P,U7,2,P1.10*%
%TO.N,unconnected-(U7-P1.10-Pad2)*%
X182900000Y-100300000D03*
%TO.P,U7,3,P0.03/AIN1*%
%TO.N,unconnected-(U7-P0.03{slash}AIN1-Pad3)*%
X181630000Y-100300000D03*
%TO.P,U7,4,P0.28/AIN4*%
%TO.N,unconnected-(U7-P0.28{slash}AIN4-Pad4)*%
X180360000Y-100300000D03*
%TO.P,U7,5,GND*%
%TO.N,GND*%
X179090000Y-100300000D03*
%TO.P,U7,6,P1.13*%
%TO.N,unconnected-(U7-P1.13-Pad6)*%
X177820000Y-100300000D03*
%TO.P,U7,7,P0.02/AIN0*%
%TO.N,unconnected-(U7-P0.02{slash}AIN0-Pad7)*%
X176550000Y-100300000D03*
%TO.P,U7,8,P0.29/AIN5*%
%TO.N,unconnected-(U7-P0.29{slash}AIN5-Pad8)*%
X175280000Y-100300000D03*
%TO.P,U7,9,P0.31/AIN7*%
%TO.N,unconnected-(U7-P0.31{slash}AIN7-Pad9)*%
X174010000Y-100300000D03*
%TO.P,U7,10,P0.30/AIN6*%
%TO.N,unconnected-(U7-P0.30{slash}AIN6-Pad10)*%
X172740000Y-100300000D03*
D19*
%TO.P,U7,11,P0.00/XL1*%
%TO.N,Net-(U7-P0.00{slash}XL1)*%
X170140000Y-98240000D03*
D20*
%TO.P,U7,12,P0.26*%
%TO.N,unconnected-(U7-P0.26-Pad12)*%
X172240000Y-97610000D03*
D19*
%TO.P,U7,13,P0.01/XL2*%
%TO.N,Net-(U7-P0.01{slash}XL2)*%
X170140000Y-96970000D03*
D20*
%TO.P,U7,14,P0.06*%
%TO.N,SDA*%
X172240000Y-96340000D03*
D19*
%TO.P,U7,15,P0.05/AIN3*%
%TO.N,unconnected-(U7-P0.05{slash}AIN3-Pad15)*%
X170140000Y-95700000D03*
D20*
%TO.P,U7,16,P0.08*%
%TO.N,SCL*%
X172240000Y-95070000D03*
D19*
%TO.P,U7,17,P1.09*%
%TO.N,unconnected-(U7-P1.09-Pad17)*%
X170140000Y-94430000D03*
D20*
%TO.P,U7,18,P0.04/AIN2*%
%TO.N,unconnected-(U7-P0.04{slash}AIN2-Pad18)*%
X172240000Y-93800000D03*
D19*
%TO.P,U7,19,VDD*%
%TO.N,VDD_NRF*%
X170140000Y-93160000D03*
D20*
%TO.P,U7,20,P0.12*%
%TO.N,unconnected-(U7-P0.12-Pad20)*%
X172240000Y-92530000D03*
D19*
%TO.P,U7,21,GND*%
%TO.N,GND*%
X170140000Y-91890000D03*
D20*
%TO.P,U7,22,P0.07*%
%TO.N,unconnected-(U7-P0.07-Pad22)*%
X172240000Y-91260000D03*
D19*
%TO.P,U7,23,VDDH*%
%TO.N,VDDH*%
X170140000Y-90620000D03*
D20*
%TO.P,U7,24,GND*%
%TO.N,GND*%
X172240000Y-89990000D03*
D19*
%TO.P,U7,25,DCCH*%
%TO.N,Net-(U7-DCCH)*%
X170140000Y-89350000D03*
D18*
%TO.P,U7,26,P0.18/~{RESET}*%
%TO.N,RESET*%
X172740000Y-87300000D03*
%TO.P,U7,27,VBUS*%
%TO.N,VBUS*%
X174010000Y-87300000D03*
D20*
%TO.P,U7,28,P0.15*%
%TO.N,BLED*%
X174645000Y-89400000D03*
D18*
%TO.P,U7,29,D-*%
%TO.N,D-*%
X175280000Y-87300000D03*
D20*
%TO.P,U7,30,P0.17*%
%TO.N,INT1*%
X175915000Y-89400000D03*
D18*
%TO.P,U7,31,D+*%
%TO.N,D+*%
X176550000Y-87300000D03*
D20*
%TO.P,U7,32,P0.20*%
%TO.N,CLK_CTL*%
X177185000Y-89400000D03*
D18*
%TO.P,U7,33,P0.13*%
%TO.N,POWER_PIN*%
X177820000Y-87300000D03*
D20*
%TO.P,U7,34,P0.22*%
%TO.N,CS*%
X178455000Y-89400000D03*
D18*
%TO.P,U7,35,P0.24*%
%TO.N,SDO*%
X179090000Y-87300000D03*
D20*
%TO.P,U7,36,P1.00*%
%TO.N,SW0*%
X179725000Y-89400000D03*
D18*
%TO.P,U7,37,SWDIO*%
%TO.N,SWD*%
X180360000Y-87300000D03*
D20*
%TO.P,U7,38,P1.02*%
%TO.N,unconnected-(U7-P1.02-Pad38)*%
X180995000Y-89400000D03*
D18*
%TO.P,U7,39,SWDCLK*%
%TO.N,SWC*%
X181630000Y-87300000D03*
D20*
%TO.P,U7,40,P1.04*%
%TO.N,unconnected-(U7-P1.04-Pad40)*%
X182265000Y-89400000D03*
D18*
%TO.P,U7,41,P0.09/NFC1*%
%TO.N,unconnected-(U7-P0.09{slash}NFC1-Pad41)*%
X182900000Y-87300000D03*
D20*
%TO.P,U7,42,P1.06*%
%TO.N,unconnected-(U7-P1.06-Pad42)*%
X183535000Y-89400000D03*
D18*
%TO.P,U7,43,P0.10/NFC2*%
%TO.N,unconnected-(U7-P0.10{slash}NFC2-Pad43)*%
X184170000Y-87300000D03*
%TD*%
D21*
%TO.N,VDDH*%
X176500000Y-85550000D03*
X168600000Y-91450000D03*
%TO.N,GND*%
X174200000Y-77600000D03*
X175750000Y-82250000D03*
X176500000Y-93000000D03*
X170300000Y-85100000D03*
X181850000Y-93850000D03*
X179450000Y-98250000D03*
X184050000Y-81750000D03*
X167350000Y-79500000D03*
X180750000Y-98250000D03*
X180100000Y-98250000D03*
X166650000Y-78100000D03*
X167650000Y-87850000D03*
X166650000Y-79500000D03*
X183350000Y-81750000D03*
X168050000Y-78100000D03*
X174300000Y-85750000D03*
X184350000Y-95400000D03*
X175500000Y-98100000D03*
X181850000Y-93100000D03*
X181400000Y-98250000D03*
X184350000Y-96800000D03*
X168050000Y-79500000D03*
X168050000Y-78800000D03*
X167150000Y-96500000D03*
X170900000Y-80950000D03*
X167150000Y-99850000D03*
X168450000Y-100650000D03*
X182650000Y-81750000D03*
X181850000Y-94550000D03*
X167677088Y-94577088D03*
X166650000Y-78800000D03*
X166400000Y-95800000D03*
X183250000Y-85350000D03*
X168600000Y-87850000D03*
X166400000Y-97200000D03*
X184350000Y-97500000D03*
X177250000Y-98650000D03*
X173750000Y-83650000D03*
X167350000Y-78800000D03*
X167350000Y-78100000D03*
X184350000Y-96100000D03*
X166400000Y-99850000D03*
X174425735Y-92425735D03*
X166400000Y-96500000D03*
%TO.N,VBUS*%
X174025000Y-82725000D03*
X178582318Y-83968243D03*
X174550000Y-91600000D03*
X168950000Y-83250000D03*
%TO.N,Net-(U7-P0.01{slash}XL2)*%
X171800000Y-99000000D03*
%TO.N,Net-(U7-P0.00{slash}XL1)*%
X169700000Y-99300000D03*
%TO.N,Net-(U7-DCCH)*%
X166350000Y-90950000D03*
%TO.N,VDD_NRF*%
X166350000Y-94500000D03*
%TO.N,+3V3*%
X176500000Y-94290500D03*
X173700000Y-93000000D03*
X169350000Y-88300000D03*
X173000000Y-98700000D03*
X174700000Y-98200000D03*
X176600000Y-96300000D03*
X168400000Y-97400000D03*
%TO.N,BLED*%
X170148437Y-88349998D03*
%TO.N,Net-(J1-CC1)*%
X166450000Y-82800000D03*
%TO.N,Net-(J1-CC2)*%
X170900000Y-79850000D03*
%TO.N,Net-(JP1-B)*%
X178300000Y-90450000D03*
X176300000Y-78900000D03*
%TO.N,Net-(JP1-A)*%
X173650000Y-88850000D03*
X174350000Y-78500000D03*
%TO.N,SDO*%
X173775000Y-96875000D03*
X184400000Y-90250000D03*
%TO.N,SDA*%
X173050000Y-96350000D03*
%TO.N,CS*%
X173517250Y-94182750D03*
X178891051Y-91947017D03*
%TO.N,SCL*%
X173070000Y-95070000D03*
%TO.N,RESET*%
X173850000Y-76000000D03*
X167650000Y-81150000D03*
%TO.N,SW0*%
X181250000Y-80750000D03*
X180000000Y-90300000D03*
%TO.N,INT1*%
X176820000Y-97880000D03*
%TO.N,CLK_CTL*%
X181500000Y-96300000D03*
%TO.N,Net-(SW1-A)*%
X181300000Y-78350000D03*
X180700000Y-78350000D03*
%TD*%
D10*
%TO.N,VDDH*%
X169130000Y-90620000D02*
X170140000Y-90620000D01*
X168600000Y-91450000D02*
X168600000Y-91150000D01*
X168600000Y-91150000D02*
X169130000Y-90620000D01*
D22*
%TO.N,GND*%
X168689000Y-92209000D02*
X167677088Y-93220912D01*
X173550000Y-91662075D02*
X173550000Y-90768000D01*
D10*
X171340000Y-91890000D02*
X171489000Y-91741000D01*
D22*
X173550000Y-90768000D02*
X172772000Y-89990000D01*
X172795000Y-77080000D02*
X173922000Y-77080000D01*
X169821000Y-92209000D02*
X168689000Y-92209000D01*
X167677088Y-93220912D02*
X167677088Y-94577088D01*
X174200000Y-77358000D02*
X174200000Y-77600000D01*
D10*
X175800000Y-98100000D02*
X175500000Y-98100000D01*
D22*
X172772000Y-89990000D02*
X172240000Y-89990000D01*
X170140000Y-91890000D02*
X169821000Y-92209000D01*
D10*
X171489000Y-91741000D02*
X171489000Y-90509000D01*
X170140000Y-91890000D02*
X171340000Y-91890000D01*
D22*
X174313660Y-92425735D02*
X173550000Y-91662075D01*
X173922000Y-77080000D02*
X174200000Y-77358000D01*
D10*
X176350000Y-98650000D02*
X175800000Y-98100000D01*
X171489000Y-90509000D02*
X172008000Y-89990000D01*
X172008000Y-89990000D02*
X172240000Y-89990000D01*
X177250000Y-98650000D02*
X176350000Y-98650000D01*
D22*
X174425735Y-92425735D02*
X174313660Y-92425735D01*
D23*
%TO.N,VBUS*%
X168950000Y-83250000D02*
X168950000Y-80262570D01*
D10*
X171866008Y-77880000D02*
X171630008Y-78116000D01*
X178300561Y-84250000D02*
X174950057Y-84250000D01*
X173699000Y-85501057D02*
X173699000Y-86989000D01*
X174950057Y-84250000D02*
X173699000Y-85501057D01*
D23*
X170996570Y-78216000D02*
X171473480Y-78216000D01*
D10*
X178582318Y-83968243D02*
X178300561Y-84250000D01*
X168950000Y-80300000D02*
X168950000Y-83250000D01*
D23*
X168950000Y-80262570D02*
X170996570Y-78216000D01*
D22*
X173970000Y-82780000D02*
X174025000Y-82725000D01*
D10*
X171630008Y-78116000D02*
X171134000Y-78116000D01*
D22*
X172795000Y-82780000D02*
X173970000Y-82780000D01*
D10*
X173699000Y-86989000D02*
X174010000Y-87300000D01*
X171134000Y-78116000D02*
X168950000Y-80300000D01*
X172795000Y-77880000D02*
X171866008Y-77880000D01*
%TO.N,Net-(U7-P0.01{slash}XL2)*%
X171467250Y-98667250D02*
X171800000Y-99000000D01*
X171467250Y-97119000D02*
X171467250Y-98667250D01*
X171318250Y-96970000D02*
X171467250Y-97119000D01*
X170118250Y-96970000D02*
X171318250Y-96970000D01*
%TO.N,Net-(U7-P0.00{slash}XL1)*%
X170118250Y-98881750D02*
X169700000Y-99300000D01*
X170118250Y-98240000D02*
X170118250Y-98881750D01*
%TO.N,Net-(U7-DCCH)*%
X167950000Y-89350000D02*
X170140000Y-89350000D01*
X166350000Y-90950000D02*
X167950000Y-89350000D01*
%TO.N,VDD_NRF*%
X168839000Y-94511000D02*
X168839000Y-93261000D01*
X168839000Y-93261000D02*
X168940000Y-93160000D01*
X168940000Y-93160000D02*
X170140000Y-93160000D01*
X166350000Y-94500000D02*
X167250000Y-95400000D01*
X167950000Y-95400000D02*
X168839000Y-94511000D01*
X167250000Y-95400000D02*
X167950000Y-95400000D01*
%TO.N,BLED*%
X171149998Y-88349998D02*
X171951000Y-89151000D01*
X171951000Y-89151000D02*
X172870898Y-89151000D01*
X170148437Y-88349998D02*
X171149998Y-88349998D01*
X172870898Y-89151000D02*
X173170898Y-89451000D01*
X174594000Y-89451000D02*
X174645000Y-89400000D01*
X173170898Y-89451000D02*
X174594000Y-89451000D01*
%TO.N,Net-(J1-CC1)*%
X172795000Y-81580000D02*
X171818000Y-81580000D01*
X168701057Y-83851000D02*
X167650057Y-82800000D01*
X169547000Y-83851000D02*
X168701057Y-83851000D01*
X171818000Y-81580000D02*
X169547000Y-83851000D01*
X167650057Y-82800000D02*
X166450000Y-82800000D01*
%TO.N,Net-(J1-CC2)*%
X171910000Y-78580000D02*
X170900000Y-79590000D01*
X170900000Y-79590000D02*
X170900000Y-79850000D01*
X172795000Y-78580000D02*
X171910000Y-78580000D01*
%TO.N,D-*%
X172795000Y-80080000D02*
X171818000Y-80080000D01*
X173821000Y-81321000D02*
X173821000Y-81129000D01*
X179183318Y-83682318D02*
X178352000Y-82851000D01*
X173772000Y-81080000D02*
X172795000Y-81080000D01*
X178352000Y-82851000D02*
X175351000Y-82851000D01*
X173821000Y-81129000D02*
X173772000Y-81080000D01*
X171818000Y-80080000D02*
X171769000Y-80129000D01*
X171769000Y-80129000D02*
X171769000Y-81031000D01*
X178749504Y-84651000D02*
X179183318Y-84217186D01*
X175351000Y-82851000D02*
X173821000Y-81321000D01*
X171769000Y-81031000D02*
X171818000Y-81080000D01*
X175280000Y-87300000D02*
X175280000Y-84651000D01*
X179183318Y-84217186D02*
X179183318Y-83682318D01*
X171818000Y-81080000D02*
X172795000Y-81080000D01*
X175280000Y-84651000D02*
X178749504Y-84651000D01*
%TO.N,D+*%
X173821000Y-80531000D02*
X173772000Y-80580000D01*
X175400943Y-78299000D02*
X174070943Y-79629000D01*
X176901000Y-78651057D02*
X176548943Y-78299000D01*
X176550000Y-86468000D02*
X177966000Y-85052000D01*
X176548943Y-78299000D02*
X175400943Y-78299000D01*
X173821000Y-79629000D02*
X173821000Y-80531000D01*
X174070943Y-79629000D02*
X173821000Y-79629000D01*
X173772000Y-80580000D02*
X172795000Y-80580000D01*
X179584318Y-84383286D02*
X179584318Y-82933318D01*
X172795000Y-79580000D02*
X173772000Y-79580000D01*
X177966000Y-85052000D02*
X178915604Y-85052000D01*
X178915604Y-85052000D02*
X179584318Y-84383286D01*
X176901000Y-80250000D02*
X176901000Y-78651057D01*
X179584318Y-82933318D02*
X176901000Y-80250000D01*
X176550000Y-87300000D02*
X176550000Y-86468000D01*
X173772000Y-79580000D02*
X173821000Y-79629000D01*
%TO.N,SDO*%
X179192000Y-88602000D02*
X184239000Y-88602000D01*
X184400000Y-88763000D02*
X184400000Y-90250000D01*
X179090000Y-87300000D02*
X179090000Y-88500000D01*
X179090000Y-88500000D02*
X179192000Y-88602000D01*
X184239000Y-88602000D02*
X184400000Y-88763000D01*
%TO.N,SDA*%
X173040000Y-96340000D02*
X173050000Y-96350000D01*
X172218250Y-96340000D02*
X173040000Y-96340000D01*
%TO.N,CS*%
X178900000Y-91938068D02*
X178900000Y-90900000D01*
X178901000Y-90899000D02*
X178901000Y-89846000D01*
X178900000Y-90900000D02*
X178901000Y-90899000D01*
X178891051Y-91947017D02*
X178900000Y-91938068D01*
X178901000Y-89846000D02*
X178455000Y-89400000D01*
%TO.N,SCL*%
X172218250Y-95070000D02*
X173070000Y-95070000D01*
%TO.N,RESET*%
X176301000Y-75799000D02*
X174051000Y-75799000D01*
X165849000Y-84231785D02*
X165849000Y-82551057D01*
X165849000Y-82551057D02*
X167250057Y-81150000D01*
X167250057Y-81150000D02*
X167650000Y-81150000D01*
X167650000Y-81150000D02*
X167700000Y-81150000D01*
X174051000Y-75799000D02*
X173850000Y-76000000D01*
X179475000Y-80500000D02*
X176301000Y-77326000D01*
X172740000Y-87300000D02*
X168917215Y-87300000D01*
X176301000Y-77326000D02*
X176301000Y-75799000D01*
X168917215Y-87300000D02*
X165849000Y-84231785D01*
%TO.N,SW0*%
X181500000Y-80700000D02*
X181266968Y-80700000D01*
X179725000Y-90025000D02*
X180000000Y-90300000D01*
X179725000Y-89400000D02*
X179725000Y-90025000D01*
X182503014Y-77100000D02*
X182801000Y-77397986D01*
X182801000Y-77397986D02*
X182801000Y-79399000D01*
X179575000Y-77100000D02*
X182503014Y-77100000D01*
X182801000Y-79399000D02*
X181500000Y-80700000D01*
X179475000Y-77000000D02*
X179575000Y-77100000D01*
%TO.N,INT1*%
X176820000Y-97880000D02*
X176820000Y-97620000D01*
X175893250Y-96693250D02*
X175893250Y-89400000D01*
X176820000Y-97620000D02*
X175893250Y-96693250D01*
%TO.N,CLK_CTL*%
X177163250Y-92963250D02*
X180500000Y-96300000D01*
X177185000Y-92941500D02*
X177185000Y-89400000D01*
X180500000Y-96300000D02*
X181500000Y-96300000D01*
X177163250Y-92963250D02*
X177185000Y-92941500D01*
%TD*%
%TA.AperFunction,Conductor*%
%TO.N,GND*%
G36*
X165893391Y-95157657D02*
G01*
X165970821Y-95209394D01*
X165970823Y-95209395D01*
X165970827Y-95209397D01*
X166094828Y-95260759D01*
X166116503Y-95269737D01*
X166181147Y-95282595D01*
X166271849Y-95300638D01*
X166333760Y-95333023D01*
X166335339Y-95334574D01*
X166765139Y-95764374D01*
X166765149Y-95764385D01*
X166769479Y-95768715D01*
X166769480Y-95768716D01*
X166881284Y-95880520D01*
X166951088Y-95920821D01*
X167018215Y-95959577D01*
X167170942Y-96000500D01*
X167170943Y-96000500D01*
X167863331Y-96000500D01*
X167863347Y-96000501D01*
X167870943Y-96000501D01*
X168029054Y-96000501D01*
X168029057Y-96000501D01*
X168181785Y-95959577D01*
X168248912Y-95920821D01*
X168318716Y-95880520D01*
X168427822Y-95771413D01*
X168489141Y-95737931D01*
X168558833Y-95742915D01*
X168614767Y-95784786D01*
X168639184Y-95850250D01*
X168639500Y-95859097D01*
X168639500Y-96247870D01*
X168639501Y-96247876D01*
X168646738Y-96315196D01*
X168646404Y-96315231D01*
X168648732Y-96343083D01*
X168647792Y-96357467D01*
X168645909Y-96362517D01*
X168639500Y-96422127D01*
X168639500Y-96484403D01*
X168639236Y-96488445D01*
X168628563Y-96517605D01*
X168619815Y-96547401D01*
X168616658Y-96550135D01*
X168615223Y-96554059D01*
X168590475Y-96572823D01*
X168567011Y-96593156D01*
X168562877Y-96593750D01*
X168559549Y-96596274D01*
X168528593Y-96598679D01*
X168497853Y-96603100D01*
X168491310Y-96601980D01*
X168478842Y-96599500D01*
X168321158Y-96599500D01*
X168321155Y-96599500D01*
X168166510Y-96630261D01*
X168166498Y-96630264D01*
X168020827Y-96690602D01*
X168020814Y-96690609D01*
X167889711Y-96778210D01*
X167889707Y-96778213D01*
X167778213Y-96889707D01*
X167778210Y-96889711D01*
X167690609Y-97020814D01*
X167690602Y-97020827D01*
X167630264Y-97166498D01*
X167630261Y-97166510D01*
X167599500Y-97321153D01*
X167599500Y-97478846D01*
X167630261Y-97633489D01*
X167630264Y-97633501D01*
X167690602Y-97779172D01*
X167690609Y-97779185D01*
X167778210Y-97910288D01*
X167778213Y-97910292D01*
X167889707Y-98021786D01*
X167889711Y-98021789D01*
X168020814Y-98109390D01*
X168020827Y-98109397D01*
X168160499Y-98167250D01*
X168166503Y-98169737D01*
X168308695Y-98198021D01*
X168321153Y-98200499D01*
X168321156Y-98200500D01*
X168321158Y-98200500D01*
X168478843Y-98200500D01*
X168483474Y-98199578D01*
X168491304Y-98198021D01*
X168560895Y-98204245D01*
X168616074Y-98247106D01*
X168639322Y-98312994D01*
X168639500Y-98319637D01*
X168639500Y-98787870D01*
X168639501Y-98787876D01*
X168645908Y-98847483D01*
X168696202Y-98982328D01*
X168696206Y-98982335D01*
X168765358Y-99074709D01*
X168782454Y-99097546D01*
X168849811Y-99147970D01*
X168891682Y-99203903D01*
X168899500Y-99247236D01*
X168899500Y-99378846D01*
X168930261Y-99533489D01*
X168930264Y-99533501D01*
X168990602Y-99679172D01*
X168990609Y-99679185D01*
X169078210Y-99810288D01*
X169078213Y-99810292D01*
X169189707Y-99921786D01*
X169189711Y-99921789D01*
X169320814Y-100009390D01*
X169320827Y-100009397D01*
X169466498Y-100069735D01*
X169466503Y-100069737D01*
X169621153Y-100100499D01*
X169621156Y-100100500D01*
X169621158Y-100100500D01*
X169778844Y-100100500D01*
X169778845Y-100100499D01*
X169933497Y-100069737D01*
X170079179Y-100009394D01*
X170210289Y-99921789D01*
X170321789Y-99810289D01*
X170409394Y-99679179D01*
X170469737Y-99533497D01*
X170500500Y-99378842D01*
X170500500Y-99378840D01*
X170500637Y-99378152D01*
X170509402Y-99361394D01*
X170513423Y-99342913D01*
X170532163Y-99317879D01*
X170533021Y-99316241D01*
X170534464Y-99314772D01*
X170572421Y-99276815D01*
X170633745Y-99243332D01*
X170660100Y-99240499D01*
X170950309Y-99240499D01*
X171017348Y-99260184D01*
X171063103Y-99312988D01*
X171064870Y-99317047D01*
X171090602Y-99379172D01*
X171090609Y-99379185D01*
X171178210Y-99510288D01*
X171178213Y-99510292D01*
X171289707Y-99621786D01*
X171289711Y-99621789D01*
X171420814Y-99709390D01*
X171420827Y-99709397D01*
X171566498Y-99769735D01*
X171566503Y-99769737D01*
X171639692Y-99784295D01*
X171701602Y-99816679D01*
X171736176Y-99877395D01*
X171739500Y-99905912D01*
X171739501Y-101175500D01*
X171719816Y-101242539D01*
X171667013Y-101288294D01*
X171615501Y-101299500D01*
X166158676Y-101299500D01*
X166091637Y-101279815D01*
X166070995Y-101263181D01*
X165736819Y-100929005D01*
X165703334Y-100867682D01*
X165700500Y-100841324D01*
X165700500Y-95260759D01*
X165720185Y-95193720D01*
X165772989Y-95147965D01*
X165842147Y-95138021D01*
X165893391Y-95157657D01*
G37*
%TD.AperFunction*%
%TA.AperFunction,Conductor*%
G36*
X182943327Y-90331338D02*
G01*
X182977517Y-90344091D01*
X183037127Y-90350500D01*
X183502043Y-90350499D01*
X183569082Y-90370183D01*
X183614837Y-90422987D01*
X183623660Y-90450305D01*
X183630262Y-90483494D01*
X183630264Y-90483501D01*
X183690602Y-90629172D01*
X183690609Y-90629185D01*
X183778210Y-90760288D01*
X183778213Y-90760292D01*
X183889707Y-90871786D01*
X183889711Y-90871789D01*
X184020814Y-90959390D01*
X184020827Y-90959397D01*
X184166498Y-91019735D01*
X184166503Y-91019737D01*
X184321153Y-91050499D01*
X184321156Y-91050500D01*
X184321158Y-91050500D01*
X184478843Y-91050500D01*
X184494564Y-91047372D01*
X184551309Y-91036085D01*
X184620899Y-91042312D01*
X184676077Y-91085174D01*
X184699322Y-91151063D01*
X184699500Y-91157702D01*
X184699500Y-98675500D01*
X184679815Y-98742539D01*
X184627011Y-98788294D01*
X184575500Y-98799500D01*
X183622129Y-98799500D01*
X183622123Y-98799501D01*
X183554804Y-98806738D01*
X183554690Y-98805674D01*
X183515310Y-98805674D01*
X183515196Y-98806738D01*
X183447883Y-98799501D01*
X183447881Y-98799500D01*
X183447873Y-98799500D01*
X183447864Y-98799500D01*
X182352129Y-98799500D01*
X182352123Y-98799501D01*
X182284804Y-98806738D01*
X182284690Y-98805674D01*
X182245310Y-98805674D01*
X182245196Y-98806738D01*
X182177883Y-98799501D01*
X182177881Y-98799500D01*
X182177873Y-98799500D01*
X182177864Y-98799500D01*
X181082129Y-98799500D01*
X181082123Y-98799501D01*
X181014804Y-98806738D01*
X181014690Y-98805674D01*
X180975310Y-98805674D01*
X180975196Y-98806738D01*
X180907883Y-98799501D01*
X180907881Y-98799500D01*
X180907873Y-98799500D01*
X180907864Y-98799500D01*
X179812129Y-98799500D01*
X179812123Y-98799501D01*
X179752516Y-98805908D01*
X179617671Y-98856202D01*
X179617664Y-98856206D01*
X179502455Y-98942452D01*
X179502452Y-98942455D01*
X179416206Y-99057664D01*
X179416202Y-99057671D01*
X179365908Y-99192517D01*
X179359501Y-99252116D01*
X179359501Y-99252123D01*
X179359500Y-99252135D01*
X179359501Y-101175500D01*
X179339816Y-101242539D01*
X179287013Y-101288294D01*
X179235501Y-101299500D01*
X178944500Y-101299500D01*
X178877461Y-101279815D01*
X178831706Y-101227011D01*
X178820500Y-101175500D01*
X178820499Y-99252129D01*
X178820498Y-99252123D01*
X178820497Y-99252116D01*
X178814091Y-99192517D01*
X178810838Y-99183796D01*
X178763797Y-99057671D01*
X178763793Y-99057664D01*
X178677547Y-98942455D01*
X178677544Y-98942452D01*
X178562335Y-98856206D01*
X178562328Y-98856202D01*
X178427482Y-98805908D01*
X178427483Y-98805908D01*
X178367883Y-98799501D01*
X178367881Y-98799500D01*
X178367873Y-98799500D01*
X178367865Y-98799500D01*
X177293505Y-98799500D01*
X177226466Y-98779815D01*
X177180711Y-98727011D01*
X177170767Y-98657853D01*
X177199792Y-98594297D01*
X177224609Y-98572401D01*
X177330289Y-98501789D01*
X177441789Y-98390289D01*
X177529394Y-98259179D01*
X177589737Y-98113497D01*
X177620500Y-97958842D01*
X177620500Y-97801158D01*
X177620500Y-97801155D01*
X177620499Y-97801153D01*
X177589738Y-97646506D01*
X177589735Y-97646498D01*
X177529397Y-97500827D01*
X177529390Y-97500814D01*
X177441789Y-97369711D01*
X177441786Y-97369707D01*
X177330289Y-97258210D01*
X177271603Y-97218998D01*
X177252818Y-97203582D01*
X177188716Y-97139480D01*
X177188713Y-97139478D01*
X177128338Y-97079103D01*
X177094853Y-97017780D01*
X177099837Y-96948088D01*
X177128338Y-96903741D01*
X177221786Y-96810292D01*
X177221789Y-96810289D01*
X177309394Y-96679179D01*
X177369737Y-96533497D01*
X177400500Y-96378842D01*
X177400500Y-96221158D01*
X177400500Y-96221155D01*
X177400499Y-96221153D01*
X177369737Y-96066503D01*
X177343060Y-96002099D01*
X177309397Y-95920827D01*
X177309390Y-95920814D01*
X177221789Y-95789711D01*
X177221786Y-95789707D01*
X177110292Y-95678213D01*
X177110288Y-95678210D01*
X176979185Y-95590609D01*
X176979172Y-95590602D01*
X176833501Y-95530264D01*
X176833489Y-95530261D01*
X176678845Y-95499500D01*
X176678842Y-95499500D01*
X176617750Y-95499500D01*
X176609064Y-95496949D01*
X176600103Y-95498238D01*
X176576062Y-95487259D01*
X176550711Y-95479815D01*
X176544783Y-95472974D01*
X176536547Y-95469213D01*
X176522257Y-95446978D01*
X176504956Y-95427011D01*
X176502668Y-95416496D01*
X176498773Y-95410435D01*
X176493750Y-95375500D01*
X176493750Y-95209690D01*
X176513435Y-95142651D01*
X176566239Y-95096896D01*
X176593559Y-95088073D01*
X176651109Y-95076625D01*
X176733497Y-95060237D01*
X176879179Y-94999894D01*
X177010289Y-94912289D01*
X177121789Y-94800789D01*
X177209394Y-94669679D01*
X177269737Y-94523997D01*
X177300500Y-94369342D01*
X177300500Y-94249097D01*
X177320185Y-94182058D01*
X177372989Y-94136303D01*
X177442147Y-94126359D01*
X177505703Y-94155384D01*
X177512181Y-94161416D01*
X180015139Y-96664374D01*
X180015149Y-96664385D01*
X180019479Y-96668715D01*
X180019480Y-96668716D01*
X180131284Y-96780520D01*
X180131286Y-96780521D01*
X180131290Y-96780524D01*
X180200562Y-96820518D01*
X180200566Y-96820519D01*
X180200567Y-96820520D01*
X180234391Y-96840048D01*
X180268212Y-96859576D01*
X180268214Y-96859576D01*
X180268215Y-96859577D01*
X180420943Y-96900500D01*
X180920234Y-96900500D01*
X180987273Y-96920185D01*
X180989125Y-96921398D01*
X181120814Y-97009390D01*
X181120827Y-97009397D01*
X181247725Y-97061959D01*
X181266503Y-97069737D01*
X181421153Y-97100499D01*
X181421156Y-97100500D01*
X181421158Y-97100500D01*
X181578844Y-97100500D01*
X181578845Y-97100499D01*
X181733497Y-97069737D01*
X181851592Y-97020821D01*
X181879172Y-97009397D01*
X181879172Y-97009396D01*
X181879179Y-97009394D01*
X182010289Y-96921789D01*
X182121789Y-96810289D01*
X182209394Y-96679179D01*
X182269737Y-96533497D01*
X182300500Y-96378842D01*
X182300500Y-96221158D01*
X182300500Y-96221155D01*
X182300499Y-96221153D01*
X182269737Y-96066503D01*
X182243060Y-96002099D01*
X182209397Y-95920827D01*
X182209390Y-95920814D01*
X182121789Y-95789711D01*
X182121786Y-95789707D01*
X182010292Y-95678213D01*
X182010288Y-95678210D01*
X181879185Y-95590609D01*
X181879172Y-95590602D01*
X181733501Y-95530264D01*
X181733489Y-95530261D01*
X181578845Y-95499500D01*
X181578842Y-95499500D01*
X181421158Y-95499500D01*
X181421155Y-95499500D01*
X181266510Y-95530261D01*
X181266498Y-95530264D01*
X181120827Y-95590602D01*
X181120814Y-95590609D01*
X180989125Y-95678602D01*
X180971078Y-95684252D01*
X180955169Y-95694477D01*
X180924207Y-95698928D01*
X180922447Y-95699480D01*
X180920234Y-95699500D01*
X180800097Y-95699500D01*
X180733058Y-95679815D01*
X180712416Y-95663181D01*
X177821819Y-92772584D01*
X177788334Y-92711261D01*
X177785500Y-92684903D01*
X177785500Y-91288921D01*
X177805185Y-91221882D01*
X177857989Y-91176127D01*
X177927147Y-91166183D01*
X177956953Y-91174360D01*
X178066503Y-91219737D01*
X178135548Y-91233471D01*
X178191440Y-91244589D01*
X178253351Y-91276974D01*
X178287925Y-91337689D01*
X178284186Y-91407459D01*
X178270351Y-91435097D01*
X178181660Y-91567831D01*
X178181653Y-91567844D01*
X178121315Y-91713515D01*
X178121312Y-91713527D01*
X178090551Y-91868170D01*
X178090551Y-92025863D01*
X178121312Y-92180506D01*
X178121315Y-92180518D01*
X178181653Y-92326189D01*
X178181660Y-92326202D01*
X178269261Y-92457305D01*
X178269264Y-92457309D01*
X178380758Y-92568803D01*
X178380762Y-92568806D01*
X178511865Y-92656407D01*
X178511878Y-92656414D01*
X178657549Y-92716752D01*
X178657554Y-92716754D01*
X178755642Y-92736265D01*
X178812204Y-92747516D01*
X178812207Y-92747517D01*
X178812209Y-92747517D01*
X178969895Y-92747517D01*
X178969896Y-92747516D01*
X179124548Y-92716754D01*
X179270230Y-92656411D01*
X179401340Y-92568806D01*
X179512840Y-92457306D01*
X179600445Y-92326196D01*
X179660788Y-92180514D01*
X179691551Y-92025859D01*
X179691551Y-91868175D01*
X179691551Y-91868172D01*
X179691550Y-91868170D01*
X179669610Y-91757872D01*
X179660788Y-91713520D01*
X179653965Y-91697047D01*
X179600448Y-91567844D01*
X179600441Y-91567831D01*
X179521398Y-91449535D01*
X179515747Y-91431488D01*
X179505523Y-91415579D01*
X179501071Y-91384617D01*
X179500520Y-91382857D01*
X179500500Y-91380644D01*
X179500500Y-91145134D01*
X179520185Y-91078095D01*
X179572989Y-91032340D01*
X179642147Y-91022396D01*
X179671950Y-91030572D01*
X179766503Y-91069737D01*
X179921153Y-91100499D01*
X179921156Y-91100500D01*
X179921158Y-91100500D01*
X180078844Y-91100500D01*
X180078845Y-91100499D01*
X180233497Y-91069737D01*
X180379179Y-91009394D01*
X180510289Y-90921789D01*
X180621789Y-90810289D01*
X180709394Y-90679179D01*
X180769737Y-90533497D01*
X180781884Y-90472431D01*
X180786285Y-90450308D01*
X180818670Y-90388397D01*
X180879386Y-90353823D01*
X180907902Y-90350499D01*
X181492871Y-90350499D01*
X181492872Y-90350499D01*
X181552483Y-90344091D01*
X181586667Y-90331340D01*
X181656358Y-90326357D01*
X181673327Y-90331338D01*
X181707517Y-90344091D01*
X181767127Y-90350500D01*
X182762872Y-90350499D01*
X182822483Y-90344091D01*
X182856667Y-90331340D01*
X182926358Y-90326357D01*
X182943327Y-90331338D01*
G37*
%TD.AperFunction*%
%TA.AperFunction,Conductor*%
G36*
X175212084Y-92172509D02*
G01*
X175268017Y-92214381D01*
X175292434Y-92279845D01*
X175292750Y-92288691D01*
X175292750Y-96606580D01*
X175292749Y-96606598D01*
X175292749Y-96772304D01*
X175292748Y-96772304D01*
X175333673Y-96925035D01*
X175350305Y-96953842D01*
X175350304Y-96953842D01*
X175350305Y-96953843D01*
X175412725Y-97061959D01*
X175412731Y-97061967D01*
X175531599Y-97180835D01*
X175531605Y-97180840D01*
X175994603Y-97643838D01*
X176028088Y-97705161D01*
X176028540Y-97755709D01*
X176019500Y-97801159D01*
X176019500Y-97958846D01*
X176050261Y-98113489D01*
X176050264Y-98113501D01*
X176110602Y-98259172D01*
X176110609Y-98259185D01*
X176198210Y-98390288D01*
X176198213Y-98390292D01*
X176309707Y-98501786D01*
X176309711Y-98501789D01*
X176415384Y-98572398D01*
X176460189Y-98626010D01*
X176468896Y-98695335D01*
X176438742Y-98758363D01*
X176379298Y-98795082D01*
X176346493Y-98799500D01*
X176002130Y-98799500D01*
X176002123Y-98799501D01*
X175934804Y-98806738D01*
X175934690Y-98805674D01*
X175895310Y-98805674D01*
X175895196Y-98806738D01*
X175827883Y-98799501D01*
X175827881Y-98799500D01*
X175827873Y-98799500D01*
X175827865Y-98799500D01*
X175494168Y-98799500D01*
X175427129Y-98779815D01*
X175381374Y-98727011D01*
X175371430Y-98657853D01*
X175391067Y-98606608D01*
X175409389Y-98579187D01*
X175409390Y-98579184D01*
X175409394Y-98579179D01*
X175469737Y-98433497D01*
X175500500Y-98278842D01*
X175500500Y-98121158D01*
X175500500Y-98121155D01*
X175500499Y-98121153D01*
X175480734Y-98021789D01*
X175469737Y-97966503D01*
X175454726Y-97930263D01*
X175409397Y-97820827D01*
X175409390Y-97820814D01*
X175321789Y-97689711D01*
X175321786Y-97689707D01*
X175210292Y-97578213D01*
X175210288Y-97578210D01*
X175079185Y-97490609D01*
X175079172Y-97490602D01*
X174933501Y-97430264D01*
X174933489Y-97430261D01*
X174778845Y-97399500D01*
X174778842Y-97399500D01*
X174621158Y-97399500D01*
X174615066Y-97399500D01*
X174615066Y-97398189D01*
X174553045Y-97386417D01*
X174502342Y-97338344D01*
X174485678Y-97270491D01*
X174494992Y-97228592D01*
X174544737Y-97108497D01*
X174575500Y-96953842D01*
X174575500Y-96796158D01*
X174575500Y-96796155D01*
X174575499Y-96796153D01*
X174550149Y-96668713D01*
X174544737Y-96641503D01*
X174540081Y-96630263D01*
X174484397Y-96495827D01*
X174484390Y-96495814D01*
X174396789Y-96364711D01*
X174396786Y-96364707D01*
X174285292Y-96253213D01*
X174285288Y-96253210D01*
X174154185Y-96165609D01*
X174154172Y-96165602D01*
X174008501Y-96105264D01*
X174008491Y-96105261D01*
X173862719Y-96076265D01*
X173800808Y-96043880D01*
X173772350Y-96002101D01*
X173759394Y-95970821D01*
X173759390Y-95970814D01*
X173671789Y-95839711D01*
X173671786Y-95839707D01*
X173639759Y-95807680D01*
X173606274Y-95746357D01*
X173611258Y-95676665D01*
X173639756Y-95632321D01*
X173691789Y-95580289D01*
X173779394Y-95449179D01*
X173839737Y-95303497D01*
X173870500Y-95148842D01*
X173870500Y-94991158D01*
X173870500Y-94991156D01*
X173870236Y-94988476D01*
X173870500Y-94987084D01*
X173870500Y-94985066D01*
X173870883Y-94985066D01*
X173883256Y-94919830D01*
X173924746Y-94873222D01*
X174027539Y-94804539D01*
X174139039Y-94693039D01*
X174226644Y-94561929D01*
X174286987Y-94416247D01*
X174317750Y-94261592D01*
X174317750Y-94103908D01*
X174317750Y-94103905D01*
X174317749Y-94103903D01*
X174303284Y-94031183D01*
X174286987Y-93949253D01*
X174271275Y-93911321D01*
X174226647Y-93803577D01*
X174226640Y-93803564D01*
X174203819Y-93769410D01*
X174182941Y-93702732D01*
X174201426Y-93635352D01*
X174219236Y-93612841D01*
X174321789Y-93510289D01*
X174409394Y-93379179D01*
X174469737Y-93233497D01*
X174500500Y-93078842D01*
X174500500Y-92921158D01*
X174500500Y-92921155D01*
X174500499Y-92921153D01*
X174469737Y-92766503D01*
X174461873Y-92747517D01*
X174409397Y-92620827D01*
X174409389Y-92620812D01*
X174391067Y-92593392D01*
X174370188Y-92526715D01*
X174388672Y-92459334D01*
X174440650Y-92412644D01*
X174494168Y-92400500D01*
X174628844Y-92400500D01*
X174628845Y-92400499D01*
X174783497Y-92369737D01*
X174929179Y-92309394D01*
X175060289Y-92221789D01*
X175067697Y-92214381D01*
X175081069Y-92201010D01*
X175142392Y-92167525D01*
X175212084Y-92172509D01*
G37*
%TD.AperFunction*%
%TA.AperFunction,Conductor*%
G36*
X168582539Y-89970185D02*
G01*
X168628294Y-90022989D01*
X168639500Y-90074500D01*
X168639500Y-90209902D01*
X168619815Y-90276941D01*
X168603181Y-90297583D01*
X168119482Y-90781281D01*
X168119475Y-90781290D01*
X168104200Y-90807747D01*
X168084496Y-90833425D01*
X167978213Y-90939707D01*
X167978210Y-90939711D01*
X167890609Y-91070814D01*
X167890602Y-91070827D01*
X167830264Y-91216498D01*
X167830261Y-91216510D01*
X167799500Y-91371153D01*
X167799500Y-91528846D01*
X167830261Y-91683489D01*
X167830264Y-91683501D01*
X167890602Y-91829172D01*
X167890609Y-91829185D01*
X167978210Y-91960288D01*
X167978213Y-91960292D01*
X168089707Y-92071786D01*
X168089711Y-92071789D01*
X168220814Y-92159390D01*
X168220827Y-92159397D01*
X168366498Y-92219735D01*
X168366503Y-92219737D01*
X168517453Y-92249763D01*
X168521153Y-92250499D01*
X168521156Y-92250500D01*
X168579960Y-92250500D01*
X168606404Y-92258264D01*
X168633605Y-92262705D01*
X168639451Y-92267968D01*
X168646999Y-92270185D01*
X168665046Y-92291013D01*
X168685530Y-92309455D01*
X168687602Y-92317044D01*
X168692754Y-92322989D01*
X168696676Y-92350266D01*
X168703938Y-92376856D01*
X168701979Y-92387150D01*
X168702698Y-92392147D01*
X168698252Y-92411689D01*
X168696493Y-92417282D01*
X168696204Y-92417669D01*
X168645909Y-92552517D01*
X168641715Y-92591522D01*
X168638030Y-92603245D01*
X168625145Y-92622479D01*
X168616287Y-92643865D01*
X168603472Y-92654836D01*
X168599146Y-92661295D01*
X168592621Y-92664125D01*
X168581744Y-92673439D01*
X168571293Y-92679473D01*
X168571281Y-92679482D01*
X168358479Y-92892284D01*
X168343898Y-92917540D01*
X168337735Y-92928216D01*
X168279423Y-93029215D01*
X168238499Y-93181943D01*
X168238499Y-93181945D01*
X168238499Y-93350046D01*
X168238500Y-93350059D01*
X168238500Y-94210903D01*
X168218815Y-94277942D01*
X168202181Y-94298584D01*
X167737584Y-94763181D01*
X167710656Y-94777884D01*
X167684838Y-94794477D01*
X167678637Y-94795368D01*
X167676261Y-94796666D01*
X167649903Y-94799500D01*
X167550097Y-94799500D01*
X167483058Y-94779815D01*
X167462416Y-94763181D01*
X167184574Y-94485339D01*
X167151089Y-94424016D01*
X167150638Y-94421849D01*
X167119738Y-94266510D01*
X167119737Y-94266503D01*
X167117982Y-94262265D01*
X167059397Y-94120827D01*
X167059390Y-94120814D01*
X166971789Y-93989711D01*
X166971786Y-93989707D01*
X166860292Y-93878213D01*
X166860288Y-93878210D01*
X166729185Y-93790609D01*
X166729172Y-93790602D01*
X166583501Y-93730264D01*
X166583489Y-93730261D01*
X166428845Y-93699500D01*
X166428842Y-93699500D01*
X166271158Y-93699500D01*
X166271155Y-93699500D01*
X166116510Y-93730261D01*
X166116498Y-93730264D01*
X165970827Y-93790602D01*
X165970809Y-93790612D01*
X165893390Y-93842342D01*
X165826713Y-93863220D01*
X165759333Y-93844735D01*
X165712643Y-93792756D01*
X165700500Y-93739240D01*
X165700500Y-91710759D01*
X165720185Y-91643720D01*
X165772989Y-91597965D01*
X165842147Y-91588021D01*
X165893391Y-91607657D01*
X165912729Y-91620578D01*
X165970821Y-91659394D01*
X165970823Y-91659395D01*
X165970827Y-91659397D01*
X166116498Y-91719735D01*
X166116503Y-91719737D01*
X166271153Y-91750499D01*
X166271156Y-91750500D01*
X166271158Y-91750500D01*
X166428844Y-91750500D01*
X166428845Y-91750499D01*
X166583497Y-91719737D01*
X166729179Y-91659394D01*
X166860289Y-91571789D01*
X166971789Y-91460289D01*
X167059394Y-91329179D01*
X167119737Y-91183497D01*
X167142365Y-91069738D01*
X167150638Y-91028150D01*
X167183023Y-90966239D01*
X167184516Y-90964718D01*
X168162417Y-89986819D01*
X168223740Y-89953334D01*
X168250098Y-89950500D01*
X168515500Y-89950500D01*
X168582539Y-89970185D01*
G37*
%TD.AperFunction*%
%TA.AperFunction,Conductor*%
G36*
X171777453Y-89729021D02*
G01*
X171782144Y-89728347D01*
X171796581Y-89731307D01*
X171871943Y-89751501D01*
X171871946Y-89751501D01*
X172037653Y-89751501D01*
X172037669Y-89751500D01*
X172570801Y-89751500D01*
X172600241Y-89760144D01*
X172630228Y-89766668D01*
X172635243Y-89770422D01*
X172637840Y-89771185D01*
X172658482Y-89787819D01*
X172686037Y-89815374D01*
X172686047Y-89815385D01*
X172690377Y-89819715D01*
X172690378Y-89819716D01*
X172802182Y-89931520D01*
X172802184Y-89931521D01*
X172847152Y-89957483D01*
X172847153Y-89957483D01*
X172869152Y-89970185D01*
X172939107Y-90010574D01*
X172939108Y-90010574D01*
X172939113Y-90010577D01*
X173091841Y-90051500D01*
X173658568Y-90051500D01*
X173725607Y-90071185D01*
X173757834Y-90101189D01*
X173837452Y-90207544D01*
X173837455Y-90207547D01*
X173952664Y-90293793D01*
X173952671Y-90293797D01*
X174087517Y-90344091D01*
X174087516Y-90344091D01*
X174094444Y-90344835D01*
X174147127Y-90350500D01*
X175142872Y-90350499D01*
X175155491Y-90349142D01*
X175224249Y-90361544D01*
X175275389Y-90409152D01*
X175292750Y-90472431D01*
X175292750Y-90911309D01*
X175273065Y-90978348D01*
X175220261Y-91024103D01*
X175151103Y-91034047D01*
X175087547Y-91005022D01*
X175081069Y-90998990D01*
X175060292Y-90978213D01*
X175060288Y-90978210D01*
X174929185Y-90890609D01*
X174929172Y-90890602D01*
X174783501Y-90830264D01*
X174783489Y-90830261D01*
X174628845Y-90799500D01*
X174628842Y-90799500D01*
X174471158Y-90799500D01*
X174471155Y-90799500D01*
X174316510Y-90830261D01*
X174316498Y-90830264D01*
X174170827Y-90890602D01*
X174170814Y-90890609D01*
X174039711Y-90978210D01*
X174039707Y-90978213D01*
X173928213Y-91089707D01*
X173928210Y-91089711D01*
X173840609Y-91220814D01*
X173840602Y-91220827D01*
X173780264Y-91366498D01*
X173780261Y-91366510D01*
X173749500Y-91521153D01*
X173749500Y-91678846D01*
X173780261Y-91833489D01*
X173780264Y-91833501D01*
X173840602Y-91979172D01*
X173840610Y-91979187D01*
X173858933Y-92006608D01*
X173879812Y-92073285D01*
X173861328Y-92140666D01*
X173809350Y-92187356D01*
X173755832Y-92199500D01*
X173621155Y-92199500D01*
X173466510Y-92230261D01*
X173466498Y-92230264D01*
X173361951Y-92273569D01*
X173292482Y-92281038D01*
X173230003Y-92249763D01*
X173194351Y-92189673D01*
X173190499Y-92159008D01*
X173190499Y-92032129D01*
X173190498Y-92032123D01*
X173189825Y-92025863D01*
X173184091Y-91972517D01*
X173171340Y-91938332D01*
X173166357Y-91868642D01*
X173171340Y-91851669D01*
X173184091Y-91817483D01*
X173190500Y-91757873D01*
X173190499Y-90762128D01*
X173184091Y-90702517D01*
X173175386Y-90679179D01*
X173133797Y-90567671D01*
X173133793Y-90567664D01*
X173047547Y-90452455D01*
X173047544Y-90452452D01*
X172932335Y-90366206D01*
X172932328Y-90366202D01*
X172797482Y-90315908D01*
X172797483Y-90315908D01*
X172737883Y-90309501D01*
X172737881Y-90309500D01*
X172737873Y-90309500D01*
X172737865Y-90309500D01*
X171764499Y-90309500D01*
X171758656Y-90307784D01*
X171752678Y-90308935D01*
X171725522Y-90298055D01*
X171697460Y-90289815D01*
X171693473Y-90285214D01*
X171687821Y-90282950D01*
X171670857Y-90259114D01*
X171651705Y-90237011D01*
X171649936Y-90229717D01*
X171647308Y-90226024D01*
X171643395Y-90202740D01*
X171640638Y-90191366D01*
X171640499Y-90188431D01*
X171640499Y-90072128D01*
X171634091Y-90012517D01*
X171631887Y-90006610D01*
X171631142Y-89990865D01*
X171634330Y-89977738D01*
X171634330Y-89965311D01*
X171633261Y-89965197D01*
X171634089Y-89957485D01*
X171634091Y-89957483D01*
X171640500Y-89897873D01*
X171640499Y-89851084D01*
X171647542Y-89827096D01*
X171650511Y-89802272D01*
X171657215Y-89794151D01*
X171660182Y-89784048D01*
X171679075Y-89767675D01*
X171694996Y-89748394D01*
X171705027Y-89745187D01*
X171712985Y-89738292D01*
X171737730Y-89734733D01*
X171761549Y-89727120D01*
X171777453Y-89729021D01*
G37*
%TD.AperFunction*%
%TA.AperFunction,Conductor*%
G36*
X171232540Y-91640184D02*
G01*
X171278295Y-91692988D01*
X171289501Y-91744499D01*
X171289501Y-91757876D01*
X171295908Y-91817481D01*
X171308659Y-91851669D01*
X171314252Y-91918381D01*
X171312291Y-91928591D01*
X171295909Y-91972517D01*
X171289500Y-92032127D01*
X171289500Y-92047297D01*
X171287276Y-92058881D01*
X171276467Y-92079882D01*
X171269815Y-92102539D01*
X171260777Y-92110369D01*
X171255304Y-92121006D01*
X171234856Y-92132830D01*
X171217011Y-92148294D01*
X171202753Y-92151395D01*
X171194819Y-92155984D01*
X171183996Y-92155476D01*
X171165500Y-92159500D01*
X169320476Y-92159500D01*
X169253437Y-92139815D01*
X169207682Y-92087011D01*
X169197738Y-92017853D01*
X169220320Y-91966633D01*
X169218405Y-91965354D01*
X169309390Y-91829185D01*
X169309390Y-91829184D01*
X169309394Y-91829179D01*
X169314239Y-91817483D01*
X169364125Y-91697047D01*
X169407966Y-91642643D01*
X169474260Y-91620578D01*
X169478686Y-91620499D01*
X171165501Y-91620499D01*
X171232540Y-91640184D01*
G37*
%TD.AperFunction*%
%TA.AperFunction,Conductor*%
G36*
X165905703Y-85138169D02*
G01*
X165912181Y-85144201D01*
X168436693Y-87668713D01*
X168436695Y-87668716D01*
X168548499Y-87780520D01*
X168586735Y-87802595D01*
X168596347Y-87811216D01*
X168608208Y-87830385D01*
X168623767Y-87846703D01*
X168626239Y-87859527D01*
X168633110Y-87870632D01*
X168632724Y-87893171D01*
X168636992Y-87915310D01*
X168632002Y-87935354D01*
X168631915Y-87940491D01*
X168630015Y-87943338D01*
X168628114Y-87950978D01*
X168580264Y-88066498D01*
X168580261Y-88066510D01*
X168549500Y-88221153D01*
X168549500Y-88378846D01*
X168580261Y-88533489D01*
X168580264Y-88533501D01*
X168598716Y-88578048D01*
X168606185Y-88647517D01*
X168574909Y-88709996D01*
X168514820Y-88745648D01*
X168484155Y-88749500D01*
X168036670Y-88749500D01*
X168036654Y-88749499D01*
X168029058Y-88749499D01*
X167870943Y-88749499D01*
X167794579Y-88769961D01*
X167718214Y-88790423D01*
X167718209Y-88790426D01*
X167581290Y-88869475D01*
X167581282Y-88869481D01*
X166335339Y-90115425D01*
X166274016Y-90148910D01*
X166271850Y-90149361D01*
X166116508Y-90180261D01*
X166116498Y-90180264D01*
X165970827Y-90240602D01*
X165970809Y-90240612D01*
X165893390Y-90292342D01*
X165826713Y-90313220D01*
X165759333Y-90294735D01*
X165712643Y-90242756D01*
X165700500Y-90189240D01*
X165700500Y-85231882D01*
X165720185Y-85164843D01*
X165772989Y-85119088D01*
X165842147Y-85109144D01*
X165905703Y-85138169D01*
G37*
%TD.AperFunction*%
%TA.AperFunction,Conductor*%
G36*
X170421326Y-83915196D02*
G01*
X170433668Y-83916079D01*
X170452254Y-83929993D01*
X170473196Y-83940012D01*
X170479697Y-83950537D01*
X170489601Y-83957951D01*
X170497713Y-83979701D01*
X170509916Y-83999455D01*
X170509695Y-84011825D01*
X170514018Y-84023415D01*
X170509083Y-84046098D01*
X170508669Y-84069313D01*
X170500168Y-84087081D01*
X170499166Y-84091688D01*
X170493437Y-84101151D01*
X170443370Y-84176081D01*
X170443364Y-84176092D01*
X170367950Y-84358160D01*
X170367947Y-84358170D01*
X170329500Y-84551456D01*
X170329500Y-84551459D01*
X170329500Y-84748541D01*
X170329500Y-84748543D01*
X170329499Y-84748543D01*
X170367947Y-84941829D01*
X170367950Y-84941839D01*
X170443364Y-85123907D01*
X170443371Y-85123920D01*
X170552860Y-85287781D01*
X170552863Y-85287785D01*
X170692214Y-85427136D01*
X170692218Y-85427139D01*
X170856079Y-85536628D01*
X170856092Y-85536635D01*
X171038160Y-85612049D01*
X171038165Y-85612051D01*
X171038169Y-85612051D01*
X171038170Y-85612052D01*
X171231456Y-85650500D01*
X171899897Y-85650500D01*
X171966936Y-85670185D01*
X172012691Y-85722989D01*
X172022635Y-85792147D01*
X171993610Y-85855703D01*
X171974208Y-85873766D01*
X171882455Y-85942452D01*
X171882452Y-85942455D01*
X171796206Y-86057664D01*
X171796202Y-86057671D01*
X171745908Y-86192517D01*
X171739501Y-86252116D01*
X171739500Y-86252135D01*
X171739500Y-86575500D01*
X171719815Y-86642539D01*
X171667011Y-86688294D01*
X171615500Y-86699500D01*
X169217312Y-86699500D01*
X169150273Y-86679815D01*
X169129631Y-86663181D01*
X168272208Y-85805758D01*
X168238723Y-85744435D01*
X168243707Y-85674743D01*
X168285579Y-85618810D01*
X168312424Y-85603522D01*
X168473914Y-85536632D01*
X168637782Y-85427139D01*
X168777139Y-85287782D01*
X168886632Y-85123914D01*
X168962051Y-84941835D01*
X168986853Y-84817147D01*
X169000500Y-84748543D01*
X169000500Y-84575500D01*
X169020185Y-84508461D01*
X169072989Y-84462706D01*
X169124500Y-84451500D01*
X169460331Y-84451500D01*
X169460347Y-84451501D01*
X169467943Y-84451501D01*
X169626054Y-84451501D01*
X169626057Y-84451501D01*
X169778785Y-84410577D01*
X169828904Y-84381639D01*
X169915716Y-84331520D01*
X170027520Y-84219716D01*
X170027520Y-84219714D01*
X170037728Y-84209507D01*
X170037730Y-84209504D01*
X170302655Y-83944578D01*
X170323026Y-83933455D01*
X170340843Y-83918565D01*
X170353119Y-83917023D01*
X170363976Y-83911095D01*
X170387133Y-83912751D01*
X170410168Y-83909858D01*
X170421326Y-83915196D01*
G37*
%TD.AperFunction*%
%TA.AperFunction,Conductor*%
G36*
X183544755Y-78649004D02*
G01*
X183546512Y-78648801D01*
X183576408Y-78663460D01*
X183606703Y-78677295D01*
X183608166Y-78679031D01*
X183609246Y-78679561D01*
X183631618Y-78706859D01*
X183639352Y-78719653D01*
X183755347Y-78835648D01*
X183755351Y-78835651D01*
X183895727Y-78920511D01*
X183895730Y-78920512D01*
X184052343Y-78969315D01*
X184120406Y-78975500D01*
X184120409Y-78975500D01*
X184575500Y-78975500D01*
X184642539Y-78995185D01*
X184688294Y-79047989D01*
X184699500Y-79099500D01*
X184699500Y-84150500D01*
X184679815Y-84217539D01*
X184627011Y-84263294D01*
X184575500Y-84274500D01*
X184120406Y-84274500D01*
X184052343Y-84280685D01*
X184052339Y-84280686D01*
X184052335Y-84280687D01*
X183895736Y-84329485D01*
X183895727Y-84329488D01*
X183755351Y-84414348D01*
X183755347Y-84414351D01*
X183639351Y-84530347D01*
X183639348Y-84530351D01*
X183554488Y-84670727D01*
X183554485Y-84670736D01*
X183505687Y-84827335D01*
X183505686Y-84827339D01*
X183505685Y-84827343D01*
X183502372Y-84863807D01*
X183499500Y-84895408D01*
X183499500Y-85675500D01*
X183479815Y-85742539D01*
X183427011Y-85788294D01*
X183375500Y-85799500D01*
X183124500Y-85799500D01*
X183057461Y-85779815D01*
X183011706Y-85727011D01*
X183000500Y-85675500D01*
X183000500Y-84895408D01*
X182998556Y-84874018D01*
X182994315Y-84827343D01*
X182953133Y-84695185D01*
X182945514Y-84670736D01*
X182945511Y-84670727D01*
X182860651Y-84530351D01*
X182860648Y-84530347D01*
X182744652Y-84414351D01*
X182744648Y-84414348D01*
X182604272Y-84329488D01*
X182604265Y-84329486D01*
X182522929Y-84304140D01*
X182464781Y-84265402D01*
X182436808Y-84201377D01*
X182440743Y-84151161D01*
X182447598Y-84127569D01*
X182450500Y-84090694D01*
X182450500Y-83659306D01*
X182447598Y-83622431D01*
X182447367Y-83621637D01*
X182425099Y-83544989D01*
X182425098Y-83544987D01*
X182401744Y-83464602D01*
X182318081Y-83323135D01*
X182318076Y-83323129D01*
X182201870Y-83206923D01*
X182201862Y-83206917D01*
X182175849Y-83191533D01*
X182574499Y-83191533D01*
X182599533Y-83317381D01*
X182599534Y-83317385D01*
X182600460Y-83322036D01*
X182651380Y-83444969D01*
X182653295Y-83447835D01*
X182653296Y-83447837D01*
X182725301Y-83555601D01*
X182725307Y-83555609D01*
X182819390Y-83649692D01*
X182819398Y-83649698D01*
X182930020Y-83723613D01*
X182930023Y-83723614D01*
X182930031Y-83723620D01*
X183052964Y-83774540D01*
X183052968Y-83774540D01*
X183052969Y-83774541D01*
X183183466Y-83800500D01*
X183183469Y-83800500D01*
X183316533Y-83800500D01*
X183404325Y-83783035D01*
X183447036Y-83774540D01*
X183569969Y-83723620D01*
X183680606Y-83649695D01*
X183774695Y-83555606D01*
X183848620Y-83444969D01*
X183899540Y-83322036D01*
X183915767Y-83240459D01*
X183925500Y-83191533D01*
X183925500Y-83058466D01*
X183899541Y-82927969D01*
X183899540Y-82927968D01*
X183899540Y-82927964D01*
X183848620Y-82805031D01*
X183779464Y-82701532D01*
X183774698Y-82694398D01*
X183774692Y-82694390D01*
X183680609Y-82600307D01*
X183680601Y-82600301D01*
X183569979Y-82526386D01*
X183569972Y-82526382D01*
X183569969Y-82526380D01*
X183569965Y-82526378D01*
X183569961Y-82526376D01*
X183447040Y-82475461D01*
X183447030Y-82475458D01*
X183316533Y-82449500D01*
X183316531Y-82449500D01*
X183183469Y-82449500D01*
X183183467Y-82449500D01*
X183052969Y-82475458D01*
X183052959Y-82475461D01*
X182930038Y-82526376D01*
X182930020Y-82526386D01*
X182819398Y-82600301D01*
X182819390Y-82600307D01*
X182725307Y-82694390D01*
X182725301Y-82694398D01*
X182651386Y-82805020D01*
X182651376Y-82805038D01*
X182600461Y-82927959D01*
X182600458Y-82927969D01*
X182574500Y-83058466D01*
X182574500Y-83058469D01*
X182574500Y-83191531D01*
X182574500Y-83191533D01*
X182574499Y-83191533D01*
X182175849Y-83191533D01*
X182060396Y-83123255D01*
X182060393Y-83123254D01*
X181902573Y-83077402D01*
X181902567Y-83077401D01*
X181865701Y-83074500D01*
X181865694Y-83074500D01*
X180734306Y-83074500D01*
X180734298Y-83074500D01*
X180697432Y-83077401D01*
X180697426Y-83077402D01*
X180539606Y-83123254D01*
X180539603Y-83123255D01*
X180398137Y-83206917D01*
X180398129Y-83206923D01*
X180396499Y-83208554D01*
X180394906Y-83209423D01*
X180391969Y-83211702D01*
X180391601Y-83211228D01*
X180377062Y-83219166D01*
X180360329Y-83233667D01*
X180346997Y-83235583D01*
X180335176Y-83242039D01*
X180313089Y-83240459D01*
X180291171Y-83243611D01*
X180278919Y-83238015D01*
X180265484Y-83237055D01*
X180247757Y-83223784D01*
X180227615Y-83214586D01*
X180220332Y-83203254D01*
X180209551Y-83195183D01*
X180201813Y-83174437D01*
X180189841Y-83155808D01*
X180186689Y-83133889D01*
X180185134Y-83129719D01*
X180184818Y-83120873D01*
X180184818Y-83022378D01*
X180184819Y-83022365D01*
X180184819Y-82854262D01*
X180171629Y-82805038D01*
X180143895Y-82701534D01*
X180139773Y-82694394D01*
X180064842Y-82564608D01*
X180064836Y-82564600D01*
X179612416Y-82112180D01*
X179578931Y-82050857D01*
X179583915Y-81981165D01*
X179625787Y-81925232D01*
X179691251Y-81900815D01*
X179700097Y-81900499D01*
X180197871Y-81900499D01*
X180197872Y-81900499D01*
X180257483Y-81894091D01*
X180392331Y-81843796D01*
X180507546Y-81757546D01*
X180593796Y-81642331D01*
X180644091Y-81507483D01*
X180644090Y-81507483D01*
X180646802Y-81500215D01*
X180648377Y-81500802D01*
X180678313Y-81448217D01*
X180740220Y-81415824D01*
X180809813Y-81422042D01*
X180833318Y-81434336D01*
X180870814Y-81459390D01*
X180870827Y-81459397D01*
X180986919Y-81507483D01*
X181016503Y-81519737D01*
X181171153Y-81550499D01*
X181171156Y-81550500D01*
X181171158Y-81550500D01*
X181328844Y-81550500D01*
X181328845Y-81550499D01*
X181483497Y-81519737D01*
X181629179Y-81459394D01*
X181760289Y-81371789D01*
X181871789Y-81260289D01*
X181959394Y-81129179D01*
X181977771Y-81084809D01*
X182004648Y-81044585D01*
X182525670Y-80523563D01*
X182586991Y-80490080D01*
X182656683Y-80495064D01*
X182712616Y-80536936D01*
X182716452Y-80542357D01*
X182725303Y-80555604D01*
X182725307Y-80555609D01*
X182819390Y-80649692D01*
X182819398Y-80649698D01*
X182930020Y-80723613D01*
X182930023Y-80723614D01*
X182930031Y-80723620D01*
X182930037Y-80723622D01*
X182930038Y-80723623D01*
X183037165Y-80767996D01*
X183052964Y-80774540D01*
X183052968Y-80774540D01*
X183052969Y-80774541D01*
X183183466Y-80800500D01*
X183183469Y-80800500D01*
X183316533Y-80800500D01*
X183413133Y-80781284D01*
X183447036Y-80774540D01*
X183569969Y-80723620D01*
X183680606Y-80649695D01*
X183774695Y-80555606D01*
X183848620Y-80444969D01*
X183899540Y-80322036D01*
X183918844Y-80224991D01*
X183925500Y-80191533D01*
X183925500Y-80058466D01*
X183899541Y-79927969D01*
X183899540Y-79927968D01*
X183899540Y-79927964D01*
X183853175Y-79816027D01*
X183848623Y-79805038D01*
X183848622Y-79805037D01*
X183848620Y-79805031D01*
X183774695Y-79694394D01*
X183774692Y-79694390D01*
X183680609Y-79600307D01*
X183680601Y-79600301D01*
X183569979Y-79526386D01*
X183569973Y-79526383D01*
X183569969Y-79526380D01*
X183557686Y-79521292D01*
X183478048Y-79488305D01*
X183423645Y-79444464D01*
X183401580Y-79378170D01*
X183401501Y-79373744D01*
X183401501Y-79312348D01*
X183401500Y-79312330D01*
X183401500Y-78771008D01*
X183401998Y-78769311D01*
X183401547Y-78767602D01*
X183411807Y-78735905D01*
X183421185Y-78703969D01*
X183422519Y-78702812D01*
X183423065Y-78701128D01*
X183448852Y-78679995D01*
X183473989Y-78658214D01*
X183475737Y-78657962D01*
X183477106Y-78656841D01*
X183510198Y-78653007D01*
X183543147Y-78648270D01*
X183544755Y-78649004D01*
G37*
%TD.AperFunction*%
%TA.AperFunction,Conductor*%
G36*
X174844642Y-83194129D02*
G01*
X174849464Y-83198700D01*
X174982284Y-83331520D01*
X174982286Y-83331521D01*
X174982290Y-83331524D01*
X175119211Y-83410575D01*
X175120090Y-83410939D01*
X175120716Y-83411444D01*
X175126254Y-83414641D01*
X175125755Y-83415504D01*
X175128865Y-83418010D01*
X175139676Y-83421185D01*
X175155579Y-83439538D01*
X175174494Y-83454781D01*
X175178052Y-83465474D01*
X175185431Y-83473989D01*
X175188887Y-83498028D01*
X175196558Y-83521075D01*
X175193771Y-83531993D01*
X175195375Y-83543147D01*
X175185284Y-83565242D01*
X175179278Y-83588774D01*
X175171031Y-83596451D01*
X175166350Y-83606703D01*
X175145915Y-83619835D01*
X175128141Y-83636384D01*
X175115526Y-83639364D01*
X175107572Y-83644477D01*
X175072637Y-83649500D01*
X175036727Y-83649500D01*
X175036711Y-83649499D01*
X175029115Y-83649499D01*
X174871000Y-83649499D01*
X174794636Y-83669961D01*
X174718271Y-83690423D01*
X174718266Y-83690426D01*
X174581347Y-83769475D01*
X174581339Y-83769481D01*
X173642181Y-84708640D01*
X173580858Y-84742125D01*
X173511166Y-84737141D01*
X173455233Y-84695269D01*
X173430816Y-84629805D01*
X173430500Y-84620959D01*
X173430500Y-84551456D01*
X173392052Y-84358170D01*
X173392051Y-84358169D01*
X173392051Y-84358165D01*
X173392049Y-84358160D01*
X173316635Y-84176092D01*
X173316628Y-84176079D01*
X173207139Y-84012218D01*
X173207136Y-84012214D01*
X173067785Y-83872863D01*
X173067781Y-83872860D01*
X172970114Y-83807601D01*
X172925309Y-83753989D01*
X172916602Y-83684664D01*
X172946756Y-83621637D01*
X173006199Y-83584917D01*
X173039002Y-83580499D01*
X173567872Y-83580499D01*
X173627483Y-83574091D01*
X173641578Y-83568834D01*
X173723396Y-83538318D01*
X173766729Y-83530500D01*
X174043918Y-83530500D01*
X174057075Y-83527882D01*
X174081267Y-83525500D01*
X174103844Y-83525500D01*
X174103845Y-83525499D01*
X174258497Y-83494737D01*
X174378624Y-83444979D01*
X174404172Y-83434397D01*
X174404172Y-83434396D01*
X174404179Y-83434394D01*
X174535289Y-83346789D01*
X174646789Y-83235289D01*
X174658680Y-83217491D01*
X174712289Y-83172687D01*
X174781613Y-83163977D01*
X174844642Y-83194129D01*
G37*
%TD.AperFunction*%
%TA.AperFunction,Conductor*%
G36*
X170113510Y-80176661D02*
G01*
X170128038Y-80177700D01*
X170144903Y-80190325D01*
X170164222Y-80198734D01*
X170180817Y-80217209D01*
X170183972Y-80219571D01*
X170187807Y-80224991D01*
X170278210Y-80360288D01*
X170278213Y-80360292D01*
X170389707Y-80471786D01*
X170389711Y-80471789D01*
X170520814Y-80559390D01*
X170520827Y-80559397D01*
X170649504Y-80612696D01*
X170666503Y-80619737D01*
X170810998Y-80648479D01*
X170821153Y-80650499D01*
X170821156Y-80650500D01*
X170821158Y-80650500D01*
X170978844Y-80650500D01*
X171020308Y-80642252D01*
X171041292Y-80644129D01*
X171062147Y-80641131D01*
X171075395Y-80647181D01*
X171089899Y-80648479D01*
X171106536Y-80661403D01*
X171125703Y-80670156D01*
X171133576Y-80682407D01*
X171145077Y-80691341D01*
X171152086Y-80711209D01*
X171163477Y-80728934D01*
X171167011Y-80753516D01*
X171168322Y-80757231D01*
X171168500Y-80763869D01*
X171168500Y-80944330D01*
X171168499Y-80944348D01*
X171168499Y-81110054D01*
X171168498Y-81110054D01*
X171207072Y-81254010D01*
X171205409Y-81323860D01*
X171174978Y-81373785D01*
X169862181Y-82686583D01*
X169800858Y-82720068D01*
X169731166Y-82715084D01*
X169675233Y-82673212D01*
X169650816Y-82607748D01*
X169650500Y-82598902D01*
X169650500Y-80604088D01*
X169670185Y-80537049D01*
X169686815Y-80516411D01*
X169997026Y-80206199D01*
X170015512Y-80196105D01*
X170031188Y-80182025D01*
X170045565Y-80179695D01*
X170058347Y-80172716D01*
X170079361Y-80174218D01*
X170100158Y-80170849D01*
X170113510Y-80176661D01*
G37*
%TD.AperFunction*%
%TA.AperFunction,Conductor*%
G36*
X175459523Y-79152553D02*
G01*
X175492319Y-79153725D01*
X175494203Y-79155033D01*
X175496493Y-79155197D01*
X175522766Y-79174865D01*
X175549711Y-79193574D01*
X175551272Y-79196205D01*
X175552426Y-79197069D01*
X175567717Y-79223920D01*
X175590606Y-79279179D01*
X175590607Y-79279181D01*
X175590609Y-79279185D01*
X175678210Y-79410288D01*
X175678213Y-79410292D01*
X175789707Y-79521786D01*
X175789711Y-79521789D01*
X175920814Y-79609390D01*
X175920827Y-79609397D01*
X176066498Y-79669735D01*
X176066503Y-79669737D01*
X176160645Y-79688463D01*
X176200691Y-79696429D01*
X176262602Y-79728814D01*
X176297176Y-79789529D01*
X176300500Y-79818046D01*
X176300500Y-80163330D01*
X176300499Y-80163348D01*
X176300499Y-80329054D01*
X176300498Y-80329054D01*
X176341423Y-80481787D01*
X176341424Y-80481788D01*
X176352482Y-80500940D01*
X176352484Y-80500943D01*
X176420477Y-80618712D01*
X176420481Y-80618717D01*
X176539349Y-80737585D01*
X176539355Y-80737590D01*
X177840583Y-82038819D01*
X177874068Y-82100142D01*
X177869084Y-82169834D01*
X177827212Y-82225767D01*
X177761748Y-82250184D01*
X177752902Y-82250500D01*
X175651098Y-82250500D01*
X175584059Y-82230815D01*
X175563417Y-82214181D01*
X174453164Y-81103928D01*
X174445677Y-81091394D01*
X174436930Y-81083906D01*
X174424344Y-81055683D01*
X174422078Y-81051889D01*
X174421500Y-81049962D01*
X174421500Y-81049943D01*
X174380577Y-80897216D01*
X174370338Y-80879482D01*
X174366185Y-80865642D01*
X174366059Y-80844577D01*
X174361092Y-80824104D01*
X174365841Y-80807929D01*
X174365769Y-80795774D01*
X174372549Y-80785084D01*
X174377566Y-80767999D01*
X174380577Y-80762784D01*
X174421500Y-80610057D01*
X174421500Y-80179041D01*
X174441185Y-80112002D01*
X174457819Y-80091360D01*
X174490942Y-80058237D01*
X174551463Y-79997716D01*
X174551463Y-79997714D01*
X174561667Y-79987511D01*
X174561671Y-79987506D01*
X175365480Y-79183696D01*
X175394260Y-79167981D01*
X175422494Y-79151230D01*
X175424788Y-79151311D01*
X175426801Y-79150213D01*
X175459523Y-79152553D01*
G37*
%TD.AperFunction*%
%TA.AperFunction,Conductor*%
G36*
X166409569Y-75520185D02*
G01*
X166455324Y-75572989D01*
X166465268Y-75642147D01*
X166457092Y-75671949D01*
X166456141Y-75674246D01*
X166437949Y-75718164D01*
X166437947Y-75718170D01*
X166399500Y-75911456D01*
X166399500Y-75911459D01*
X166399500Y-76108541D01*
X166399500Y-76108543D01*
X166399499Y-76108543D01*
X166437947Y-76301829D01*
X166437950Y-76301839D01*
X166513364Y-76483907D01*
X166513371Y-76483920D01*
X166622860Y-76647781D01*
X166622863Y-76647785D01*
X166762214Y-76787136D01*
X166762218Y-76787139D01*
X166926079Y-76896628D01*
X166926092Y-76896635D01*
X167091480Y-76965140D01*
X167108165Y-76972051D01*
X167108169Y-76972051D01*
X167108170Y-76972052D01*
X167301456Y-77010500D01*
X167301459Y-77010500D01*
X168098543Y-77010500D01*
X168254462Y-76979485D01*
X168291835Y-76972051D01*
X168473914Y-76896632D01*
X168637782Y-76787139D01*
X168777139Y-76647782D01*
X168886632Y-76483914D01*
X168891572Y-76471989D01*
X168962049Y-76301839D01*
X168962051Y-76301835D01*
X169000500Y-76108541D01*
X169000500Y-75911459D01*
X169000500Y-75911456D01*
X168962052Y-75718170D01*
X168962051Y-75718169D01*
X168962051Y-75718165D01*
X168942908Y-75671951D01*
X168935440Y-75602484D01*
X168966715Y-75540004D01*
X169026804Y-75504352D01*
X169057470Y-75500500D01*
X170272530Y-75500500D01*
X170339569Y-75520185D01*
X170385324Y-75572989D01*
X170395268Y-75642147D01*
X170387092Y-75671949D01*
X170386141Y-75674246D01*
X170367949Y-75718164D01*
X170367947Y-75718170D01*
X170329500Y-75911456D01*
X170329500Y-75911459D01*
X170329500Y-76108541D01*
X170329500Y-76108543D01*
X170329499Y-76108543D01*
X170367947Y-76301829D01*
X170367950Y-76301839D01*
X170443364Y-76483907D01*
X170443371Y-76483920D01*
X170552860Y-76647781D01*
X170552863Y-76647785D01*
X170692214Y-76787136D01*
X170692218Y-76787139D01*
X170861151Y-76900017D01*
X170860180Y-76901470D01*
X170904109Y-76944619D01*
X170919571Y-77012757D01*
X170895741Y-77078437D01*
X170894190Y-77080502D01*
X170889489Y-77086627D01*
X170813719Y-77217863D01*
X170774500Y-77364234D01*
X170774500Y-77466914D01*
X170754815Y-77533953D01*
X170702011Y-77579708D01*
X170697954Y-77581475D01*
X170664759Y-77595224D01*
X170550024Y-77671887D01*
X168405887Y-79816024D01*
X168329222Y-79930762D01*
X168276421Y-80058237D01*
X168276421Y-80058239D01*
X168276420Y-80058242D01*
X168258077Y-80150458D01*
X168254003Y-80170943D01*
X168250495Y-80188577D01*
X168249500Y-80193577D01*
X168249500Y-80356943D01*
X168249481Y-80358020D01*
X168239353Y-80390385D01*
X168229815Y-80422870D01*
X168228956Y-80423614D01*
X168228616Y-80424701D01*
X168202603Y-80446448D01*
X168177011Y-80468625D01*
X168175885Y-80468786D01*
X168175012Y-80469517D01*
X168141395Y-80473746D01*
X168107853Y-80478569D01*
X168106667Y-80478114D01*
X168105689Y-80478238D01*
X168100445Y-80475730D01*
X168056610Y-80458934D01*
X168029183Y-80440608D01*
X168029172Y-80440602D01*
X167883501Y-80380264D01*
X167883489Y-80380261D01*
X167728845Y-80349500D01*
X167728842Y-80349500D01*
X167571158Y-80349500D01*
X167571155Y-80349500D01*
X167416510Y-80380261D01*
X167416498Y-80380264D01*
X167270827Y-80440602D01*
X167270814Y-80440609D01*
X167139714Y-80528208D01*
X167139708Y-80528213D01*
X167122670Y-80545251D01*
X167115006Y-80550304D01*
X167111623Y-80555054D01*
X167095788Y-80562978D01*
X167081054Y-80572695D01*
X167074207Y-80575434D01*
X167018272Y-80590423D01*
X166984264Y-80610058D01*
X166976578Y-80614495D01*
X166976569Y-80614499D01*
X166881344Y-80669477D01*
X166881339Y-80669481D01*
X165912181Y-81638640D01*
X165850858Y-81672125D01*
X165781166Y-81667141D01*
X165725233Y-81625269D01*
X165700816Y-81559805D01*
X165700500Y-81550959D01*
X165700500Y-75958676D01*
X165720185Y-75891637D01*
X165736819Y-75870995D01*
X166070995Y-75536819D01*
X166097922Y-75522115D01*
X166123741Y-75505523D01*
X166129941Y-75504631D01*
X166132318Y-75503334D01*
X166158676Y-75500500D01*
X166342530Y-75500500D01*
X166409569Y-75520185D01*
G37*
%TD.AperFunction*%
%TA.AperFunction,Conductor*%
G36*
X175643539Y-76419185D02*
G01*
X175689294Y-76471989D01*
X175700500Y-76523500D01*
X175700500Y-77239330D01*
X175700499Y-77239348D01*
X175700499Y-77405054D01*
X175700498Y-77405054D01*
X175700499Y-77405057D01*
X175737302Y-77542408D01*
X175736707Y-77567401D01*
X175740266Y-77592147D01*
X175735890Y-77601727D01*
X175735640Y-77612256D01*
X175721627Y-77632959D01*
X175711241Y-77655703D01*
X175702380Y-77661397D01*
X175696478Y-77670118D01*
X175673497Y-77679959D01*
X175652463Y-77693477D01*
X175636608Y-77695756D01*
X175632250Y-77697623D01*
X175617528Y-77698500D01*
X175487612Y-77698500D01*
X175487596Y-77698499D01*
X175480000Y-77698499D01*
X175321886Y-77698499D01*
X175242089Y-77719881D01*
X175169157Y-77739423D01*
X175126715Y-77763927D01*
X175126708Y-77763931D01*
X175121910Y-77766702D01*
X175032227Y-77818480D01*
X174991945Y-77858761D01*
X174983188Y-77864924D01*
X174959836Y-77872859D01*
X174938186Y-77884682D01*
X174927334Y-77883905D01*
X174917034Y-77887406D01*
X174893094Y-77881456D01*
X174868494Y-77879696D01*
X174851952Y-77871230D01*
X174849227Y-77870553D01*
X174847919Y-77869166D01*
X174842938Y-77866617D01*
X174729185Y-77790609D01*
X174729172Y-77790602D01*
X174583501Y-77730264D01*
X174583489Y-77730261D01*
X174428845Y-77699500D01*
X174428842Y-77699500D01*
X174271158Y-77699500D01*
X174271153Y-77699500D01*
X174168690Y-77719881D01*
X174099098Y-77713654D01*
X174043921Y-77670790D01*
X174020677Y-77604901D01*
X174020499Y-77598264D01*
X174020499Y-77532129D01*
X174020498Y-77532123D01*
X174014091Y-77472516D01*
X173963797Y-77337671D01*
X173963793Y-77337664D01*
X173877547Y-77222455D01*
X173877544Y-77222452D01*
X173762335Y-77136206D01*
X173762328Y-77136202D01*
X173627482Y-77085908D01*
X173627483Y-77085908D01*
X173567883Y-77079501D01*
X173567881Y-77079500D01*
X173567873Y-77079500D01*
X173567865Y-77079500D01*
X173039006Y-77079500D01*
X172971967Y-77059815D01*
X172926212Y-77007011D01*
X172916268Y-76937853D01*
X172945293Y-76874297D01*
X172970116Y-76852398D01*
X173047787Y-76800499D01*
X173067782Y-76787139D01*
X173203864Y-76651056D01*
X173265185Y-76617573D01*
X173334877Y-76622557D01*
X173360435Y-76635637D01*
X173470814Y-76709390D01*
X173470827Y-76709397D01*
X173616498Y-76769735D01*
X173616503Y-76769737D01*
X173771153Y-76800499D01*
X173771156Y-76800500D01*
X173771158Y-76800500D01*
X173928844Y-76800500D01*
X173928845Y-76800499D01*
X174083497Y-76769737D01*
X174229179Y-76709394D01*
X174360289Y-76621789D01*
X174471789Y-76510289D01*
X174508993Y-76454608D01*
X174562604Y-76409804D01*
X174612095Y-76399500D01*
X175576500Y-76399500D01*
X175643539Y-76419185D01*
G37*
%TD.AperFunction*%
%TD*%
M02*
