M48
; DRILL file {KiCad 9.0.6} date 2025-11-30T22:56:02+0900
; FORMAT={-:-/ absolute / inch / decimal}
; #@! TF.CreationDate,2025-11-30T22:56:02+09:00
; #@! TF.GenerationSoftware,Kicad,Pcbnew,9.0.6
; #@! TF.FileFunction,Plated,1,2,PTH
FMAT,2
INCH
; #@! TA.AperFunction,Plated,PTH,ViaDrill
T1C0.0118
%
G90
G05
T1
X4.3622Y-2.3307
X4.3622Y-2.3583
X4.3622Y-2.3858
X4.3622Y-2.4134
X4.3701Y-2.0276
X4.3701Y-2.0551
X4.374Y-2.5157
X4.3976Y-2.0
X4.3976Y-2.0276
X4.4016Y-2.3622
X4.4094Y-2.1654
X4.4252Y-2.5551
X4.4567Y-2.5157
X4.5315Y-2.3898
X4.5315Y-2.4173
X4.5457Y-2.2976
X4.5472Y-2.2402
X4.5591Y-2.3898
X4.5591Y-2.4173
X4.5654Y-2.1795
X4.5661Y-2.2128
X4.5866Y-2.3898
X4.5866Y-2.4173
X4.6142Y-2.3898
X4.6496Y-2.2953
X4.6496Y-2.6173
X4.6752Y-2.3524
X4.689Y-2.0512
X4.7323Y-2.1756
X4.7323Y-2.2071
X4.7913Y-2.0787
X4.8123Y-2.5994
X4.8471Y-2.3374
X4.8701Y-2.6181
X4.9449Y-2.5157
X4.9646Y-2.5354
X4.9724Y-2.5866
X4.9931Y-2.6387
X5.0236Y-2.5669
X5.0236Y-2.5945
X5.0236Y-2.622
X5.0354Y-2.5079
X5.0413Y-2.248
X5.0433Y-1.9961
X5.0433Y-2.0236
X5.0433Y-2.1299
X5.0433Y-2.4094
X5.0472Y-2.3307
X5.0591Y-2.5354
X5.0669Y-2.2087
X5.0709Y-1.9961
X5.0709Y-2.0236
X5.0984Y-1.9961
X5.0984Y-2.0236
X5.126Y-2.0236
X5.1299Y-2.5354
X5.1339Y-2.1299
M30
