%TF.GenerationSoftware,KiCad,Pcbnew,9.0.0*%
%TF.CreationDate,2025-08-18T16:34:53+09:00*%
%TF.ProjectId,SMORES,534d4f52-4553-42e6-9b69-6361645f7063,rev?*%
%TF.SameCoordinates,Original*%
%TF.FileFunction,Soldermask,Top*%
%TF.FilePolarity,Negative*%
%FSLAX46Y46*%
G04 Gerber Fmt 4.6, Leading zero omitted, Abs format (unit mm)*
G04 Created by KiCad (PCBNEW 9.0.0) date 2025-08-18 16:34:53*
%MOMM*%
%LPD*%
G01*
G04 APERTURE LIST*
G04 Aperture macros list*
%AMRoundRect*
0 Rectangle with rounded corners*
0 $1 Rounding radius*
0 $2 $3 $4 $5 $6 $7 $8 $9 X,Y pos of 4 corners*
0 Add a 4 corners polygon primitive as box body*
4,1,4,$2,$3,$4,$5,$6,$7,$8,$9,$2,$3,0*
0 Add four circle primitives for the rounded corners*
1,1,$1+$1,$2,$3*
1,1,$1+$1,$4,$5*
1,1,$1+$1,$6,$7*
1,1,$1+$1,$8,$9*
0 Add four rect primitives between the rounded corners*
20,1,$1+$1,$2,$3,$4,$5,0*
20,1,$1+$1,$4,$5,$6,$7,0*
20,1,$1+$1,$6,$7,$8,$9,0*
20,1,$1+$1,$8,$9,$2,$3,0*%
G04 Aperture macros list end*
%ADD10C,0.010000*%
%ADD11RoundRect,0.225000X-0.225000X-0.250000X0.225000X-0.250000X0.225000X0.250000X-0.225000X0.250000X0*%
%ADD12RoundRect,0.140000X-0.170000X0.140000X-0.170000X-0.140000X0.170000X-0.140000X0.170000X0.140000X0*%
%ADD13RoundRect,0.135000X-0.185000X0.135000X-0.185000X-0.135000X0.185000X-0.135000X0.185000X0.135000X0*%
%ADD14RoundRect,0.218750X-0.218750X-0.256250X0.218750X-0.256250X0.218750X0.256250X-0.218750X0.256250X0*%
%ADD15C,2.000000*%
%ADD16C,0.240000*%
%ADD17RoundRect,0.140000X0.170000X-0.140000X0.170000X0.140000X-0.170000X0.140000X-0.170000X-0.140000X0*%
%ADD18RoundRect,0.135000X-0.135000X-0.185000X0.135000X-0.185000X0.135000X0.185000X-0.135000X0.185000X0*%
%ADD19RoundRect,0.135000X0.185000X-0.135000X0.185000X0.135000X-0.185000X0.135000X-0.185000X-0.135000X0*%
%ADD20RoundRect,0.225000X-0.250000X0.225000X-0.250000X-0.225000X0.250000X-0.225000X0.250000X0.225000X0*%
%ADD21RoundRect,0.150000X0.150000X-0.512500X0.150000X0.512500X-0.150000X0.512500X-0.150000X-0.512500X0*%
%ADD22R,0.600000X1.100000*%
%ADD23RoundRect,0.218750X0.218750X0.256250X-0.218750X0.256250X-0.218750X-0.256250X0.218750X-0.256250X0*%
%ADD24RoundRect,0.225000X0.250000X-0.225000X0.250000X0.225000X-0.250000X0.225000X-0.250000X-0.225000X0*%
%ADD25R,1.200000X1.400000*%
%ADD26RoundRect,0.218750X-0.256250X0.218750X-0.256250X-0.218750X0.256250X-0.218750X0.256250X0.218750X0*%
%ADD27R,1.000000X1.500000*%
%ADD28RoundRect,0.225000X0.225000X0.250000X-0.225000X0.250000X-0.225000X-0.250000X0.225000X-0.250000X0*%
%ADD29RoundRect,0.062500X0.375000X0.062500X-0.375000X0.062500X-0.375000X-0.062500X0.375000X-0.062500X0*%
%ADD30RoundRect,0.062500X0.062500X0.375000X-0.062500X0.375000X-0.062500X-0.375000X0.062500X-0.375000X0*%
%ADD31R,1.600000X1.600000*%
%ADD32O,1.600000X1.000000*%
%ADD33O,2.100000X1.000000*%
G04 APERTURE END LIST*
D10*
%TO.C,U3*%
X174575000Y-95128000D02*
X174000000Y-95128000D01*
X174000000Y-94778000D01*
X174575000Y-94778000D01*
X174575000Y-95128000D01*
G36*
X174575000Y-95128000D02*
G01*
X174000000Y-95128000D01*
X174000000Y-94778000D01*
X174575000Y-94778000D01*
X174575000Y-95128000D01*
G37*
X174575000Y-95628000D02*
X174000000Y-95628000D01*
X174000000Y-95278000D01*
X174575000Y-95278000D01*
X174575000Y-95628000D01*
G36*
X174575000Y-95628000D02*
G01*
X174000000Y-95628000D01*
X174000000Y-95278000D01*
X174575000Y-95278000D01*
X174575000Y-95628000D01*
G37*
X174575000Y-96128000D02*
X174000000Y-96128000D01*
X174000000Y-95778000D01*
X174575000Y-95778000D01*
X174575000Y-96128000D01*
G36*
X174575000Y-96128000D02*
G01*
X174000000Y-96128000D01*
X174000000Y-95778000D01*
X174575000Y-95778000D01*
X174575000Y-96128000D01*
G37*
X174625000Y-94578000D02*
X174275000Y-94578000D01*
X174275000Y-94003000D01*
X174625000Y-94003000D01*
X174625000Y-94578000D01*
G36*
X174625000Y-94578000D02*
G01*
X174275000Y-94578000D01*
X174275000Y-94003000D01*
X174625000Y-94003000D01*
X174625000Y-94578000D01*
G37*
X174625000Y-96903000D02*
X174275000Y-96903000D01*
X174275000Y-96328000D01*
X174625000Y-96328000D01*
X174625000Y-96903000D01*
G36*
X174625000Y-96903000D02*
G01*
X174275000Y-96903000D01*
X174275000Y-96328000D01*
X174625000Y-96328000D01*
X174625000Y-96903000D01*
G37*
X175125000Y-94578000D02*
X174775000Y-94578000D01*
X174775000Y-94003000D01*
X175125000Y-94003000D01*
X175125000Y-94578000D01*
G36*
X175125000Y-94578000D02*
G01*
X174775000Y-94578000D01*
X174775000Y-94003000D01*
X175125000Y-94003000D01*
X175125000Y-94578000D01*
G37*
X175125000Y-96903000D02*
X174775000Y-96903000D01*
X174775000Y-96328000D01*
X175125000Y-96328000D01*
X175125000Y-96903000D01*
G36*
X175125000Y-96903000D02*
G01*
X174775000Y-96903000D01*
X174775000Y-96328000D01*
X175125000Y-96328000D01*
X175125000Y-96903000D01*
G37*
X175625000Y-94578000D02*
X175275000Y-94578000D01*
X175275000Y-94003000D01*
X175625000Y-94003000D01*
X175625000Y-94578000D01*
G36*
X175625000Y-94578000D02*
G01*
X175275000Y-94578000D01*
X175275000Y-94003000D01*
X175625000Y-94003000D01*
X175625000Y-94578000D01*
G37*
X175625000Y-96903000D02*
X175275000Y-96903000D01*
X175275000Y-96328000D01*
X175625000Y-96328000D01*
X175625000Y-96903000D01*
G36*
X175625000Y-96903000D02*
G01*
X175275000Y-96903000D01*
X175275000Y-96328000D01*
X175625000Y-96328000D01*
X175625000Y-96903000D01*
G37*
X176125000Y-94578000D02*
X175775000Y-94578000D01*
X175775000Y-94003000D01*
X176125000Y-94003000D01*
X176125000Y-94578000D01*
G36*
X176125000Y-94578000D02*
G01*
X175775000Y-94578000D01*
X175775000Y-94003000D01*
X176125000Y-94003000D01*
X176125000Y-94578000D01*
G37*
X176125000Y-96903000D02*
X175775000Y-96903000D01*
X175775000Y-96328000D01*
X176125000Y-96328000D01*
X176125000Y-96903000D01*
G36*
X176125000Y-96903000D02*
G01*
X175775000Y-96903000D01*
X175775000Y-96328000D01*
X176125000Y-96328000D01*
X176125000Y-96903000D01*
G37*
X176400000Y-95128000D02*
X175825000Y-95128000D01*
X175825000Y-94778000D01*
X176400000Y-94778000D01*
X176400000Y-95128000D01*
G36*
X176400000Y-95128000D02*
G01*
X175825000Y-95128000D01*
X175825000Y-94778000D01*
X176400000Y-94778000D01*
X176400000Y-95128000D01*
G37*
X176400000Y-95628000D02*
X175825000Y-95628000D01*
X175825000Y-95278000D01*
X176400000Y-95278000D01*
X176400000Y-95628000D01*
G36*
X176400000Y-95628000D02*
G01*
X175825000Y-95628000D01*
X175825000Y-95278000D01*
X176400000Y-95278000D01*
X176400000Y-95628000D01*
G37*
X176400000Y-96128000D02*
X175825000Y-96128000D01*
X175825000Y-95778000D01*
X176400000Y-95778000D01*
X176400000Y-96128000D01*
G36*
X176400000Y-96128000D02*
G01*
X175825000Y-96128000D01*
X175825000Y-95778000D01*
X176400000Y-95778000D01*
X176400000Y-96128000D01*
G37*
%TO.C,JP1*%
G36*
X175600000Y-79750000D02*
G01*
X175900000Y-79750000D01*
X175900000Y-81250000D01*
X175600000Y-81250000D01*
X175600000Y-79750000D01*
G37*
%TD*%
D11*
%TO.C,C15*%
X166675000Y-86450000D03*
X168225000Y-86450000D03*
%TD*%
D12*
%TO.C,C13*%
X169700000Y-97720000D03*
X169700000Y-98680000D03*
%TD*%
D13*
%TO.C,R9*%
X172550000Y-92040000D03*
X172550000Y-93060000D03*
%TD*%
D14*
%TO.C,D1*%
X174987500Y-84550000D03*
X176562500Y-84550000D03*
%TD*%
D12*
%TO.C,C25*%
X177200000Y-93620000D03*
X177200000Y-94580000D03*
%TD*%
D15*
%TO.C,TP1*%
X178720000Y-76670000D03*
%TD*%
D16*
%TO.C,U6*%
X175400000Y-98500000D03*
X175000000Y-98500000D03*
X175000000Y-98900000D03*
X175400000Y-98900000D03*
%TD*%
D17*
%TO.C,C26*%
X177200000Y-96980000D03*
X177200000Y-96020000D03*
%TD*%
D18*
%TO.C,R10*%
X169690000Y-95100000D03*
X170710000Y-95100000D03*
%TD*%
%TO.C,R8*%
X169680000Y-96300000D03*
X170700000Y-96300000D03*
%TD*%
D19*
%TO.C,R7*%
X173000000Y-98210000D03*
X173000000Y-97190000D03*
%TD*%
D18*
%TO.C,R5*%
X177752500Y-83150000D03*
X178772500Y-83150000D03*
%TD*%
D20*
%TO.C,C24*%
X167800000Y-89000000D03*
X167800000Y-90550000D03*
%TD*%
D11*
%TO.C,C27*%
X174425000Y-100750000D03*
X175975000Y-100750000D03*
%TD*%
D12*
%TO.C,C12*%
X171800000Y-97440000D03*
X171800000Y-98400000D03*
%TD*%
D11*
%TO.C,C3*%
X174812500Y-90687500D03*
X176362500Y-90687500D03*
%TD*%
D21*
%TO.C,U4*%
X169300000Y-92400000D03*
X170250000Y-92400000D03*
X171200000Y-92400000D03*
X171200000Y-90125000D03*
X169300000Y-90125000D03*
%TD*%
D22*
%TO.C,Y2*%
X171100000Y-100500000D03*
X169700000Y-100500000D03*
%TD*%
D15*
%TO.C,TP2*%
X175730000Y-76700000D03*
%TD*%
D19*
%TO.C,R4*%
X173500000Y-90960000D03*
X173500000Y-89940000D03*
%TD*%
D13*
%TO.C,R1*%
X178912500Y-88577500D03*
X178912500Y-89597500D03*
%TD*%
D23*
%TO.C,D2*%
X176550000Y-83050000D03*
X174975000Y-83050000D03*
%TD*%
D24*
%TO.C,C2*%
X179212500Y-87362500D03*
X179212500Y-85812500D03*
%TD*%
D25*
%TO.C,U5*%
X180350000Y-96300000D03*
X180350000Y-94100000D03*
X178650000Y-94100000D03*
X178650000Y-96300000D03*
%TD*%
D13*
%TO.C,R2*%
X177762500Y-84130000D03*
X177762500Y-85150000D03*
%TD*%
D24*
%TO.C,R12*%
X166250000Y-89625000D03*
X166250000Y-88075000D03*
%TD*%
%TO.C,C1*%
X173312500Y-87900000D03*
X173312500Y-86350000D03*
%TD*%
D19*
%TO.C,R3*%
X177612500Y-91397500D03*
X177612500Y-90377500D03*
%TD*%
D26*
%TO.C,L4*%
X166300000Y-92000000D03*
X166300000Y-93575000D03*
%TD*%
D27*
%TO.C,JP1*%
X175100000Y-80500000D03*
X176400000Y-80500000D03*
%TD*%
D28*
%TO.C,R11*%
X171250000Y-86450000D03*
X169700000Y-86450000D03*
%TD*%
D18*
%TO.C,R6*%
X169690000Y-93925000D03*
X170710000Y-93925000D03*
%TD*%
D24*
%TO.C,C23*%
X167800000Y-93575000D03*
X167800000Y-92025000D03*
%TD*%
D29*
%TO.C,U2*%
X177700000Y-88500000D03*
X177700000Y-88000000D03*
X177700000Y-87500000D03*
X177700000Y-87000000D03*
D30*
X177012500Y-86312500D03*
X176512500Y-86312500D03*
X176012500Y-86312500D03*
X175512500Y-86312500D03*
D29*
X174825000Y-87000000D03*
X174825000Y-87500000D03*
X174825000Y-88000000D03*
X174825000Y-88500000D03*
D30*
X175512500Y-89187500D03*
X176012500Y-89187500D03*
X176512500Y-89187500D03*
X177012500Y-89187500D03*
D31*
X176262500Y-87750000D03*
%TD*%
D32*
%TO.C,J1*%
X167700000Y-84650000D03*
D33*
X171880000Y-84650000D03*
D32*
X167700000Y-76010000D03*
D33*
X171880000Y-76010000D03*
%TD*%
M02*
