%TF.GenerationSoftware,KiCad,Pcbnew,9.0.6*%
%TF.CreationDate,2025-11-30T22:56:02+09:00*%
%TF.ProjectId,SMORES,534d4f52-4553-42e6-9b69-6361645f7063,rev?*%
%TF.SameCoordinates,Original*%
%TF.FileFunction,Legend,Bot*%
%TF.FilePolarity,Positive*%
%FSLAX46Y46*%
G04 Gerber Fmt 4.6, Leading zero omitted, Abs format (unit mm)*
G04 Created by KiCad (PCBNEW 9.0.6) date 2025-11-30 22:56:02*
%MOMM*%
%LPD*%
G01*
G04 APERTURE LIST*
G04 Aperture macros list*
%AMRoundRect*
0 Rectangle with rounded corners*
0 $1 Rounding radius*
0 $2 $3 $4 $5 $6 $7 $8 $9 X,Y pos of 4 corners*
0 Add a 4 corners polygon primitive as box body*
4,1,4,$2,$3,$4,$5,$6,$7,$8,$9,$2,$3,0*
0 Add four circle primitives for the rounded corners*
1,1,$1+$1,$2,$3*
1,1,$1+$1,$4,$5*
1,1,$1+$1,$6,$7*
1,1,$1+$1,$8,$9*
0 Add four rect primitives between the rounded corners*
20,1,$1+$1,$2,$3,$4,$5,0*
20,1,$1+$1,$4,$5,$6,$7,0*
20,1,$1+$1,$6,$7,$8,$9,0*
20,1,$1+$1,$8,$9,$2,$3,0*%
G04 Aperture macros list end*
%ADD10C,0.100000*%
%ADD11C,0.120000*%
%ADD12C,0.127000*%
%ADD13C,0.200000*%
%ADD14C,0.010000*%
%ADD15RoundRect,0.135000X-0.185000X0.135000X-0.185000X-0.135000X0.185000X-0.135000X0.185000X0.135000X0*%
%ADD16RoundRect,0.102000X-0.675000X-0.900000X0.675000X-0.900000X0.675000X0.900000X-0.675000X0.900000X0*%
%ADD17RoundRect,0.135000X0.185000X-0.135000X0.185000X0.135000X-0.185000X0.135000X-0.185000X-0.135000X0*%
%ADD18C,1.500000*%
%ADD19RoundRect,0.135000X-0.135000X-0.185000X0.135000X-0.185000X0.135000X0.185000X-0.135000X0.185000X0*%
%ADD20RoundRect,0.140000X-0.140000X-0.170000X0.140000X-0.170000X0.140000X0.170000X-0.140000X0.170000X0*%
%ADD21RoundRect,0.218750X0.218750X0.256250X-0.218750X0.256250X-0.218750X-0.256250X0.218750X-0.256250X0*%
%ADD22RoundRect,0.135000X0.135000X0.185000X-0.135000X0.185000X-0.135000X-0.185000X0.135000X-0.185000X0*%
%ADD23RoundRect,0.140000X-0.170000X0.140000X-0.170000X-0.140000X0.170000X-0.140000X0.170000X0.140000X0*%
%ADD24RoundRect,0.062500X0.375000X0.062500X-0.375000X0.062500X-0.375000X-0.062500X0.375000X-0.062500X0*%
%ADD25RoundRect,0.062500X0.062500X0.375000X-0.062500X0.375000X-0.062500X-0.375000X0.062500X-0.375000X0*%
%ADD26R,1.600000X1.600000*%
%ADD27RoundRect,0.140000X0.140000X0.170000X-0.140000X0.170000X-0.140000X-0.170000X0.140000X-0.170000X0*%
%ADD28C,0.240000*%
%ADD29RoundRect,0.250000X0.350000X-0.450000X0.350000X0.450000X-0.350000X0.450000X-0.350000X-0.450000X0*%
%ADD30RoundRect,0.102000X0.675000X0.900000X-0.675000X0.900000X-0.675000X-0.900000X0.675000X-0.900000X0*%
G04 APERTURE END LIST*
D10*
X127396115Y-58472419D02*
X127396115Y-57472419D01*
X127396115Y-57472419D02*
X127158020Y-57472419D01*
X127158020Y-57472419D02*
X127015163Y-57520038D01*
X127015163Y-57520038D02*
X126919925Y-57615276D01*
X126919925Y-57615276D02*
X126872306Y-57710514D01*
X126872306Y-57710514D02*
X126824687Y-57900990D01*
X126824687Y-57900990D02*
X126824687Y-58043847D01*
X126824687Y-58043847D02*
X126872306Y-58234323D01*
X126872306Y-58234323D02*
X126919925Y-58329561D01*
X126919925Y-58329561D02*
X127015163Y-58424800D01*
X127015163Y-58424800D02*
X127158020Y-58472419D01*
X127158020Y-58472419D02*
X127396115Y-58472419D01*
X126396115Y-58091466D02*
X125634211Y-58091466D01*
X127496115Y-60491466D02*
X126734211Y-60491466D01*
X127115163Y-60872419D02*
X127115163Y-60110514D01*
X125781830Y-59872419D02*
X126258020Y-59872419D01*
X126258020Y-59872419D02*
X126305639Y-60348609D01*
X126305639Y-60348609D02*
X126258020Y-60300990D01*
X126258020Y-60300990D02*
X126162782Y-60253371D01*
X126162782Y-60253371D02*
X125924687Y-60253371D01*
X125924687Y-60253371D02*
X125829449Y-60300990D01*
X125829449Y-60300990D02*
X125781830Y-60348609D01*
X125781830Y-60348609D02*
X125734211Y-60443847D01*
X125734211Y-60443847D02*
X125734211Y-60681942D01*
X125734211Y-60681942D02*
X125781830Y-60777180D01*
X125781830Y-60777180D02*
X125829449Y-60824800D01*
X125829449Y-60824800D02*
X125924687Y-60872419D01*
X125924687Y-60872419D02*
X126162782Y-60872419D01*
X126162782Y-60872419D02*
X126258020Y-60824800D01*
X126258020Y-60824800D02*
X126305639Y-60777180D01*
X125448496Y-59872419D02*
X125115163Y-60872419D01*
X125115163Y-60872419D02*
X124781830Y-59872419D01*
X127496115Y-55772419D02*
X127496115Y-54772419D01*
X127496115Y-54772419D02*
X127258020Y-54772419D01*
X127258020Y-54772419D02*
X127115163Y-54820038D01*
X127115163Y-54820038D02*
X127019925Y-54915276D01*
X127019925Y-54915276D02*
X126972306Y-55010514D01*
X126972306Y-55010514D02*
X126924687Y-55200990D01*
X126924687Y-55200990D02*
X126924687Y-55343847D01*
X126924687Y-55343847D02*
X126972306Y-55534323D01*
X126972306Y-55534323D02*
X127019925Y-55629561D01*
X127019925Y-55629561D02*
X127115163Y-55724800D01*
X127115163Y-55724800D02*
X127258020Y-55772419D01*
X127258020Y-55772419D02*
X127496115Y-55772419D01*
X126496115Y-55391466D02*
X125734211Y-55391466D01*
X126115163Y-55772419D02*
X126115163Y-55010514D01*
X126972306Y-52420038D02*
X127067544Y-52372419D01*
X127067544Y-52372419D02*
X127210401Y-52372419D01*
X127210401Y-52372419D02*
X127353258Y-52420038D01*
X127353258Y-52420038D02*
X127448496Y-52515276D01*
X127448496Y-52515276D02*
X127496115Y-52610514D01*
X127496115Y-52610514D02*
X127543734Y-52800990D01*
X127543734Y-52800990D02*
X127543734Y-52943847D01*
X127543734Y-52943847D02*
X127496115Y-53134323D01*
X127496115Y-53134323D02*
X127448496Y-53229561D01*
X127448496Y-53229561D02*
X127353258Y-53324800D01*
X127353258Y-53324800D02*
X127210401Y-53372419D01*
X127210401Y-53372419D02*
X127115163Y-53372419D01*
X127115163Y-53372419D02*
X126972306Y-53324800D01*
X126972306Y-53324800D02*
X126924687Y-53277180D01*
X126924687Y-53277180D02*
X126924687Y-52943847D01*
X126924687Y-52943847D02*
X127115163Y-52943847D01*
X126496115Y-53372419D02*
X126496115Y-52372419D01*
X126496115Y-52372419D02*
X125924687Y-53372419D01*
X125924687Y-53372419D02*
X125924687Y-52372419D01*
X125448496Y-53372419D02*
X125448496Y-52372419D01*
X125448496Y-52372419D02*
X125210401Y-52372419D01*
X125210401Y-52372419D02*
X125067544Y-52420038D01*
X125067544Y-52420038D02*
X124972306Y-52515276D01*
X124972306Y-52515276D02*
X124924687Y-52610514D01*
X124924687Y-52610514D02*
X124877068Y-52800990D01*
X124877068Y-52800990D02*
X124877068Y-52943847D01*
X124877068Y-52943847D02*
X124924687Y-53134323D01*
X124924687Y-53134323D02*
X124972306Y-53229561D01*
X124972306Y-53229561D02*
X125067544Y-53324800D01*
X125067544Y-53324800D02*
X125210401Y-53372419D01*
X125210401Y-53372419D02*
X125448496Y-53372419D01*
D11*
%TO.C,R7*%
X123420000Y-56146359D02*
X123420000Y-56453641D01*
X124180000Y-56146359D02*
X124180000Y-56453641D01*
D12*
%TO.C,SW3*%
X121300000Y-64850000D02*
X121300000Y-65080000D01*
X121300000Y-67520000D02*
X121300000Y-67750000D01*
X121300000Y-67750000D02*
X125300000Y-67750000D01*
X125300000Y-64850000D02*
X121300000Y-64850000D01*
X125300000Y-64850000D02*
X125300000Y-65080000D01*
X125300000Y-67750000D02*
X125300000Y-67520000D01*
D11*
%TO.C,R2*%
X117081250Y-62295141D02*
X117081250Y-61987859D01*
X117841250Y-62295141D02*
X117841250Y-61987859D01*
%TO.C,TP5*%
X130350000Y-57900000D02*
G75*
G02*
X128450000Y-57900000I-950000J0D01*
G01*
X128450000Y-57900000D02*
G75*
G02*
X130350000Y-57900000I950000J0D01*
G01*
%TO.C,R4*%
X113447609Y-58780250D02*
X113754891Y-58780250D01*
X113447609Y-59540250D02*
X113754891Y-59540250D01*
%TO.C,C26*%
X113373414Y-57684750D02*
X113589086Y-57684750D01*
X113373414Y-58404750D02*
X113589086Y-58404750D01*
%TO.C,D1*%
X117648750Y-63106500D02*
X119933750Y-63106500D01*
X119933750Y-63106500D02*
X119933750Y-64576500D01*
X119933750Y-64576500D02*
X117648750Y-64576500D01*
%TO.C,TP3*%
X130350000Y-52800000D02*
G75*
G02*
X128450000Y-52800000I-950000J0D01*
G01*
X128450000Y-52800000D02*
G75*
G02*
X130350000Y-52800000I950000J0D01*
G01*
%TO.C,R10*%
X121914891Y-54580250D02*
X121607609Y-54580250D01*
X121914891Y-55340250D02*
X121607609Y-55340250D01*
%TO.C,R5*%
X115904891Y-62180250D02*
X115597609Y-62180250D01*
X115904891Y-62940250D02*
X115597609Y-62940250D01*
%TO.C,C3*%
X120733414Y-58281500D02*
X120949086Y-58281500D01*
X120733414Y-59001500D02*
X120949086Y-59001500D01*
%TO.C,R6*%
X118981250Y-58713891D02*
X118981250Y-58406609D01*
X119741250Y-58713891D02*
X119741250Y-58406609D01*
%TO.C,R3*%
X122904891Y-58280250D02*
X122597609Y-58280250D01*
X122904891Y-59040250D02*
X122597609Y-59040250D01*
%TO.C,C15*%
X123801250Y-58472414D02*
X123801250Y-58688086D01*
X124521250Y-58472414D02*
X124521250Y-58688086D01*
%TO.C,U2*%
X119501250Y-59694000D02*
X119501250Y-60169000D01*
X119501250Y-62439000D02*
X119501250Y-62914000D01*
X119501250Y-62914000D02*
X119976250Y-62914000D01*
X119976250Y-59694000D02*
X119501250Y-59694000D01*
X122246250Y-62914000D02*
X122721250Y-62914000D01*
X122721250Y-59694000D02*
X122246250Y-59694000D01*
X122721250Y-60169000D02*
X122721250Y-59694000D01*
X122721250Y-62914000D02*
X122721250Y-62439000D01*
X123581250Y-60794000D02*
X123251250Y-60554000D01*
X123581250Y-60314000D01*
X123581250Y-60794000D01*
G36*
X123581250Y-60794000D02*
G01*
X123251250Y-60554000D01*
X123581250Y-60314000D01*
X123581250Y-60794000D01*
G37*
%TO.C,C27*%
X116806586Y-58006250D02*
X116590914Y-58006250D01*
X116806586Y-58726250D02*
X116590914Y-58726250D01*
%TO.C,TP4*%
X130350000Y-55340000D02*
G75*
G02*
X128450000Y-55340000I-950000J0D01*
G01*
X128450000Y-55340000D02*
G75*
G02*
X130350000Y-55340000I950000J0D01*
G01*
%TO.C,C1*%
X118101250Y-62033664D02*
X118101250Y-62249336D01*
X118821250Y-62033664D02*
X118821250Y-62249336D01*
%TO.C,C2*%
X123401250Y-61453664D02*
X123401250Y-61669336D01*
X124121250Y-61453664D02*
X124121250Y-61669336D01*
%TO.C,R8*%
X121714891Y-55680250D02*
X121407609Y-55680250D01*
X121714891Y-56440250D02*
X121407609Y-56440250D01*
%TO.C,R1*%
X124436359Y-59720000D02*
X124743641Y-59720000D01*
X124436359Y-60480000D02*
X124743641Y-60480000D01*
%TO.C,U6*%
D10*
X117061250Y-59960250D02*
X116261250Y-59960250D01*
X116261250Y-59160250D01*
X117061250Y-59160250D01*
X117061250Y-59960250D01*
X116411250Y-58860250D02*
G75*
G02*
X116311250Y-58860250I-50000J0D01*
G01*
X116311250Y-58860250D02*
G75*
G02*
X116411250Y-58860250I50000J0D01*
G01*
D11*
%TO.C,TP6*%
X130350000Y-60400000D02*
G75*
G02*
X128450000Y-60400000I-950000J0D01*
G01*
X128450000Y-60400000D02*
G75*
G02*
X130350000Y-60400000I950000J0D01*
G01*
%TO.C,Y1*%
X111051250Y-57504750D02*
X111051250Y-53184750D01*
X114671250Y-57504750D02*
X111051250Y-57504750D01*
%TO.C,C25*%
X115101250Y-52856914D02*
X115101250Y-53072586D01*
X115821250Y-52856914D02*
X115821250Y-53072586D01*
%TO.C,R9*%
X122304891Y-53380250D02*
X121997609Y-53380250D01*
X122304891Y-54140250D02*
X121997609Y-54140250D01*
%TO.C,D2*%
X114373750Y-63125250D02*
X116658750Y-63125250D01*
X116658750Y-63125250D02*
X116658750Y-64595250D01*
X116658750Y-64595250D02*
X114373750Y-64595250D01*
D12*
%TO.C,SW2*%
X115050000Y-64850000D02*
X115050000Y-65080000D01*
X115050000Y-67750000D02*
X115050000Y-67520000D01*
X115050000Y-67750000D02*
X119050000Y-67750000D01*
X119050000Y-64850000D02*
X115050000Y-64850000D01*
X119050000Y-65080000D02*
X119050000Y-64850000D01*
X119050000Y-67750000D02*
X119050000Y-67520000D01*
%TO.C,U3*%
X117061250Y-54197750D02*
X117061250Y-54752750D01*
X117061250Y-54197750D02*
X117116250Y-54197750D01*
X117061250Y-56642750D02*
X117061250Y-57197750D01*
X117061250Y-57197750D02*
X117116250Y-57197750D01*
X119561250Y-54197750D02*
X119506250Y-54197750D01*
X119561250Y-54752750D02*
X119561250Y-54197750D01*
X119561250Y-57197750D02*
X119506250Y-57197750D01*
X119561250Y-57197750D02*
X119561250Y-56642750D01*
D13*
X119261250Y-57766750D02*
G75*
G02*
X119061250Y-57766750I-100000J0D01*
G01*
X119061250Y-57766750D02*
G75*
G02*
X119261250Y-57766750I100000J0D01*
G01*
%TD*%
%LPC*%
D14*
%TO.C,U3*%
X117686250Y-55372750D02*
X117111250Y-55372750D01*
X117111250Y-55022750D01*
X117686250Y-55022750D01*
X117686250Y-55372750D01*
G36*
X117686250Y-55372750D02*
G01*
X117111250Y-55372750D01*
X117111250Y-55022750D01*
X117686250Y-55022750D01*
X117686250Y-55372750D01*
G37*
X117686250Y-55872750D02*
X117111250Y-55872750D01*
X117111250Y-55522750D01*
X117686250Y-55522750D01*
X117686250Y-55872750D01*
G36*
X117686250Y-55872750D02*
G01*
X117111250Y-55872750D01*
X117111250Y-55522750D01*
X117686250Y-55522750D01*
X117686250Y-55872750D01*
G37*
X117686250Y-56372750D02*
X117111250Y-56372750D01*
X117111250Y-56022750D01*
X117686250Y-56022750D01*
X117686250Y-56372750D01*
G36*
X117686250Y-56372750D02*
G01*
X117111250Y-56372750D01*
X117111250Y-56022750D01*
X117686250Y-56022750D01*
X117686250Y-56372750D01*
G37*
X117736250Y-54822750D02*
X117386250Y-54822750D01*
X117386250Y-54247750D01*
X117736250Y-54247750D01*
X117736250Y-54822750D01*
G36*
X117736250Y-54822750D02*
G01*
X117386250Y-54822750D01*
X117386250Y-54247750D01*
X117736250Y-54247750D01*
X117736250Y-54822750D01*
G37*
X117736250Y-57147750D02*
X117386250Y-57147750D01*
X117386250Y-56572750D01*
X117736250Y-56572750D01*
X117736250Y-57147750D01*
G36*
X117736250Y-57147750D02*
G01*
X117386250Y-57147750D01*
X117386250Y-56572750D01*
X117736250Y-56572750D01*
X117736250Y-57147750D01*
G37*
X118236250Y-54822750D02*
X117886250Y-54822750D01*
X117886250Y-54247750D01*
X118236250Y-54247750D01*
X118236250Y-54822750D01*
G36*
X118236250Y-54822750D02*
G01*
X117886250Y-54822750D01*
X117886250Y-54247750D01*
X118236250Y-54247750D01*
X118236250Y-54822750D01*
G37*
X118236250Y-57147750D02*
X117886250Y-57147750D01*
X117886250Y-56572750D01*
X118236250Y-56572750D01*
X118236250Y-57147750D01*
G36*
X118236250Y-57147750D02*
G01*
X117886250Y-57147750D01*
X117886250Y-56572750D01*
X118236250Y-56572750D01*
X118236250Y-57147750D01*
G37*
X118736250Y-54822750D02*
X118386250Y-54822750D01*
X118386250Y-54247750D01*
X118736250Y-54247750D01*
X118736250Y-54822750D01*
G36*
X118736250Y-54822750D02*
G01*
X118386250Y-54822750D01*
X118386250Y-54247750D01*
X118736250Y-54247750D01*
X118736250Y-54822750D01*
G37*
X118736250Y-57147750D02*
X118386250Y-57147750D01*
X118386250Y-56572750D01*
X118736250Y-56572750D01*
X118736250Y-57147750D01*
G36*
X118736250Y-57147750D02*
G01*
X118386250Y-57147750D01*
X118386250Y-56572750D01*
X118736250Y-56572750D01*
X118736250Y-57147750D01*
G37*
X119236250Y-54822750D02*
X118886250Y-54822750D01*
X118886250Y-54247750D01*
X119236250Y-54247750D01*
X119236250Y-54822750D01*
G36*
X119236250Y-54822750D02*
G01*
X118886250Y-54822750D01*
X118886250Y-54247750D01*
X119236250Y-54247750D01*
X119236250Y-54822750D01*
G37*
X119236250Y-57147750D02*
X118886250Y-57147750D01*
X118886250Y-56572750D01*
X119236250Y-56572750D01*
X119236250Y-57147750D01*
G36*
X119236250Y-57147750D02*
G01*
X118886250Y-57147750D01*
X118886250Y-56572750D01*
X119236250Y-56572750D01*
X119236250Y-57147750D01*
G37*
X119511250Y-55372750D02*
X118936250Y-55372750D01*
X118936250Y-55022750D01*
X119511250Y-55022750D01*
X119511250Y-55372750D01*
G36*
X119511250Y-55372750D02*
G01*
X118936250Y-55372750D01*
X118936250Y-55022750D01*
X119511250Y-55022750D01*
X119511250Y-55372750D01*
G37*
X119511250Y-55872750D02*
X118936250Y-55872750D01*
X118936250Y-55522750D01*
X119511250Y-55522750D01*
X119511250Y-55872750D01*
G36*
X119511250Y-55872750D02*
G01*
X118936250Y-55872750D01*
X118936250Y-55522750D01*
X119511250Y-55522750D01*
X119511250Y-55872750D01*
G37*
X119511250Y-56372750D02*
X118936250Y-56372750D01*
X118936250Y-56022750D01*
X119511250Y-56022750D01*
X119511250Y-56372750D01*
G36*
X119511250Y-56372750D02*
G01*
X118936250Y-56372750D01*
X118936250Y-56022750D01*
X119511250Y-56022750D01*
X119511250Y-56372750D01*
G37*
%TD*%
D15*
%TO.C,R7*%
X123800000Y-55790000D03*
X123800000Y-56810000D03*
%TD*%
D16*
%TO.C,SW3*%
X121225000Y-66300000D03*
X125375000Y-66300000D03*
%TD*%
D17*
%TO.C,R2*%
X117461250Y-62651500D03*
X117461250Y-61631500D03*
%TD*%
D18*
%TO.C,TP5*%
X129400000Y-57900000D03*
%TD*%
D19*
%TO.C,R4*%
X113091250Y-59160250D03*
X114111250Y-59160250D03*
%TD*%
D20*
%TO.C,C26*%
X113001250Y-58044750D03*
X113961250Y-58044750D03*
%TD*%
D21*
%TO.C,D1*%
X119236250Y-63841500D03*
X117661250Y-63841500D03*
%TD*%
D18*
%TO.C,TP3*%
X129400000Y-52800000D03*
%TD*%
D22*
%TO.C,R10*%
X122271250Y-54960250D03*
X121251250Y-54960250D03*
%TD*%
%TO.C,R5*%
X116261250Y-62560250D03*
X115241250Y-62560250D03*
%TD*%
D20*
%TO.C,C3*%
X120361250Y-58641500D03*
X121321250Y-58641500D03*
%TD*%
D17*
%TO.C,R6*%
X119361250Y-59070250D03*
X119361250Y-58050250D03*
%TD*%
D22*
%TO.C,R3*%
X123261250Y-58660250D03*
X122241250Y-58660250D03*
%TD*%
D23*
%TO.C,C15*%
X124161250Y-58100250D03*
X124161250Y-59060250D03*
%TD*%
D24*
%TO.C,U2*%
X122548750Y-60554000D03*
X122548750Y-61054000D03*
X122548750Y-61554000D03*
X122548750Y-62054000D03*
D25*
X121861250Y-62741500D03*
X121361250Y-62741500D03*
X120861250Y-62741500D03*
X120361250Y-62741500D03*
D24*
X119673750Y-62054000D03*
X119673750Y-61554000D03*
X119673750Y-61054000D03*
X119673750Y-60554000D03*
D25*
X120361250Y-59866500D03*
X120861250Y-59866500D03*
X121361250Y-59866500D03*
X121861250Y-59866500D03*
D26*
X121111250Y-61304000D03*
%TD*%
D27*
%TO.C,C27*%
X117178750Y-58366250D03*
X116218750Y-58366250D03*
%TD*%
D18*
%TO.C,TP4*%
X129400000Y-55340000D03*
%TD*%
D23*
%TO.C,C1*%
X118461250Y-61661500D03*
X118461250Y-62621500D03*
%TD*%
%TO.C,C2*%
X123761250Y-61081500D03*
X123761250Y-62041500D03*
%TD*%
D22*
%TO.C,R8*%
X122071250Y-56060250D03*
X121051250Y-56060250D03*
%TD*%
D19*
%TO.C,R1*%
X124080000Y-60100000D03*
X125100000Y-60100000D03*
%TD*%
D28*
%TO.C,U6*%
X116461250Y-59360250D03*
X116461250Y-59760250D03*
X116861250Y-59360250D03*
X116861250Y-59760250D03*
%TD*%
D18*
%TO.C,TP6*%
X129400000Y-60400000D03*
%TD*%
D29*
%TO.C,Y1*%
X111911250Y-56544750D03*
X111911250Y-54144750D03*
X113811250Y-54144750D03*
X113811250Y-56544750D03*
%TD*%
D23*
%TO.C,C25*%
X115461250Y-52484750D03*
X115461250Y-53444750D03*
%TD*%
D22*
%TO.C,R9*%
X122661250Y-53760250D03*
X121641250Y-53760250D03*
%TD*%
D21*
%TO.C,D2*%
X115961250Y-63860250D03*
X114386250Y-63860250D03*
%TD*%
D30*
%TO.C,SW2*%
X119125000Y-66300000D03*
X114975000Y-66300000D03*
%TD*%
%LPD*%
M02*
