%TF.GenerationSoftware,KiCad,Pcbnew,9.0.0*%
%TF.CreationDate,2025-08-18T16:34:53+09:00*%
%TF.ProjectId,SMORES,534d4f52-4553-42e6-9b69-6361645f7063,rev?*%
%TF.SameCoordinates,Original*%
%TF.FileFunction,Copper,L3,Inr*%
%TF.FilePolarity,Positive*%
%FSLAX46Y46*%
G04 Gerber Fmt 4.6, Leading zero omitted, Abs format (unit mm)*
G04 Created by KiCad (PCBNEW 9.0.0) date 2025-08-18 16:34:53*
%MOMM*%
%LPD*%
G01*
G04 APERTURE LIST*
%TA.AperFunction,HeatsinkPad*%
%ADD10O,1.600000X1.000000*%
%TD*%
%TA.AperFunction,HeatsinkPad*%
%ADD11O,2.100000X1.000000*%
%TD*%
%TA.AperFunction,ViaPad*%
%ADD12C,0.600000*%
%TD*%
G04 APERTURE END LIST*
D10*
%TO.N,unconnected-(J1-SHIELD-PadS1)_3*%
%TO.C,J1*%
X167700000Y-84650000D03*
D11*
%TO.N,unconnected-(J1-SHIELD-PadS1)_2*%
X171880000Y-84650000D03*
D10*
%TO.N,unconnected-(J1-SHIELD-PadS1)_1*%
X167700000Y-76010000D03*
D11*
%TO.N,unconnected-(J1-SHIELD-PadS1)*%
X171880000Y-76010000D03*
%TD*%
D12*
%TO.N,VDDH*%
X176500000Y-85550000D03*
X168600000Y-91450000D03*
%TO.N,GND*%
X174200000Y-77600000D03*
X175750000Y-82250000D03*
X176500000Y-93000000D03*
X170300000Y-85100000D03*
X181850000Y-93850000D03*
X179450000Y-98250000D03*
X184050000Y-81750000D03*
X167350000Y-79500000D03*
X180750000Y-98250000D03*
X180100000Y-98250000D03*
X166650000Y-78100000D03*
X167650000Y-87850000D03*
X166650000Y-79500000D03*
X183350000Y-81750000D03*
X168050000Y-78100000D03*
X174300000Y-85750000D03*
X184350000Y-95400000D03*
X175500000Y-98100000D03*
X181850000Y-93100000D03*
X181400000Y-98250000D03*
X184350000Y-96800000D03*
X168050000Y-79500000D03*
X168050000Y-78800000D03*
X167150000Y-96500000D03*
X170900000Y-80950000D03*
X167150000Y-99850000D03*
X168450000Y-100650000D03*
X182650000Y-81750000D03*
X181850000Y-94550000D03*
X167677088Y-94577088D03*
X166650000Y-78800000D03*
X166400000Y-95800000D03*
X183250000Y-85350000D03*
X168600000Y-87850000D03*
X166400000Y-97200000D03*
X184350000Y-97500000D03*
X177250000Y-98650000D03*
X173750000Y-83650000D03*
X167350000Y-78800000D03*
X167350000Y-78100000D03*
X184350000Y-96100000D03*
X166400000Y-99850000D03*
X174425735Y-92425735D03*
X166400000Y-96500000D03*
%TO.N,VBUS*%
X174025000Y-82725000D03*
X178582318Y-83968243D03*
X174550000Y-91600000D03*
X168950000Y-83250000D03*
%TO.N,Net-(U7-P0.01{slash}XL2)*%
X171800000Y-99000000D03*
%TO.N,Net-(U7-P0.00{slash}XL1)*%
X169700000Y-99300000D03*
%TO.N,Net-(U7-DCCH)*%
X166350000Y-90950000D03*
%TO.N,VDD_NRF*%
X166350000Y-94500000D03*
%TO.N,+3V3*%
X176500000Y-94290500D03*
X173700000Y-93000000D03*
X169350000Y-88300000D03*
X173000000Y-98700000D03*
X174700000Y-98200000D03*
X176600000Y-96300000D03*
X168400000Y-97400000D03*
%TO.N,BLED*%
X170148437Y-88349998D03*
%TO.N,Net-(J1-CC1)*%
X166450000Y-82800000D03*
%TO.N,Net-(J1-CC2)*%
X170900000Y-79850000D03*
%TO.N,Net-(JP1-B)*%
X178300000Y-90450000D03*
X176300000Y-78900000D03*
%TO.N,Net-(JP1-A)*%
X173650000Y-88850000D03*
X174350000Y-78500000D03*
%TO.N,SDO*%
X173775000Y-96875000D03*
X184400000Y-90250000D03*
%TO.N,SDA*%
X173050000Y-96350000D03*
%TO.N,CS*%
X173517250Y-94182750D03*
X178891051Y-91947017D03*
%TO.N,SCL*%
X173070000Y-95070000D03*
%TO.N,RESET*%
X173850000Y-76000000D03*
X167650000Y-81150000D03*
%TO.N,SW0*%
X181250000Y-80750000D03*
X180000000Y-90300000D03*
%TO.N,INT1*%
X176820000Y-97880000D03*
%TO.N,CLK_CTL*%
X181500000Y-96300000D03*
%TO.N,Net-(SW1-A)*%
X181300000Y-78350000D03*
X180700000Y-78350000D03*
%TD*%
%TA.AperFunction,Conductor*%
%TO.N,+3V3*%
G36*
X166409569Y-75520185D02*
G01*
X166455324Y-75572989D01*
X166465268Y-75642147D01*
X166457092Y-75671949D01*
X166446501Y-75697518D01*
X166437949Y-75718164D01*
X166437947Y-75718170D01*
X166399500Y-75911456D01*
X166399500Y-75911459D01*
X166399500Y-76108541D01*
X166399500Y-76108543D01*
X166399499Y-76108543D01*
X166437947Y-76301829D01*
X166437950Y-76301839D01*
X166513364Y-76483907D01*
X166513371Y-76483920D01*
X166622860Y-76647781D01*
X166622863Y-76647785D01*
X166762214Y-76787136D01*
X166762218Y-76787139D01*
X166926079Y-76896628D01*
X166926092Y-76896635D01*
X167091480Y-76965140D01*
X167108165Y-76972051D01*
X167108169Y-76972051D01*
X167108170Y-76972052D01*
X167301456Y-77010500D01*
X167301459Y-77010500D01*
X168098543Y-77010500D01*
X168254462Y-76979485D01*
X168291835Y-76972051D01*
X168462234Y-76901470D01*
X168473907Y-76896635D01*
X168473907Y-76896634D01*
X168473914Y-76896632D01*
X168637782Y-76787139D01*
X168777139Y-76647782D01*
X168886632Y-76483914D01*
X168962051Y-76301835D01*
X169000500Y-76108541D01*
X169000500Y-75911459D01*
X169000500Y-75911456D01*
X168962052Y-75718170D01*
X168962051Y-75718169D01*
X168962051Y-75718165D01*
X168942908Y-75671951D01*
X168935440Y-75602484D01*
X168966715Y-75540004D01*
X169026804Y-75504352D01*
X169057470Y-75500500D01*
X170272530Y-75500500D01*
X170339569Y-75520185D01*
X170385324Y-75572989D01*
X170395268Y-75642147D01*
X170387092Y-75671949D01*
X170376501Y-75697518D01*
X170367949Y-75718164D01*
X170367947Y-75718170D01*
X170329500Y-75911456D01*
X170329500Y-75911459D01*
X170329500Y-76108541D01*
X170329500Y-76108543D01*
X170329499Y-76108543D01*
X170367947Y-76301829D01*
X170367950Y-76301839D01*
X170443364Y-76483907D01*
X170443371Y-76483920D01*
X170552860Y-76647781D01*
X170552863Y-76647785D01*
X170692214Y-76787136D01*
X170692218Y-76787139D01*
X170861151Y-76900017D01*
X170860180Y-76901470D01*
X170904109Y-76944619D01*
X170919571Y-77012757D01*
X170895741Y-77078437D01*
X170894190Y-77080502D01*
X170889489Y-77086627D01*
X170813719Y-77217863D01*
X170791845Y-77299500D01*
X170774500Y-77364234D01*
X170774500Y-77515766D01*
X170775944Y-77521155D01*
X170813719Y-77662136D01*
X170847604Y-77720826D01*
X170889485Y-77793365D01*
X170996635Y-77900515D01*
X171127865Y-77976281D01*
X171274234Y-78015500D01*
X171274236Y-78015500D01*
X171425764Y-78015500D01*
X171425766Y-78015500D01*
X171572135Y-77976281D01*
X171703365Y-77900515D01*
X171810515Y-77793365D01*
X171886281Y-77662135D01*
X171925500Y-77515766D01*
X171925500Y-77364234D01*
X171886281Y-77217865D01*
X171886278Y-77217859D01*
X171873947Y-77196501D01*
X171857473Y-77128602D01*
X171880325Y-77062574D01*
X171935245Y-77019383D01*
X171981333Y-77010500D01*
X172528543Y-77010500D01*
X172684462Y-76979485D01*
X172721835Y-76972051D01*
X172892234Y-76901470D01*
X172903907Y-76896635D01*
X172903907Y-76896634D01*
X172903914Y-76896632D01*
X173067782Y-76787139D01*
X173203864Y-76651056D01*
X173265185Y-76617573D01*
X173334877Y-76622557D01*
X173360435Y-76635637D01*
X173470814Y-76709390D01*
X173470827Y-76709397D01*
X173616498Y-76769735D01*
X173616500Y-76769736D01*
X173616501Y-76769736D01*
X173616503Y-76769737D01*
X173623915Y-76771211D01*
X173685826Y-76803592D01*
X173720404Y-76864305D01*
X173716668Y-76934075D01*
X173687411Y-76980510D01*
X173578210Y-77089711D01*
X173490609Y-77220814D01*
X173490602Y-77220827D01*
X173430264Y-77366498D01*
X173430261Y-77366510D01*
X173399500Y-77521153D01*
X173399500Y-77678846D01*
X173430261Y-77833489D01*
X173430264Y-77833501D01*
X173490602Y-77979172D01*
X173490609Y-77979185D01*
X173581595Y-78115354D01*
X173579589Y-78116694D01*
X173602740Y-78171216D01*
X173594135Y-78233009D01*
X173580262Y-78266502D01*
X173580261Y-78266505D01*
X173549500Y-78421153D01*
X173549500Y-78578846D01*
X173580261Y-78733489D01*
X173580264Y-78733501D01*
X173640602Y-78879172D01*
X173640609Y-78879185D01*
X173728210Y-79010288D01*
X173728213Y-79010292D01*
X173839707Y-79121786D01*
X173839711Y-79121789D01*
X173970814Y-79209390D01*
X173970827Y-79209397D01*
X174016254Y-79228213D01*
X174116503Y-79269737D01*
X174271153Y-79300499D01*
X174271156Y-79300500D01*
X174271158Y-79300500D01*
X174428844Y-79300500D01*
X174428845Y-79300499D01*
X174583497Y-79269737D01*
X174729179Y-79209394D01*
X174860289Y-79121789D01*
X174971789Y-79010289D01*
X175059394Y-78879179D01*
X175067217Y-78860292D01*
X175083429Y-78821153D01*
X175499500Y-78821153D01*
X175499500Y-78978846D01*
X175530261Y-79133489D01*
X175530264Y-79133501D01*
X175590602Y-79279172D01*
X175590609Y-79279185D01*
X175678210Y-79410288D01*
X175678213Y-79410292D01*
X175789707Y-79521786D01*
X175789711Y-79521789D01*
X175920814Y-79609390D01*
X175920827Y-79609397D01*
X176066498Y-79669735D01*
X176066503Y-79669737D01*
X176221153Y-79700499D01*
X176221156Y-79700500D01*
X176221158Y-79700500D01*
X176378844Y-79700500D01*
X176378845Y-79700499D01*
X176533497Y-79669737D01*
X176679179Y-79609394D01*
X176810289Y-79521789D01*
X176921789Y-79410289D01*
X177009394Y-79279179D01*
X177069737Y-79133497D01*
X177100500Y-78978842D01*
X177100500Y-78821158D01*
X177100500Y-78821155D01*
X177100499Y-78821153D01*
X177082204Y-78729179D01*
X177069737Y-78666503D01*
X177028316Y-78566502D01*
X177009397Y-78520827D01*
X177009390Y-78520814D01*
X176921789Y-78389711D01*
X176921786Y-78389707D01*
X176810292Y-78278213D01*
X176810288Y-78278210D01*
X176799727Y-78271153D01*
X179899500Y-78271153D01*
X179899500Y-78428846D01*
X179930261Y-78583489D01*
X179930264Y-78583501D01*
X179990602Y-78729172D01*
X179990609Y-78729185D01*
X180078210Y-78860288D01*
X180078213Y-78860292D01*
X180189707Y-78971786D01*
X180189711Y-78971789D01*
X180320814Y-79059390D01*
X180320827Y-79059397D01*
X180425002Y-79102547D01*
X180466503Y-79119737D01*
X180618644Y-79150000D01*
X180621153Y-79150499D01*
X180621156Y-79150500D01*
X180621158Y-79150500D01*
X180778844Y-79150500D01*
X180778845Y-79150499D01*
X180933497Y-79119737D01*
X180952547Y-79111845D01*
X181022016Y-79104377D01*
X181047452Y-79111845D01*
X181066503Y-79119737D01*
X181218644Y-79150000D01*
X181221153Y-79150499D01*
X181221156Y-79150500D01*
X181221158Y-79150500D01*
X181378844Y-79150500D01*
X181378845Y-79150499D01*
X181533497Y-79119737D01*
X181679179Y-79059394D01*
X181810289Y-78971789D01*
X181921789Y-78860289D01*
X182009394Y-78729179D01*
X182012719Y-78721153D01*
X182069735Y-78583501D01*
X182069737Y-78583497D01*
X182100500Y-78428842D01*
X182100500Y-78271158D01*
X182100500Y-78271155D01*
X182100499Y-78271153D01*
X182092912Y-78233009D01*
X182069737Y-78116503D01*
X182027900Y-78015499D01*
X182009397Y-77970827D01*
X182009390Y-77970814D01*
X181921789Y-77839711D01*
X181921786Y-77839707D01*
X181810292Y-77728213D01*
X181810288Y-77728210D01*
X181679185Y-77640609D01*
X181679172Y-77640602D01*
X181533501Y-77580264D01*
X181533489Y-77580261D01*
X181378845Y-77549500D01*
X181378842Y-77549500D01*
X181221158Y-77549500D01*
X181221155Y-77549500D01*
X181066511Y-77580260D01*
X181066506Y-77580262D01*
X181066504Y-77580262D01*
X181066503Y-77580263D01*
X181047449Y-77588155D01*
X180977982Y-77595623D01*
X180952553Y-77588156D01*
X180933497Y-77580263D01*
X180933493Y-77580262D01*
X180933488Y-77580260D01*
X180778845Y-77549500D01*
X180778842Y-77549500D01*
X180621158Y-77549500D01*
X180621155Y-77549500D01*
X180466510Y-77580261D01*
X180466498Y-77580264D01*
X180320827Y-77640602D01*
X180320814Y-77640609D01*
X180189711Y-77728210D01*
X180189707Y-77728213D01*
X180078213Y-77839707D01*
X180078210Y-77839711D01*
X179990609Y-77970814D01*
X179990602Y-77970827D01*
X179930264Y-78116498D01*
X179930261Y-78116510D01*
X179899500Y-78271153D01*
X176799727Y-78271153D01*
X176679185Y-78190609D01*
X176679172Y-78190602D01*
X176533501Y-78130264D01*
X176533489Y-78130261D01*
X176378845Y-78099500D01*
X176378842Y-78099500D01*
X176221158Y-78099500D01*
X176221155Y-78099500D01*
X176066510Y-78130261D01*
X176066498Y-78130264D01*
X175920827Y-78190602D01*
X175920814Y-78190609D01*
X175789711Y-78278210D01*
X175789707Y-78278213D01*
X175678213Y-78389707D01*
X175678210Y-78389711D01*
X175590609Y-78520814D01*
X175590602Y-78520827D01*
X175530264Y-78666498D01*
X175530261Y-78666510D01*
X175499500Y-78821153D01*
X175083429Y-78821153D01*
X175105603Y-78767621D01*
X175105605Y-78767614D01*
X175119737Y-78733497D01*
X175150500Y-78578842D01*
X175150500Y-78421158D01*
X175150500Y-78421155D01*
X175150499Y-78421153D01*
X175122066Y-78278211D01*
X175119737Y-78266503D01*
X175119735Y-78266498D01*
X175059397Y-78120827D01*
X175059390Y-78120814D01*
X174968405Y-77984646D01*
X174970413Y-77983304D01*
X174947261Y-77928802D01*
X174955866Y-77866984D01*
X174956063Y-77866510D01*
X174969737Y-77833497D01*
X175000500Y-77678842D01*
X175000500Y-77521158D01*
X175000500Y-77521155D01*
X175000499Y-77521153D01*
X174974531Y-77390606D01*
X174969737Y-77366503D01*
X174966573Y-77358865D01*
X174909397Y-77220827D01*
X174909390Y-77220814D01*
X174821789Y-77089711D01*
X174821786Y-77089707D01*
X174710292Y-76978213D01*
X174710288Y-76978210D01*
X174579185Y-76890609D01*
X174579172Y-76890602D01*
X174433501Y-76830264D01*
X174433489Y-76830261D01*
X174426079Y-76828787D01*
X174364168Y-76796403D01*
X174329594Y-76735687D01*
X174333333Y-76665917D01*
X174362587Y-76619490D01*
X174471789Y-76510289D01*
X174559394Y-76379179D01*
X174619737Y-76233497D01*
X174650500Y-76078842D01*
X174650500Y-75921158D01*
X174650500Y-75921155D01*
X174650499Y-75921153D01*
X174619738Y-75766510D01*
X174619737Y-75766503D01*
X174580572Y-75671951D01*
X174573104Y-75602483D01*
X174604379Y-75540004D01*
X174664468Y-75504352D01*
X174695134Y-75500500D01*
X180191324Y-75500500D01*
X180258363Y-75520185D01*
X180279005Y-75536819D01*
X181549500Y-76807314D01*
X181642686Y-76900500D01*
X181727556Y-76949500D01*
X181756814Y-76966392D01*
X181884107Y-77000500D01*
X181884108Y-77000500D01*
X183991324Y-77000500D01*
X184058363Y-77020185D01*
X184079005Y-77036819D01*
X184663181Y-77620995D01*
X184696666Y-77682318D01*
X184699500Y-77708676D01*
X184699500Y-80989240D01*
X184679815Y-81056279D01*
X184627011Y-81102034D01*
X184557853Y-81111978D01*
X184506610Y-81092342D01*
X184429190Y-81040612D01*
X184429172Y-81040602D01*
X184283501Y-80980264D01*
X184283489Y-80980261D01*
X184128845Y-80949500D01*
X184128842Y-80949500D01*
X183971158Y-80949500D01*
X183971155Y-80949500D01*
X183816511Y-80980260D01*
X183816506Y-80980262D01*
X183816504Y-80980262D01*
X183816503Y-80980263D01*
X183747449Y-81008865D01*
X183720575Y-81011754D01*
X183694320Y-81018173D01*
X183683433Y-81015747D01*
X183677982Y-81016333D01*
X183659652Y-81011555D01*
X183656060Y-81010319D01*
X183583497Y-80980263D01*
X183548470Y-80973295D01*
X183540538Y-80970566D01*
X183518609Y-80955009D01*
X183494783Y-80942546D01*
X183490541Y-80935097D01*
X183483552Y-80930139D01*
X183473516Y-80905199D01*
X183460209Y-80881830D01*
X183460667Y-80873269D01*
X183457469Y-80865320D01*
X183462510Y-80838911D01*
X183463950Y-80812060D01*
X183468963Y-80805108D01*
X183470570Y-80796690D01*
X183489089Y-80777197D01*
X183504816Y-80755389D01*
X183515971Y-80748904D01*
X183518695Y-80746037D01*
X183522505Y-80745105D01*
X183533427Y-80738755D01*
X183569969Y-80723620D01*
X183680606Y-80649695D01*
X183774695Y-80555606D01*
X183848620Y-80444969D01*
X183899540Y-80322036D01*
X183909943Y-80269737D01*
X183925500Y-80191533D01*
X183925500Y-80058466D01*
X183899541Y-79927969D01*
X183899540Y-79927968D01*
X183899540Y-79927964D01*
X183869675Y-79855863D01*
X183848623Y-79805038D01*
X183848622Y-79805037D01*
X183848620Y-79805031D01*
X183800825Y-79733501D01*
X183774698Y-79694398D01*
X183774692Y-79694390D01*
X183680609Y-79600307D01*
X183680601Y-79600301D01*
X183569979Y-79526386D01*
X183569972Y-79526382D01*
X183569969Y-79526380D01*
X183569965Y-79526378D01*
X183569961Y-79526376D01*
X183447040Y-79475461D01*
X183447030Y-79475458D01*
X183316533Y-79449500D01*
X183316531Y-79449500D01*
X183183469Y-79449500D01*
X183183467Y-79449500D01*
X183052969Y-79475458D01*
X183052959Y-79475461D01*
X182930038Y-79526376D01*
X182930020Y-79526386D01*
X182819398Y-79600301D01*
X182819390Y-79600307D01*
X182725307Y-79694390D01*
X182725301Y-79694398D01*
X182651386Y-79805020D01*
X182651376Y-79805038D01*
X182600461Y-79927959D01*
X182600458Y-79927969D01*
X182574500Y-80058466D01*
X182574500Y-80058469D01*
X182574500Y-80191531D01*
X182574500Y-80191533D01*
X182574499Y-80191533D01*
X182600458Y-80322030D01*
X182600461Y-80322040D01*
X182651376Y-80444961D01*
X182651386Y-80444979D01*
X182725301Y-80555601D01*
X182725307Y-80555609D01*
X182819390Y-80649692D01*
X182819398Y-80649698D01*
X182930020Y-80723613D01*
X182930023Y-80723614D01*
X182930031Y-80723620D01*
X183052964Y-80774540D01*
X183052965Y-80774540D01*
X183056487Y-80775999D01*
X183073725Y-80789889D01*
X183093526Y-80799800D01*
X183100401Y-80811386D01*
X183110891Y-80819839D01*
X183117882Y-80840845D01*
X183129182Y-80859887D01*
X183128701Y-80873351D01*
X183132956Y-80886133D01*
X183127481Y-80907583D01*
X183126692Y-80929713D01*
X183119008Y-80940780D01*
X183115677Y-80953833D01*
X183099471Y-80968920D01*
X183086846Y-80987107D01*
X183067799Y-80998409D01*
X183064540Y-81001444D01*
X183056494Y-81005118D01*
X183047459Y-81008861D01*
X182977990Y-81016334D01*
X182952552Y-81008865D01*
X182883497Y-80980263D01*
X182883493Y-80980262D01*
X182883488Y-80980260D01*
X182728845Y-80949500D01*
X182728842Y-80949500D01*
X182571158Y-80949500D01*
X182571155Y-80949500D01*
X182416510Y-80980261D01*
X182416498Y-80980264D01*
X182270827Y-81040602D01*
X182270811Y-81040611D01*
X182217058Y-81076527D01*
X182150380Y-81097404D01*
X182083001Y-81078918D01*
X182036311Y-81026939D01*
X182025136Y-80957969D01*
X182026547Y-80949257D01*
X182046449Y-80849203D01*
X182050500Y-80828843D01*
X182050500Y-80671155D01*
X182050499Y-80671153D01*
X182030543Y-80570827D01*
X182019737Y-80516503D01*
X182010303Y-80493727D01*
X181959397Y-80370827D01*
X181959390Y-80370814D01*
X181871789Y-80239711D01*
X181871786Y-80239707D01*
X181760292Y-80128213D01*
X181760288Y-80128210D01*
X181629185Y-80040609D01*
X181629172Y-80040602D01*
X181483501Y-79980264D01*
X181483489Y-79980261D01*
X181328845Y-79949500D01*
X181328842Y-79949500D01*
X181171158Y-79949500D01*
X181171155Y-79949500D01*
X181016510Y-79980261D01*
X181016498Y-79980264D01*
X180870827Y-80040602D01*
X180870814Y-80040609D01*
X180739711Y-80128210D01*
X180739707Y-80128213D01*
X180628213Y-80239707D01*
X180628210Y-80239711D01*
X180540609Y-80370814D01*
X180540602Y-80370827D01*
X180480264Y-80516498D01*
X180480261Y-80516510D01*
X180449500Y-80671153D01*
X180449500Y-80828846D01*
X180480261Y-80983489D01*
X180480264Y-80983501D01*
X180540602Y-81129172D01*
X180540609Y-81129185D01*
X180628210Y-81260288D01*
X180628213Y-81260292D01*
X180739707Y-81371786D01*
X180739711Y-81371789D01*
X180870814Y-81459390D01*
X180870827Y-81459397D01*
X181008695Y-81516503D01*
X181016503Y-81519737D01*
X181128567Y-81542028D01*
X181171153Y-81550499D01*
X181171156Y-81550500D01*
X181171158Y-81550500D01*
X181328844Y-81550500D01*
X181328845Y-81550499D01*
X181483497Y-81519737D01*
X181629179Y-81459394D01*
X181629185Y-81459390D01*
X181682939Y-81423473D01*
X181749616Y-81402595D01*
X181816996Y-81421079D01*
X181863687Y-81473058D01*
X181874863Y-81542028D01*
X181873447Y-81550766D01*
X181849500Y-81671153D01*
X181849500Y-81828846D01*
X181880261Y-81983489D01*
X181880264Y-81983501D01*
X181940602Y-82129172D01*
X181940609Y-82129185D01*
X182028210Y-82260288D01*
X182028213Y-82260292D01*
X182139707Y-82371786D01*
X182139711Y-82371789D01*
X182270814Y-82459390D01*
X182270827Y-82459397D01*
X182348356Y-82491510D01*
X182416503Y-82519737D01*
X182527310Y-82541778D01*
X182571153Y-82550499D01*
X182571156Y-82550500D01*
X182589464Y-82550500D01*
X182656503Y-82570185D01*
X182702258Y-82622989D01*
X182712202Y-82692147D01*
X182692567Y-82743390D01*
X182651382Y-82805027D01*
X182651376Y-82805038D01*
X182600461Y-82927959D01*
X182600458Y-82927969D01*
X182574500Y-83058466D01*
X182574500Y-83058469D01*
X182574500Y-83191531D01*
X182574500Y-83191533D01*
X182574499Y-83191533D01*
X182600458Y-83322030D01*
X182600461Y-83322040D01*
X182651376Y-83444961D01*
X182651386Y-83444979D01*
X182725301Y-83555601D01*
X182725307Y-83555609D01*
X182819390Y-83649692D01*
X182819398Y-83649698D01*
X182930020Y-83723613D01*
X182930023Y-83723614D01*
X182930031Y-83723620D01*
X182930037Y-83723622D01*
X182930038Y-83723623D01*
X183015502Y-83759023D01*
X183052964Y-83774540D01*
X183052968Y-83774540D01*
X183052969Y-83774541D01*
X183183466Y-83800500D01*
X183183469Y-83800500D01*
X183316533Y-83800500D01*
X183404325Y-83783035D01*
X183447036Y-83774540D01*
X183569969Y-83723620D01*
X183680606Y-83649695D01*
X183774695Y-83555606D01*
X183848620Y-83444969D01*
X183899540Y-83322036D01*
X183908035Y-83279325D01*
X183925500Y-83191533D01*
X183925500Y-83058466D01*
X183899541Y-82927969D01*
X183899540Y-82927968D01*
X183899540Y-82927964D01*
X183848620Y-82805031D01*
X183800012Y-82732284D01*
X183779135Y-82665609D01*
X183797619Y-82598228D01*
X183849598Y-82551538D01*
X183918568Y-82540362D01*
X183927306Y-82541778D01*
X183971153Y-82550499D01*
X183971156Y-82550500D01*
X183971158Y-82550500D01*
X184128844Y-82550500D01*
X184128845Y-82550499D01*
X184283497Y-82519737D01*
X184429179Y-82459394D01*
X184506609Y-82407657D01*
X184573286Y-82386779D01*
X184640666Y-82405263D01*
X184687357Y-82457242D01*
X184699500Y-82510759D01*
X184699500Y-89342297D01*
X184679815Y-89409336D01*
X184627011Y-89455091D01*
X184557853Y-89465035D01*
X184551309Y-89463914D01*
X184478845Y-89449500D01*
X184478842Y-89449500D01*
X184321158Y-89449500D01*
X184321155Y-89449500D01*
X184166510Y-89480261D01*
X184166498Y-89480264D01*
X184020827Y-89540602D01*
X184020814Y-89540609D01*
X183889711Y-89628210D01*
X183889707Y-89628213D01*
X183778213Y-89739707D01*
X183778210Y-89739711D01*
X183690609Y-89870814D01*
X183690602Y-89870827D01*
X183630264Y-90016498D01*
X183630261Y-90016510D01*
X183599500Y-90171153D01*
X183599500Y-90328846D01*
X183630261Y-90483489D01*
X183630264Y-90483501D01*
X183690602Y-90629172D01*
X183690609Y-90629185D01*
X183778210Y-90760288D01*
X183778213Y-90760292D01*
X183889707Y-90871786D01*
X183889711Y-90871789D01*
X184020814Y-90959390D01*
X184020827Y-90959397D01*
X184166498Y-91019735D01*
X184166503Y-91019737D01*
X184321153Y-91050499D01*
X184321156Y-91050500D01*
X184321158Y-91050500D01*
X184478843Y-91050500D01*
X184494564Y-91047372D01*
X184551309Y-91036085D01*
X184620899Y-91042312D01*
X184676077Y-91085174D01*
X184699322Y-91151063D01*
X184699500Y-91157702D01*
X184699500Y-94502242D01*
X184679815Y-94569281D01*
X184627011Y-94615036D01*
X184557853Y-94624980D01*
X184551309Y-94623859D01*
X184428846Y-94599500D01*
X184428842Y-94599500D01*
X184271158Y-94599500D01*
X184271155Y-94599500D01*
X184116510Y-94630261D01*
X184116498Y-94630264D01*
X183970827Y-94690602D01*
X183970814Y-94690609D01*
X183839711Y-94778210D01*
X183839707Y-94778213D01*
X183728213Y-94889707D01*
X183728210Y-94889711D01*
X183640609Y-95020814D01*
X183640602Y-95020827D01*
X183580264Y-95166498D01*
X183580261Y-95166510D01*
X183549500Y-95321153D01*
X183549500Y-95478846D01*
X183580260Y-95633488D01*
X183580262Y-95633493D01*
X183580263Y-95633497D01*
X183598784Y-95678211D01*
X183608865Y-95702549D01*
X183616333Y-95772018D01*
X183608865Y-95797447D01*
X183580263Y-95866503D01*
X183580262Y-95866506D01*
X183580260Y-95866511D01*
X183549500Y-96021153D01*
X183549500Y-96178846D01*
X183580260Y-96333488D01*
X183580262Y-96333493D01*
X183580263Y-96333497D01*
X183599046Y-96378844D01*
X183608865Y-96402549D01*
X183616333Y-96472018D01*
X183608865Y-96497447D01*
X183593933Y-96533501D01*
X183580262Y-96566506D01*
X183580260Y-96566511D01*
X183549500Y-96721153D01*
X183549500Y-96878846D01*
X183580260Y-97033488D01*
X183580262Y-97033493D01*
X183580263Y-97033497D01*
X183608016Y-97100500D01*
X183608865Y-97102549D01*
X183616333Y-97172018D01*
X183608865Y-97197447D01*
X183603918Y-97209394D01*
X183580262Y-97266506D01*
X183580260Y-97266511D01*
X183549500Y-97421153D01*
X183549500Y-97578846D01*
X183580261Y-97733489D01*
X183580264Y-97733501D01*
X183640602Y-97879172D01*
X183640609Y-97879185D01*
X183728210Y-98010288D01*
X183728213Y-98010292D01*
X183839707Y-98121786D01*
X183839711Y-98121789D01*
X183970814Y-98209390D01*
X183970827Y-98209397D01*
X184116498Y-98269735D01*
X184116503Y-98269737D01*
X184271153Y-98300499D01*
X184271156Y-98300500D01*
X184271158Y-98300500D01*
X184428844Y-98300500D01*
X184551308Y-98276140D01*
X184620900Y-98282367D01*
X184676077Y-98325230D01*
X184699322Y-98391120D01*
X184699500Y-98397757D01*
X184699500Y-100841324D01*
X184679815Y-100908363D01*
X184663181Y-100929005D01*
X184329005Y-101263181D01*
X184267682Y-101296666D01*
X184241324Y-101299500D01*
X169210759Y-101299500D01*
X169143720Y-101279815D01*
X169097965Y-101227011D01*
X169088021Y-101157853D01*
X169107657Y-101106609D01*
X169116194Y-101093831D01*
X169159394Y-101029179D01*
X169219737Y-100883497D01*
X169250500Y-100728842D01*
X169250500Y-100571158D01*
X169250500Y-100571155D01*
X169250499Y-100571153D01*
X169219738Y-100416510D01*
X169219737Y-100416503D01*
X169196453Y-100360289D01*
X169159397Y-100270827D01*
X169159390Y-100270814D01*
X169071789Y-100139711D01*
X169071786Y-100139707D01*
X169069970Y-100137891D01*
X169069959Y-100137881D01*
X168960289Y-100028211D01*
X168917949Y-99999920D01*
X168829185Y-99940609D01*
X168829172Y-99940602D01*
X168683501Y-99880264D01*
X168683489Y-99880261D01*
X168528845Y-99849500D01*
X168528842Y-99849500D01*
X168371158Y-99849500D01*
X168371155Y-99849500D01*
X168216510Y-99880261D01*
X168216507Y-99880261D01*
X168121952Y-99919427D01*
X168052482Y-99926895D01*
X167990003Y-99895619D01*
X167954351Y-99835530D01*
X167950500Y-99804865D01*
X167950500Y-99771155D01*
X167950499Y-99771153D01*
X167932204Y-99679179D01*
X167919737Y-99616503D01*
X167885352Y-99533489D01*
X167859397Y-99470827D01*
X167859390Y-99470814D01*
X167771789Y-99339711D01*
X167771786Y-99339707D01*
X167660292Y-99228213D01*
X167660288Y-99228210D01*
X167649727Y-99221153D01*
X168899500Y-99221153D01*
X168899500Y-99378846D01*
X168930261Y-99533489D01*
X168930264Y-99533501D01*
X168990602Y-99679172D01*
X168990609Y-99679185D01*
X169078210Y-99810288D01*
X169078213Y-99810292D01*
X169080028Y-99812107D01*
X169080038Y-99812116D01*
X169189711Y-99921789D01*
X169263903Y-99971362D01*
X169320814Y-100009390D01*
X169320827Y-100009397D01*
X169466498Y-100069735D01*
X169466503Y-100069737D01*
X169621153Y-100100499D01*
X169621156Y-100100500D01*
X169621158Y-100100500D01*
X169778844Y-100100500D01*
X169778845Y-100100499D01*
X169933497Y-100069737D01*
X170079179Y-100009394D01*
X170210289Y-99921789D01*
X170321789Y-99810289D01*
X170409394Y-99679179D01*
X170469737Y-99533497D01*
X170500500Y-99378842D01*
X170500500Y-99221158D01*
X170500500Y-99221155D01*
X170500499Y-99221153D01*
X170488392Y-99160288D01*
X170469737Y-99066503D01*
X170469735Y-99066498D01*
X170426666Y-98962518D01*
X170409532Y-98921153D01*
X170999500Y-98921153D01*
X170999500Y-99078846D01*
X171030261Y-99233489D01*
X171030264Y-99233501D01*
X171090602Y-99379172D01*
X171090609Y-99379185D01*
X171178210Y-99510288D01*
X171178213Y-99510292D01*
X171289707Y-99621786D01*
X171289711Y-99621789D01*
X171420814Y-99709390D01*
X171420827Y-99709397D01*
X171566498Y-99769735D01*
X171566503Y-99769737D01*
X171721153Y-99800499D01*
X171721156Y-99800500D01*
X171721158Y-99800500D01*
X171878844Y-99800500D01*
X171878845Y-99800499D01*
X172033497Y-99769737D01*
X172179179Y-99709394D01*
X172310289Y-99621789D01*
X172421789Y-99510289D01*
X172509394Y-99379179D01*
X172569737Y-99233497D01*
X172600500Y-99078842D01*
X172600500Y-98921158D01*
X172600500Y-98921155D01*
X172600499Y-98921153D01*
X172596391Y-98900499D01*
X172569737Y-98766503D01*
X172554138Y-98728844D01*
X172509397Y-98620827D01*
X172509390Y-98620814D01*
X172421789Y-98489711D01*
X172421786Y-98489707D01*
X172310292Y-98378213D01*
X172310288Y-98378210D01*
X172179185Y-98290609D01*
X172179172Y-98290602D01*
X172033501Y-98230264D01*
X172033489Y-98230261D01*
X171878845Y-98199500D01*
X171878842Y-98199500D01*
X171721158Y-98199500D01*
X171721155Y-98199500D01*
X171566510Y-98230261D01*
X171566498Y-98230264D01*
X171420827Y-98290602D01*
X171420814Y-98290609D01*
X171289711Y-98378210D01*
X171289707Y-98378213D01*
X171178213Y-98489707D01*
X171178210Y-98489711D01*
X171090609Y-98620814D01*
X171090602Y-98620827D01*
X171030264Y-98766498D01*
X171030261Y-98766510D01*
X170999500Y-98921153D01*
X170409532Y-98921153D01*
X170409395Y-98920823D01*
X170409390Y-98920814D01*
X170321789Y-98789711D01*
X170321786Y-98789707D01*
X170210292Y-98678213D01*
X170210288Y-98678210D01*
X170079185Y-98590609D01*
X170079172Y-98590602D01*
X169933501Y-98530264D01*
X169933489Y-98530261D01*
X169778845Y-98499500D01*
X169778842Y-98499500D01*
X169621158Y-98499500D01*
X169621155Y-98499500D01*
X169466510Y-98530261D01*
X169466498Y-98530264D01*
X169320827Y-98590602D01*
X169320814Y-98590609D01*
X169189711Y-98678210D01*
X169189707Y-98678213D01*
X169078213Y-98789707D01*
X169078210Y-98789711D01*
X168990609Y-98920814D01*
X168990602Y-98920827D01*
X168930264Y-99066498D01*
X168930261Y-99066510D01*
X168899500Y-99221153D01*
X167649727Y-99221153D01*
X167529185Y-99140609D01*
X167529172Y-99140602D01*
X167383501Y-99080264D01*
X167383489Y-99080261D01*
X167228845Y-99049500D01*
X167228842Y-99049500D01*
X167071158Y-99049500D01*
X167071155Y-99049500D01*
X166916510Y-99080261D01*
X166916498Y-99080264D01*
X166822452Y-99119219D01*
X166752982Y-99126688D01*
X166727548Y-99119219D01*
X166633501Y-99080264D01*
X166633489Y-99080261D01*
X166478845Y-99049500D01*
X166478842Y-99049500D01*
X166321158Y-99049500D01*
X166321155Y-99049500D01*
X166166510Y-99080261D01*
X166166498Y-99080264D01*
X166020827Y-99140602D01*
X166020814Y-99140609D01*
X165893391Y-99225751D01*
X165826713Y-99246629D01*
X165759333Y-99228144D01*
X165712643Y-99176165D01*
X165700500Y-99122649D01*
X165700500Y-98021153D01*
X174699500Y-98021153D01*
X174699500Y-98178846D01*
X174730261Y-98333489D01*
X174730264Y-98333501D01*
X174790602Y-98479172D01*
X174790609Y-98479185D01*
X174878210Y-98610288D01*
X174878213Y-98610292D01*
X174989707Y-98721786D01*
X174989711Y-98721789D01*
X175120814Y-98809390D01*
X175120827Y-98809397D01*
X175266498Y-98869735D01*
X175266503Y-98869737D01*
X175421153Y-98900499D01*
X175421156Y-98900500D01*
X175421158Y-98900500D01*
X175578844Y-98900500D01*
X175578845Y-98900499D01*
X175733497Y-98869737D01*
X175879179Y-98809394D01*
X176010289Y-98721789D01*
X176121789Y-98610289D01*
X176161022Y-98551571D01*
X176167967Y-98545767D01*
X176171875Y-98537600D01*
X176194356Y-98523712D01*
X176214632Y-98506767D01*
X176223614Y-98505638D01*
X176231318Y-98500880D01*
X176257739Y-98501351D01*
X176283957Y-98498058D01*
X176293971Y-98501998D01*
X176301177Y-98502127D01*
X176333013Y-98517359D01*
X176394391Y-98558370D01*
X176439196Y-98611982D01*
X176449500Y-98661472D01*
X176449500Y-98728846D01*
X176480261Y-98883489D01*
X176480264Y-98883501D01*
X176540602Y-99029172D01*
X176540609Y-99029185D01*
X176628210Y-99160288D01*
X176628213Y-99160292D01*
X176739707Y-99271786D01*
X176739711Y-99271789D01*
X176870814Y-99359390D01*
X176870827Y-99359397D01*
X177016498Y-99419735D01*
X177016503Y-99419737D01*
X177171153Y-99450499D01*
X177171156Y-99450500D01*
X177171158Y-99450500D01*
X177328844Y-99450500D01*
X177328845Y-99450499D01*
X177483497Y-99419737D01*
X177629179Y-99359394D01*
X177760289Y-99271789D01*
X177871789Y-99160289D01*
X177959394Y-99029179D01*
X178019737Y-98883497D01*
X178050500Y-98728842D01*
X178050500Y-98571158D01*
X178050500Y-98571155D01*
X178050499Y-98571153D01*
X178036743Y-98501998D01*
X178019737Y-98416503D01*
X177981931Y-98325230D01*
X177959397Y-98270827D01*
X177959390Y-98270814D01*
X177934763Y-98233957D01*
X177892798Y-98171153D01*
X178649500Y-98171153D01*
X178649500Y-98328846D01*
X178680261Y-98483489D01*
X178680264Y-98483501D01*
X178740602Y-98629172D01*
X178740609Y-98629185D01*
X178828210Y-98760288D01*
X178828213Y-98760292D01*
X178939707Y-98871786D01*
X178939711Y-98871789D01*
X179070814Y-98959390D01*
X179070827Y-98959397D01*
X179216498Y-99019735D01*
X179216503Y-99019737D01*
X179366131Y-99049500D01*
X179371153Y-99050499D01*
X179371156Y-99050500D01*
X179371158Y-99050500D01*
X179528844Y-99050500D01*
X179528845Y-99050499D01*
X179683497Y-99019737D01*
X179727546Y-99001490D01*
X179797015Y-98994021D01*
X179822454Y-99001491D01*
X179866497Y-99019735D01*
X179866499Y-99019735D01*
X179866503Y-99019737D01*
X180016131Y-99049500D01*
X180021153Y-99050499D01*
X180021156Y-99050500D01*
X180021158Y-99050500D01*
X180178844Y-99050500D01*
X180178845Y-99050499D01*
X180333497Y-99019737D01*
X180377546Y-99001490D01*
X180447015Y-98994021D01*
X180472454Y-99001491D01*
X180516497Y-99019735D01*
X180516499Y-99019735D01*
X180516503Y-99019737D01*
X180666131Y-99049500D01*
X180671153Y-99050499D01*
X180671156Y-99050500D01*
X180671158Y-99050500D01*
X180828844Y-99050500D01*
X180828845Y-99050499D01*
X180983497Y-99019737D01*
X181027546Y-99001490D01*
X181097015Y-98994021D01*
X181122454Y-99001491D01*
X181166497Y-99019735D01*
X181166499Y-99019735D01*
X181166503Y-99019737D01*
X181316131Y-99049500D01*
X181321153Y-99050499D01*
X181321156Y-99050500D01*
X181321158Y-99050500D01*
X181478844Y-99050500D01*
X181478845Y-99050499D01*
X181633497Y-99019737D01*
X181779179Y-98959394D01*
X181910289Y-98871789D01*
X182021789Y-98760289D01*
X182109394Y-98629179D01*
X182112854Y-98620827D01*
X182147327Y-98537600D01*
X182169737Y-98483497D01*
X182200500Y-98328842D01*
X182200500Y-98171158D01*
X182200500Y-98171155D01*
X182200499Y-98171153D01*
X182172066Y-98028211D01*
X182169737Y-98016503D01*
X182167163Y-98010288D01*
X182109397Y-97870827D01*
X182109390Y-97870814D01*
X182021789Y-97739711D01*
X182021786Y-97739707D01*
X181910292Y-97628213D01*
X181910288Y-97628210D01*
X181779185Y-97540609D01*
X181779172Y-97540602D01*
X181633501Y-97480264D01*
X181633489Y-97480261D01*
X181478845Y-97449500D01*
X181478842Y-97449500D01*
X181321158Y-97449500D01*
X181321155Y-97449500D01*
X181166511Y-97480260D01*
X181166506Y-97480262D01*
X181166504Y-97480262D01*
X181166503Y-97480263D01*
X181122449Y-97498510D01*
X181052982Y-97505978D01*
X181027552Y-97498511D01*
X180983497Y-97480263D01*
X180983493Y-97480262D01*
X180983488Y-97480260D01*
X180828845Y-97449500D01*
X180828842Y-97449500D01*
X180671158Y-97449500D01*
X180671155Y-97449500D01*
X180516511Y-97480260D01*
X180516506Y-97480262D01*
X180516504Y-97480262D01*
X180516503Y-97480263D01*
X180472449Y-97498510D01*
X180402982Y-97505978D01*
X180377552Y-97498511D01*
X180333497Y-97480263D01*
X180333493Y-97480262D01*
X180333488Y-97480260D01*
X180178845Y-97449500D01*
X180178842Y-97449500D01*
X180021158Y-97449500D01*
X180021155Y-97449500D01*
X179866511Y-97480260D01*
X179866506Y-97480262D01*
X179866504Y-97480262D01*
X179866503Y-97480263D01*
X179822449Y-97498510D01*
X179752982Y-97505978D01*
X179727552Y-97498511D01*
X179683497Y-97480263D01*
X179683493Y-97480262D01*
X179683488Y-97480260D01*
X179528845Y-97449500D01*
X179528842Y-97449500D01*
X179371158Y-97449500D01*
X179371155Y-97449500D01*
X179216510Y-97480261D01*
X179216498Y-97480264D01*
X179070827Y-97540602D01*
X179070814Y-97540609D01*
X178939711Y-97628210D01*
X178939707Y-97628213D01*
X178828213Y-97739707D01*
X178828210Y-97739711D01*
X178740609Y-97870814D01*
X178740602Y-97870827D01*
X178680264Y-98016498D01*
X178680261Y-98016510D01*
X178649500Y-98171153D01*
X177892798Y-98171153D01*
X177871789Y-98139711D01*
X177871786Y-98139707D01*
X177760292Y-98028213D01*
X177760288Y-98028210D01*
X177675609Y-97971629D01*
X177630804Y-97918017D01*
X177620500Y-97868527D01*
X177620500Y-97801155D01*
X177620499Y-97801153D01*
X177589738Y-97646506D01*
X177589735Y-97646498D01*
X177529397Y-97500827D01*
X177529390Y-97500814D01*
X177441789Y-97369711D01*
X177441786Y-97369707D01*
X177330292Y-97258213D01*
X177330288Y-97258210D01*
X177199185Y-97170609D01*
X177199172Y-97170602D01*
X177053501Y-97110264D01*
X177053489Y-97110261D01*
X176898845Y-97079500D01*
X176898842Y-97079500D01*
X176741158Y-97079500D01*
X176741155Y-97079500D01*
X176586510Y-97110261D01*
X176586498Y-97110264D01*
X176440827Y-97170602D01*
X176440814Y-97170609D01*
X176309711Y-97258210D01*
X176309707Y-97258213D01*
X176198213Y-97369707D01*
X176158977Y-97428428D01*
X176105364Y-97473232D01*
X176036039Y-97481939D01*
X175986984Y-97462638D01*
X175879185Y-97390609D01*
X175879172Y-97390602D01*
X175733501Y-97330264D01*
X175733489Y-97330261D01*
X175578845Y-97299500D01*
X175578842Y-97299500D01*
X175421158Y-97299500D01*
X175421155Y-97299500D01*
X175266510Y-97330261D01*
X175266498Y-97330264D01*
X175120827Y-97390602D01*
X175120814Y-97390609D01*
X174989711Y-97478210D01*
X174989707Y-97478213D01*
X174878213Y-97589707D01*
X174878210Y-97589711D01*
X174790609Y-97720814D01*
X174790602Y-97720827D01*
X174730264Y-97866498D01*
X174730261Y-97866510D01*
X174699500Y-98021153D01*
X165700500Y-98021153D01*
X165700500Y-97927350D01*
X165720185Y-97860311D01*
X165772989Y-97814556D01*
X165842147Y-97804612D01*
X165893391Y-97824248D01*
X166020814Y-97909390D01*
X166020827Y-97909397D01*
X166166498Y-97969735D01*
X166166503Y-97969737D01*
X166321153Y-98000499D01*
X166321156Y-98000500D01*
X166321158Y-98000500D01*
X166478844Y-98000500D01*
X166478845Y-98000499D01*
X166633497Y-97969737D01*
X166779179Y-97909394D01*
X166910289Y-97821789D01*
X167021789Y-97710289D01*
X167109394Y-97579179D01*
X167169737Y-97433497D01*
X167178682Y-97388523D01*
X167211065Y-97326615D01*
X167271780Y-97292039D01*
X167276100Y-97291099D01*
X167383497Y-97269737D01*
X167529179Y-97209394D01*
X167660289Y-97121789D01*
X167771789Y-97010289D01*
X167859394Y-96879179D01*
X167919737Y-96733497D01*
X167950500Y-96578842D01*
X167950500Y-96421158D01*
X167950500Y-96421155D01*
X167950499Y-96421153D01*
X167924264Y-96289257D01*
X167920662Y-96271153D01*
X172249500Y-96271153D01*
X172249500Y-96428846D01*
X172280261Y-96583489D01*
X172280264Y-96583501D01*
X172340602Y-96729172D01*
X172340609Y-96729185D01*
X172428210Y-96860288D01*
X172428213Y-96860292D01*
X172539707Y-96971786D01*
X172539711Y-96971789D01*
X172670814Y-97059390D01*
X172670827Y-97059397D01*
X172793633Y-97110264D01*
X172816503Y-97119737D01*
X172921033Y-97140529D01*
X172962279Y-97148734D01*
X173024190Y-97181119D01*
X173052649Y-97222899D01*
X173065602Y-97254172D01*
X173065609Y-97254185D01*
X173153210Y-97385288D01*
X173153213Y-97385292D01*
X173264707Y-97496786D01*
X173264711Y-97496789D01*
X173395814Y-97584390D01*
X173395827Y-97584397D01*
X173501603Y-97628210D01*
X173541503Y-97644737D01*
X173696153Y-97675499D01*
X173696156Y-97675500D01*
X173696158Y-97675500D01*
X173853844Y-97675500D01*
X173853845Y-97675499D01*
X174008497Y-97644737D01*
X174154179Y-97584394D01*
X174285289Y-97496789D01*
X174396789Y-97385289D01*
X174484394Y-97254179D01*
X174544737Y-97108497D01*
X174575500Y-96953842D01*
X174575500Y-96796158D01*
X174575500Y-96796155D01*
X174575499Y-96796153D01*
X174562177Y-96729179D01*
X174544737Y-96641503D01*
X174520712Y-96583501D01*
X174484397Y-96495827D01*
X174484390Y-96495814D01*
X174396789Y-96364711D01*
X174396786Y-96364707D01*
X174285292Y-96253213D01*
X174285288Y-96253210D01*
X174237312Y-96221153D01*
X180699500Y-96221153D01*
X180699500Y-96378846D01*
X180730261Y-96533489D01*
X180730264Y-96533501D01*
X180790602Y-96679172D01*
X180790609Y-96679185D01*
X180878210Y-96810288D01*
X180878213Y-96810292D01*
X180989707Y-96921786D01*
X180989711Y-96921789D01*
X181120814Y-97009390D01*
X181120827Y-97009397D01*
X181266498Y-97069735D01*
X181266503Y-97069737D01*
X181421153Y-97100499D01*
X181421156Y-97100500D01*
X181421158Y-97100500D01*
X181578844Y-97100500D01*
X181578845Y-97100499D01*
X181733497Y-97069737D01*
X181879179Y-97009394D01*
X182010289Y-96921789D01*
X182121789Y-96810289D01*
X182209394Y-96679179D01*
X182269737Y-96533497D01*
X182300500Y-96378842D01*
X182300500Y-96221158D01*
X182300500Y-96221155D01*
X182300499Y-96221153D01*
X182269737Y-96066503D01*
X182237929Y-95989711D01*
X182209397Y-95920827D01*
X182209390Y-95920814D01*
X182121789Y-95789711D01*
X182121786Y-95789707D01*
X182010292Y-95678213D01*
X182010288Y-95678210D01*
X181879185Y-95590609D01*
X181879178Y-95590605D01*
X181875451Y-95589062D01*
X181821047Y-95545222D01*
X181798981Y-95478928D01*
X181816259Y-95411229D01*
X181867395Y-95363617D01*
X181922902Y-95350500D01*
X181928844Y-95350500D01*
X181928845Y-95350499D01*
X182083497Y-95319737D01*
X182204851Y-95269471D01*
X182229172Y-95259397D01*
X182229172Y-95259396D01*
X182229179Y-95259394D01*
X182360289Y-95171789D01*
X182471789Y-95060289D01*
X182559394Y-94929179D01*
X182563267Y-94919830D01*
X182619735Y-94783501D01*
X182619737Y-94783497D01*
X182650500Y-94628842D01*
X182650500Y-94471158D01*
X182650500Y-94471155D01*
X182650499Y-94471153D01*
X182645936Y-94448213D01*
X182619737Y-94316503D01*
X182591134Y-94247450D01*
X182583666Y-94177984D01*
X182591133Y-94152552D01*
X182619737Y-94083497D01*
X182650500Y-93928842D01*
X182650500Y-93771158D01*
X182650500Y-93771155D01*
X182650499Y-93771153D01*
X182620788Y-93621789D01*
X182619737Y-93616503D01*
X182580778Y-93522449D01*
X182573310Y-93452984D01*
X182580775Y-93427556D01*
X182619737Y-93333497D01*
X182650500Y-93178842D01*
X182650500Y-93021158D01*
X182650500Y-93021155D01*
X182650499Y-93021153D01*
X182633566Y-92936027D01*
X182619737Y-92866503D01*
X182594226Y-92804914D01*
X182559397Y-92720827D01*
X182559390Y-92720814D01*
X182471789Y-92589711D01*
X182471786Y-92589707D01*
X182360292Y-92478213D01*
X182360288Y-92478210D01*
X182229185Y-92390609D01*
X182229172Y-92390602D01*
X182083501Y-92330264D01*
X182083489Y-92330261D01*
X181928845Y-92299500D01*
X181928842Y-92299500D01*
X181771158Y-92299500D01*
X181771155Y-92299500D01*
X181616510Y-92330261D01*
X181616498Y-92330264D01*
X181470827Y-92390602D01*
X181470814Y-92390609D01*
X181339711Y-92478210D01*
X181339707Y-92478213D01*
X181228213Y-92589707D01*
X181228210Y-92589711D01*
X181140609Y-92720814D01*
X181140602Y-92720827D01*
X181080264Y-92866498D01*
X181080261Y-92866510D01*
X181049500Y-93021153D01*
X181049500Y-93178846D01*
X181080261Y-93333489D01*
X181080264Y-93333501D01*
X181119219Y-93427548D01*
X181126688Y-93497018D01*
X181119219Y-93522452D01*
X181080264Y-93616498D01*
X181080261Y-93616510D01*
X181049500Y-93771153D01*
X181049500Y-93928846D01*
X181080260Y-94083488D01*
X181080262Y-94083493D01*
X181080263Y-94083497D01*
X181108864Y-94152547D01*
X181108865Y-94152549D01*
X181116333Y-94222018D01*
X181108865Y-94247447D01*
X181080263Y-94316503D01*
X181080262Y-94316506D01*
X181080260Y-94316511D01*
X181049500Y-94471153D01*
X181049500Y-94628846D01*
X181080261Y-94783489D01*
X181080264Y-94783501D01*
X181140602Y-94929172D01*
X181140609Y-94929185D01*
X181228210Y-95060288D01*
X181228213Y-95060292D01*
X181339707Y-95171786D01*
X181339711Y-95171789D01*
X181470814Y-95259390D01*
X181470821Y-95259394D01*
X181474549Y-95260938D01*
X181528953Y-95304778D01*
X181551019Y-95371072D01*
X181533741Y-95438771D01*
X181482605Y-95486383D01*
X181427098Y-95499500D01*
X181421155Y-95499500D01*
X181266510Y-95530261D01*
X181266498Y-95530264D01*
X181120827Y-95590602D01*
X181120814Y-95590609D01*
X180989711Y-95678210D01*
X180989707Y-95678213D01*
X180878213Y-95789707D01*
X180878210Y-95789711D01*
X180790609Y-95920814D01*
X180790602Y-95920827D01*
X180730264Y-96066498D01*
X180730261Y-96066510D01*
X180699500Y-96221153D01*
X174237312Y-96221153D01*
X174154185Y-96165609D01*
X174154172Y-96165602D01*
X174008501Y-96105264D01*
X174008491Y-96105261D01*
X173862719Y-96076265D01*
X173800808Y-96043880D01*
X173772350Y-96002101D01*
X173759394Y-95970821D01*
X173759390Y-95970814D01*
X173671789Y-95839711D01*
X173671786Y-95839707D01*
X173639759Y-95807680D01*
X173606274Y-95746357D01*
X173611258Y-95676665D01*
X173639756Y-95632321D01*
X173691789Y-95580289D01*
X173779394Y-95449179D01*
X173839737Y-95303497D01*
X173870500Y-95148842D01*
X173870500Y-94991158D01*
X173870500Y-94991156D01*
X173870236Y-94988476D01*
X173870500Y-94987084D01*
X173870500Y-94985066D01*
X173870883Y-94985066D01*
X173883256Y-94919830D01*
X173924746Y-94873222D01*
X174027539Y-94804539D01*
X174139039Y-94693039D01*
X174226644Y-94561929D01*
X174286987Y-94416247D01*
X174317750Y-94261592D01*
X174317750Y-94103908D01*
X174317750Y-94103905D01*
X174317749Y-94103903D01*
X174313688Y-94083488D01*
X174286987Y-93949253D01*
X174278534Y-93928846D01*
X174226647Y-93803577D01*
X174226640Y-93803564D01*
X174139039Y-93672461D01*
X174139036Y-93672457D01*
X174027542Y-93560963D01*
X174027538Y-93560960D01*
X173896435Y-93473359D01*
X173896422Y-93473352D01*
X173750751Y-93413014D01*
X173750739Y-93413011D01*
X173596095Y-93382250D01*
X173596092Y-93382250D01*
X173438408Y-93382250D01*
X173438405Y-93382250D01*
X173283760Y-93413011D01*
X173283748Y-93413014D01*
X173138077Y-93473352D01*
X173138064Y-93473359D01*
X173006961Y-93560960D01*
X173006957Y-93560963D01*
X172895463Y-93672457D01*
X172895460Y-93672461D01*
X172807859Y-93803564D01*
X172807852Y-93803577D01*
X172747514Y-93949248D01*
X172747511Y-93949260D01*
X172716750Y-94103903D01*
X172716750Y-94261602D01*
X172717014Y-94264286D01*
X172716750Y-94265677D01*
X172716750Y-94267684D01*
X172716369Y-94267684D01*
X172703988Y-94332931D01*
X172662501Y-94379528D01*
X172559711Y-94448210D01*
X172559707Y-94448213D01*
X172448213Y-94559707D01*
X172448210Y-94559711D01*
X172360609Y-94690814D01*
X172360602Y-94690827D01*
X172300264Y-94836498D01*
X172300261Y-94836510D01*
X172269500Y-94991153D01*
X172269500Y-95148846D01*
X172300261Y-95303489D01*
X172300264Y-95303501D01*
X172360602Y-95449172D01*
X172360609Y-95449185D01*
X172448210Y-95580288D01*
X172448213Y-95580292D01*
X172480240Y-95612319D01*
X172513725Y-95673642D01*
X172508741Y-95743334D01*
X172480240Y-95787681D01*
X172428213Y-95839707D01*
X172428210Y-95839711D01*
X172340609Y-95970814D01*
X172340602Y-95970827D01*
X172280264Y-96116498D01*
X172280261Y-96116510D01*
X172249500Y-96271153D01*
X167920662Y-96271153D01*
X167919738Y-96266507D01*
X167919735Y-96266498D01*
X167859397Y-96120827D01*
X167859390Y-96120814D01*
X167771789Y-95989711D01*
X167771786Y-95989707D01*
X167660292Y-95878213D01*
X167660288Y-95878210D01*
X167529185Y-95790609D01*
X167529172Y-95790602D01*
X167383501Y-95730264D01*
X167383491Y-95730261D01*
X167276107Y-95708901D01*
X167214196Y-95676516D01*
X167183323Y-95628425D01*
X167180402Y-95620120D01*
X167169737Y-95566503D01*
X167115452Y-95435448D01*
X167114329Y-95432253D01*
X167112663Y-95400608D01*
X167109275Y-95369095D01*
X167110839Y-95365969D01*
X167110656Y-95362480D01*
X167126367Y-95334950D01*
X167140551Y-95306616D01*
X167143554Y-95304833D01*
X167145288Y-95301797D01*
X167173399Y-95287126D01*
X167200640Y-95270964D01*
X167204130Y-95271088D01*
X167207230Y-95269471D01*
X167238801Y-95272327D01*
X167270465Y-95273458D01*
X167274808Y-95275584D01*
X167276816Y-95275766D01*
X167279590Y-95277925D01*
X167292257Y-95284126D01*
X167292534Y-95283609D01*
X167297915Y-95286485D01*
X167414922Y-95334950D01*
X167443591Y-95346825D01*
X167598241Y-95377587D01*
X167598244Y-95377588D01*
X167598246Y-95377588D01*
X167755932Y-95377588D01*
X167755933Y-95377587D01*
X167910585Y-95346825D01*
X168023254Y-95300155D01*
X168056260Y-95286485D01*
X168056260Y-95286484D01*
X168056267Y-95286482D01*
X168187377Y-95198877D01*
X168298877Y-95087377D01*
X168386482Y-94956267D01*
X168446825Y-94810585D01*
X168477588Y-94655930D01*
X168477588Y-94498246D01*
X168477588Y-94498243D01*
X168477587Y-94498241D01*
X168461277Y-94416247D01*
X168446825Y-94343591D01*
X168435605Y-94316503D01*
X168386485Y-94197915D01*
X168386478Y-94197902D01*
X168298877Y-94066799D01*
X168298874Y-94066795D01*
X168187380Y-93955301D01*
X168187376Y-93955298D01*
X168056273Y-93867697D01*
X168056260Y-93867690D01*
X167910589Y-93807352D01*
X167910577Y-93807349D01*
X167755933Y-93776588D01*
X167755930Y-93776588D01*
X167598246Y-93776588D01*
X167598243Y-93776588D01*
X167443598Y-93807349D01*
X167443586Y-93807352D01*
X167297915Y-93867690D01*
X167297902Y-93867697D01*
X167166799Y-93955298D01*
X167166795Y-93955301D01*
X167139769Y-93982328D01*
X167078446Y-94015813D01*
X167008754Y-94010829D01*
X166964407Y-93982328D01*
X166860292Y-93878213D01*
X166860288Y-93878210D01*
X166729185Y-93790609D01*
X166729172Y-93790602D01*
X166583501Y-93730264D01*
X166583489Y-93730261D01*
X166428845Y-93699500D01*
X166428842Y-93699500D01*
X166271158Y-93699500D01*
X166271155Y-93699500D01*
X166116510Y-93730261D01*
X166116498Y-93730264D01*
X165970827Y-93790602D01*
X165970809Y-93790612D01*
X165893390Y-93842342D01*
X165826713Y-93863220D01*
X165759333Y-93844735D01*
X165712643Y-93792756D01*
X165700500Y-93739240D01*
X165700500Y-92346888D01*
X173625235Y-92346888D01*
X173625235Y-92504581D01*
X173655996Y-92659224D01*
X173655999Y-92659236D01*
X173716337Y-92804907D01*
X173716344Y-92804920D01*
X173803945Y-92936023D01*
X173803948Y-92936027D01*
X173915442Y-93047521D01*
X173915446Y-93047524D01*
X174046549Y-93135125D01*
X174046562Y-93135132D01*
X174152089Y-93178842D01*
X174192238Y-93195472D01*
X174346888Y-93226234D01*
X174346891Y-93226235D01*
X174346893Y-93226235D01*
X174504579Y-93226235D01*
X174504580Y-93226234D01*
X174659232Y-93195472D01*
X174804914Y-93135129D01*
X174936024Y-93047524D01*
X175047524Y-92936024D01*
X175057461Y-92921153D01*
X175699500Y-92921153D01*
X175699500Y-93078846D01*
X175730261Y-93233489D01*
X175730264Y-93233501D01*
X175790602Y-93379172D01*
X175790609Y-93379185D01*
X175878210Y-93510288D01*
X175878213Y-93510292D01*
X175989707Y-93621786D01*
X175989711Y-93621789D01*
X176120814Y-93709390D01*
X176120827Y-93709397D01*
X176266498Y-93769735D01*
X176266503Y-93769737D01*
X176382227Y-93792756D01*
X176421153Y-93800499D01*
X176421156Y-93800500D01*
X176421158Y-93800500D01*
X176578844Y-93800500D01*
X176578845Y-93800499D01*
X176733497Y-93769737D01*
X176879179Y-93709394D01*
X177010289Y-93621789D01*
X177121789Y-93510289D01*
X177209394Y-93379179D01*
X177269737Y-93233497D01*
X177300500Y-93078842D01*
X177300500Y-92921158D01*
X177300500Y-92921155D01*
X177300499Y-92921153D01*
X177285585Y-92846175D01*
X177269737Y-92766503D01*
X177261873Y-92747517D01*
X177209397Y-92620827D01*
X177209390Y-92620814D01*
X177121789Y-92489711D01*
X177121786Y-92489707D01*
X177010292Y-92378213D01*
X177010288Y-92378210D01*
X176879185Y-92290609D01*
X176879172Y-92290602D01*
X176733501Y-92230264D01*
X176733489Y-92230261D01*
X176578845Y-92199500D01*
X176578842Y-92199500D01*
X176421158Y-92199500D01*
X176421155Y-92199500D01*
X176266510Y-92230261D01*
X176266498Y-92230264D01*
X176120827Y-92290602D01*
X176120814Y-92290609D01*
X175989711Y-92378210D01*
X175989707Y-92378213D01*
X175878213Y-92489707D01*
X175878210Y-92489711D01*
X175790609Y-92620814D01*
X175790602Y-92620827D01*
X175730264Y-92766498D01*
X175730261Y-92766510D01*
X175699500Y-92921153D01*
X175057461Y-92921153D01*
X175093972Y-92866510D01*
X175107560Y-92846175D01*
X175135125Y-92804920D01*
X175135125Y-92804919D01*
X175135129Y-92804914D01*
X175195472Y-92659232D01*
X175226235Y-92504577D01*
X175226235Y-92346893D01*
X175226235Y-92346890D01*
X175226234Y-92346888D01*
X175195474Y-92192246D01*
X175195472Y-92192240D01*
X175195472Y-92192238D01*
X175190817Y-92181001D01*
X175183349Y-92111535D01*
X175202275Y-92064662D01*
X175259394Y-91979179D01*
X175319737Y-91833497D01*
X175350500Y-91678842D01*
X175350500Y-91521158D01*
X175350500Y-91521155D01*
X175350499Y-91521153D01*
X175338392Y-91460288D01*
X175319737Y-91366503D01*
X175307802Y-91337689D01*
X175259397Y-91220827D01*
X175259390Y-91220814D01*
X175171789Y-91089711D01*
X175171786Y-91089707D01*
X175060292Y-90978213D01*
X175060288Y-90978210D01*
X174929185Y-90890609D01*
X174929172Y-90890602D01*
X174783501Y-90830264D01*
X174783489Y-90830261D01*
X174628845Y-90799500D01*
X174628842Y-90799500D01*
X174471158Y-90799500D01*
X174471155Y-90799500D01*
X174316510Y-90830261D01*
X174316498Y-90830264D01*
X174170827Y-90890602D01*
X174170814Y-90890609D01*
X174039711Y-90978210D01*
X174039707Y-90978213D01*
X173928213Y-91089707D01*
X173928210Y-91089711D01*
X173840609Y-91220814D01*
X173840602Y-91220827D01*
X173780264Y-91366498D01*
X173780261Y-91366510D01*
X173749500Y-91521153D01*
X173749500Y-91678846D01*
X173780261Y-91833494D01*
X173780264Y-91833501D01*
X173784917Y-91844736D01*
X173792383Y-91914206D01*
X173773457Y-91961074D01*
X173716343Y-92046551D01*
X173716337Y-92046562D01*
X173655999Y-92192233D01*
X173655996Y-92192245D01*
X173625235Y-92346888D01*
X165700500Y-92346888D01*
X165700500Y-91710759D01*
X165720185Y-91643720D01*
X165772989Y-91597965D01*
X165842147Y-91588021D01*
X165893391Y-91607657D01*
X165970821Y-91659394D01*
X165970823Y-91659395D01*
X165970827Y-91659397D01*
X166116498Y-91719735D01*
X166116503Y-91719737D01*
X166271153Y-91750499D01*
X166271156Y-91750500D01*
X166271158Y-91750500D01*
X166428844Y-91750500D01*
X166428845Y-91750499D01*
X166583497Y-91719737D01*
X166729179Y-91659394D01*
X166860289Y-91571789D01*
X166971789Y-91460289D01*
X167031348Y-91371153D01*
X167799500Y-91371153D01*
X167799500Y-91528846D01*
X167830261Y-91683489D01*
X167830264Y-91683501D01*
X167890602Y-91829172D01*
X167890609Y-91829185D01*
X167978210Y-91960288D01*
X167978213Y-91960292D01*
X168089707Y-92071786D01*
X168089711Y-92071789D01*
X168220814Y-92159390D01*
X168220827Y-92159397D01*
X168300133Y-92192246D01*
X168366503Y-92219737D01*
X168521153Y-92250499D01*
X168521156Y-92250500D01*
X168521158Y-92250500D01*
X168678844Y-92250500D01*
X168678845Y-92250499D01*
X168780590Y-92230261D01*
X168833488Y-92219739D01*
X168833489Y-92219738D01*
X168833497Y-92219737D01*
X168979179Y-92159394D01*
X169110289Y-92071789D01*
X169221789Y-91960289D01*
X169309394Y-91829179D01*
X169369737Y-91683497D01*
X169400500Y-91528842D01*
X169400500Y-91371158D01*
X169400500Y-91371155D01*
X169400499Y-91371153D01*
X169399573Y-91366498D01*
X169369737Y-91216503D01*
X169353491Y-91177281D01*
X169309397Y-91070827D01*
X169309390Y-91070814D01*
X169221789Y-90939711D01*
X169221786Y-90939707D01*
X169110292Y-90828213D01*
X169110288Y-90828210D01*
X168979185Y-90740609D01*
X168979172Y-90740602D01*
X168833501Y-90680264D01*
X168833489Y-90680261D01*
X168678845Y-90649500D01*
X168678842Y-90649500D01*
X168521158Y-90649500D01*
X168521155Y-90649500D01*
X168366510Y-90680261D01*
X168366498Y-90680264D01*
X168220827Y-90740602D01*
X168220814Y-90740609D01*
X168089711Y-90828210D01*
X168089707Y-90828213D01*
X167978213Y-90939707D01*
X167978210Y-90939711D01*
X167890609Y-91070814D01*
X167890602Y-91070827D01*
X167830264Y-91216498D01*
X167830261Y-91216510D01*
X167799500Y-91371153D01*
X167031348Y-91371153D01*
X167059394Y-91329179D01*
X167119737Y-91183497D01*
X167150500Y-91028842D01*
X167150500Y-90871158D01*
X167150500Y-90871155D01*
X167150499Y-90871153D01*
X167142150Y-90829179D01*
X167119737Y-90716503D01*
X167106062Y-90683489D01*
X167059397Y-90570827D01*
X167059390Y-90570814D01*
X166971790Y-90439712D01*
X166971784Y-90439705D01*
X166903232Y-90371153D01*
X177499500Y-90371153D01*
X177499500Y-90528846D01*
X177530261Y-90683489D01*
X177530264Y-90683501D01*
X177590602Y-90829172D01*
X177590609Y-90829185D01*
X177678210Y-90960288D01*
X177678213Y-90960292D01*
X177789707Y-91071786D01*
X177789711Y-91071789D01*
X177920814Y-91159390D01*
X177920827Y-91159397D01*
X178058683Y-91216498D01*
X178066503Y-91219737D01*
X178135548Y-91233471D01*
X178191440Y-91244589D01*
X178253351Y-91276974D01*
X178287925Y-91337689D01*
X178284186Y-91407459D01*
X178270351Y-91435097D01*
X178181660Y-91567831D01*
X178181653Y-91567844D01*
X178121315Y-91713515D01*
X178121312Y-91713527D01*
X178090551Y-91868170D01*
X178090551Y-92025863D01*
X178121312Y-92180506D01*
X178121315Y-92180518D01*
X178181653Y-92326189D01*
X178181660Y-92326202D01*
X178269261Y-92457305D01*
X178269264Y-92457309D01*
X178380758Y-92568803D01*
X178380762Y-92568806D01*
X178511865Y-92656407D01*
X178511878Y-92656414D01*
X178657549Y-92716752D01*
X178657554Y-92716754D01*
X178812204Y-92747516D01*
X178812207Y-92747517D01*
X178812209Y-92747517D01*
X178969895Y-92747517D01*
X178969896Y-92747516D01*
X179124548Y-92716754D01*
X179263410Y-92659236D01*
X179270223Y-92656414D01*
X179270223Y-92656413D01*
X179270230Y-92656411D01*
X179401340Y-92568806D01*
X179512840Y-92457306D01*
X179600445Y-92326196D01*
X179660788Y-92180514D01*
X179691551Y-92025859D01*
X179691551Y-91868175D01*
X179691551Y-91868172D01*
X179691550Y-91868170D01*
X179668144Y-91750500D01*
X179660788Y-91713520D01*
X179638370Y-91659397D01*
X179600448Y-91567844D01*
X179600441Y-91567831D01*
X179512840Y-91436728D01*
X179512837Y-91436724D01*
X179401343Y-91325230D01*
X179401339Y-91325227D01*
X179270236Y-91237626D01*
X179270223Y-91237619D01*
X179124552Y-91177281D01*
X179124542Y-91177278D01*
X178999609Y-91152427D01*
X178937698Y-91120042D01*
X178903124Y-91059326D01*
X178906865Y-90989556D01*
X178920699Y-90961918D01*
X178921784Y-90960293D01*
X178921789Y-90960289D01*
X179009394Y-90829179D01*
X179009395Y-90829175D01*
X179009397Y-90829173D01*
X179046082Y-90740606D01*
X179066845Y-90690476D01*
X179110685Y-90636074D01*
X179176979Y-90614009D01*
X179244679Y-90631288D01*
X179286254Y-90674759D01*
X179287221Y-90674114D01*
X179378210Y-90810288D01*
X179378213Y-90810292D01*
X179489707Y-90921786D01*
X179489711Y-90921789D01*
X179620814Y-91009390D01*
X179620827Y-91009397D01*
X179720060Y-91050500D01*
X179766503Y-91069737D01*
X179921153Y-91100499D01*
X179921156Y-91100500D01*
X179921158Y-91100500D01*
X180078844Y-91100500D01*
X180078845Y-91100499D01*
X180233497Y-91069737D01*
X180379179Y-91009394D01*
X180510289Y-90921789D01*
X180621789Y-90810289D01*
X180709394Y-90679179D01*
X180769737Y-90533497D01*
X180800500Y-90378842D01*
X180800500Y-90221158D01*
X180800500Y-90221155D01*
X180800499Y-90221153D01*
X180771603Y-90075886D01*
X180769737Y-90066503D01*
X180766845Y-90059522D01*
X180709397Y-89920827D01*
X180709390Y-89920814D01*
X180621789Y-89789711D01*
X180621786Y-89789707D01*
X180510292Y-89678213D01*
X180510288Y-89678210D01*
X180379185Y-89590609D01*
X180379172Y-89590602D01*
X180233501Y-89530264D01*
X180233489Y-89530261D01*
X180078845Y-89499500D01*
X180078842Y-89499500D01*
X179921158Y-89499500D01*
X179921155Y-89499500D01*
X179766510Y-89530261D01*
X179766498Y-89530264D01*
X179620827Y-89590602D01*
X179620814Y-89590609D01*
X179489711Y-89678210D01*
X179489707Y-89678213D01*
X179378213Y-89789707D01*
X179378210Y-89789711D01*
X179290609Y-89920814D01*
X179290604Y-89920823D01*
X179233154Y-90059522D01*
X179189313Y-90113925D01*
X179123019Y-90135990D01*
X179055320Y-90118711D01*
X179013747Y-90075239D01*
X179012779Y-90075886D01*
X178921789Y-89939711D01*
X178921786Y-89939707D01*
X178810292Y-89828213D01*
X178810288Y-89828210D01*
X178679185Y-89740609D01*
X178679172Y-89740602D01*
X178533501Y-89680264D01*
X178533489Y-89680261D01*
X178378845Y-89649500D01*
X178378842Y-89649500D01*
X178221158Y-89649500D01*
X178221155Y-89649500D01*
X178066510Y-89680261D01*
X178066498Y-89680264D01*
X177920827Y-89740602D01*
X177920814Y-89740609D01*
X177789711Y-89828210D01*
X177789707Y-89828213D01*
X177678213Y-89939707D01*
X177678210Y-89939711D01*
X177590609Y-90070814D01*
X177590602Y-90070827D01*
X177530264Y-90216498D01*
X177530261Y-90216510D01*
X177499500Y-90371153D01*
X166903232Y-90371153D01*
X166860292Y-90328213D01*
X166860288Y-90328210D01*
X166729185Y-90240609D01*
X166729172Y-90240602D01*
X166583501Y-90180264D01*
X166583489Y-90180261D01*
X166428845Y-90149500D01*
X166428842Y-90149500D01*
X166271158Y-90149500D01*
X166271155Y-90149500D01*
X166116510Y-90180261D01*
X166116498Y-90180264D01*
X165970827Y-90240602D01*
X165970809Y-90240612D01*
X165893390Y-90292342D01*
X165826713Y-90313220D01*
X165759333Y-90294735D01*
X165712643Y-90242756D01*
X165700500Y-90189240D01*
X165700500Y-87771153D01*
X166849500Y-87771153D01*
X166849500Y-87928846D01*
X166880261Y-88083489D01*
X166880264Y-88083501D01*
X166940602Y-88229172D01*
X166940609Y-88229185D01*
X167028210Y-88360288D01*
X167028213Y-88360292D01*
X167139707Y-88471786D01*
X167139711Y-88471789D01*
X167270814Y-88559390D01*
X167270827Y-88559397D01*
X167408683Y-88616498D01*
X167416503Y-88619737D01*
X167571153Y-88650499D01*
X167571156Y-88650500D01*
X167571158Y-88650500D01*
X167728844Y-88650500D01*
X167728845Y-88650499D01*
X167883497Y-88619737D01*
X168029179Y-88559394D01*
X168029184Y-88559390D01*
X168029187Y-88559389D01*
X168056108Y-88541401D01*
X168122785Y-88520522D01*
X168190165Y-88539006D01*
X168193892Y-88541401D01*
X168220812Y-88559389D01*
X168220827Y-88559397D01*
X168358683Y-88616498D01*
X168366503Y-88619737D01*
X168521153Y-88650499D01*
X168521156Y-88650500D01*
X168521158Y-88650500D01*
X168678844Y-88650500D01*
X168678845Y-88650499D01*
X168833497Y-88619737D01*
X168979179Y-88559394D01*
X169110289Y-88471789D01*
X169151593Y-88430485D01*
X169212916Y-88396999D01*
X169282607Y-88401983D01*
X169338541Y-88443853D01*
X169360892Y-88493973D01*
X169378698Y-88583489D01*
X169378701Y-88583499D01*
X169439039Y-88729170D01*
X169439046Y-88729183D01*
X169526647Y-88860286D01*
X169526650Y-88860290D01*
X169638144Y-88971784D01*
X169638148Y-88971787D01*
X169769251Y-89059388D01*
X169769264Y-89059395D01*
X169914935Y-89119733D01*
X169914940Y-89119735D01*
X170069590Y-89150497D01*
X170069593Y-89150498D01*
X170069595Y-89150498D01*
X170227281Y-89150498D01*
X170227282Y-89150497D01*
X170381934Y-89119735D01*
X170527616Y-89059392D01*
X170658726Y-88971787D01*
X170770226Y-88860287D01*
X170829784Y-88771153D01*
X172849500Y-88771153D01*
X172849500Y-88928846D01*
X172880261Y-89083489D01*
X172880264Y-89083501D01*
X172940602Y-89229172D01*
X172940609Y-89229185D01*
X173028210Y-89360288D01*
X173028213Y-89360292D01*
X173139707Y-89471786D01*
X173139711Y-89471789D01*
X173270814Y-89559390D01*
X173270827Y-89559397D01*
X173346181Y-89590609D01*
X173416503Y-89619737D01*
X173566131Y-89649500D01*
X173571153Y-89650499D01*
X173571156Y-89650500D01*
X173571158Y-89650500D01*
X173728844Y-89650500D01*
X173728845Y-89650499D01*
X173883497Y-89619737D01*
X174029179Y-89559394D01*
X174160289Y-89471789D01*
X174271789Y-89360289D01*
X174359394Y-89229179D01*
X174419737Y-89083497D01*
X174450500Y-88928842D01*
X174450500Y-88771158D01*
X174450500Y-88771155D01*
X174450499Y-88771153D01*
X174419737Y-88616503D01*
X174419735Y-88616498D01*
X174359397Y-88470827D01*
X174359390Y-88470814D01*
X174271789Y-88339711D01*
X174271786Y-88339707D01*
X174160292Y-88228213D01*
X174160288Y-88228210D01*
X174029185Y-88140609D01*
X174029172Y-88140602D01*
X173883501Y-88080264D01*
X173883489Y-88080261D01*
X173728845Y-88049500D01*
X173728842Y-88049500D01*
X173571158Y-88049500D01*
X173571155Y-88049500D01*
X173416510Y-88080261D01*
X173416498Y-88080264D01*
X173270827Y-88140602D01*
X173270814Y-88140609D01*
X173139711Y-88228210D01*
X173139707Y-88228213D01*
X173028213Y-88339707D01*
X173028210Y-88339711D01*
X172940609Y-88470814D01*
X172940602Y-88470827D01*
X172880264Y-88616498D01*
X172880261Y-88616510D01*
X172849500Y-88771153D01*
X170829784Y-88771153D01*
X170857831Y-88729177D01*
X170857832Y-88729174D01*
X170857834Y-88729171D01*
X170862621Y-88717614D01*
X170918172Y-88583499D01*
X170918174Y-88583495D01*
X170948937Y-88428840D01*
X170948937Y-88271156D01*
X170948937Y-88271153D01*
X170948936Y-88271151D01*
X170922969Y-88140609D01*
X170918174Y-88116501D01*
X170904505Y-88083501D01*
X170857834Y-87970825D01*
X170857827Y-87970812D01*
X170770226Y-87839709D01*
X170770223Y-87839705D01*
X170658729Y-87728211D01*
X170658725Y-87728208D01*
X170527622Y-87640607D01*
X170527609Y-87640600D01*
X170381938Y-87580262D01*
X170381926Y-87580259D01*
X170227282Y-87549498D01*
X170227279Y-87549498D01*
X170069595Y-87549498D01*
X170069592Y-87549498D01*
X169914947Y-87580259D01*
X169914935Y-87580262D01*
X169769264Y-87640600D01*
X169769251Y-87640607D01*
X169638148Y-87728208D01*
X169638143Y-87728212D01*
X169596841Y-87769514D01*
X169535518Y-87802999D01*
X169465826Y-87798013D01*
X169409893Y-87756141D01*
X169387544Y-87706023D01*
X169380707Y-87671652D01*
X169369737Y-87616503D01*
X169354725Y-87580261D01*
X169309397Y-87470827D01*
X169309390Y-87470814D01*
X169221789Y-87339711D01*
X169221786Y-87339707D01*
X169110292Y-87228213D01*
X169110288Y-87228210D01*
X168979185Y-87140609D01*
X168979172Y-87140602D01*
X168833501Y-87080264D01*
X168833489Y-87080261D01*
X168678845Y-87049500D01*
X168678842Y-87049500D01*
X168521158Y-87049500D01*
X168521155Y-87049500D01*
X168366510Y-87080261D01*
X168366498Y-87080264D01*
X168220828Y-87140602D01*
X168220814Y-87140610D01*
X168193888Y-87158601D01*
X168127210Y-87179477D01*
X168059831Y-87160991D01*
X168056112Y-87158601D01*
X168029185Y-87140610D01*
X168029184Y-87140609D01*
X168029179Y-87140606D01*
X168029175Y-87140604D01*
X168029171Y-87140602D01*
X167883501Y-87080264D01*
X167883489Y-87080261D01*
X167728845Y-87049500D01*
X167728842Y-87049500D01*
X167571158Y-87049500D01*
X167571155Y-87049500D01*
X167416510Y-87080261D01*
X167416498Y-87080264D01*
X167270827Y-87140602D01*
X167270814Y-87140609D01*
X167139711Y-87228210D01*
X167139707Y-87228213D01*
X167028213Y-87339707D01*
X167028210Y-87339711D01*
X166940609Y-87470814D01*
X166940602Y-87470827D01*
X166880264Y-87616498D01*
X166880261Y-87616510D01*
X166849500Y-87771153D01*
X165700500Y-87771153D01*
X165700500Y-84748543D01*
X166399499Y-84748543D01*
X166437947Y-84941829D01*
X166437950Y-84941839D01*
X166513364Y-85123907D01*
X166513371Y-85123920D01*
X166622860Y-85287781D01*
X166622863Y-85287785D01*
X166762214Y-85427136D01*
X166762218Y-85427139D01*
X166926079Y-85536628D01*
X166926092Y-85536635D01*
X167085227Y-85602550D01*
X167108165Y-85612051D01*
X167108169Y-85612051D01*
X167108170Y-85612052D01*
X167301456Y-85650500D01*
X167301459Y-85650500D01*
X168098543Y-85650500D01*
X168228582Y-85624632D01*
X168291835Y-85612051D01*
X168473914Y-85536632D01*
X168637782Y-85427139D01*
X168777139Y-85287782D01*
X168886632Y-85123914D01*
X168929197Y-85021153D01*
X169499500Y-85021153D01*
X169499500Y-85178846D01*
X169530261Y-85333489D01*
X169530264Y-85333501D01*
X169590602Y-85479172D01*
X169590609Y-85479185D01*
X169678207Y-85610284D01*
X169678213Y-85610292D01*
X169789707Y-85721786D01*
X169789711Y-85721789D01*
X169920814Y-85809390D01*
X169920827Y-85809397D01*
X170066498Y-85869735D01*
X170066503Y-85869737D01*
X170221153Y-85900499D01*
X170221156Y-85900500D01*
X170221158Y-85900500D01*
X170378844Y-85900500D01*
X170378845Y-85900499D01*
X170533497Y-85869737D01*
X170679179Y-85809394D01*
X170810289Y-85721789D01*
X170860924Y-85671153D01*
X173499500Y-85671153D01*
X173499500Y-85828846D01*
X173530261Y-85983489D01*
X173530264Y-85983501D01*
X173590602Y-86129172D01*
X173590609Y-86129185D01*
X173678210Y-86260288D01*
X173678213Y-86260292D01*
X173789707Y-86371786D01*
X173789711Y-86371789D01*
X173920814Y-86459390D01*
X173920827Y-86459397D01*
X174066498Y-86519735D01*
X174066503Y-86519737D01*
X174221153Y-86550499D01*
X174221156Y-86550500D01*
X174221158Y-86550500D01*
X174378844Y-86550500D01*
X174378845Y-86550499D01*
X174533497Y-86519737D01*
X174679179Y-86459394D01*
X174810289Y-86371789D01*
X174921789Y-86260289D01*
X175009394Y-86129179D01*
X175069737Y-85983497D01*
X175100500Y-85828842D01*
X175100500Y-85671158D01*
X175100500Y-85671155D01*
X175100499Y-85671153D01*
X175093514Y-85636036D01*
X175069737Y-85516503D01*
X175068084Y-85512512D01*
X175050953Y-85471153D01*
X175699500Y-85471153D01*
X175699500Y-85628846D01*
X175730261Y-85783489D01*
X175730264Y-85783501D01*
X175790602Y-85929172D01*
X175790609Y-85929185D01*
X175878210Y-86060288D01*
X175878213Y-86060292D01*
X175989707Y-86171786D01*
X175989711Y-86171789D01*
X176120814Y-86259390D01*
X176120827Y-86259397D01*
X176266498Y-86319735D01*
X176266503Y-86319737D01*
X176421153Y-86350499D01*
X176421156Y-86350500D01*
X176421158Y-86350500D01*
X176578844Y-86350500D01*
X176578845Y-86350499D01*
X176733497Y-86319737D01*
X176879179Y-86259394D01*
X177010289Y-86171789D01*
X177121789Y-86060289D01*
X177209394Y-85929179D01*
X177269737Y-85783497D01*
X177300500Y-85628842D01*
X177300500Y-85471158D01*
X177300500Y-85471155D01*
X177300499Y-85471153D01*
X177269737Y-85316503D01*
X177257842Y-85287785D01*
X177250953Y-85271153D01*
X182449500Y-85271153D01*
X182449500Y-85428846D01*
X182480261Y-85583489D01*
X182480264Y-85583501D01*
X182540602Y-85729172D01*
X182540609Y-85729185D01*
X182628210Y-85860288D01*
X182628213Y-85860292D01*
X182739707Y-85971786D01*
X182739711Y-85971789D01*
X182870814Y-86059390D01*
X182870827Y-86059397D01*
X183016498Y-86119735D01*
X183016503Y-86119737D01*
X183171153Y-86150499D01*
X183171156Y-86150500D01*
X183171158Y-86150500D01*
X183328844Y-86150500D01*
X183328845Y-86150499D01*
X183483497Y-86119737D01*
X183629179Y-86059394D01*
X183760289Y-85971789D01*
X183871789Y-85860289D01*
X183959394Y-85729179D01*
X184019737Y-85583497D01*
X184050500Y-85428842D01*
X184050500Y-85271158D01*
X184050500Y-85271155D01*
X184050499Y-85271153D01*
X184030543Y-85170827D01*
X184019737Y-85116503D01*
X183987929Y-85039711D01*
X183959397Y-84970827D01*
X183959390Y-84970814D01*
X183871789Y-84839711D01*
X183871786Y-84839707D01*
X183760292Y-84728213D01*
X183760288Y-84728210D01*
X183629185Y-84640609D01*
X183629172Y-84640602D01*
X183483501Y-84580264D01*
X183483489Y-84580261D01*
X183328845Y-84549500D01*
X183328842Y-84549500D01*
X183171158Y-84549500D01*
X183171155Y-84549500D01*
X183016510Y-84580261D01*
X183016498Y-84580264D01*
X182870827Y-84640602D01*
X182870814Y-84640609D01*
X182739711Y-84728210D01*
X182739707Y-84728213D01*
X182628213Y-84839707D01*
X182628210Y-84839711D01*
X182540609Y-84970814D01*
X182540602Y-84970827D01*
X182480264Y-85116498D01*
X182480261Y-85116510D01*
X182449500Y-85271153D01*
X177250953Y-85271153D01*
X177209397Y-85170827D01*
X177209390Y-85170814D01*
X177121789Y-85039711D01*
X177121786Y-85039707D01*
X177010292Y-84928213D01*
X177010288Y-84928210D01*
X176879185Y-84840609D01*
X176879172Y-84840602D01*
X176733501Y-84780264D01*
X176733489Y-84780261D01*
X176578845Y-84749500D01*
X176578842Y-84749500D01*
X176421158Y-84749500D01*
X176421155Y-84749500D01*
X176266510Y-84780261D01*
X176266498Y-84780264D01*
X176120827Y-84840602D01*
X176120814Y-84840609D01*
X175989711Y-84928210D01*
X175989707Y-84928213D01*
X175878213Y-85039707D01*
X175878210Y-85039711D01*
X175790609Y-85170814D01*
X175790602Y-85170827D01*
X175730264Y-85316498D01*
X175730261Y-85316510D01*
X175699500Y-85471153D01*
X175050953Y-85471153D01*
X175009397Y-85370827D01*
X175009390Y-85370814D01*
X174921789Y-85239711D01*
X174921786Y-85239707D01*
X174810292Y-85128213D01*
X174810288Y-85128210D01*
X174679185Y-85040609D01*
X174679172Y-85040602D01*
X174533501Y-84980264D01*
X174533489Y-84980261D01*
X174378845Y-84949500D01*
X174378842Y-84949500D01*
X174221158Y-84949500D01*
X174221155Y-84949500D01*
X174066510Y-84980261D01*
X174066498Y-84980264D01*
X173920827Y-85040602D01*
X173920814Y-85040609D01*
X173789711Y-85128210D01*
X173789707Y-85128213D01*
X173678213Y-85239707D01*
X173678210Y-85239711D01*
X173590609Y-85370814D01*
X173590602Y-85370827D01*
X173530264Y-85516498D01*
X173530261Y-85516510D01*
X173499500Y-85671153D01*
X170860924Y-85671153D01*
X170896043Y-85636034D01*
X170957364Y-85602550D01*
X171027055Y-85607534D01*
X171031114Y-85609130D01*
X171038165Y-85612051D01*
X171085496Y-85621465D01*
X171231456Y-85650500D01*
X171231459Y-85650500D01*
X172528543Y-85650500D01*
X172658582Y-85624632D01*
X172721835Y-85612051D01*
X172870421Y-85550505D01*
X172870422Y-85550505D01*
X172888002Y-85543222D01*
X172903914Y-85536632D01*
X173067782Y-85427139D01*
X173207139Y-85287782D01*
X173316632Y-85123914D01*
X173392051Y-84941835D01*
X173424190Y-84780263D01*
X173430500Y-84748543D01*
X173430500Y-84553724D01*
X173450185Y-84486685D01*
X173502989Y-84440930D01*
X173572147Y-84430986D01*
X173578683Y-84432105D01*
X173613913Y-84439113D01*
X173671156Y-84450500D01*
X173671158Y-84450500D01*
X173828844Y-84450500D01*
X173828845Y-84450499D01*
X173983497Y-84419737D01*
X174129179Y-84359394D01*
X174260289Y-84271789D01*
X174371789Y-84160289D01*
X174459394Y-84029179D01*
X174517294Y-83889396D01*
X177781818Y-83889396D01*
X177781818Y-84047089D01*
X177812579Y-84201732D01*
X177812582Y-84201744D01*
X177872920Y-84347415D01*
X177872927Y-84347428D01*
X177960528Y-84478531D01*
X177960531Y-84478535D01*
X178072025Y-84590029D01*
X178072029Y-84590032D01*
X178203132Y-84677633D01*
X178203145Y-84677640D01*
X178325234Y-84728210D01*
X178348821Y-84737980D01*
X178503471Y-84768742D01*
X178503474Y-84768743D01*
X178503476Y-84768743D01*
X178661162Y-84768743D01*
X178661163Y-84768742D01*
X178815815Y-84737980D01*
X178961497Y-84677637D01*
X179092607Y-84590032D01*
X179204107Y-84478532D01*
X179291712Y-84347422D01*
X179352055Y-84201740D01*
X179382818Y-84047085D01*
X179382818Y-83889401D01*
X179382818Y-83889398D01*
X179382817Y-83889396D01*
X179365134Y-83800500D01*
X179352055Y-83734746D01*
X179347448Y-83723623D01*
X179291715Y-83589070D01*
X179291708Y-83589057D01*
X179204107Y-83457954D01*
X179204104Y-83457950D01*
X179092610Y-83346456D01*
X179092606Y-83346453D01*
X178961503Y-83258852D01*
X178961490Y-83258845D01*
X178815819Y-83198507D01*
X178815807Y-83198504D01*
X178661163Y-83167743D01*
X178661160Y-83167743D01*
X178503476Y-83167743D01*
X178503473Y-83167743D01*
X178348828Y-83198504D01*
X178348816Y-83198507D01*
X178203145Y-83258845D01*
X178203132Y-83258852D01*
X178072029Y-83346453D01*
X178072025Y-83346456D01*
X177960531Y-83457950D01*
X177960528Y-83457954D01*
X177872927Y-83589057D01*
X177872920Y-83589070D01*
X177812582Y-83734741D01*
X177812579Y-83734753D01*
X177781818Y-83889396D01*
X174517294Y-83889396D01*
X174519737Y-83883497D01*
X174522066Y-83871789D01*
X174524587Y-83859117D01*
X174524587Y-83859116D01*
X174543633Y-83763364D01*
X174550500Y-83728842D01*
X174550500Y-83571158D01*
X174550500Y-83571155D01*
X174533061Y-83483489D01*
X174523681Y-83436331D01*
X174529908Y-83366742D01*
X174557616Y-83324461D01*
X174646789Y-83235289D01*
X174734394Y-83104179D01*
X174794737Y-82958497D01*
X174825500Y-82803842D01*
X174825500Y-82716024D01*
X174845185Y-82648985D01*
X174897989Y-82603230D01*
X174967147Y-82593286D01*
X175030703Y-82622311D01*
X175052602Y-82647133D01*
X175128210Y-82760288D01*
X175128213Y-82760292D01*
X175239707Y-82871786D01*
X175239711Y-82871789D01*
X175370814Y-82959390D01*
X175370827Y-82959397D01*
X175508683Y-83016498D01*
X175516503Y-83019737D01*
X175671153Y-83050499D01*
X175671156Y-83050500D01*
X175671158Y-83050500D01*
X175828844Y-83050500D01*
X175828845Y-83050499D01*
X175983497Y-83019737D01*
X176129179Y-82959394D01*
X176260289Y-82871789D01*
X176371789Y-82760289D01*
X176459394Y-82629179D01*
X176519737Y-82483497D01*
X176550500Y-82328842D01*
X176550500Y-82171158D01*
X176550500Y-82171155D01*
X176550499Y-82171153D01*
X176536984Y-82103210D01*
X176519737Y-82016503D01*
X176519367Y-82015609D01*
X176459397Y-81870827D01*
X176459390Y-81870814D01*
X176371789Y-81739711D01*
X176371786Y-81739707D01*
X176260292Y-81628213D01*
X176260288Y-81628210D01*
X176129185Y-81540609D01*
X176129172Y-81540602D01*
X175983501Y-81480264D01*
X175983489Y-81480261D01*
X175828845Y-81449500D01*
X175828842Y-81449500D01*
X175671158Y-81449500D01*
X175671155Y-81449500D01*
X175516510Y-81480261D01*
X175516498Y-81480264D01*
X175370827Y-81540602D01*
X175370814Y-81540609D01*
X175239711Y-81628210D01*
X175239707Y-81628213D01*
X175128213Y-81739707D01*
X175128210Y-81739711D01*
X175040609Y-81870814D01*
X175040602Y-81870827D01*
X174980264Y-82016498D01*
X174980261Y-82016510D01*
X174949500Y-82171153D01*
X174949500Y-82258975D01*
X174929815Y-82326014D01*
X174877011Y-82371769D01*
X174807853Y-82381713D01*
X174744297Y-82352688D01*
X174722398Y-82327866D01*
X174646789Y-82214711D01*
X174646786Y-82214707D01*
X174535292Y-82103213D01*
X174535288Y-82103210D01*
X174404185Y-82015609D01*
X174404172Y-82015602D01*
X174258501Y-81955264D01*
X174258489Y-81955261D01*
X174103845Y-81924500D01*
X174103842Y-81924500D01*
X173946158Y-81924500D01*
X173946155Y-81924500D01*
X173791510Y-81955261D01*
X173791498Y-81955264D01*
X173645827Y-82015602D01*
X173645814Y-82015609D01*
X173514711Y-82103210D01*
X173514707Y-82103213D01*
X173403213Y-82214707D01*
X173403210Y-82214711D01*
X173315609Y-82345814D01*
X173315602Y-82345827D01*
X173255264Y-82491498D01*
X173255261Y-82491510D01*
X173224500Y-82646153D01*
X173224500Y-82646158D01*
X173224500Y-82803842D01*
X173224500Y-82803844D01*
X173224499Y-82803844D01*
X173251318Y-82938665D01*
X173245091Y-83008257D01*
X173217383Y-83050538D01*
X173128210Y-83139711D01*
X173040609Y-83270814D01*
X173040602Y-83270827D01*
X172980264Y-83416498D01*
X172980261Y-83416510D01*
X172949500Y-83571153D01*
X172949500Y-83596671D01*
X172929815Y-83663710D01*
X172877011Y-83709465D01*
X172807853Y-83719409D01*
X172778049Y-83711233D01*
X172738517Y-83694859D01*
X172721835Y-83687949D01*
X172721833Y-83687948D01*
X172721829Y-83687947D01*
X172528543Y-83649500D01*
X172528541Y-83649500D01*
X171981333Y-83649500D01*
X171914294Y-83629815D01*
X171868539Y-83577011D01*
X171858595Y-83507853D01*
X171873947Y-83463499D01*
X171886278Y-83442140D01*
X171886277Y-83442140D01*
X171886281Y-83442135D01*
X171925500Y-83295766D01*
X171925500Y-83144234D01*
X171886281Y-82997865D01*
X171810515Y-82866635D01*
X171703365Y-82759485D01*
X171586733Y-82692147D01*
X171572136Y-82683719D01*
X171442504Y-82648985D01*
X171425766Y-82644500D01*
X171274234Y-82644500D01*
X171127863Y-82683719D01*
X170996635Y-82759485D01*
X170996632Y-82759487D01*
X170889487Y-82866632D01*
X170889485Y-82866635D01*
X170813719Y-82997863D01*
X170785231Y-83104185D01*
X170774500Y-83144234D01*
X170774500Y-83295766D01*
X170781539Y-83322036D01*
X170813719Y-83442136D01*
X170836701Y-83481941D01*
X170889485Y-83573365D01*
X170889488Y-83573368D01*
X170894188Y-83579493D01*
X170919383Y-83644662D01*
X170905346Y-83713107D01*
X170860510Y-83759023D01*
X170861151Y-83759983D01*
X170856612Y-83763015D01*
X170856533Y-83763097D01*
X170856296Y-83763226D01*
X170692218Y-83872860D01*
X170692214Y-83872863D01*
X170552863Y-84012214D01*
X170552860Y-84012218D01*
X170443371Y-84176079D01*
X170443364Y-84176092D01*
X170423955Y-84222952D01*
X170380114Y-84277356D01*
X170313820Y-84299421D01*
X170309394Y-84299500D01*
X170221155Y-84299500D01*
X170066510Y-84330261D01*
X170066498Y-84330264D01*
X169920827Y-84390602D01*
X169920814Y-84390609D01*
X169789711Y-84478210D01*
X169789707Y-84478213D01*
X169678213Y-84589707D01*
X169678210Y-84589711D01*
X169590609Y-84720814D01*
X169590602Y-84720827D01*
X169530264Y-84866498D01*
X169530261Y-84866510D01*
X169499500Y-85021153D01*
X168929197Y-85021153D01*
X168962051Y-84941835D01*
X168994190Y-84780263D01*
X169000500Y-84748543D01*
X169000500Y-84551456D01*
X168962052Y-84358170D01*
X168962051Y-84358169D01*
X168962051Y-84358165D01*
X168938772Y-84301963D01*
X168905631Y-84221952D01*
X168898162Y-84152483D01*
X168929438Y-84090004D01*
X168989527Y-84054352D01*
X169020192Y-84050500D01*
X169028844Y-84050500D01*
X169028845Y-84050499D01*
X169183497Y-84019737D01*
X169329179Y-83959394D01*
X169460289Y-83871789D01*
X169571789Y-83760289D01*
X169659394Y-83629179D01*
X169719737Y-83483497D01*
X169750500Y-83328842D01*
X169750500Y-83171158D01*
X169750500Y-83171155D01*
X169750499Y-83171153D01*
X169737177Y-83104179D01*
X169719737Y-83016503D01*
X169719735Y-83016498D01*
X169659397Y-82870827D01*
X169659390Y-82870814D01*
X169571789Y-82739711D01*
X169571786Y-82739707D01*
X169460292Y-82628213D01*
X169460288Y-82628210D01*
X169329185Y-82540609D01*
X169329172Y-82540602D01*
X169183501Y-82480264D01*
X169183489Y-82480261D01*
X169028845Y-82449500D01*
X169028842Y-82449500D01*
X168871158Y-82449500D01*
X168871155Y-82449500D01*
X168716510Y-82480261D01*
X168716498Y-82480264D01*
X168570827Y-82540602D01*
X168570814Y-82540609D01*
X168439711Y-82628210D01*
X168439707Y-82628213D01*
X168328213Y-82739707D01*
X168328210Y-82739711D01*
X168240609Y-82870814D01*
X168240602Y-82870827D01*
X168180264Y-83016498D01*
X168180261Y-83016510D01*
X168149500Y-83171153D01*
X168149500Y-83328846D01*
X168180261Y-83483489D01*
X168182031Y-83489324D01*
X168179279Y-83490158D01*
X168185503Y-83547359D01*
X168154309Y-83609878D01*
X168094266Y-83645608D01*
X168063445Y-83649500D01*
X167301457Y-83649500D01*
X167108170Y-83687947D01*
X167108160Y-83687950D01*
X166926092Y-83763364D01*
X166926079Y-83763371D01*
X166762218Y-83872860D01*
X166762214Y-83872863D01*
X166622863Y-84012214D01*
X166622860Y-84012218D01*
X166513371Y-84176079D01*
X166513364Y-84176092D01*
X166437950Y-84358160D01*
X166437947Y-84358170D01*
X166399500Y-84551456D01*
X166399500Y-84551459D01*
X166399500Y-84748541D01*
X166399500Y-84748543D01*
X166399499Y-84748543D01*
X165700500Y-84748543D01*
X165700500Y-83481941D01*
X165720185Y-83414902D01*
X165772989Y-83369147D01*
X165842147Y-83359203D01*
X165905703Y-83388228D01*
X165912181Y-83394260D01*
X165939707Y-83421786D01*
X165939711Y-83421789D01*
X166070814Y-83509390D01*
X166070827Y-83509397D01*
X166216498Y-83569735D01*
X166216503Y-83569737D01*
X166371153Y-83600499D01*
X166371156Y-83600500D01*
X166371158Y-83600500D01*
X166528844Y-83600500D01*
X166528845Y-83600499D01*
X166683497Y-83569737D01*
X166829179Y-83509394D01*
X166960289Y-83421789D01*
X167071789Y-83310289D01*
X167159394Y-83179179D01*
X167162719Y-83171153D01*
X167209393Y-83058469D01*
X167219737Y-83033497D01*
X167250500Y-82878842D01*
X167250500Y-82721158D01*
X167250500Y-82721155D01*
X167250499Y-82721153D01*
X167243053Y-82683719D01*
X167219737Y-82566503D01*
X167213538Y-82551538D01*
X167159397Y-82420827D01*
X167159390Y-82420814D01*
X167071789Y-82289711D01*
X167071786Y-82289707D01*
X166960292Y-82178213D01*
X166960288Y-82178210D01*
X166829185Y-82090609D01*
X166829172Y-82090602D01*
X166683501Y-82030264D01*
X166683489Y-82030261D01*
X166528845Y-81999500D01*
X166528842Y-81999500D01*
X166371158Y-81999500D01*
X166371155Y-81999500D01*
X166216510Y-82030261D01*
X166216498Y-82030264D01*
X166070827Y-82090602D01*
X166070814Y-82090609D01*
X165939711Y-82178210D01*
X165939707Y-82178213D01*
X165912181Y-82205740D01*
X165850858Y-82239225D01*
X165781166Y-82234241D01*
X165725233Y-82192369D01*
X165700816Y-82126905D01*
X165700500Y-82118059D01*
X165700500Y-79922902D01*
X165720185Y-79855863D01*
X165772989Y-79810108D01*
X165842147Y-79800164D01*
X165905703Y-79829189D01*
X165939062Y-79875451D01*
X165940605Y-79879178D01*
X165940609Y-79879185D01*
X166028210Y-80010288D01*
X166028213Y-80010292D01*
X166139707Y-80121786D01*
X166139711Y-80121789D01*
X166270814Y-80209390D01*
X166270827Y-80209397D01*
X166416498Y-80269735D01*
X166416503Y-80269737D01*
X166571153Y-80300499D01*
X166571156Y-80300500D01*
X166571158Y-80300500D01*
X166728844Y-80300500D01*
X166728845Y-80300499D01*
X166883497Y-80269737D01*
X166952549Y-80241134D01*
X166979721Y-80238213D01*
X167006301Y-80231856D01*
X167016810Y-80234225D01*
X167022016Y-80233666D01*
X167040936Y-80238648D01*
X167044220Y-80239796D01*
X167116503Y-80269737D01*
X167147403Y-80275883D01*
X167155614Y-80278755D01*
X167177219Y-80294246D01*
X167200779Y-80306570D01*
X167205175Y-80314291D01*
X167212396Y-80319468D01*
X167222196Y-80344180D01*
X167235354Y-80367285D01*
X167234878Y-80376157D01*
X167238154Y-80384416D01*
X167233037Y-80410507D01*
X167231615Y-80437054D01*
X167226418Y-80444260D01*
X167224709Y-80452980D01*
X167206299Y-80472162D01*
X167190750Y-80493727D01*
X167183570Y-80498905D01*
X167139707Y-80528213D01*
X167028213Y-80639707D01*
X167028210Y-80639711D01*
X166940609Y-80770814D01*
X166940602Y-80770827D01*
X166880264Y-80916498D01*
X166880261Y-80916510D01*
X166849500Y-81071153D01*
X166849500Y-81228846D01*
X166880261Y-81383489D01*
X166880264Y-81383501D01*
X166940602Y-81529172D01*
X166940609Y-81529185D01*
X167028210Y-81660288D01*
X167028213Y-81660292D01*
X167139707Y-81771786D01*
X167139711Y-81771789D01*
X167270814Y-81859390D01*
X167270827Y-81859397D01*
X167416498Y-81919735D01*
X167416503Y-81919737D01*
X167571153Y-81950499D01*
X167571156Y-81950500D01*
X167571158Y-81950500D01*
X167728844Y-81950500D01*
X167728845Y-81950499D01*
X167883497Y-81919737D01*
X168001592Y-81870821D01*
X168029172Y-81859397D01*
X168029172Y-81859396D01*
X168029179Y-81859394D01*
X168160289Y-81771789D01*
X168271789Y-81660289D01*
X168359394Y-81529179D01*
X168419737Y-81383497D01*
X168450500Y-81228842D01*
X168450500Y-81071158D01*
X168450500Y-81071155D01*
X168450499Y-81071153D01*
X168444422Y-81040602D01*
X168419737Y-80916503D01*
X168415055Y-80905199D01*
X168359397Y-80770827D01*
X168359390Y-80770814D01*
X168271789Y-80639711D01*
X168271786Y-80639707D01*
X168160290Y-80528211D01*
X168139369Y-80514232D01*
X168094565Y-80460619D01*
X168085859Y-80391294D01*
X168116015Y-80328267D01*
X168175459Y-80291549D01*
X168184065Y-80289515D01*
X168283497Y-80269737D01*
X168429179Y-80209394D01*
X168560289Y-80121789D01*
X168671789Y-80010289D01*
X168759394Y-79879179D01*
X168804139Y-79771153D01*
X170099500Y-79771153D01*
X170099500Y-79928846D01*
X170130261Y-80083489D01*
X170130264Y-80083501D01*
X170190602Y-80229172D01*
X170190609Y-80229185D01*
X170258713Y-80331109D01*
X170279591Y-80397787D01*
X170261107Y-80465167D01*
X170258713Y-80468891D01*
X170190609Y-80570814D01*
X170190602Y-80570827D01*
X170130264Y-80716498D01*
X170130261Y-80716510D01*
X170099500Y-80871153D01*
X170099500Y-81028846D01*
X170130261Y-81183489D01*
X170130264Y-81183501D01*
X170190602Y-81329172D01*
X170190609Y-81329185D01*
X170278210Y-81460288D01*
X170278213Y-81460292D01*
X170389707Y-81571786D01*
X170389711Y-81571789D01*
X170520814Y-81659390D01*
X170520827Y-81659397D01*
X170666498Y-81719735D01*
X170666503Y-81719737D01*
X170821153Y-81750499D01*
X170821156Y-81750500D01*
X170821158Y-81750500D01*
X170978844Y-81750500D01*
X170978845Y-81750499D01*
X171133497Y-81719737D01*
X171279179Y-81659394D01*
X171410289Y-81571789D01*
X171521789Y-81460289D01*
X171609394Y-81329179D01*
X171669737Y-81183497D01*
X171700500Y-81028842D01*
X171700500Y-80871158D01*
X171700500Y-80871155D01*
X171700499Y-80871153D01*
X171694086Y-80838911D01*
X171669737Y-80716503D01*
X171650955Y-80671158D01*
X171609397Y-80570827D01*
X171609393Y-80570820D01*
X171609389Y-80570814D01*
X171541284Y-80468888D01*
X171520408Y-80402214D01*
X171538892Y-80334834D01*
X171541257Y-80331152D01*
X171609394Y-80229179D01*
X171669737Y-80083497D01*
X171700500Y-79928842D01*
X171700500Y-79771158D01*
X171700500Y-79771155D01*
X171700499Y-79771153D01*
X171669737Y-79616503D01*
X171666791Y-79609390D01*
X171609397Y-79470827D01*
X171609390Y-79470814D01*
X171521789Y-79339711D01*
X171521786Y-79339707D01*
X171410292Y-79228213D01*
X171410288Y-79228210D01*
X171279185Y-79140609D01*
X171279172Y-79140602D01*
X171133501Y-79080264D01*
X171133489Y-79080261D01*
X170978845Y-79049500D01*
X170978842Y-79049500D01*
X170821158Y-79049500D01*
X170821155Y-79049500D01*
X170666510Y-79080261D01*
X170666498Y-79080264D01*
X170520827Y-79140602D01*
X170520814Y-79140609D01*
X170389711Y-79228210D01*
X170389707Y-79228213D01*
X170278213Y-79339707D01*
X170278210Y-79339711D01*
X170190609Y-79470814D01*
X170190602Y-79470827D01*
X170130264Y-79616498D01*
X170130261Y-79616510D01*
X170099500Y-79771153D01*
X168804139Y-79771153D01*
X168819737Y-79733497D01*
X168850500Y-79578842D01*
X168850500Y-79421158D01*
X168850500Y-79421155D01*
X168850499Y-79421153D01*
X168826499Y-79300499D01*
X168819737Y-79266503D01*
X168791134Y-79197450D01*
X168783666Y-79127984D01*
X168791133Y-79102552D01*
X168819737Y-79033497D01*
X168850500Y-78878842D01*
X168850500Y-78721158D01*
X168850500Y-78721155D01*
X168850499Y-78721153D01*
X168823117Y-78583497D01*
X168819737Y-78566503D01*
X168791134Y-78497450D01*
X168783666Y-78427984D01*
X168791133Y-78402552D01*
X168819737Y-78333497D01*
X168850500Y-78178842D01*
X168850500Y-78021158D01*
X168850500Y-78021155D01*
X168850499Y-78021153D01*
X168826502Y-77900512D01*
X168819737Y-77866503D01*
X168819735Y-77866498D01*
X168759397Y-77720827D01*
X168759390Y-77720814D01*
X168671789Y-77589711D01*
X168671786Y-77589707D01*
X168560292Y-77478213D01*
X168560288Y-77478210D01*
X168429185Y-77390609D01*
X168429172Y-77390602D01*
X168283501Y-77330264D01*
X168283489Y-77330261D01*
X168128845Y-77299500D01*
X168128842Y-77299500D01*
X167971158Y-77299500D01*
X167971155Y-77299500D01*
X167816511Y-77330260D01*
X167816506Y-77330262D01*
X167816504Y-77330262D01*
X167816503Y-77330263D01*
X167747449Y-77358865D01*
X167677982Y-77366333D01*
X167652552Y-77358865D01*
X167583497Y-77330263D01*
X167583493Y-77330262D01*
X167583488Y-77330260D01*
X167428845Y-77299500D01*
X167428842Y-77299500D01*
X167271158Y-77299500D01*
X167271155Y-77299500D01*
X167116511Y-77330260D01*
X167116506Y-77330262D01*
X167116504Y-77330262D01*
X167116503Y-77330263D01*
X167047449Y-77358865D01*
X166977982Y-77366333D01*
X166952552Y-77358865D01*
X166883497Y-77330263D01*
X166883493Y-77330262D01*
X166883488Y-77330260D01*
X166728845Y-77299500D01*
X166728842Y-77299500D01*
X166571158Y-77299500D01*
X166571155Y-77299500D01*
X166416510Y-77330261D01*
X166416498Y-77330264D01*
X166270827Y-77390602D01*
X166270814Y-77390609D01*
X166139711Y-77478210D01*
X166139707Y-77478213D01*
X166028213Y-77589707D01*
X166028210Y-77589711D01*
X165940609Y-77720814D01*
X165940603Y-77720826D01*
X165939060Y-77724552D01*
X165895218Y-77778954D01*
X165828924Y-77801018D01*
X165761225Y-77783738D01*
X165713615Y-77732599D01*
X165700500Y-77677097D01*
X165700500Y-75958676D01*
X165720185Y-75891637D01*
X165736819Y-75870995D01*
X166070995Y-75536819D01*
X166097922Y-75522115D01*
X166123741Y-75505523D01*
X166129941Y-75504631D01*
X166132318Y-75503334D01*
X166158676Y-75500500D01*
X166342530Y-75500500D01*
X166409569Y-75520185D01*
G37*
%TD.AperFunction*%
%TD*%
M02*
