%TF.GenerationSoftware,KiCad,Pcbnew,9.0.6*%
%TF.CreationDate,2025-11-30T22:56:01+09:00*%
%TF.ProjectId,SMORES,534d4f52-4553-42e6-9b69-6361645f7063,rev?*%
%TF.SameCoordinates,Original*%
%TF.FileFunction,Copper,L1,Top*%
%TF.FilePolarity,Positive*%
%FSLAX46Y46*%
G04 Gerber Fmt 4.6, Leading zero omitted, Abs format (unit mm)*
G04 Created by KiCad (PCBNEW 9.0.6) date 2025-11-30 22:56:01*
%MOMM*%
%LPD*%
G01*
G04 APERTURE LIST*
G04 Aperture macros list*
%AMRoundRect*
0 Rectangle with rounded corners*
0 $1 Rounding radius*
0 $2 $3 $4 $5 $6 $7 $8 $9 X,Y pos of 4 corners*
0 Add a 4 corners polygon primitive as box body*
4,1,4,$2,$3,$4,$5,$6,$7,$8,$9,$2,$3,0*
0 Add four circle primitives for the rounded corners*
1,1,$1+$1,$2,$3*
1,1,$1+$1,$4,$5*
1,1,$1+$1,$6,$7*
1,1,$1+$1,$8,$9*
0 Add four rect primitives between the rounded corners*
20,1,$1+$1,$2,$3,$4,$5,0*
20,1,$1+$1,$4,$5,$6,$7,0*
20,1,$1+$1,$6,$7,$8,$9,0*
20,1,$1+$1,$8,$9,$2,$3,0*%
G04 Aperture macros list end*
%TA.AperFunction,SMDPad,CuDef*%
%ADD10RoundRect,0.237500X0.287500X0.237500X-0.287500X0.237500X-0.287500X-0.237500X0.287500X-0.237500X0*%
%TD*%
%TA.AperFunction,SMDPad,CuDef*%
%ADD11C,2.000000*%
%TD*%
%TA.AperFunction,SMDPad,CuDef*%
%ADD12R,2.000000X1.000000*%
%TD*%
%TA.AperFunction,SMDPad,CuDef*%
%ADD13R,1.000000X2.000000*%
%TD*%
%TA.AperFunction,SMDPad,CuDef*%
%ADD14R,0.900000X0.900000*%
%TD*%
%TA.AperFunction,SMDPad,CuDef*%
%ADD15RoundRect,0.237500X-0.237500X0.300000X-0.237500X-0.300000X0.237500X-0.300000X0.237500X0.300000X0*%
%TD*%
%TA.AperFunction,SMDPad,CuDef*%
%ADD16RoundRect,0.150000X0.150000X0.400000X-0.150000X0.400000X-0.150000X-0.400000X0.150000X-0.400000X0*%
%TD*%
%TA.AperFunction,SMDPad,CuDef*%
%ADD17RoundRect,0.237500X0.300000X0.237500X-0.300000X0.237500X-0.300000X-0.237500X0.300000X-0.237500X0*%
%TD*%
%TA.AperFunction,ViaPad*%
%ADD18C,0.600000*%
%TD*%
%TA.AperFunction,Conductor*%
%ADD19C,0.200000*%
%TD*%
G04 APERTURE END LIST*
D10*
%TO.P,L4,1,1*%
%TO.N,Net-(U7-DCCH)*%
X122400000Y-67000000D03*
%TO.P,L4,2,2*%
%TO.N,VDD_NRF*%
X120650000Y-67000000D03*
%TD*%
D11*
%TO.P,TP2,1,1*%
%TO.N,BAT+*%
X129400000Y-66100000D03*
%TD*%
%TO.P,TP1,1,1*%
%TO.N,GND*%
X129400000Y-63100000D03*
%TD*%
D12*
%TO.P,U7,1,P1.11*%
%TO.N,unconnected-(U7-P1.11-Pad1)*%
X113550000Y-50948500D03*
%TO.P,U7,2,P1.10*%
%TO.N,unconnected-(U7-P1.10-Pad2)*%
X113550000Y-52218500D03*
%TO.P,U7,3,P0.03/AIN1*%
%TO.N,unconnected-(U7-P0.03{slash}AIN1-Pad3)*%
X113550000Y-53488500D03*
%TO.P,U7,4,P0.28/AIN4*%
%TO.N,unconnected-(U7-P0.28{slash}AIN4-Pad4)*%
X113550000Y-54758500D03*
%TO.P,U7,5,GND*%
%TO.N,GND*%
X113550000Y-56028500D03*
%TO.P,U7,6,P1.13*%
%TO.N,unconnected-(U7-P1.13-Pad6)*%
X113550000Y-57298500D03*
%TO.P,U7,7,P0.02/AIN0*%
%TO.N,unconnected-(U7-P0.02{slash}AIN0-Pad7)*%
X113550000Y-58568500D03*
%TO.P,U7,8,P0.29/AIN5*%
%TO.N,unconnected-(U7-P0.29{slash}AIN5-Pad8)*%
X113550000Y-59838500D03*
%TO.P,U7,9,P0.31/AIN7*%
%TO.N,+3V3*%
X113550000Y-61108500D03*
%TO.P,U7,10,P0.30/AIN6*%
%TO.N,unconnected-(U7-P0.30{slash}AIN6-Pad10)*%
X113550000Y-62378500D03*
D13*
%TO.P,U7,11,P0.00/XL1*%
%TO.N,Net-(U7-P0.00{slash}XL1)*%
X115610000Y-64978500D03*
D14*
%TO.P,U7,12,P0.26*%
%TO.N,unconnected-(U7-P0.26-Pad12)*%
X116240000Y-62878500D03*
D13*
%TO.P,U7,13,P0.01/XL2*%
%TO.N,Net-(U7-P0.01{slash}XL2)*%
X116880000Y-64978500D03*
D14*
%TO.P,U7,14,P0.06*%
%TO.N,SDA*%
X117510000Y-62878500D03*
D13*
%TO.P,U7,15,P0.05/AIN3*%
%TO.N,unconnected-(U7-P0.05{slash}AIN3-Pad15)*%
X118150000Y-64978500D03*
D14*
%TO.P,U7,16,P0.08*%
%TO.N,SCL*%
X118780000Y-62878500D03*
D13*
%TO.P,U7,17,P1.09*%
%TO.N,unconnected-(U7-P1.09-Pad17)*%
X119420000Y-64978500D03*
D14*
%TO.P,U7,18,P0.04/AIN2*%
%TO.N,unconnected-(U7-P0.04{slash}AIN2-Pad18)*%
X120050000Y-62878500D03*
D13*
%TO.P,U7,19,VDD*%
%TO.N,VDD_NRF*%
X120690000Y-64978500D03*
D14*
%TO.P,U7,20,P0.12*%
%TO.N,unconnected-(U7-P0.12-Pad20)*%
X121320000Y-62878500D03*
D13*
%TO.P,U7,21,GND*%
%TO.N,GND*%
X121960000Y-64978500D03*
D14*
%TO.P,U7,22,P0.07*%
%TO.N,unconnected-(U7-P0.07-Pad22)*%
X122590000Y-62878500D03*
D13*
%TO.P,U7,23,VDDH*%
%TO.N,VDDH*%
X123230000Y-64978500D03*
D14*
%TO.P,U7,24,GND*%
%TO.N,GND*%
X123860000Y-62878500D03*
D13*
%TO.P,U7,25,DCCH*%
%TO.N,Net-(U7-DCCH)*%
X124500000Y-64978500D03*
D12*
%TO.P,U7,26,P0.18/~{RESET}*%
%TO.N,RESET*%
X126550000Y-62378500D03*
%TO.P,U7,27,VBUS*%
%TO.N,VBUS*%
X126550000Y-61108500D03*
D14*
%TO.P,U7,28,P0.15*%
%TO.N,BLED*%
X124450000Y-60473500D03*
D12*
%TO.P,U7,29,D-*%
%TO.N,D-*%
X126550000Y-59838500D03*
D14*
%TO.P,U7,30,P0.17*%
%TO.N,INT1*%
X124450000Y-59203500D03*
D12*
%TO.P,U7,31,D+*%
%TO.N,D+*%
X126550000Y-58568500D03*
D14*
%TO.P,U7,32,P0.20*%
%TO.N,CLK_CTL*%
X124450000Y-57933500D03*
D12*
%TO.P,U7,33,P0.13*%
%TO.N,POWER_PIN*%
X126550000Y-57298500D03*
D14*
%TO.P,U7,34,P0.22*%
%TO.N,CS*%
X124450000Y-56663500D03*
D12*
%TO.P,U7,35,P0.24*%
%TO.N,SDO*%
X126550000Y-56028500D03*
D14*
%TO.P,U7,36,P1.00*%
%TO.N,SW0*%
X124450000Y-55393500D03*
D12*
%TO.P,U7,37,SWDIO*%
%TO.N,unconnected-(U7-SWDIO-Pad37)*%
X126550000Y-54758500D03*
D14*
%TO.P,U7,38,P1.02*%
%TO.N,unconnected-(U7-P1.02-Pad38)*%
X124450000Y-54123500D03*
D12*
%TO.P,U7,39,SWDCLK*%
%TO.N,unconnected-(U7-SWDCLK-Pad39)*%
X126550000Y-53488500D03*
D14*
%TO.P,U7,40,P1.04*%
%TO.N,unconnected-(U7-P1.04-Pad40)*%
X124450000Y-52853500D03*
D12*
%TO.P,U7,41,P0.09/NFC1*%
%TO.N,unconnected-(U7-P0.09{slash}NFC1-Pad41)*%
X126550000Y-52218500D03*
D14*
%TO.P,U7,42,P1.06*%
%TO.N,unconnected-(U7-P1.06-Pad42)*%
X124450000Y-51583500D03*
D12*
%TO.P,U7,43,P0.10/NFC2*%
%TO.N,unconnected-(U7-P0.10{slash}NFC2-Pad43)*%
X126550000Y-50948500D03*
%TD*%
D15*
%TO.P,C13,1*%
%TO.N,GND*%
X111100000Y-65037500D03*
%TO.P,C13,2*%
%TO.N,Net-(U7-P0.00{slash}XL1)*%
X111100000Y-66762500D03*
%TD*%
D16*
%TO.P,Y2,1,1*%
%TO.N,Net-(U7-P0.01{slash}XL2)*%
X114100000Y-66600000D03*
%TO.P,Y2,2,2*%
%TO.N,Net-(U7-P0.00{slash}XL1)*%
X112700000Y-66600000D03*
%TD*%
D17*
%TO.P,C12,1*%
%TO.N,GND*%
X117500000Y-66900000D03*
%TO.P,C12,2*%
%TO.N,Net-(U7-P0.01{slash}XL2)*%
X115775000Y-66900000D03*
%TD*%
D18*
%TO.N,VDDH*%
X123700000Y-66500000D03*
%TO.N,GND*%
X115961250Y-55360250D03*
X123117598Y-59369628D03*
X111700000Y-50800000D03*
X128100000Y-50700000D03*
X130200000Y-51400000D03*
X129500000Y-51400000D03*
X115800000Y-60700000D03*
X110800000Y-59900000D03*
X128100000Y-51400000D03*
X115100000Y-61400000D03*
X128100000Y-54100000D03*
X130300000Y-64400000D03*
X110800000Y-61300000D03*
X127900000Y-63700000D03*
X111100000Y-63900000D03*
X116500000Y-60700000D03*
X115800000Y-61400000D03*
X115461250Y-58360250D03*
X118100000Y-66478502D03*
X122232165Y-66025000D03*
X110800000Y-59200000D03*
X129500000Y-50700000D03*
X128800000Y-51400000D03*
X116500000Y-61400000D03*
X128500000Y-64400000D03*
X111000000Y-52200000D03*
X110800000Y-60600000D03*
X111000000Y-51500000D03*
X112000000Y-55000000D03*
X115100000Y-60700000D03*
X130400000Y-54100000D03*
X126100000Y-64400000D03*
X128800000Y-50700000D03*
X117200000Y-60700000D03*
X112400000Y-64900000D03*
X111700000Y-51500000D03*
X125600000Y-63900000D03*
%TO.N,BAT+*%
X127600000Y-65900000D03*
X127600000Y-66600000D03*
X127600000Y-65200000D03*
%TO.N,VBUS*%
X128100000Y-61200000D03*
%TO.N,+3V3*%
X111800000Y-60000000D03*
X115979972Y-56206062D03*
X118100000Y-58300000D03*
X118750000Y-59750000D03*
%TO.N,BLED*%
X113200000Y-63900000D03*
%TO.N,SDO*%
X128050002Y-57100000D03*
%TO.N,SDA*%
X120200000Y-56060250D03*
%TO.N,CS*%
X121700000Y-52800000D03*
%TO.N,SCL*%
X120200000Y-55260247D03*
%TO.N,RESET*%
X126823972Y-67023972D03*
%TO.N,SW0*%
X126300000Y-65699000D03*
%TO.N,INT1*%
X115500000Y-56900000D03*
%TO.N,CLK_CTL*%
X119100000Y-52100000D03*
%TO.N,D+*%
X128700000Y-56100000D03*
%TO.N,D-*%
X128200000Y-59200000D03*
%TD*%
D19*
%TO.N,VDDH*%
X123230000Y-66030000D02*
X123700000Y-66500000D01*
X123230000Y-64978500D02*
X123230000Y-66030000D01*
%TO.N,GND*%
X117801000Y-60700000D02*
X118649943Y-60700000D01*
X116010193Y-55360250D02*
X115961250Y-55360250D01*
X119351000Y-59998943D02*
X119351000Y-58701057D01*
X118649943Y-60700000D02*
X119351000Y-59998943D01*
X119351000Y-58701057D02*
X116010193Y-55360250D01*
X115461250Y-58360250D02*
X117801000Y-60700000D01*
%TO.N,BAT+*%
X128900000Y-66600000D02*
X129400000Y-66100000D01*
X127600000Y-65200000D02*
X128500000Y-65200000D01*
X127600000Y-66600000D02*
X128900000Y-66600000D01*
X127600000Y-65200000D02*
X127600000Y-66600000D01*
X129200000Y-65900000D02*
X129400000Y-66100000D01*
X127600000Y-65900000D02*
X129200000Y-65900000D01*
X128500000Y-65200000D02*
X129400000Y-66100000D01*
%TO.N,VBUS*%
X128100000Y-61200000D02*
X126641500Y-61200000D01*
%TO.N,Net-(U7-P0.01{slash}XL2)*%
X116880000Y-64978500D02*
X116880000Y-65795000D01*
X115475000Y-66600000D02*
X115775000Y-66900000D01*
X116880000Y-65795000D02*
X115775000Y-66900000D01*
X114100000Y-66600000D02*
X115475000Y-66600000D01*
%TO.N,Net-(U7-P0.00{slash}XL1)*%
X115610000Y-64978500D02*
X114321500Y-64978500D01*
X112700000Y-66600000D02*
X111262500Y-66600000D01*
X111262500Y-66600000D02*
X111100000Y-66762500D01*
X114321500Y-64978500D02*
X112700000Y-66600000D01*
%TO.N,+3V3*%
X113550000Y-61108500D02*
X112350000Y-61108500D01*
X118750000Y-58950000D02*
X118100000Y-58300000D01*
X112350000Y-61108500D02*
X111800000Y-60558500D01*
X115979972Y-56206062D02*
X115979972Y-56377722D01*
X117902250Y-58300000D02*
X118100000Y-58300000D01*
X118750000Y-59750000D02*
X118750000Y-58950000D01*
X111800000Y-60558500D02*
X111800000Y-60000000D01*
X115979972Y-56377722D02*
X117902250Y-58300000D01*
%TO.N,BLED*%
X124800000Y-60823500D02*
X124800000Y-63440500D01*
X124450000Y-60473500D02*
X124800000Y-60823500D01*
X114270500Y-63629500D02*
X124611000Y-63629500D01*
X114000000Y-63900000D02*
X113200000Y-63900000D01*
X114270500Y-63629500D02*
X114000000Y-63900000D01*
X124611000Y-63629500D02*
X124800000Y-63440500D01*
%TO.N,Net-(U7-DCCH)*%
X122400000Y-67000000D02*
X122700000Y-67300000D01*
X125078500Y-64978500D02*
X124500000Y-64978500D01*
X125400000Y-65300000D02*
X125078500Y-64978500D01*
X125100000Y-67300000D02*
X125400000Y-67000000D01*
X125400000Y-67000000D02*
X125400000Y-65300000D01*
X122700000Y-67300000D02*
X125100000Y-67300000D01*
%TO.N,VDD_NRF*%
X120650000Y-65018500D02*
X120690000Y-64978500D01*
X120650000Y-67000000D02*
X120650000Y-65018500D01*
%TO.N,SDO*%
X127728500Y-56028500D02*
X126550000Y-56028500D01*
X128050002Y-56350002D02*
X127728500Y-56028500D01*
X128050002Y-57100000D02*
X128050002Y-56350002D01*
%TO.N,SDA*%
X120200000Y-56060250D02*
X120200000Y-60000000D01*
X120200000Y-60000000D02*
X117510000Y-62690000D01*
X117510000Y-62690000D02*
X117510000Y-62878500D01*
%TO.N,CS*%
X123800000Y-56663500D02*
X122800000Y-55663500D01*
X122800000Y-55663500D02*
X122800000Y-53900000D01*
X122800000Y-53900000D02*
X121700000Y-52800000D01*
X124450000Y-56663500D02*
X123800000Y-56663500D01*
%TO.N,SCL*%
X120200000Y-55260247D02*
X120260247Y-55260247D01*
X121100000Y-56100000D02*
X121100000Y-60326500D01*
X120260247Y-55260247D02*
X121100000Y-56100000D01*
X121100000Y-60326500D02*
X118780000Y-62646500D01*
X118780000Y-62646500D02*
X118780000Y-62878500D01*
%TO.N,RESET*%
X126550000Y-62378500D02*
X127125028Y-62953528D01*
X127125028Y-64825029D02*
X126901000Y-65049057D01*
X126901000Y-67099000D02*
X126600000Y-67400000D01*
X126901000Y-65049057D02*
X126901000Y-67099000D01*
X127125028Y-62953528D02*
X127125028Y-64825029D01*
%TO.N,SW0*%
X126701000Y-64151057D02*
X125729443Y-63179500D01*
X126701000Y-64648943D02*
X126701000Y-64151057D01*
X126500000Y-64849943D02*
X126701000Y-64648943D01*
X125729443Y-63179500D02*
X125249000Y-63179500D01*
X125249000Y-55542500D02*
X125100000Y-55393500D01*
X125249000Y-63179500D02*
X125249000Y-55542500D01*
X126500000Y-65499000D02*
X126500000Y-64849943D01*
X126300000Y-65699000D02*
X126500000Y-65499000D01*
X125100000Y-55393500D02*
X124450000Y-55393500D01*
%TO.N,INT1*%
X121700000Y-55050057D02*
X121700000Y-57103500D01*
X120051057Y-53899000D02*
X120548943Y-53899000D01*
X121700000Y-57103500D02*
X123800000Y-59203500D01*
X115360250Y-55111307D02*
X116010307Y-54461250D01*
X119488807Y-54461250D02*
X120051057Y-53899000D01*
X115500000Y-56900000D02*
X115360250Y-56760250D01*
X116010307Y-54461250D02*
X119488807Y-54461250D01*
X123800000Y-59203500D02*
X124450000Y-59203500D01*
X115360250Y-56760250D02*
X115360250Y-55111307D01*
X120548943Y-53899000D02*
X121700000Y-55050057D01*
%TO.N,CLK_CTL*%
X122101000Y-54883957D02*
X122101000Y-56234500D01*
X119100000Y-52100000D02*
X119317044Y-52100000D01*
X123800000Y-57933500D02*
X124450000Y-57933500D01*
X119317044Y-52100000D02*
X122101000Y-54883957D01*
X122101000Y-56234500D02*
X123800000Y-57933500D01*
%TO.N,D+*%
X128700000Y-56100000D02*
X128700000Y-57500000D01*
X128700000Y-57500000D02*
X127631500Y-58568500D01*
%TO.N,D-*%
X127561500Y-59838500D02*
X128200000Y-59200000D01*
X126550000Y-59838500D02*
X127561500Y-59838500D01*
%TD*%
%TA.AperFunction,Conductor*%
%TO.N,GND*%
G36*
X118812514Y-66472589D02*
G01*
X118812517Y-66472591D01*
X118872127Y-66479000D01*
X119511125Y-66478999D01*
X119578164Y-66498683D01*
X119623919Y-66551487D01*
X119634483Y-66615601D01*
X119624500Y-66713313D01*
X119624500Y-67286669D01*
X119624501Y-67286687D01*
X119632287Y-67362899D01*
X119619517Y-67431592D01*
X119571636Y-67482476D01*
X119508929Y-67499500D01*
X116904228Y-67499500D01*
X116837189Y-67479815D01*
X116791434Y-67427011D01*
X116781490Y-67357853D01*
X116786522Y-67336496D01*
X116802674Y-67287753D01*
X116813000Y-67186677D01*
X116812999Y-66762595D01*
X116821645Y-66733149D01*
X116828167Y-66703169D01*
X116831920Y-66698155D01*
X116832683Y-66695557D01*
X116849309Y-66674924D01*
X117008918Y-66515315D01*
X117070239Y-66481833D01*
X117096597Y-66478999D01*
X117427871Y-66478999D01*
X117427872Y-66478999D01*
X117475759Y-66473851D01*
X117495197Y-66471762D01*
X117495311Y-66472830D01*
X117534688Y-66472829D01*
X117534803Y-66471761D01*
X117542514Y-66472589D01*
X117542517Y-66472591D01*
X117602127Y-66479000D01*
X118697872Y-66478999D01*
X118745759Y-66473851D01*
X118765197Y-66471762D01*
X118765311Y-66472830D01*
X118804688Y-66472829D01*
X118804803Y-66471761D01*
X118812514Y-66472589D01*
G37*
%TD.AperFunction*%
%TA.AperFunction,Conductor*%
G36*
X122172539Y-64249685D02*
G01*
X122218294Y-64302489D01*
X122229500Y-64354000D01*
X122229500Y-65900500D01*
X122209815Y-65967539D01*
X122157011Y-66013294D01*
X122105503Y-66024500D01*
X122063332Y-66024500D01*
X122063312Y-66024501D01*
X121962247Y-66034825D01*
X121962244Y-66034826D01*
X121853503Y-66070860D01*
X121783675Y-66073262D01*
X121723633Y-66037530D01*
X121692440Y-65975010D01*
X121690499Y-65953164D01*
X121690499Y-64353999D01*
X121710184Y-64286961D01*
X121762988Y-64241206D01*
X121814499Y-64230000D01*
X122105500Y-64230000D01*
X122172539Y-64249685D01*
G37*
%TD.AperFunction*%
%TA.AperFunction,Conductor*%
G36*
X111992539Y-50520185D02*
G01*
X112038294Y-50572989D01*
X112049500Y-50624500D01*
X112049500Y-51496370D01*
X112049501Y-51496376D01*
X112056738Y-51563696D01*
X112055673Y-51563810D01*
X112055674Y-51603189D01*
X112056738Y-51603304D01*
X112055909Y-51611017D01*
X112049501Y-51670623D01*
X112049500Y-51670635D01*
X112049500Y-52766370D01*
X112049501Y-52766376D01*
X112056738Y-52833696D01*
X112055673Y-52833810D01*
X112055674Y-52873189D01*
X112056738Y-52873304D01*
X112050151Y-52934574D01*
X112049501Y-52940623D01*
X112049500Y-52940635D01*
X112049500Y-54036370D01*
X112049501Y-54036376D01*
X112056738Y-54103696D01*
X112055673Y-54103810D01*
X112055674Y-54143189D01*
X112056738Y-54143304D01*
X112055909Y-54151017D01*
X112049501Y-54210623D01*
X112049500Y-54210635D01*
X112049500Y-55306370D01*
X112049501Y-55306376D01*
X112055908Y-55365983D01*
X112106202Y-55500828D01*
X112106206Y-55500835D01*
X112192452Y-55616044D01*
X112192455Y-55616047D01*
X112307664Y-55702293D01*
X112307671Y-55702297D01*
X112442517Y-55752591D01*
X112442516Y-55752591D01*
X112449444Y-55753335D01*
X112502127Y-55759000D01*
X114597872Y-55758999D01*
X114618450Y-55756786D01*
X114622497Y-55756352D01*
X114691256Y-55768759D01*
X114742393Y-55816370D01*
X114759750Y-55879642D01*
X114759750Y-56177358D01*
X114740065Y-56244397D01*
X114687261Y-56290152D01*
X114622497Y-56300647D01*
X114597873Y-56298000D01*
X114597864Y-56298000D01*
X112502129Y-56298000D01*
X112502123Y-56298001D01*
X112442516Y-56304408D01*
X112307671Y-56354702D01*
X112307664Y-56354706D01*
X112192455Y-56440952D01*
X112192452Y-56440955D01*
X112106206Y-56556164D01*
X112106202Y-56556171D01*
X112055908Y-56691017D01*
X112049501Y-56750616D01*
X112049500Y-56750635D01*
X112049500Y-57846370D01*
X112049501Y-57846376D01*
X112056738Y-57913696D01*
X112055673Y-57913810D01*
X112055674Y-57953189D01*
X112056738Y-57953304D01*
X112055909Y-57961017D01*
X112049501Y-58020623D01*
X112049500Y-58020635D01*
X112049500Y-59082351D01*
X112029815Y-59149390D01*
X111977011Y-59195145D01*
X111907853Y-59205089D01*
X111901310Y-59203969D01*
X111878842Y-59199500D01*
X111721158Y-59199500D01*
X111721155Y-59199500D01*
X111566510Y-59230261D01*
X111566498Y-59230264D01*
X111420827Y-59290602D01*
X111420814Y-59290609D01*
X111289711Y-59378210D01*
X111289707Y-59378213D01*
X111178213Y-59489707D01*
X111178210Y-59489711D01*
X111090609Y-59620814D01*
X111090602Y-59620827D01*
X111030264Y-59766498D01*
X111030261Y-59766510D01*
X110999500Y-59921153D01*
X110999500Y-60078846D01*
X111030261Y-60233489D01*
X111030264Y-60233501D01*
X111090602Y-60379172D01*
X111090609Y-60379185D01*
X111178601Y-60510873D01*
X111199479Y-60577550D01*
X111199499Y-60579764D01*
X111199499Y-60637554D01*
X111199498Y-60637554D01*
X111199499Y-60637557D01*
X111240423Y-60790285D01*
X111246317Y-60800494D01*
X111246319Y-60800501D01*
X111246321Y-60800501D01*
X111319475Y-60927209D01*
X111319481Y-60927217D01*
X111438349Y-61046085D01*
X111438355Y-61046090D01*
X111869478Y-61477213D01*
X111869480Y-61477216D01*
X111981284Y-61589020D01*
X112003952Y-61602107D01*
X112014270Y-61611721D01*
X112025183Y-61630131D01*
X112039953Y-61645620D01*
X112045681Y-61664709D01*
X112049899Y-61671823D01*
X112049675Y-61678016D01*
X112053029Y-61689191D01*
X112056738Y-61723697D01*
X112055673Y-61723811D01*
X112055674Y-61763189D01*
X112056738Y-61763304D01*
X112050450Y-61821789D01*
X112049501Y-61830623D01*
X112049500Y-61830635D01*
X112049500Y-62926370D01*
X112049501Y-62926376D01*
X112055908Y-62985983D01*
X112106202Y-63120828D01*
X112106206Y-63120835D01*
X112192452Y-63236044D01*
X112192455Y-63236047D01*
X112307664Y-63322293D01*
X112307671Y-63322297D01*
X112416947Y-63363054D01*
X112472881Y-63404925D01*
X112497298Y-63470389D01*
X112488175Y-63526688D01*
X112430264Y-63666498D01*
X112430261Y-63666510D01*
X112399500Y-63821153D01*
X112399500Y-63978846D01*
X112430261Y-64133489D01*
X112430264Y-64133501D01*
X112490602Y-64279172D01*
X112490609Y-64279185D01*
X112578210Y-64410288D01*
X112578213Y-64410292D01*
X112689707Y-64521786D01*
X112689711Y-64521789D01*
X112820814Y-64609390D01*
X112820827Y-64609397D01*
X112949169Y-64662557D01*
X112966503Y-64669737D01*
X113121153Y-64700499D01*
X113121156Y-64700500D01*
X113121158Y-64700500D01*
X113278844Y-64700500D01*
X113278845Y-64700499D01*
X113433497Y-64669737D01*
X113450832Y-64662556D01*
X113520297Y-64655087D01*
X113582777Y-64686359D01*
X113618431Y-64746447D01*
X113615940Y-64816273D01*
X113585965Y-64864798D01*
X112937584Y-65513181D01*
X112876261Y-65546666D01*
X112849903Y-65549500D01*
X112484298Y-65549500D01*
X112447432Y-65552401D01*
X112447426Y-65552402D01*
X112289606Y-65598254D01*
X112289603Y-65598255D01*
X112148137Y-65681917D01*
X112148129Y-65681923D01*
X112031923Y-65798129D01*
X112031916Y-65798138D01*
X111996198Y-65858535D01*
X111945128Y-65906219D01*
X111876387Y-65918722D01*
X111811797Y-65892076D01*
X111801785Y-65883095D01*
X111798351Y-65879661D01*
X111798350Y-65879660D01*
X111666177Y-65798135D01*
X111651518Y-65789093D01*
X111651513Y-65789091D01*
X111650069Y-65788612D01*
X111487753Y-65734826D01*
X111487751Y-65734825D01*
X111386678Y-65724500D01*
X110813330Y-65724500D01*
X110813312Y-65724501D01*
X110712247Y-65734825D01*
X110712240Y-65734827D01*
X110663503Y-65750977D01*
X110593674Y-65753378D01*
X110533633Y-65717646D01*
X110502441Y-65655126D01*
X110500500Y-65633271D01*
X110500500Y-51258676D01*
X110520185Y-51191637D01*
X110536819Y-51170995D01*
X111170995Y-50536819D01*
X111232318Y-50503334D01*
X111258676Y-50500500D01*
X111925500Y-50500500D01*
X111992539Y-50520185D01*
G37*
%TD.AperFunction*%
%TA.AperFunction,Conductor*%
G36*
X129808363Y-50520185D02*
G01*
X129829005Y-50536819D01*
X130463181Y-51170995D01*
X130496666Y-51232318D01*
X130499500Y-51258676D01*
X130499500Y-64800750D01*
X130479815Y-64867789D01*
X130427011Y-64913544D01*
X130357853Y-64923488D01*
X130302614Y-64901068D01*
X130186433Y-64816657D01*
X129975996Y-64709433D01*
X129751368Y-64636446D01*
X129518097Y-64599500D01*
X129518092Y-64599500D01*
X129281908Y-64599500D01*
X129281903Y-64599500D01*
X129048630Y-64636447D01*
X129048627Y-64636447D01*
X128893984Y-64686694D01*
X128860203Y-64687658D01*
X128826439Y-64689269D01*
X128824933Y-64688666D01*
X128824143Y-64688689D01*
X128793672Y-64676154D01*
X128791795Y-64675070D01*
X128781906Y-64669361D01*
X128781904Y-64669359D01*
X128781900Y-64669358D01*
X128731785Y-64640423D01*
X128579057Y-64599499D01*
X128420943Y-64599499D01*
X128413347Y-64599499D01*
X128413331Y-64599500D01*
X128179766Y-64599500D01*
X128112727Y-64579815D01*
X128110875Y-64578602D01*
X127979185Y-64490609D01*
X127979172Y-64490602D01*
X127833501Y-64430264D01*
X127833493Y-64430262D01*
X127825334Y-64428639D01*
X127763423Y-64396252D01*
X127728851Y-64335536D01*
X127725528Y-64307022D01*
X127725528Y-63432345D01*
X127745213Y-63365306D01*
X127785424Y-63327870D01*
X127785231Y-63327612D01*
X127787633Y-63325813D01*
X127790110Y-63323508D01*
X127792324Y-63322298D01*
X127792331Y-63322296D01*
X127907546Y-63236046D01*
X127993796Y-63120831D01*
X128044091Y-62985983D01*
X128050500Y-62926373D01*
X128050499Y-62124499D01*
X128070183Y-62057461D01*
X128122987Y-62011706D01*
X128174499Y-62000500D01*
X128178844Y-62000500D01*
X128178845Y-62000499D01*
X128333497Y-61969737D01*
X128479179Y-61909394D01*
X128610289Y-61821789D01*
X128721789Y-61710289D01*
X128809394Y-61579179D01*
X128869737Y-61433497D01*
X128900500Y-61278842D01*
X128900500Y-61121158D01*
X128900500Y-61121155D01*
X128900499Y-61121153D01*
X128884162Y-61039021D01*
X128869737Y-60966503D01*
X128869735Y-60966498D01*
X128809397Y-60820827D01*
X128809390Y-60820814D01*
X128721789Y-60689711D01*
X128721786Y-60689707D01*
X128610292Y-60578213D01*
X128610288Y-60578210D01*
X128479185Y-60490609D01*
X128479172Y-60490602D01*
X128333501Y-60430264D01*
X128333489Y-60430261D01*
X128178845Y-60399500D01*
X128178842Y-60399500D01*
X128174499Y-60399500D01*
X128165813Y-60396949D01*
X128156852Y-60398238D01*
X128132811Y-60387259D01*
X128107460Y-60379815D01*
X128101532Y-60372974D01*
X128093296Y-60369213D01*
X128079006Y-60346978D01*
X128061705Y-60327011D01*
X128059417Y-60316496D01*
X128055522Y-60310435D01*
X128050499Y-60275500D01*
X128050499Y-60250096D01*
X128070184Y-60183057D01*
X128086808Y-60162425D01*
X128214664Y-60034570D01*
X128275983Y-60001089D01*
X128278150Y-60000638D01*
X128336085Y-59989113D01*
X128433497Y-59969737D01*
X128579179Y-59909394D01*
X128710289Y-59821789D01*
X128821789Y-59710289D01*
X128909394Y-59579179D01*
X128969737Y-59433497D01*
X129000500Y-59278842D01*
X129000500Y-59121158D01*
X129000500Y-59121155D01*
X129000499Y-59121153D01*
X128978269Y-59009397D01*
X128969737Y-58966503D01*
X128930155Y-58870943D01*
X128909397Y-58820827D01*
X128909390Y-58820814D01*
X128821789Y-58689711D01*
X128821786Y-58689707D01*
X128710292Y-58578213D01*
X128710288Y-58578210D01*
X128692489Y-58566317D01*
X128647684Y-58512705D01*
X128638977Y-58443380D01*
X128669132Y-58380352D01*
X128673680Y-58375553D01*
X129068713Y-57980521D01*
X129068716Y-57980520D01*
X129180520Y-57868716D01*
X129230639Y-57781904D01*
X129259577Y-57731785D01*
X129300500Y-57579058D01*
X129300500Y-57420943D01*
X129300500Y-56679765D01*
X129320185Y-56612726D01*
X129321398Y-56610874D01*
X129357950Y-56556171D01*
X129409394Y-56479179D01*
X129469737Y-56333497D01*
X129500500Y-56178842D01*
X129500500Y-56021158D01*
X129500500Y-56021155D01*
X129500499Y-56021153D01*
X129492592Y-55981403D01*
X129469737Y-55866503D01*
X129469735Y-55866498D01*
X129409397Y-55720827D01*
X129409390Y-55720814D01*
X129321789Y-55589711D01*
X129321786Y-55589707D01*
X129210292Y-55478213D01*
X129210288Y-55478210D01*
X129079185Y-55390609D01*
X129079172Y-55390602D01*
X128933501Y-55330264D01*
X128933489Y-55330261D01*
X128778845Y-55299500D01*
X128778842Y-55299500D01*
X128621158Y-55299500D01*
X128621155Y-55299500D01*
X128466510Y-55330261D01*
X128466498Y-55330264D01*
X128320827Y-55390602D01*
X128320809Y-55390612D01*
X128240352Y-55444372D01*
X128173675Y-55465250D01*
X128106295Y-55446765D01*
X128059605Y-55394786D01*
X128048173Y-55328013D01*
X128048632Y-55323746D01*
X128050500Y-55306373D01*
X128050499Y-54210628D01*
X128044091Y-54151017D01*
X128043262Y-54143303D01*
X128044330Y-54143188D01*
X128044330Y-54103811D01*
X128043261Y-54103697D01*
X128044089Y-54095985D01*
X128044091Y-54095983D01*
X128050500Y-54036373D01*
X128050499Y-52940628D01*
X128044091Y-52881017D01*
X128043262Y-52873303D01*
X128044330Y-52873188D01*
X128044330Y-52833811D01*
X128043261Y-52833697D01*
X128044089Y-52825985D01*
X128044091Y-52825983D01*
X128050500Y-52766373D01*
X128050499Y-51670628D01*
X128044091Y-51611017D01*
X128043262Y-51603303D01*
X128044330Y-51603188D01*
X128044330Y-51563811D01*
X128043261Y-51563697D01*
X128044089Y-51555985D01*
X128044091Y-51555983D01*
X128050500Y-51496373D01*
X128050499Y-50624499D01*
X128070183Y-50557461D01*
X128122987Y-50511706D01*
X128174499Y-50500500D01*
X129741324Y-50500500D01*
X129808363Y-50520185D01*
G37*
%TD.AperFunction*%
%TA.AperFunction,Conductor*%
G36*
X125705702Y-64005440D02*
G01*
X125712180Y-64011472D01*
X126013119Y-64312411D01*
X126027302Y-64338386D01*
X126043758Y-64362992D01*
X126043862Y-64368713D01*
X126046604Y-64373734D01*
X126044492Y-64403254D01*
X126045033Y-64432850D01*
X126041929Y-64439099D01*
X126041620Y-64443426D01*
X126030959Y-64465217D01*
X126023654Y-64477052D01*
X126019480Y-64481227D01*
X125997226Y-64519773D01*
X125996326Y-64521332D01*
X125940424Y-64618155D01*
X125940423Y-64618157D01*
X125940423Y-64618158D01*
X125918360Y-64700500D01*
X125917180Y-64704902D01*
X125880814Y-64764562D01*
X125817967Y-64795090D01*
X125748591Y-64786795D01*
X125709724Y-64760488D01*
X125536818Y-64587582D01*
X125503333Y-64526259D01*
X125500499Y-64499901D01*
X125500499Y-64099153D01*
X125520184Y-64032114D01*
X125572988Y-63986359D01*
X125642146Y-63976415D01*
X125705702Y-64005440D01*
G37*
%TD.AperFunction*%
%TA.AperFunction,Conductor*%
G36*
X121905703Y-58158884D02*
G01*
X121912181Y-58164916D01*
X123319478Y-59572213D01*
X123319480Y-59572216D01*
X123431284Y-59684020D01*
X123462804Y-59702218D01*
X123472709Y-59711241D01*
X123484178Y-59730104D01*
X123499416Y-59746084D01*
X123505384Y-59759575D01*
X123518659Y-59795169D01*
X123523642Y-59864861D01*
X123518659Y-59881831D01*
X123505908Y-59916018D01*
X123499501Y-59975616D01*
X123499500Y-59975635D01*
X123499500Y-60971370D01*
X123499501Y-60971376D01*
X123505908Y-61030983D01*
X123556202Y-61165828D01*
X123556206Y-61165835D01*
X123642452Y-61281044D01*
X123642455Y-61281047D01*
X123757664Y-61367293D01*
X123757671Y-61367297D01*
X123802618Y-61384061D01*
X123892517Y-61417591D01*
X123952127Y-61424000D01*
X124075500Y-61423999D01*
X124142539Y-61443683D01*
X124188294Y-61496487D01*
X124199500Y-61547999D01*
X124199500Y-62905000D01*
X124179815Y-62972039D01*
X124127011Y-63017794D01*
X124075500Y-63029000D01*
X123664500Y-63029000D01*
X123597461Y-63009315D01*
X123551706Y-62956511D01*
X123540500Y-62905000D01*
X123540499Y-62380629D01*
X123540498Y-62380623D01*
X123534091Y-62321016D01*
X123483797Y-62186171D01*
X123483793Y-62186164D01*
X123397547Y-62070955D01*
X123397544Y-62070952D01*
X123282335Y-61984706D01*
X123282328Y-61984702D01*
X123147482Y-61934408D01*
X123147483Y-61934408D01*
X123087883Y-61928001D01*
X123087881Y-61928000D01*
X123087873Y-61928000D01*
X123087864Y-61928000D01*
X122092129Y-61928000D01*
X122092123Y-61928001D01*
X122032518Y-61934408D01*
X121998331Y-61947159D01*
X121928639Y-61952142D01*
X121911669Y-61947159D01*
X121877480Y-61934408D01*
X121877482Y-61934408D01*
X121817883Y-61928001D01*
X121817881Y-61928000D01*
X121817873Y-61928000D01*
X121817864Y-61928000D01*
X120822129Y-61928000D01*
X120822123Y-61928001D01*
X120762518Y-61934408D01*
X120728331Y-61947159D01*
X120702943Y-61948974D01*
X120678166Y-61954788D01*
X120663756Y-61951776D01*
X120658639Y-61952142D01*
X120643561Y-61947847D01*
X120642595Y-61947504D01*
X120607483Y-61934409D01*
X120604868Y-61934127D01*
X120595663Y-61930864D01*
X120572599Y-61914176D01*
X120547870Y-61900095D01*
X120544663Y-61893965D01*
X120539056Y-61889908D01*
X120528674Y-61863399D01*
X120515485Y-61838184D01*
X120516101Y-61831293D01*
X120513578Y-61824849D01*
X120519175Y-61796941D01*
X120521712Y-61768593D01*
X120526250Y-61761668D01*
X120527318Y-61756344D01*
X120534815Y-61748598D01*
X120549419Y-61726314D01*
X121458506Y-60817228D01*
X121458511Y-60817224D01*
X121468714Y-60807020D01*
X121468716Y-60807020D01*
X121580520Y-60695216D01*
X121659577Y-60558284D01*
X121693880Y-60430263D01*
X121700500Y-60405558D01*
X121700500Y-60247443D01*
X121700500Y-58252597D01*
X121720185Y-58185558D01*
X121772989Y-58139803D01*
X121842147Y-58129859D01*
X121905703Y-58158884D01*
G37*
%TD.AperFunction*%
%TA.AperFunction,Conductor*%
G36*
X116185877Y-57448710D02*
G01*
X116230226Y-57477211D01*
X116819512Y-58066498D01*
X117343757Y-58590743D01*
X117370637Y-58630971D01*
X117390604Y-58679175D01*
X117390609Y-58679185D01*
X117478210Y-58810288D01*
X117478213Y-58810292D01*
X117589707Y-58921786D01*
X117589711Y-58921789D01*
X117720814Y-59009390D01*
X117720827Y-59009397D01*
X117866498Y-59069735D01*
X117866503Y-59069737D01*
X117981298Y-59092571D01*
X118015743Y-59099423D01*
X118077654Y-59131808D01*
X118112228Y-59192523D01*
X118108489Y-59262293D01*
X118094654Y-59289930D01*
X118040612Y-59370809D01*
X118040602Y-59370827D01*
X117980264Y-59516498D01*
X117980261Y-59516510D01*
X117949500Y-59671153D01*
X117949500Y-59828846D01*
X117980261Y-59983489D01*
X117980264Y-59983501D01*
X118040602Y-60129172D01*
X118040609Y-60129185D01*
X118128210Y-60260288D01*
X118128213Y-60260292D01*
X118239707Y-60371786D01*
X118239711Y-60371789D01*
X118370814Y-60459390D01*
X118370827Y-60459397D01*
X118493693Y-60510289D01*
X118516503Y-60519737D01*
X118516507Y-60519737D01*
X118516508Y-60519738D01*
X118551315Y-60526662D01*
X118613226Y-60559047D01*
X118647800Y-60619763D01*
X118644060Y-60689532D01*
X118614804Y-60735960D01*
X117459082Y-61891681D01*
X117397759Y-61925166D01*
X117371401Y-61928000D01*
X117012130Y-61928000D01*
X117012123Y-61928001D01*
X116952518Y-61934408D01*
X116918331Y-61947159D01*
X116848639Y-61952142D01*
X116831669Y-61947159D01*
X116797480Y-61934408D01*
X116797482Y-61934408D01*
X116737883Y-61928001D01*
X116737881Y-61928000D01*
X116737873Y-61928000D01*
X116737864Y-61928000D01*
X115742129Y-61928000D01*
X115742123Y-61928001D01*
X115682516Y-61934408D01*
X115547671Y-61984702D01*
X115547664Y-61984706D01*
X115432455Y-62070952D01*
X115432452Y-62070955D01*
X115346206Y-62186164D01*
X115346202Y-62186171D01*
X115295908Y-62321018D01*
X115295175Y-62324121D01*
X115293946Y-62326278D01*
X115293198Y-62328285D01*
X115292872Y-62328163D01*
X115260600Y-62384836D01*
X115198689Y-62417221D01*
X115129098Y-62410992D01*
X115073921Y-62368129D01*
X115050677Y-62302239D01*
X115050499Y-62295603D01*
X115050499Y-61830629D01*
X115050498Y-61830623D01*
X115050497Y-61830616D01*
X115044091Y-61771017D01*
X115043262Y-61763303D01*
X115044330Y-61763188D01*
X115044330Y-61723811D01*
X115043261Y-61723697D01*
X115044089Y-61715985D01*
X115044091Y-61715983D01*
X115050500Y-61656373D01*
X115050499Y-60560628D01*
X115045674Y-60515751D01*
X115043262Y-60493303D01*
X115044330Y-60493188D01*
X115044330Y-60453811D01*
X115043261Y-60453697D01*
X115044089Y-60445985D01*
X115044091Y-60445983D01*
X115050500Y-60386373D01*
X115050499Y-59290628D01*
X115044091Y-59231017D01*
X115043262Y-59223303D01*
X115044330Y-59223188D01*
X115044330Y-59183811D01*
X115043261Y-59183697D01*
X115044089Y-59175985D01*
X115044091Y-59175983D01*
X115050500Y-59116373D01*
X115050499Y-58020628D01*
X115044091Y-57961017D01*
X115043262Y-57953303D01*
X115043559Y-57953271D01*
X115041201Y-57926487D01*
X115042052Y-57911447D01*
X115044091Y-57905983D01*
X115050500Y-57846373D01*
X115050499Y-57762315D01*
X115050697Y-57758832D01*
X115061289Y-57729093D01*
X115070183Y-57698806D01*
X115072924Y-57696430D01*
X115074142Y-57693013D01*
X115099128Y-57673723D01*
X115122986Y-57653050D01*
X115126576Y-57652533D01*
X115129448Y-57650317D01*
X115160903Y-57647598D01*
X115192145Y-57643106D01*
X115197111Y-57644468D01*
X115199059Y-57644300D01*
X115201840Y-57645765D01*
X115221948Y-57651281D01*
X115266503Y-57669737D01*
X115383519Y-57693013D01*
X115421153Y-57700499D01*
X115421156Y-57700500D01*
X115421158Y-57700500D01*
X115578844Y-57700500D01*
X115578845Y-57700499D01*
X115733497Y-57669737D01*
X115879179Y-57609394D01*
X116010289Y-57521789D01*
X116054865Y-57477212D01*
X116116185Y-57443727D01*
X116185877Y-57448710D01*
G37*
%TD.AperFunction*%
%TA.AperFunction,Conductor*%
G36*
X119696174Y-55047747D02*
G01*
X119746100Y-55078179D01*
X119786298Y-55118377D01*
X119786301Y-55118379D01*
X119789711Y-55121789D01*
X119823445Y-55144330D01*
X119824498Y-55145065D01*
X119845569Y-55171368D01*
X119867177Y-55197224D01*
X119867343Y-55198550D01*
X119868181Y-55199596D01*
X119871688Y-55233138D01*
X119875885Y-55266549D01*
X119875307Y-55267755D01*
X119875447Y-55269086D01*
X119860273Y-55299180D01*
X119845731Y-55329577D01*
X119844339Y-55330782D01*
X119843991Y-55331474D01*
X119842586Y-55332301D01*
X119822374Y-55349817D01*
X119689707Y-55438463D01*
X119578213Y-55549957D01*
X119578210Y-55549961D01*
X119490609Y-55681064D01*
X119490602Y-55681077D01*
X119430264Y-55826748D01*
X119430261Y-55826760D01*
X119399500Y-55981403D01*
X119399500Y-56139096D01*
X119430261Y-56293739D01*
X119430264Y-56293751D01*
X119490602Y-56439422D01*
X119490609Y-56439435D01*
X119578602Y-56571124D01*
X119599480Y-56637801D01*
X119599500Y-56640015D01*
X119599500Y-59171730D01*
X119589968Y-59204188D01*
X119581008Y-59236877D01*
X119580142Y-59237655D01*
X119579815Y-59238769D01*
X119554247Y-59260923D01*
X119529037Y-59283577D01*
X119527888Y-59283763D01*
X119527011Y-59284524D01*
X119493498Y-59289342D01*
X119460070Y-59294766D01*
X119459004Y-59294302D01*
X119457853Y-59294468D01*
X119427025Y-59280389D01*
X119396001Y-59266892D01*
X119394978Y-59265754D01*
X119394297Y-59265443D01*
X119372411Y-59240640D01*
X119371411Y-59239144D01*
X119350520Y-59172470D01*
X119350500Y-59170234D01*
X119350500Y-59039059D01*
X119350501Y-59039046D01*
X119350501Y-58870945D01*
X119350501Y-58870943D01*
X119309577Y-58718215D01*
X119264664Y-58640424D01*
X119230520Y-58581284D01*
X119118716Y-58469480D01*
X119114385Y-58465149D01*
X119114374Y-58465139D01*
X118934574Y-58285339D01*
X118901089Y-58224016D01*
X118900638Y-58221849D01*
X118869738Y-58066510D01*
X118869737Y-58066503D01*
X118838352Y-57990732D01*
X118809397Y-57920827D01*
X118809390Y-57920814D01*
X118721789Y-57789711D01*
X118721786Y-57789707D01*
X118610292Y-57678213D01*
X118610288Y-57678210D01*
X118479185Y-57590609D01*
X118479172Y-57590602D01*
X118333501Y-57530264D01*
X118333489Y-57530261D01*
X118178845Y-57499500D01*
X118178842Y-57499500D01*
X118021158Y-57499500D01*
X118021154Y-57499500D01*
X118015639Y-57500043D01*
X117946993Y-57487023D01*
X117915807Y-57464321D01*
X116816791Y-56365305D01*
X116783306Y-56303982D01*
X116780472Y-56277624D01*
X116780472Y-56127217D01*
X116780471Y-56127215D01*
X116749710Y-55972572D01*
X116749709Y-55972565D01*
X116749707Y-55972560D01*
X116689369Y-55826889D01*
X116689362Y-55826876D01*
X116601761Y-55695773D01*
X116601758Y-55695769D01*
X116490264Y-55584275D01*
X116490260Y-55584272D01*
X116359157Y-55496671D01*
X116359144Y-55496664D01*
X116213473Y-55436326D01*
X116213466Y-55436324D01*
X116166579Y-55426997D01*
X116157574Y-55422286D01*
X116147439Y-55421562D01*
X116127139Y-55406365D01*
X116104669Y-55394611D01*
X116099640Y-55385779D01*
X116091506Y-55379690D01*
X116082644Y-55355931D01*
X116070096Y-55333894D01*
X116070640Y-55323746D01*
X116067089Y-55314226D01*
X116072479Y-55289447D01*
X116073837Y-55264125D01*
X116080176Y-55254064D01*
X116081941Y-55245953D01*
X116103086Y-55217705D01*
X116222725Y-55098066D01*
X116284046Y-55064584D01*
X116310404Y-55061750D01*
X119402138Y-55061750D01*
X119402154Y-55061751D01*
X119409750Y-55061751D01*
X119567863Y-55061751D01*
X119567864Y-55061751D01*
X119626324Y-55046086D01*
X119696174Y-55047747D01*
G37*
%TD.AperFunction*%
%TD*%
M02*
