%TF.GenerationSoftware,KiCad,Pcbnew,9.0.0*%
%TF.CreationDate,2025-08-18T16:34:53+09:00*%
%TF.ProjectId,SMORES,534d4f52-4553-42e6-9b69-6361645f7063,rev?*%
%TF.SameCoordinates,Original*%
%TF.FileFunction,Legend,Top*%
%TF.FilePolarity,Positive*%
%FSLAX46Y46*%
G04 Gerber Fmt 4.6, Leading zero omitted, Abs format (unit mm)*
G04 Created by KiCad (PCBNEW 9.0.0) date 2025-08-18 16:34:53*
%MOMM*%
%LPD*%
G01*
G04 APERTURE LIST*
G04 Aperture macros list*
%AMRoundRect*
0 Rectangle with rounded corners*
0 $1 Rounding radius*
0 $2 $3 $4 $5 $6 $7 $8 $9 X,Y pos of 4 corners*
0 Add a 4 corners polygon primitive as box body*
4,1,4,$2,$3,$4,$5,$6,$7,$8,$9,$2,$3,0*
0 Add four circle primitives for the rounded corners*
1,1,$1+$1,$2,$3*
1,1,$1+$1,$4,$5*
1,1,$1+$1,$6,$7*
1,1,$1+$1,$8,$9*
0 Add four rect primitives between the rounded corners*
20,1,$1+$1,$2,$3,$4,$5,0*
20,1,$1+$1,$4,$5,$6,$7,0*
20,1,$1+$1,$6,$7,$8,$9,0*
20,1,$1+$1,$8,$9,$2,$3,0*%
G04 Aperture macros list end*
%ADD10C,0.150000*%
%ADD11C,0.062500*%
%ADD12C,0.120000*%
%ADD13C,0.127000*%
%ADD14C,0.200000*%
%ADD15C,0.010000*%
%ADD16RoundRect,0.225000X-0.225000X-0.250000X0.225000X-0.250000X0.225000X0.250000X-0.225000X0.250000X0*%
%ADD17RoundRect,0.140000X-0.170000X0.140000X-0.170000X-0.140000X0.170000X-0.140000X0.170000X0.140000X0*%
%ADD18RoundRect,0.135000X-0.185000X0.135000X-0.185000X-0.135000X0.185000X-0.135000X0.185000X0.135000X0*%
%ADD19RoundRect,0.218750X-0.218750X-0.256250X0.218750X-0.256250X0.218750X0.256250X-0.218750X0.256250X0*%
%ADD20C,2.000000*%
%ADD21C,0.240000*%
%ADD22RoundRect,0.140000X0.170000X-0.140000X0.170000X0.140000X-0.170000X0.140000X-0.170000X-0.140000X0*%
%ADD23RoundRect,0.135000X-0.135000X-0.185000X0.135000X-0.185000X0.135000X0.185000X-0.135000X0.185000X0*%
%ADD24RoundRect,0.135000X0.185000X-0.135000X0.185000X0.135000X-0.185000X0.135000X-0.185000X-0.135000X0*%
%ADD25RoundRect,0.225000X-0.250000X0.225000X-0.250000X-0.225000X0.250000X-0.225000X0.250000X0.225000X0*%
%ADD26RoundRect,0.150000X0.150000X-0.512500X0.150000X0.512500X-0.150000X0.512500X-0.150000X-0.512500X0*%
%ADD27R,0.600000X1.100000*%
%ADD28RoundRect,0.218750X0.218750X0.256250X-0.218750X0.256250X-0.218750X-0.256250X0.218750X-0.256250X0*%
%ADD29RoundRect,0.225000X0.250000X-0.225000X0.250000X0.225000X-0.250000X0.225000X-0.250000X-0.225000X0*%
%ADD30R,1.200000X1.400000*%
%ADD31RoundRect,0.218750X-0.256250X0.218750X-0.256250X-0.218750X0.256250X-0.218750X0.256250X0.218750X0*%
%ADD32R,1.000000X1.500000*%
%ADD33RoundRect,0.225000X0.225000X0.250000X-0.225000X0.250000X-0.225000X-0.250000X0.225000X-0.250000X0*%
%ADD34RoundRect,0.062500X0.375000X0.062500X-0.375000X0.062500X-0.375000X-0.062500X0.375000X-0.062500X0*%
%ADD35RoundRect,0.062500X0.062500X0.375000X-0.062500X0.375000X-0.062500X-0.375000X0.062500X-0.375000X0*%
%ADD36R,1.600000X1.600000*%
%ADD37C,0.850000*%
%ADD38C,0.650000*%
%ADD39O,1.600000X1.000000*%
%ADD40O,2.100000X1.000000*%
G04 APERTURE END LIST*
D10*
X177022791Y-100900414D02*
X177085291Y-100400414D01*
X177116541Y-100150414D02*
X177076362Y-100186128D01*
X177076362Y-100186128D02*
X177107612Y-100221842D01*
X177107612Y-100221842D02*
X177147791Y-100186128D01*
X177147791Y-100186128D02*
X177116541Y-100150414D01*
X177116541Y-100150414D02*
X177107612Y-100221842D01*
X177442434Y-100400414D02*
X177379934Y-100900414D01*
X177433505Y-100471842D02*
X177473684Y-100436128D01*
X177473684Y-100436128D02*
X177549577Y-100400414D01*
X177549577Y-100400414D02*
X177656719Y-100400414D01*
X177656719Y-100400414D02*
X177723684Y-100436128D01*
X177723684Y-100436128D02*
X177750469Y-100507557D01*
X177750469Y-100507557D02*
X177701362Y-100900414D01*
X178013862Y-100400414D02*
X178299576Y-100400414D01*
X178058505Y-100900414D02*
X178138862Y-100257557D01*
X178138862Y-100257557D02*
X178183505Y-100186128D01*
X178183505Y-100186128D02*
X178259398Y-100150414D01*
X178259398Y-100150414D02*
X178330826Y-100150414D01*
X178594219Y-100900414D02*
X178527254Y-100864700D01*
X178527254Y-100864700D02*
X178496004Y-100828985D01*
X178496004Y-100828985D02*
X178469219Y-100757557D01*
X178469219Y-100757557D02*
X178496004Y-100543271D01*
X178496004Y-100543271D02*
X178540647Y-100471842D01*
X178540647Y-100471842D02*
X178580826Y-100436128D01*
X178580826Y-100436128D02*
X178656719Y-100400414D01*
X178656719Y-100400414D02*
X178763861Y-100400414D01*
X178763861Y-100400414D02*
X178830826Y-100436128D01*
X178830826Y-100436128D02*
X178862076Y-100471842D01*
X178862076Y-100471842D02*
X178888861Y-100543271D01*
X178888861Y-100543271D02*
X178862076Y-100757557D01*
X178862076Y-100757557D02*
X178817433Y-100828985D01*
X178817433Y-100828985D02*
X178777254Y-100864700D01*
X178777254Y-100864700D02*
X178701361Y-100900414D01*
X178701361Y-100900414D02*
X178594219Y-100900414D01*
X179295111Y-100150414D02*
X179205825Y-100293271D01*
X179491540Y-100864700D02*
X179558504Y-100900414D01*
X179558504Y-100900414D02*
X179701361Y-100900414D01*
X179701361Y-100900414D02*
X179777254Y-100864700D01*
X179777254Y-100864700D02*
X179821897Y-100793271D01*
X179821897Y-100793271D02*
X179826361Y-100757557D01*
X179826361Y-100757557D02*
X179799575Y-100686128D01*
X179799575Y-100686128D02*
X179732611Y-100650414D01*
X179732611Y-100650414D02*
X179625468Y-100650414D01*
X179625468Y-100650414D02*
X179558504Y-100614700D01*
X179558504Y-100614700D02*
X179531718Y-100543271D01*
X179531718Y-100543271D02*
X179536183Y-100507557D01*
X179536183Y-100507557D02*
X179580825Y-100436128D01*
X179580825Y-100436128D02*
X179656718Y-100400414D01*
X179656718Y-100400414D02*
X179763861Y-100400414D01*
X179763861Y-100400414D02*
X179830825Y-100436128D01*
X180670112Y-100864700D02*
X180737076Y-100900414D01*
X180737076Y-100900414D02*
X180879933Y-100900414D01*
X180879933Y-100900414D02*
X180955826Y-100864700D01*
X180955826Y-100864700D02*
X181000469Y-100793271D01*
X181000469Y-100793271D02*
X181004933Y-100757557D01*
X181004933Y-100757557D02*
X180978147Y-100686128D01*
X180978147Y-100686128D02*
X180911183Y-100650414D01*
X180911183Y-100650414D02*
X180804040Y-100650414D01*
X180804040Y-100650414D02*
X180737076Y-100614700D01*
X180737076Y-100614700D02*
X180710290Y-100543271D01*
X180710290Y-100543271D02*
X180714755Y-100507557D01*
X180714755Y-100507557D02*
X180759397Y-100436128D01*
X180759397Y-100436128D02*
X180835290Y-100400414D01*
X180835290Y-100400414D02*
X180942433Y-100400414D01*
X180942433Y-100400414D02*
X181009397Y-100436128D01*
X181308505Y-100900414D02*
X181371005Y-100400414D01*
X181362076Y-100471842D02*
X181402255Y-100436128D01*
X181402255Y-100436128D02*
X181478148Y-100400414D01*
X181478148Y-100400414D02*
X181585290Y-100400414D01*
X181585290Y-100400414D02*
X181652255Y-100436128D01*
X181652255Y-100436128D02*
X181679040Y-100507557D01*
X181679040Y-100507557D02*
X181629933Y-100900414D01*
X181679040Y-100507557D02*
X181723683Y-100436128D01*
X181723683Y-100436128D02*
X181799576Y-100400414D01*
X181799576Y-100400414D02*
X181906719Y-100400414D01*
X181906719Y-100400414D02*
X181973683Y-100436128D01*
X181973683Y-100436128D02*
X182000469Y-100507557D01*
X182000469Y-100507557D02*
X181951362Y-100900414D01*
X182415648Y-100900414D02*
X182348683Y-100864700D01*
X182348683Y-100864700D02*
X182317433Y-100828985D01*
X182317433Y-100828985D02*
X182290648Y-100757557D01*
X182290648Y-100757557D02*
X182317433Y-100543271D01*
X182317433Y-100543271D02*
X182362076Y-100471842D01*
X182362076Y-100471842D02*
X182402255Y-100436128D01*
X182402255Y-100436128D02*
X182478148Y-100400414D01*
X182478148Y-100400414D02*
X182585290Y-100400414D01*
X182585290Y-100400414D02*
X182652255Y-100436128D01*
X182652255Y-100436128D02*
X182683505Y-100471842D01*
X182683505Y-100471842D02*
X182710290Y-100543271D01*
X182710290Y-100543271D02*
X182683505Y-100757557D01*
X182683505Y-100757557D02*
X182638862Y-100828985D01*
X182638862Y-100828985D02*
X182598683Y-100864700D01*
X182598683Y-100864700D02*
X182522790Y-100900414D01*
X182522790Y-100900414D02*
X182415648Y-100900414D01*
X182987076Y-100900414D02*
X183049576Y-100400414D01*
X183031719Y-100543271D02*
X183076361Y-100471842D01*
X183076361Y-100471842D02*
X183116540Y-100436128D01*
X183116540Y-100436128D02*
X183192433Y-100400414D01*
X183192433Y-100400414D02*
X183263861Y-100400414D01*
X183741540Y-100864700D02*
X183665647Y-100900414D01*
X183665647Y-100900414D02*
X183522790Y-100900414D01*
X183522790Y-100900414D02*
X183455826Y-100864700D01*
X183455826Y-100864700D02*
X183429040Y-100793271D01*
X183429040Y-100793271D02*
X183464755Y-100507557D01*
X183464755Y-100507557D02*
X183509397Y-100436128D01*
X183509397Y-100436128D02*
X183585290Y-100400414D01*
X183585290Y-100400414D02*
X183728147Y-100400414D01*
X183728147Y-100400414D02*
X183795112Y-100436128D01*
X183795112Y-100436128D02*
X183821897Y-100507557D01*
X183821897Y-100507557D02*
X183812969Y-100578985D01*
X183812969Y-100578985D02*
X183446897Y-100650414D01*
X184062969Y-100864700D02*
X184129933Y-100900414D01*
X184129933Y-100900414D02*
X184272790Y-100900414D01*
X184272790Y-100900414D02*
X184348683Y-100864700D01*
X184348683Y-100864700D02*
X184393326Y-100793271D01*
X184393326Y-100793271D02*
X184397790Y-100757557D01*
X184397790Y-100757557D02*
X184371004Y-100686128D01*
X184371004Y-100686128D02*
X184304040Y-100650414D01*
X184304040Y-100650414D02*
X184196897Y-100650414D01*
X184196897Y-100650414D02*
X184129933Y-100614700D01*
X184129933Y-100614700D02*
X184103147Y-100543271D01*
X184103147Y-100543271D02*
X184107612Y-100507557D01*
X184107612Y-100507557D02*
X184152254Y-100436128D01*
X184152254Y-100436128D02*
X184228147Y-100400414D01*
X184228147Y-100400414D02*
X184335290Y-100400414D01*
X184335290Y-100400414D02*
X184402254Y-100436128D01*
D11*
X166060165Y-100885559D02*
X166060165Y-100552226D01*
X166060165Y-100647464D02*
X166083975Y-100599845D01*
X166083975Y-100599845D02*
X166107784Y-100576035D01*
X166107784Y-100576035D02*
X166155403Y-100552226D01*
X166155403Y-100552226D02*
X166203022Y-100552226D01*
X166560165Y-100861750D02*
X166512546Y-100885559D01*
X166512546Y-100885559D02*
X166417308Y-100885559D01*
X166417308Y-100885559D02*
X166369689Y-100861750D01*
X166369689Y-100861750D02*
X166345880Y-100814130D01*
X166345880Y-100814130D02*
X166345880Y-100623654D01*
X166345880Y-100623654D02*
X166369689Y-100576035D01*
X166369689Y-100576035D02*
X166417308Y-100552226D01*
X166417308Y-100552226D02*
X166512546Y-100552226D01*
X166512546Y-100552226D02*
X166560165Y-100576035D01*
X166560165Y-100576035D02*
X166583975Y-100623654D01*
X166583975Y-100623654D02*
X166583975Y-100671273D01*
X166583975Y-100671273D02*
X166345880Y-100718892D01*
X166750641Y-100552226D02*
X166869689Y-100885559D01*
X166869689Y-100885559D02*
X166988736Y-100552226D01*
X167179212Y-100837940D02*
X167203022Y-100861750D01*
X167203022Y-100861750D02*
X167179212Y-100885559D01*
X167179212Y-100885559D02*
X167155403Y-100861750D01*
X167155403Y-100861750D02*
X167179212Y-100837940D01*
X167179212Y-100837940D02*
X167179212Y-100885559D01*
X167679212Y-100885559D02*
X167393498Y-100885559D01*
X167536355Y-100885559D02*
X167536355Y-100385559D01*
X167536355Y-100385559D02*
X167488736Y-100456988D01*
X167488736Y-100456988D02*
X167441117Y-100504607D01*
X167441117Y-100504607D02*
X167393498Y-100528416D01*
X183264440Y-86003022D02*
X182907297Y-86003022D01*
X182907297Y-86003022D02*
X182835869Y-85979213D01*
X182835869Y-85979213D02*
X182788250Y-85931594D01*
X182788250Y-85931594D02*
X182764440Y-85860165D01*
X182764440Y-85860165D02*
X182764440Y-85812546D01*
X182764440Y-86479212D02*
X182764440Y-86241117D01*
X182764440Y-86241117D02*
X183264440Y-86241117D01*
X182812059Y-86931593D02*
X182788250Y-86907784D01*
X182788250Y-86907784D02*
X182764440Y-86836355D01*
X182764440Y-86836355D02*
X182764440Y-86788736D01*
X182764440Y-86788736D02*
X182788250Y-86717308D01*
X182788250Y-86717308D02*
X182835869Y-86669689D01*
X182835869Y-86669689D02*
X182883488Y-86645879D01*
X182883488Y-86645879D02*
X182978726Y-86622070D01*
X182978726Y-86622070D02*
X183050154Y-86622070D01*
X183050154Y-86622070D02*
X183145392Y-86645879D01*
X183145392Y-86645879D02*
X183193011Y-86669689D01*
X183193011Y-86669689D02*
X183240630Y-86717308D01*
X183240630Y-86717308D02*
X183264440Y-86788736D01*
X183264440Y-86788736D02*
X183264440Y-86836355D01*
X183264440Y-86836355D02*
X183240630Y-86907784D01*
X183240630Y-86907784D02*
X183216821Y-86931593D01*
X183264440Y-87288736D02*
X182907297Y-87288736D01*
X182907297Y-87288736D02*
X182835869Y-87264927D01*
X182835869Y-87264927D02*
X182788250Y-87217308D01*
X182788250Y-87217308D02*
X182764440Y-87145879D01*
X182764440Y-87145879D02*
X182764440Y-87098260D01*
X182764440Y-87764926D02*
X182764440Y-87526831D01*
X182764440Y-87526831D02*
X183264440Y-87526831D01*
X182812059Y-88217307D02*
X182788250Y-88193498D01*
X182788250Y-88193498D02*
X182764440Y-88122069D01*
X182764440Y-88122069D02*
X182764440Y-88074450D01*
X182764440Y-88074450D02*
X182788250Y-88003022D01*
X182788250Y-88003022D02*
X182835869Y-87955403D01*
X182835869Y-87955403D02*
X182883488Y-87931593D01*
X182883488Y-87931593D02*
X182978726Y-87907784D01*
X182978726Y-87907784D02*
X183050154Y-87907784D01*
X183050154Y-87907784D02*
X183145392Y-87931593D01*
X183145392Y-87931593D02*
X183193011Y-87955403D01*
X183193011Y-87955403D02*
X183240630Y-88003022D01*
X183240630Y-88003022D02*
X183264440Y-88074450D01*
X183264440Y-88074450D02*
X183264440Y-88122069D01*
X183264440Y-88122069D02*
X183240630Y-88193498D01*
X183240630Y-88193498D02*
X183216821Y-88217307D01*
X183264440Y-88574450D02*
X182907297Y-88574450D01*
X182907297Y-88574450D02*
X182835869Y-88550641D01*
X182835869Y-88550641D02*
X182788250Y-88503022D01*
X182788250Y-88503022D02*
X182764440Y-88431593D01*
X182764440Y-88431593D02*
X182764440Y-88383974D01*
X182764440Y-89050640D02*
X182764440Y-88812545D01*
X182764440Y-88812545D02*
X183264440Y-88812545D01*
X182812059Y-89503021D02*
X182788250Y-89479212D01*
X182788250Y-89479212D02*
X182764440Y-89407783D01*
X182764440Y-89407783D02*
X182764440Y-89360164D01*
X182764440Y-89360164D02*
X182788250Y-89288736D01*
X182788250Y-89288736D02*
X182835869Y-89241117D01*
X182835869Y-89241117D02*
X182883488Y-89217307D01*
X182883488Y-89217307D02*
X182978726Y-89193498D01*
X182978726Y-89193498D02*
X183050154Y-89193498D01*
X183050154Y-89193498D02*
X183145392Y-89217307D01*
X183145392Y-89217307D02*
X183193011Y-89241117D01*
X183193011Y-89241117D02*
X183240630Y-89288736D01*
X183240630Y-89288736D02*
X183264440Y-89360164D01*
X183264440Y-89360164D02*
X183264440Y-89407783D01*
X183264440Y-89407783D02*
X183240630Y-89479212D01*
X183240630Y-89479212D02*
X183216821Y-89503021D01*
X183264440Y-89860164D02*
X182907297Y-89860164D01*
X182907297Y-89860164D02*
X182835869Y-89836355D01*
X182835869Y-89836355D02*
X182788250Y-89788736D01*
X182788250Y-89788736D02*
X182764440Y-89717307D01*
X182764440Y-89717307D02*
X182764440Y-89669688D01*
X182764440Y-90336354D02*
X182764440Y-90098259D01*
X182764440Y-90098259D02*
X183264440Y-90098259D01*
X182812059Y-90788735D02*
X182788250Y-90764926D01*
X182788250Y-90764926D02*
X182764440Y-90693497D01*
X182764440Y-90693497D02*
X182764440Y-90645878D01*
X182764440Y-90645878D02*
X182788250Y-90574450D01*
X182788250Y-90574450D02*
X182835869Y-90526831D01*
X182835869Y-90526831D02*
X182883488Y-90503021D01*
X182883488Y-90503021D02*
X182978726Y-90479212D01*
X182978726Y-90479212D02*
X183050154Y-90479212D01*
X183050154Y-90479212D02*
X183145392Y-90503021D01*
X183145392Y-90503021D02*
X183193011Y-90526831D01*
X183193011Y-90526831D02*
X183240630Y-90574450D01*
X183240630Y-90574450D02*
X183264440Y-90645878D01*
X183264440Y-90645878D02*
X183264440Y-90693497D01*
X183264440Y-90693497D02*
X183240630Y-90764926D01*
X183240630Y-90764926D02*
X183216821Y-90788735D01*
D10*
X166807142Y-85379580D02*
X166759523Y-85427200D01*
X166759523Y-85427200D02*
X166616666Y-85474819D01*
X166616666Y-85474819D02*
X166521428Y-85474819D01*
X166521428Y-85474819D02*
X166378571Y-85427200D01*
X166378571Y-85427200D02*
X166283333Y-85331961D01*
X166283333Y-85331961D02*
X166235714Y-85236723D01*
X166235714Y-85236723D02*
X166188095Y-85046247D01*
X166188095Y-85046247D02*
X166188095Y-84903390D01*
X166188095Y-84903390D02*
X166235714Y-84712914D01*
X166235714Y-84712914D02*
X166283333Y-84617676D01*
X166283333Y-84617676D02*
X166378571Y-84522438D01*
X166378571Y-84522438D02*
X166521428Y-84474819D01*
X166521428Y-84474819D02*
X166616666Y-84474819D01*
X166616666Y-84474819D02*
X166759523Y-84522438D01*
X166759523Y-84522438D02*
X166807142Y-84570057D01*
X167759523Y-85474819D02*
X167188095Y-85474819D01*
X167473809Y-85474819D02*
X167473809Y-84474819D01*
X167473809Y-84474819D02*
X167378571Y-84617676D01*
X167378571Y-84617676D02*
X167283333Y-84712914D01*
X167283333Y-84712914D02*
X167188095Y-84760533D01*
X168664285Y-84474819D02*
X168188095Y-84474819D01*
X168188095Y-84474819D02*
X168140476Y-84951009D01*
X168140476Y-84951009D02*
X168188095Y-84903390D01*
X168188095Y-84903390D02*
X168283333Y-84855771D01*
X168283333Y-84855771D02*
X168521428Y-84855771D01*
X168521428Y-84855771D02*
X168616666Y-84903390D01*
X168616666Y-84903390D02*
X168664285Y-84951009D01*
X168664285Y-84951009D02*
X168711904Y-85046247D01*
X168711904Y-85046247D02*
X168711904Y-85284342D01*
X168711904Y-85284342D02*
X168664285Y-85379580D01*
X168664285Y-85379580D02*
X168616666Y-85427200D01*
X168616666Y-85427200D02*
X168521428Y-85474819D01*
X168521428Y-85474819D02*
X168283333Y-85474819D01*
X168283333Y-85474819D02*
X168188095Y-85427200D01*
X168188095Y-85427200D02*
X168140476Y-85379580D01*
X171219580Y-98842857D02*
X171267200Y-98890476D01*
X171267200Y-98890476D02*
X171314819Y-99033333D01*
X171314819Y-99033333D02*
X171314819Y-99128571D01*
X171314819Y-99128571D02*
X171267200Y-99271428D01*
X171267200Y-99271428D02*
X171171961Y-99366666D01*
X171171961Y-99366666D02*
X171076723Y-99414285D01*
X171076723Y-99414285D02*
X170886247Y-99461904D01*
X170886247Y-99461904D02*
X170743390Y-99461904D01*
X170743390Y-99461904D02*
X170552914Y-99414285D01*
X170552914Y-99414285D02*
X170457676Y-99366666D01*
X170457676Y-99366666D02*
X170362438Y-99271428D01*
X170362438Y-99271428D02*
X170314819Y-99128571D01*
X170314819Y-99128571D02*
X170314819Y-99033333D01*
X170314819Y-99033333D02*
X170362438Y-98890476D01*
X170362438Y-98890476D02*
X170410057Y-98842857D01*
X171314819Y-97890476D02*
X171314819Y-98461904D01*
X171314819Y-98176190D02*
X170314819Y-98176190D01*
X170314819Y-98176190D02*
X170457676Y-98271428D01*
X170457676Y-98271428D02*
X170552914Y-98366666D01*
X170552914Y-98366666D02*
X170600533Y-98461904D01*
X170314819Y-97557142D02*
X170314819Y-96938095D01*
X170314819Y-96938095D02*
X170695771Y-97271428D01*
X170695771Y-97271428D02*
X170695771Y-97128571D01*
X170695771Y-97128571D02*
X170743390Y-97033333D01*
X170743390Y-97033333D02*
X170791009Y-96985714D01*
X170791009Y-96985714D02*
X170886247Y-96938095D01*
X170886247Y-96938095D02*
X171124342Y-96938095D01*
X171124342Y-96938095D02*
X171219580Y-96985714D01*
X171219580Y-96985714D02*
X171267200Y-97033333D01*
X171267200Y-97033333D02*
X171314819Y-97128571D01*
X171314819Y-97128571D02*
X171314819Y-97414285D01*
X171314819Y-97414285D02*
X171267200Y-97509523D01*
X171267200Y-97509523D02*
X171219580Y-97557142D01*
X174174819Y-92716666D02*
X173698628Y-93049999D01*
X174174819Y-93288094D02*
X173174819Y-93288094D01*
X173174819Y-93288094D02*
X173174819Y-92907142D01*
X173174819Y-92907142D02*
X173222438Y-92811904D01*
X173222438Y-92811904D02*
X173270057Y-92764285D01*
X173270057Y-92764285D02*
X173365295Y-92716666D01*
X173365295Y-92716666D02*
X173508152Y-92716666D01*
X173508152Y-92716666D02*
X173603390Y-92764285D01*
X173603390Y-92764285D02*
X173651009Y-92811904D01*
X173651009Y-92811904D02*
X173698628Y-92907142D01*
X173698628Y-92907142D02*
X173698628Y-93288094D01*
X174174819Y-92240475D02*
X174174819Y-92049999D01*
X174174819Y-92049999D02*
X174127200Y-91954761D01*
X174127200Y-91954761D02*
X174079580Y-91907142D01*
X174079580Y-91907142D02*
X173936723Y-91811904D01*
X173936723Y-91811904D02*
X173746247Y-91764285D01*
X173746247Y-91764285D02*
X173365295Y-91764285D01*
X173365295Y-91764285D02*
X173270057Y-91811904D01*
X173270057Y-91811904D02*
X173222438Y-91859523D01*
X173222438Y-91859523D02*
X173174819Y-91954761D01*
X173174819Y-91954761D02*
X173174819Y-92145237D01*
X173174819Y-92145237D02*
X173222438Y-92240475D01*
X173222438Y-92240475D02*
X173270057Y-92288094D01*
X173270057Y-92288094D02*
X173365295Y-92335713D01*
X173365295Y-92335713D02*
X173603390Y-92335713D01*
X173603390Y-92335713D02*
X173698628Y-92288094D01*
X173698628Y-92288094D02*
X173746247Y-92240475D01*
X173746247Y-92240475D02*
X173793866Y-92145237D01*
X173793866Y-92145237D02*
X173793866Y-91954761D01*
X173793866Y-91954761D02*
X173746247Y-91859523D01*
X173746247Y-91859523D02*
X173698628Y-91811904D01*
X173698628Y-91811904D02*
X173603390Y-91764285D01*
X175036905Y-83574819D02*
X175036905Y-82574819D01*
X175036905Y-82574819D02*
X175275000Y-82574819D01*
X175275000Y-82574819D02*
X175417857Y-82622438D01*
X175417857Y-82622438D02*
X175513095Y-82717676D01*
X175513095Y-82717676D02*
X175560714Y-82812914D01*
X175560714Y-82812914D02*
X175608333Y-83003390D01*
X175608333Y-83003390D02*
X175608333Y-83146247D01*
X175608333Y-83146247D02*
X175560714Y-83336723D01*
X175560714Y-83336723D02*
X175513095Y-83431961D01*
X175513095Y-83431961D02*
X175417857Y-83527200D01*
X175417857Y-83527200D02*
X175275000Y-83574819D01*
X175275000Y-83574819D02*
X175036905Y-83574819D01*
X176560714Y-83574819D02*
X175989286Y-83574819D01*
X176275000Y-83574819D02*
X176275000Y-82574819D01*
X176275000Y-82574819D02*
X176179762Y-82717676D01*
X176179762Y-82717676D02*
X176084524Y-82812914D01*
X176084524Y-82812914D02*
X175989286Y-82860533D01*
X178719580Y-94742857D02*
X178767200Y-94790476D01*
X178767200Y-94790476D02*
X178814819Y-94933333D01*
X178814819Y-94933333D02*
X178814819Y-95028571D01*
X178814819Y-95028571D02*
X178767200Y-95171428D01*
X178767200Y-95171428D02*
X178671961Y-95266666D01*
X178671961Y-95266666D02*
X178576723Y-95314285D01*
X178576723Y-95314285D02*
X178386247Y-95361904D01*
X178386247Y-95361904D02*
X178243390Y-95361904D01*
X178243390Y-95361904D02*
X178052914Y-95314285D01*
X178052914Y-95314285D02*
X177957676Y-95266666D01*
X177957676Y-95266666D02*
X177862438Y-95171428D01*
X177862438Y-95171428D02*
X177814819Y-95028571D01*
X177814819Y-95028571D02*
X177814819Y-94933333D01*
X177814819Y-94933333D02*
X177862438Y-94790476D01*
X177862438Y-94790476D02*
X177910057Y-94742857D01*
X177910057Y-94361904D02*
X177862438Y-94314285D01*
X177862438Y-94314285D02*
X177814819Y-94219047D01*
X177814819Y-94219047D02*
X177814819Y-93980952D01*
X177814819Y-93980952D02*
X177862438Y-93885714D01*
X177862438Y-93885714D02*
X177910057Y-93838095D01*
X177910057Y-93838095D02*
X178005295Y-93790476D01*
X178005295Y-93790476D02*
X178100533Y-93790476D01*
X178100533Y-93790476D02*
X178243390Y-93838095D01*
X178243390Y-93838095D02*
X178814819Y-94409523D01*
X178814819Y-94409523D02*
X178814819Y-93790476D01*
X177814819Y-92885714D02*
X177814819Y-93361904D01*
X177814819Y-93361904D02*
X178291009Y-93409523D01*
X178291009Y-93409523D02*
X178243390Y-93361904D01*
X178243390Y-93361904D02*
X178195771Y-93266666D01*
X178195771Y-93266666D02*
X178195771Y-93028571D01*
X178195771Y-93028571D02*
X178243390Y-92933333D01*
X178243390Y-92933333D02*
X178291009Y-92885714D01*
X178291009Y-92885714D02*
X178386247Y-92838095D01*
X178386247Y-92838095D02*
X178624342Y-92838095D01*
X178624342Y-92838095D02*
X178719580Y-92885714D01*
X178719580Y-92885714D02*
X178767200Y-92933333D01*
X178767200Y-92933333D02*
X178814819Y-93028571D01*
X178814819Y-93028571D02*
X178814819Y-93266666D01*
X178814819Y-93266666D02*
X178767200Y-93361904D01*
X178767200Y-93361904D02*
X178719580Y-93409523D01*
X177458095Y-74126819D02*
X178029523Y-74126819D01*
X177743809Y-75126819D02*
X177743809Y-74126819D01*
X178362857Y-75126819D02*
X178362857Y-74126819D01*
X178362857Y-74126819D02*
X178743809Y-74126819D01*
X178743809Y-74126819D02*
X178839047Y-74174438D01*
X178839047Y-74174438D02*
X178886666Y-74222057D01*
X178886666Y-74222057D02*
X178934285Y-74317295D01*
X178934285Y-74317295D02*
X178934285Y-74460152D01*
X178934285Y-74460152D02*
X178886666Y-74555390D01*
X178886666Y-74555390D02*
X178839047Y-74603009D01*
X178839047Y-74603009D02*
X178743809Y-74650628D01*
X178743809Y-74650628D02*
X178362857Y-74650628D01*
X179886666Y-75126819D02*
X179315238Y-75126819D01*
X179600952Y-75126819D02*
X179600952Y-74126819D01*
X179600952Y-74126819D02*
X179505714Y-74269676D01*
X179505714Y-74269676D02*
X179410476Y-74364914D01*
X179410476Y-74364914D02*
X179315238Y-74412533D01*
X176099819Y-99461904D02*
X176909342Y-99461904D01*
X176909342Y-99461904D02*
X177004580Y-99414285D01*
X177004580Y-99414285D02*
X177052200Y-99366666D01*
X177052200Y-99366666D02*
X177099819Y-99271428D01*
X177099819Y-99271428D02*
X177099819Y-99080952D01*
X177099819Y-99080952D02*
X177052200Y-98985714D01*
X177052200Y-98985714D02*
X177004580Y-98938095D01*
X177004580Y-98938095D02*
X176909342Y-98890476D01*
X176909342Y-98890476D02*
X176099819Y-98890476D01*
X176099819Y-97985714D02*
X176099819Y-98176190D01*
X176099819Y-98176190D02*
X176147438Y-98271428D01*
X176147438Y-98271428D02*
X176195057Y-98319047D01*
X176195057Y-98319047D02*
X176337914Y-98414285D01*
X176337914Y-98414285D02*
X176528390Y-98461904D01*
X176528390Y-98461904D02*
X176909342Y-98461904D01*
X176909342Y-98461904D02*
X177004580Y-98414285D01*
X177004580Y-98414285D02*
X177052200Y-98366666D01*
X177052200Y-98366666D02*
X177099819Y-98271428D01*
X177099819Y-98271428D02*
X177099819Y-98080952D01*
X177099819Y-98080952D02*
X177052200Y-97985714D01*
X177052200Y-97985714D02*
X177004580Y-97938095D01*
X177004580Y-97938095D02*
X176909342Y-97890476D01*
X176909342Y-97890476D02*
X176671247Y-97890476D01*
X176671247Y-97890476D02*
X176576009Y-97938095D01*
X176576009Y-97938095D02*
X176528390Y-97985714D01*
X176528390Y-97985714D02*
X176480771Y-98080952D01*
X176480771Y-98080952D02*
X176480771Y-98271428D01*
X176480771Y-98271428D02*
X176528390Y-98366666D01*
X176528390Y-98366666D02*
X176576009Y-98414285D01*
X176576009Y-98414285D02*
X176671247Y-98461904D01*
X172019819Y-95539904D02*
X172829342Y-95539904D01*
X172829342Y-95539904D02*
X172924580Y-95492285D01*
X172924580Y-95492285D02*
X172972200Y-95444666D01*
X172972200Y-95444666D02*
X173019819Y-95349428D01*
X173019819Y-95349428D02*
X173019819Y-95158952D01*
X173019819Y-95158952D02*
X172972200Y-95063714D01*
X172972200Y-95063714D02*
X172924580Y-95016095D01*
X172924580Y-95016095D02*
X172829342Y-94968476D01*
X172829342Y-94968476D02*
X172019819Y-94968476D01*
X172019819Y-94587523D02*
X172019819Y-93968476D01*
X172019819Y-93968476D02*
X172400771Y-94301809D01*
X172400771Y-94301809D02*
X172400771Y-94158952D01*
X172400771Y-94158952D02*
X172448390Y-94063714D01*
X172448390Y-94063714D02*
X172496009Y-94016095D01*
X172496009Y-94016095D02*
X172591247Y-93968476D01*
X172591247Y-93968476D02*
X172829342Y-93968476D01*
X172829342Y-93968476D02*
X172924580Y-94016095D01*
X172924580Y-94016095D02*
X172972200Y-94063714D01*
X172972200Y-94063714D02*
X173019819Y-94158952D01*
X173019819Y-94158952D02*
X173019819Y-94444666D01*
X173019819Y-94444666D02*
X172972200Y-94539904D01*
X172972200Y-94539904D02*
X172924580Y-94587523D01*
X176399580Y-97142857D02*
X176447200Y-97190476D01*
X176447200Y-97190476D02*
X176494819Y-97333333D01*
X176494819Y-97333333D02*
X176494819Y-97428571D01*
X176494819Y-97428571D02*
X176447200Y-97571428D01*
X176447200Y-97571428D02*
X176351961Y-97666666D01*
X176351961Y-97666666D02*
X176256723Y-97714285D01*
X176256723Y-97714285D02*
X176066247Y-97761904D01*
X176066247Y-97761904D02*
X175923390Y-97761904D01*
X175923390Y-97761904D02*
X175732914Y-97714285D01*
X175732914Y-97714285D02*
X175637676Y-97666666D01*
X175637676Y-97666666D02*
X175542438Y-97571428D01*
X175542438Y-97571428D02*
X175494819Y-97428571D01*
X175494819Y-97428571D02*
X175494819Y-97333333D01*
X175494819Y-97333333D02*
X175542438Y-97190476D01*
X175542438Y-97190476D02*
X175590057Y-97142857D01*
X175590057Y-96761904D02*
X175542438Y-96714285D01*
X175542438Y-96714285D02*
X175494819Y-96619047D01*
X175494819Y-96619047D02*
X175494819Y-96380952D01*
X175494819Y-96380952D02*
X175542438Y-96285714D01*
X175542438Y-96285714D02*
X175590057Y-96238095D01*
X175590057Y-96238095D02*
X175685295Y-96190476D01*
X175685295Y-96190476D02*
X175780533Y-96190476D01*
X175780533Y-96190476D02*
X175923390Y-96238095D01*
X175923390Y-96238095D02*
X176494819Y-96809523D01*
X176494819Y-96809523D02*
X176494819Y-96190476D01*
X175494819Y-95333333D02*
X175494819Y-95523809D01*
X175494819Y-95523809D02*
X175542438Y-95619047D01*
X175542438Y-95619047D02*
X175590057Y-95666666D01*
X175590057Y-95666666D02*
X175732914Y-95761904D01*
X175732914Y-95761904D02*
X175923390Y-95809523D01*
X175923390Y-95809523D02*
X176304342Y-95809523D01*
X176304342Y-95809523D02*
X176399580Y-95761904D01*
X176399580Y-95761904D02*
X176447200Y-95714285D01*
X176447200Y-95714285D02*
X176494819Y-95619047D01*
X176494819Y-95619047D02*
X176494819Y-95428571D01*
X176494819Y-95428571D02*
X176447200Y-95333333D01*
X176447200Y-95333333D02*
X176399580Y-95285714D01*
X176399580Y-95285714D02*
X176304342Y-95238095D01*
X176304342Y-95238095D02*
X176066247Y-95238095D01*
X176066247Y-95238095D02*
X175971009Y-95285714D01*
X175971009Y-95285714D02*
X175923390Y-95333333D01*
X175923390Y-95333333D02*
X175875771Y-95428571D01*
X175875771Y-95428571D02*
X175875771Y-95619047D01*
X175875771Y-95619047D02*
X175923390Y-95714285D01*
X175923390Y-95714285D02*
X175971009Y-95761904D01*
X175971009Y-95761904D02*
X176066247Y-95809523D01*
X169557142Y-94384819D02*
X169223809Y-93908628D01*
X168985714Y-94384819D02*
X168985714Y-93384819D01*
X168985714Y-93384819D02*
X169366666Y-93384819D01*
X169366666Y-93384819D02*
X169461904Y-93432438D01*
X169461904Y-93432438D02*
X169509523Y-93480057D01*
X169509523Y-93480057D02*
X169557142Y-93575295D01*
X169557142Y-93575295D02*
X169557142Y-93718152D01*
X169557142Y-93718152D02*
X169509523Y-93813390D01*
X169509523Y-93813390D02*
X169461904Y-93861009D01*
X169461904Y-93861009D02*
X169366666Y-93908628D01*
X169366666Y-93908628D02*
X168985714Y-93908628D01*
X170509523Y-94384819D02*
X169938095Y-94384819D01*
X170223809Y-94384819D02*
X170223809Y-93384819D01*
X170223809Y-93384819D02*
X170128571Y-93527676D01*
X170128571Y-93527676D02*
X170033333Y-93622914D01*
X170033333Y-93622914D02*
X169938095Y-93670533D01*
X171128571Y-93384819D02*
X171223809Y-93384819D01*
X171223809Y-93384819D02*
X171319047Y-93432438D01*
X171319047Y-93432438D02*
X171366666Y-93480057D01*
X171366666Y-93480057D02*
X171414285Y-93575295D01*
X171414285Y-93575295D02*
X171461904Y-93765771D01*
X171461904Y-93765771D02*
X171461904Y-94003866D01*
X171461904Y-94003866D02*
X171414285Y-94194342D01*
X171414285Y-94194342D02*
X171366666Y-94289580D01*
X171366666Y-94289580D02*
X171319047Y-94337200D01*
X171319047Y-94337200D02*
X171223809Y-94384819D01*
X171223809Y-94384819D02*
X171128571Y-94384819D01*
X171128571Y-94384819D02*
X171033333Y-94337200D01*
X171033333Y-94337200D02*
X170985714Y-94289580D01*
X170985714Y-94289580D02*
X170938095Y-94194342D01*
X170938095Y-94194342D02*
X170890476Y-94003866D01*
X170890476Y-94003866D02*
X170890476Y-93765771D01*
X170890476Y-93765771D02*
X170938095Y-93575295D01*
X170938095Y-93575295D02*
X170985714Y-93480057D01*
X170985714Y-93480057D02*
X171033333Y-93432438D01*
X171033333Y-93432438D02*
X171128571Y-93384819D01*
X170023333Y-95584819D02*
X169690000Y-95108628D01*
X169451905Y-95584819D02*
X169451905Y-94584819D01*
X169451905Y-94584819D02*
X169832857Y-94584819D01*
X169832857Y-94584819D02*
X169928095Y-94632438D01*
X169928095Y-94632438D02*
X169975714Y-94680057D01*
X169975714Y-94680057D02*
X170023333Y-94775295D01*
X170023333Y-94775295D02*
X170023333Y-94918152D01*
X170023333Y-94918152D02*
X169975714Y-95013390D01*
X169975714Y-95013390D02*
X169928095Y-95061009D01*
X169928095Y-95061009D02*
X169832857Y-95108628D01*
X169832857Y-95108628D02*
X169451905Y-95108628D01*
X170594762Y-95013390D02*
X170499524Y-94965771D01*
X170499524Y-94965771D02*
X170451905Y-94918152D01*
X170451905Y-94918152D02*
X170404286Y-94822914D01*
X170404286Y-94822914D02*
X170404286Y-94775295D01*
X170404286Y-94775295D02*
X170451905Y-94680057D01*
X170451905Y-94680057D02*
X170499524Y-94632438D01*
X170499524Y-94632438D02*
X170594762Y-94584819D01*
X170594762Y-94584819D02*
X170785238Y-94584819D01*
X170785238Y-94584819D02*
X170880476Y-94632438D01*
X170880476Y-94632438D02*
X170928095Y-94680057D01*
X170928095Y-94680057D02*
X170975714Y-94775295D01*
X170975714Y-94775295D02*
X170975714Y-94822914D01*
X170975714Y-94822914D02*
X170928095Y-94918152D01*
X170928095Y-94918152D02*
X170880476Y-94965771D01*
X170880476Y-94965771D02*
X170785238Y-95013390D01*
X170785238Y-95013390D02*
X170594762Y-95013390D01*
X170594762Y-95013390D02*
X170499524Y-95061009D01*
X170499524Y-95061009D02*
X170451905Y-95108628D01*
X170451905Y-95108628D02*
X170404286Y-95203866D01*
X170404286Y-95203866D02*
X170404286Y-95394342D01*
X170404286Y-95394342D02*
X170451905Y-95489580D01*
X170451905Y-95489580D02*
X170499524Y-95537200D01*
X170499524Y-95537200D02*
X170594762Y-95584819D01*
X170594762Y-95584819D02*
X170785238Y-95584819D01*
X170785238Y-95584819D02*
X170880476Y-95537200D01*
X170880476Y-95537200D02*
X170928095Y-95489580D01*
X170928095Y-95489580D02*
X170975714Y-95394342D01*
X170975714Y-95394342D02*
X170975714Y-95203866D01*
X170975714Y-95203866D02*
X170928095Y-95108628D01*
X170928095Y-95108628D02*
X170880476Y-95061009D01*
X170880476Y-95061009D02*
X170785238Y-95013390D01*
X172284819Y-97866666D02*
X171808628Y-98199999D01*
X172284819Y-98438094D02*
X171284819Y-98438094D01*
X171284819Y-98438094D02*
X171284819Y-98057142D01*
X171284819Y-98057142D02*
X171332438Y-97961904D01*
X171332438Y-97961904D02*
X171380057Y-97914285D01*
X171380057Y-97914285D02*
X171475295Y-97866666D01*
X171475295Y-97866666D02*
X171618152Y-97866666D01*
X171618152Y-97866666D02*
X171713390Y-97914285D01*
X171713390Y-97914285D02*
X171761009Y-97961904D01*
X171761009Y-97961904D02*
X171808628Y-98057142D01*
X171808628Y-98057142D02*
X171808628Y-98438094D01*
X171284819Y-97533332D02*
X171284819Y-96866666D01*
X171284819Y-96866666D02*
X172284819Y-97295237D01*
X178095833Y-82434819D02*
X177762500Y-81958628D01*
X177524405Y-82434819D02*
X177524405Y-81434819D01*
X177524405Y-81434819D02*
X177905357Y-81434819D01*
X177905357Y-81434819D02*
X178000595Y-81482438D01*
X178000595Y-81482438D02*
X178048214Y-81530057D01*
X178048214Y-81530057D02*
X178095833Y-81625295D01*
X178095833Y-81625295D02*
X178095833Y-81768152D01*
X178095833Y-81768152D02*
X178048214Y-81863390D01*
X178048214Y-81863390D02*
X178000595Y-81911009D01*
X178000595Y-81911009D02*
X177905357Y-81958628D01*
X177905357Y-81958628D02*
X177524405Y-81958628D01*
X179000595Y-81434819D02*
X178524405Y-81434819D01*
X178524405Y-81434819D02*
X178476786Y-81911009D01*
X178476786Y-81911009D02*
X178524405Y-81863390D01*
X178524405Y-81863390D02*
X178619643Y-81815771D01*
X178619643Y-81815771D02*
X178857738Y-81815771D01*
X178857738Y-81815771D02*
X178952976Y-81863390D01*
X178952976Y-81863390D02*
X179000595Y-81911009D01*
X179000595Y-81911009D02*
X179048214Y-82006247D01*
X179048214Y-82006247D02*
X179048214Y-82244342D01*
X179048214Y-82244342D02*
X179000595Y-82339580D01*
X179000595Y-82339580D02*
X178952976Y-82387200D01*
X178952976Y-82387200D02*
X178857738Y-82434819D01*
X178857738Y-82434819D02*
X178619643Y-82434819D01*
X178619643Y-82434819D02*
X178524405Y-82387200D01*
X178524405Y-82387200D02*
X178476786Y-82339580D01*
X169589580Y-90417857D02*
X169637200Y-90465476D01*
X169637200Y-90465476D02*
X169684819Y-90608333D01*
X169684819Y-90608333D02*
X169684819Y-90703571D01*
X169684819Y-90703571D02*
X169637200Y-90846428D01*
X169637200Y-90846428D02*
X169541961Y-90941666D01*
X169541961Y-90941666D02*
X169446723Y-90989285D01*
X169446723Y-90989285D02*
X169256247Y-91036904D01*
X169256247Y-91036904D02*
X169113390Y-91036904D01*
X169113390Y-91036904D02*
X168922914Y-90989285D01*
X168922914Y-90989285D02*
X168827676Y-90941666D01*
X168827676Y-90941666D02*
X168732438Y-90846428D01*
X168732438Y-90846428D02*
X168684819Y-90703571D01*
X168684819Y-90703571D02*
X168684819Y-90608333D01*
X168684819Y-90608333D02*
X168732438Y-90465476D01*
X168732438Y-90465476D02*
X168780057Y-90417857D01*
X168780057Y-90036904D02*
X168732438Y-89989285D01*
X168732438Y-89989285D02*
X168684819Y-89894047D01*
X168684819Y-89894047D02*
X168684819Y-89655952D01*
X168684819Y-89655952D02*
X168732438Y-89560714D01*
X168732438Y-89560714D02*
X168780057Y-89513095D01*
X168780057Y-89513095D02*
X168875295Y-89465476D01*
X168875295Y-89465476D02*
X168970533Y-89465476D01*
X168970533Y-89465476D02*
X169113390Y-89513095D01*
X169113390Y-89513095D02*
X169684819Y-90084523D01*
X169684819Y-90084523D02*
X169684819Y-89465476D01*
X169018152Y-88608333D02*
X169684819Y-88608333D01*
X168637200Y-88846428D02*
X169351485Y-89084523D01*
X169351485Y-89084523D02*
X169351485Y-88465476D01*
X174557142Y-99679580D02*
X174509523Y-99727200D01*
X174509523Y-99727200D02*
X174366666Y-99774819D01*
X174366666Y-99774819D02*
X174271428Y-99774819D01*
X174271428Y-99774819D02*
X174128571Y-99727200D01*
X174128571Y-99727200D02*
X174033333Y-99631961D01*
X174033333Y-99631961D02*
X173985714Y-99536723D01*
X173985714Y-99536723D02*
X173938095Y-99346247D01*
X173938095Y-99346247D02*
X173938095Y-99203390D01*
X173938095Y-99203390D02*
X173985714Y-99012914D01*
X173985714Y-99012914D02*
X174033333Y-98917676D01*
X174033333Y-98917676D02*
X174128571Y-98822438D01*
X174128571Y-98822438D02*
X174271428Y-98774819D01*
X174271428Y-98774819D02*
X174366666Y-98774819D01*
X174366666Y-98774819D02*
X174509523Y-98822438D01*
X174509523Y-98822438D02*
X174557142Y-98870057D01*
X174938095Y-98870057D02*
X174985714Y-98822438D01*
X174985714Y-98822438D02*
X175080952Y-98774819D01*
X175080952Y-98774819D02*
X175319047Y-98774819D01*
X175319047Y-98774819D02*
X175414285Y-98822438D01*
X175414285Y-98822438D02*
X175461904Y-98870057D01*
X175461904Y-98870057D02*
X175509523Y-98965295D01*
X175509523Y-98965295D02*
X175509523Y-99060533D01*
X175509523Y-99060533D02*
X175461904Y-99203390D01*
X175461904Y-99203390D02*
X174890476Y-99774819D01*
X174890476Y-99774819D02*
X175509523Y-99774819D01*
X175842857Y-98774819D02*
X176509523Y-98774819D01*
X176509523Y-98774819D02*
X176080952Y-99774819D01*
X173319580Y-98562857D02*
X173367200Y-98610476D01*
X173367200Y-98610476D02*
X173414819Y-98753333D01*
X173414819Y-98753333D02*
X173414819Y-98848571D01*
X173414819Y-98848571D02*
X173367200Y-98991428D01*
X173367200Y-98991428D02*
X173271961Y-99086666D01*
X173271961Y-99086666D02*
X173176723Y-99134285D01*
X173176723Y-99134285D02*
X172986247Y-99181904D01*
X172986247Y-99181904D02*
X172843390Y-99181904D01*
X172843390Y-99181904D02*
X172652914Y-99134285D01*
X172652914Y-99134285D02*
X172557676Y-99086666D01*
X172557676Y-99086666D02*
X172462438Y-98991428D01*
X172462438Y-98991428D02*
X172414819Y-98848571D01*
X172414819Y-98848571D02*
X172414819Y-98753333D01*
X172414819Y-98753333D02*
X172462438Y-98610476D01*
X172462438Y-98610476D02*
X172510057Y-98562857D01*
X173414819Y-97610476D02*
X173414819Y-98181904D01*
X173414819Y-97896190D02*
X172414819Y-97896190D01*
X172414819Y-97896190D02*
X172557676Y-97991428D01*
X172557676Y-97991428D02*
X172652914Y-98086666D01*
X172652914Y-98086666D02*
X172700533Y-98181904D01*
X172510057Y-97229523D02*
X172462438Y-97181904D01*
X172462438Y-97181904D02*
X172414819Y-97086666D01*
X172414819Y-97086666D02*
X172414819Y-96848571D01*
X172414819Y-96848571D02*
X172462438Y-96753333D01*
X172462438Y-96753333D02*
X172510057Y-96705714D01*
X172510057Y-96705714D02*
X172605295Y-96658095D01*
X172605295Y-96658095D02*
X172700533Y-96658095D01*
X172700533Y-96658095D02*
X172843390Y-96705714D01*
X172843390Y-96705714D02*
X173414819Y-97277142D01*
X173414819Y-97277142D02*
X173414819Y-96658095D01*
X175420833Y-89617080D02*
X175373214Y-89664700D01*
X175373214Y-89664700D02*
X175230357Y-89712319D01*
X175230357Y-89712319D02*
X175135119Y-89712319D01*
X175135119Y-89712319D02*
X174992262Y-89664700D01*
X174992262Y-89664700D02*
X174897024Y-89569461D01*
X174897024Y-89569461D02*
X174849405Y-89474223D01*
X174849405Y-89474223D02*
X174801786Y-89283747D01*
X174801786Y-89283747D02*
X174801786Y-89140890D01*
X174801786Y-89140890D02*
X174849405Y-88950414D01*
X174849405Y-88950414D02*
X174897024Y-88855176D01*
X174897024Y-88855176D02*
X174992262Y-88759938D01*
X174992262Y-88759938D02*
X175135119Y-88712319D01*
X175135119Y-88712319D02*
X175230357Y-88712319D01*
X175230357Y-88712319D02*
X175373214Y-88759938D01*
X175373214Y-88759938D02*
X175420833Y-88807557D01*
X175754167Y-88712319D02*
X176373214Y-88712319D01*
X176373214Y-88712319D02*
X176039881Y-89093271D01*
X176039881Y-89093271D02*
X176182738Y-89093271D01*
X176182738Y-89093271D02*
X176277976Y-89140890D01*
X176277976Y-89140890D02*
X176325595Y-89188509D01*
X176325595Y-89188509D02*
X176373214Y-89283747D01*
X176373214Y-89283747D02*
X176373214Y-89521842D01*
X176373214Y-89521842D02*
X176325595Y-89617080D01*
X176325595Y-89617080D02*
X176277976Y-89664700D01*
X176277976Y-89664700D02*
X176182738Y-89712319D01*
X176182738Y-89712319D02*
X175897024Y-89712319D01*
X175897024Y-89712319D02*
X175801786Y-89664700D01*
X175801786Y-89664700D02*
X175754167Y-89617080D01*
X167304819Y-91874404D02*
X168114342Y-91874404D01*
X168114342Y-91874404D02*
X168209580Y-91826785D01*
X168209580Y-91826785D02*
X168257200Y-91779166D01*
X168257200Y-91779166D02*
X168304819Y-91683928D01*
X168304819Y-91683928D02*
X168304819Y-91493452D01*
X168304819Y-91493452D02*
X168257200Y-91398214D01*
X168257200Y-91398214D02*
X168209580Y-91350595D01*
X168209580Y-91350595D02*
X168114342Y-91302976D01*
X168114342Y-91302976D02*
X167304819Y-91302976D01*
X167638152Y-90398214D02*
X168304819Y-90398214D01*
X167257200Y-90636309D02*
X167971485Y-90874404D01*
X167971485Y-90874404D02*
X167971485Y-90255357D01*
X169923809Y-102278628D02*
X169923809Y-102754819D01*
X169590476Y-101754819D02*
X169923809Y-102278628D01*
X169923809Y-102278628D02*
X170257142Y-101754819D01*
X170542857Y-101850057D02*
X170590476Y-101802438D01*
X170590476Y-101802438D02*
X170685714Y-101754819D01*
X170685714Y-101754819D02*
X170923809Y-101754819D01*
X170923809Y-101754819D02*
X171019047Y-101802438D01*
X171019047Y-101802438D02*
X171066666Y-101850057D01*
X171066666Y-101850057D02*
X171114285Y-101945295D01*
X171114285Y-101945295D02*
X171114285Y-102040533D01*
X171114285Y-102040533D02*
X171066666Y-102183390D01*
X171066666Y-102183390D02*
X170495238Y-102754819D01*
X170495238Y-102754819D02*
X171114285Y-102754819D01*
X174468095Y-74156819D02*
X175039523Y-74156819D01*
X174753809Y-75156819D02*
X174753809Y-74156819D01*
X175372857Y-75156819D02*
X175372857Y-74156819D01*
X175372857Y-74156819D02*
X175753809Y-74156819D01*
X175753809Y-74156819D02*
X175849047Y-74204438D01*
X175849047Y-74204438D02*
X175896666Y-74252057D01*
X175896666Y-74252057D02*
X175944285Y-74347295D01*
X175944285Y-74347295D02*
X175944285Y-74490152D01*
X175944285Y-74490152D02*
X175896666Y-74585390D01*
X175896666Y-74585390D02*
X175849047Y-74633009D01*
X175849047Y-74633009D02*
X175753809Y-74680628D01*
X175753809Y-74680628D02*
X175372857Y-74680628D01*
X176325238Y-74252057D02*
X176372857Y-74204438D01*
X176372857Y-74204438D02*
X176468095Y-74156819D01*
X176468095Y-74156819D02*
X176706190Y-74156819D01*
X176706190Y-74156819D02*
X176801428Y-74204438D01*
X176801428Y-74204438D02*
X176849047Y-74252057D01*
X176849047Y-74252057D02*
X176896666Y-74347295D01*
X176896666Y-74347295D02*
X176896666Y-74442533D01*
X176896666Y-74442533D02*
X176849047Y-74585390D01*
X176849047Y-74585390D02*
X176277619Y-75156819D01*
X176277619Y-75156819D02*
X176896666Y-75156819D01*
X172784819Y-90616666D02*
X172308628Y-90949999D01*
X172784819Y-91188094D02*
X171784819Y-91188094D01*
X171784819Y-91188094D02*
X171784819Y-90807142D01*
X171784819Y-90807142D02*
X171832438Y-90711904D01*
X171832438Y-90711904D02*
X171880057Y-90664285D01*
X171880057Y-90664285D02*
X171975295Y-90616666D01*
X171975295Y-90616666D02*
X172118152Y-90616666D01*
X172118152Y-90616666D02*
X172213390Y-90664285D01*
X172213390Y-90664285D02*
X172261009Y-90711904D01*
X172261009Y-90711904D02*
X172308628Y-90807142D01*
X172308628Y-90807142D02*
X172308628Y-91188094D01*
X172118152Y-89759523D02*
X172784819Y-89759523D01*
X171737200Y-89997618D02*
X172451485Y-90235713D01*
X172451485Y-90235713D02*
X172451485Y-89616666D01*
X180537319Y-89254166D02*
X180061128Y-89587499D01*
X180537319Y-89825594D02*
X179537319Y-89825594D01*
X179537319Y-89825594D02*
X179537319Y-89444642D01*
X179537319Y-89444642D02*
X179584938Y-89349404D01*
X179584938Y-89349404D02*
X179632557Y-89301785D01*
X179632557Y-89301785D02*
X179727795Y-89254166D01*
X179727795Y-89254166D02*
X179870652Y-89254166D01*
X179870652Y-89254166D02*
X179965890Y-89301785D01*
X179965890Y-89301785D02*
X180013509Y-89349404D01*
X180013509Y-89349404D02*
X180061128Y-89444642D01*
X180061128Y-89444642D02*
X180061128Y-89825594D01*
X180537319Y-88301785D02*
X180537319Y-88873213D01*
X180537319Y-88587499D02*
X179537319Y-88587499D01*
X179537319Y-88587499D02*
X179680176Y-88682737D01*
X179680176Y-88682737D02*
X179775414Y-88777975D01*
X179775414Y-88777975D02*
X179823033Y-88873213D01*
X175024405Y-84934819D02*
X175024405Y-83934819D01*
X175024405Y-83934819D02*
X175262500Y-83934819D01*
X175262500Y-83934819D02*
X175405357Y-83982438D01*
X175405357Y-83982438D02*
X175500595Y-84077676D01*
X175500595Y-84077676D02*
X175548214Y-84172914D01*
X175548214Y-84172914D02*
X175595833Y-84363390D01*
X175595833Y-84363390D02*
X175595833Y-84506247D01*
X175595833Y-84506247D02*
X175548214Y-84696723D01*
X175548214Y-84696723D02*
X175500595Y-84791961D01*
X175500595Y-84791961D02*
X175405357Y-84887200D01*
X175405357Y-84887200D02*
X175262500Y-84934819D01*
X175262500Y-84934819D02*
X175024405Y-84934819D01*
X175976786Y-84030057D02*
X176024405Y-83982438D01*
X176024405Y-83982438D02*
X176119643Y-83934819D01*
X176119643Y-83934819D02*
X176357738Y-83934819D01*
X176357738Y-83934819D02*
X176452976Y-83982438D01*
X176452976Y-83982438D02*
X176500595Y-84030057D01*
X176500595Y-84030057D02*
X176548214Y-84125295D01*
X176548214Y-84125295D02*
X176548214Y-84220533D01*
X176548214Y-84220533D02*
X176500595Y-84363390D01*
X176500595Y-84363390D02*
X175929167Y-84934819D01*
X175929167Y-84934819D02*
X176548214Y-84934819D01*
X178142080Y-86754166D02*
X178189700Y-86801785D01*
X178189700Y-86801785D02*
X178237319Y-86944642D01*
X178237319Y-86944642D02*
X178237319Y-87039880D01*
X178237319Y-87039880D02*
X178189700Y-87182737D01*
X178189700Y-87182737D02*
X178094461Y-87277975D01*
X178094461Y-87277975D02*
X177999223Y-87325594D01*
X177999223Y-87325594D02*
X177808747Y-87373213D01*
X177808747Y-87373213D02*
X177665890Y-87373213D01*
X177665890Y-87373213D02*
X177475414Y-87325594D01*
X177475414Y-87325594D02*
X177380176Y-87277975D01*
X177380176Y-87277975D02*
X177284938Y-87182737D01*
X177284938Y-87182737D02*
X177237319Y-87039880D01*
X177237319Y-87039880D02*
X177237319Y-86944642D01*
X177237319Y-86944642D02*
X177284938Y-86801785D01*
X177284938Y-86801785D02*
X177332557Y-86754166D01*
X177332557Y-86373213D02*
X177284938Y-86325594D01*
X177284938Y-86325594D02*
X177237319Y-86230356D01*
X177237319Y-86230356D02*
X177237319Y-85992261D01*
X177237319Y-85992261D02*
X177284938Y-85897023D01*
X177284938Y-85897023D02*
X177332557Y-85849404D01*
X177332557Y-85849404D02*
X177427795Y-85801785D01*
X177427795Y-85801785D02*
X177523033Y-85801785D01*
X177523033Y-85801785D02*
X177665890Y-85849404D01*
X177665890Y-85849404D02*
X178237319Y-86420832D01*
X178237319Y-86420832D02*
X178237319Y-85801785D01*
X176504819Y-95961904D02*
X177314342Y-95961904D01*
X177314342Y-95961904D02*
X177409580Y-95914285D01*
X177409580Y-95914285D02*
X177457200Y-95866666D01*
X177457200Y-95866666D02*
X177504819Y-95771428D01*
X177504819Y-95771428D02*
X177504819Y-95580952D01*
X177504819Y-95580952D02*
X177457200Y-95485714D01*
X177457200Y-95485714D02*
X177409580Y-95438095D01*
X177409580Y-95438095D02*
X177314342Y-95390476D01*
X177314342Y-95390476D02*
X176504819Y-95390476D01*
X176504819Y-94438095D02*
X176504819Y-94914285D01*
X176504819Y-94914285D02*
X176981009Y-94961904D01*
X176981009Y-94961904D02*
X176933390Y-94914285D01*
X176933390Y-94914285D02*
X176885771Y-94819047D01*
X176885771Y-94819047D02*
X176885771Y-94580952D01*
X176885771Y-94580952D02*
X176933390Y-94485714D01*
X176933390Y-94485714D02*
X176981009Y-94438095D01*
X176981009Y-94438095D02*
X177076247Y-94390476D01*
X177076247Y-94390476D02*
X177314342Y-94390476D01*
X177314342Y-94390476D02*
X177409580Y-94438095D01*
X177409580Y-94438095D02*
X177457200Y-94485714D01*
X177457200Y-94485714D02*
X177504819Y-94580952D01*
X177504819Y-94580952D02*
X177504819Y-94819047D01*
X177504819Y-94819047D02*
X177457200Y-94914285D01*
X177457200Y-94914285D02*
X177409580Y-94961904D01*
X179387319Y-84806666D02*
X178911128Y-85139999D01*
X179387319Y-85378094D02*
X178387319Y-85378094D01*
X178387319Y-85378094D02*
X178387319Y-84997142D01*
X178387319Y-84997142D02*
X178434938Y-84901904D01*
X178434938Y-84901904D02*
X178482557Y-84854285D01*
X178482557Y-84854285D02*
X178577795Y-84806666D01*
X178577795Y-84806666D02*
X178720652Y-84806666D01*
X178720652Y-84806666D02*
X178815890Y-84854285D01*
X178815890Y-84854285D02*
X178863509Y-84901904D01*
X178863509Y-84901904D02*
X178911128Y-84997142D01*
X178911128Y-84997142D02*
X178911128Y-85378094D01*
X178482557Y-84425713D02*
X178434938Y-84378094D01*
X178434938Y-84378094D02*
X178387319Y-84282856D01*
X178387319Y-84282856D02*
X178387319Y-84044761D01*
X178387319Y-84044761D02*
X178434938Y-83949523D01*
X178434938Y-83949523D02*
X178482557Y-83901904D01*
X178482557Y-83901904D02*
X178577795Y-83854285D01*
X178577795Y-83854285D02*
X178673033Y-83854285D01*
X178673033Y-83854285D02*
X178815890Y-83901904D01*
X178815890Y-83901904D02*
X179387319Y-84473332D01*
X179387319Y-84473332D02*
X179387319Y-83854285D01*
X165274819Y-89492857D02*
X164798628Y-89826190D01*
X165274819Y-90064285D02*
X164274819Y-90064285D01*
X164274819Y-90064285D02*
X164274819Y-89683333D01*
X164274819Y-89683333D02*
X164322438Y-89588095D01*
X164322438Y-89588095D02*
X164370057Y-89540476D01*
X164370057Y-89540476D02*
X164465295Y-89492857D01*
X164465295Y-89492857D02*
X164608152Y-89492857D01*
X164608152Y-89492857D02*
X164703390Y-89540476D01*
X164703390Y-89540476D02*
X164751009Y-89588095D01*
X164751009Y-89588095D02*
X164798628Y-89683333D01*
X164798628Y-89683333D02*
X164798628Y-90064285D01*
X165274819Y-88540476D02*
X165274819Y-89111904D01*
X165274819Y-88826190D02*
X164274819Y-88826190D01*
X164274819Y-88826190D02*
X164417676Y-88921428D01*
X164417676Y-88921428D02*
X164512914Y-89016666D01*
X164512914Y-89016666D02*
X164560533Y-89111904D01*
X164370057Y-88159523D02*
X164322438Y-88111904D01*
X164322438Y-88111904D02*
X164274819Y-88016666D01*
X164274819Y-88016666D02*
X164274819Y-87778571D01*
X164274819Y-87778571D02*
X164322438Y-87683333D01*
X164322438Y-87683333D02*
X164370057Y-87635714D01*
X164370057Y-87635714D02*
X164465295Y-87588095D01*
X164465295Y-87588095D02*
X164560533Y-87588095D01*
X164560533Y-87588095D02*
X164703390Y-87635714D01*
X164703390Y-87635714D02*
X165274819Y-88207142D01*
X165274819Y-88207142D02*
X165274819Y-87588095D01*
X172242080Y-87291666D02*
X172289700Y-87339285D01*
X172289700Y-87339285D02*
X172337319Y-87482142D01*
X172337319Y-87482142D02*
X172337319Y-87577380D01*
X172337319Y-87577380D02*
X172289700Y-87720237D01*
X172289700Y-87720237D02*
X172194461Y-87815475D01*
X172194461Y-87815475D02*
X172099223Y-87863094D01*
X172099223Y-87863094D02*
X171908747Y-87910713D01*
X171908747Y-87910713D02*
X171765890Y-87910713D01*
X171765890Y-87910713D02*
X171575414Y-87863094D01*
X171575414Y-87863094D02*
X171480176Y-87815475D01*
X171480176Y-87815475D02*
X171384938Y-87720237D01*
X171384938Y-87720237D02*
X171337319Y-87577380D01*
X171337319Y-87577380D02*
X171337319Y-87482142D01*
X171337319Y-87482142D02*
X171384938Y-87339285D01*
X171384938Y-87339285D02*
X171432557Y-87291666D01*
X172337319Y-86339285D02*
X172337319Y-86910713D01*
X172337319Y-86624999D02*
X171337319Y-86624999D01*
X171337319Y-86624999D02*
X171480176Y-86720237D01*
X171480176Y-86720237D02*
X171575414Y-86815475D01*
X171575414Y-86815475D02*
X171623033Y-86910713D01*
X176897319Y-91054166D02*
X176421128Y-91387499D01*
X176897319Y-91625594D02*
X175897319Y-91625594D01*
X175897319Y-91625594D02*
X175897319Y-91244642D01*
X175897319Y-91244642D02*
X175944938Y-91149404D01*
X175944938Y-91149404D02*
X175992557Y-91101785D01*
X175992557Y-91101785D02*
X176087795Y-91054166D01*
X176087795Y-91054166D02*
X176230652Y-91054166D01*
X176230652Y-91054166D02*
X176325890Y-91101785D01*
X176325890Y-91101785D02*
X176373509Y-91149404D01*
X176373509Y-91149404D02*
X176421128Y-91244642D01*
X176421128Y-91244642D02*
X176421128Y-91625594D01*
X175897319Y-90720832D02*
X175897319Y-90101785D01*
X175897319Y-90101785D02*
X176278271Y-90435118D01*
X176278271Y-90435118D02*
X176278271Y-90292261D01*
X176278271Y-90292261D02*
X176325890Y-90197023D01*
X176325890Y-90197023D02*
X176373509Y-90149404D01*
X176373509Y-90149404D02*
X176468747Y-90101785D01*
X176468747Y-90101785D02*
X176706842Y-90101785D01*
X176706842Y-90101785D02*
X176802080Y-90149404D01*
X176802080Y-90149404D02*
X176849700Y-90197023D01*
X176849700Y-90197023D02*
X176897319Y-90292261D01*
X176897319Y-90292261D02*
X176897319Y-90577975D01*
X176897319Y-90577975D02*
X176849700Y-90673213D01*
X176849700Y-90673213D02*
X176802080Y-90720832D01*
X168184819Y-92954166D02*
X168184819Y-93430356D01*
X168184819Y-93430356D02*
X167184819Y-93430356D01*
X167518152Y-92192261D02*
X168184819Y-92192261D01*
X167137200Y-92430356D02*
X167851485Y-92668451D01*
X167851485Y-92668451D02*
X167851485Y-92049404D01*
X174916666Y-78154819D02*
X174916666Y-78869104D01*
X174916666Y-78869104D02*
X174869047Y-79011961D01*
X174869047Y-79011961D02*
X174773809Y-79107200D01*
X174773809Y-79107200D02*
X174630952Y-79154819D01*
X174630952Y-79154819D02*
X174535714Y-79154819D01*
X175392857Y-79154819D02*
X175392857Y-78154819D01*
X175392857Y-78154819D02*
X175773809Y-78154819D01*
X175773809Y-78154819D02*
X175869047Y-78202438D01*
X175869047Y-78202438D02*
X175916666Y-78250057D01*
X175916666Y-78250057D02*
X175964285Y-78345295D01*
X175964285Y-78345295D02*
X175964285Y-78488152D01*
X175964285Y-78488152D02*
X175916666Y-78583390D01*
X175916666Y-78583390D02*
X175869047Y-78631009D01*
X175869047Y-78631009D02*
X175773809Y-78678628D01*
X175773809Y-78678628D02*
X175392857Y-78678628D01*
X176916666Y-79154819D02*
X176345238Y-79154819D01*
X176630952Y-79154819D02*
X176630952Y-78154819D01*
X176630952Y-78154819D02*
X176535714Y-78297676D01*
X176535714Y-78297676D02*
X176440476Y-78392914D01*
X176440476Y-78392914D02*
X176345238Y-78440533D01*
X169832142Y-88334819D02*
X169498809Y-87858628D01*
X169260714Y-88334819D02*
X169260714Y-87334819D01*
X169260714Y-87334819D02*
X169641666Y-87334819D01*
X169641666Y-87334819D02*
X169736904Y-87382438D01*
X169736904Y-87382438D02*
X169784523Y-87430057D01*
X169784523Y-87430057D02*
X169832142Y-87525295D01*
X169832142Y-87525295D02*
X169832142Y-87668152D01*
X169832142Y-87668152D02*
X169784523Y-87763390D01*
X169784523Y-87763390D02*
X169736904Y-87811009D01*
X169736904Y-87811009D02*
X169641666Y-87858628D01*
X169641666Y-87858628D02*
X169260714Y-87858628D01*
X170784523Y-88334819D02*
X170213095Y-88334819D01*
X170498809Y-88334819D02*
X170498809Y-87334819D01*
X170498809Y-87334819D02*
X170403571Y-87477676D01*
X170403571Y-87477676D02*
X170308333Y-87572914D01*
X170308333Y-87572914D02*
X170213095Y-87620533D01*
X171736904Y-88334819D02*
X171165476Y-88334819D01*
X171451190Y-88334819D02*
X171451190Y-87334819D01*
X171451190Y-87334819D02*
X171355952Y-87477676D01*
X171355952Y-87477676D02*
X171260714Y-87572914D01*
X171260714Y-87572914D02*
X171165476Y-87620533D01*
X170033333Y-93209819D02*
X169700000Y-92733628D01*
X169461905Y-93209819D02*
X169461905Y-92209819D01*
X169461905Y-92209819D02*
X169842857Y-92209819D01*
X169842857Y-92209819D02*
X169938095Y-92257438D01*
X169938095Y-92257438D02*
X169985714Y-92305057D01*
X169985714Y-92305057D02*
X170033333Y-92400295D01*
X170033333Y-92400295D02*
X170033333Y-92543152D01*
X170033333Y-92543152D02*
X169985714Y-92638390D01*
X169985714Y-92638390D02*
X169938095Y-92686009D01*
X169938095Y-92686009D02*
X169842857Y-92733628D01*
X169842857Y-92733628D02*
X169461905Y-92733628D01*
X170890476Y-92209819D02*
X170700000Y-92209819D01*
X170700000Y-92209819D02*
X170604762Y-92257438D01*
X170604762Y-92257438D02*
X170557143Y-92305057D01*
X170557143Y-92305057D02*
X170461905Y-92447914D01*
X170461905Y-92447914D02*
X170414286Y-92638390D01*
X170414286Y-92638390D02*
X170414286Y-93019342D01*
X170414286Y-93019342D02*
X170461905Y-93114580D01*
X170461905Y-93114580D02*
X170509524Y-93162200D01*
X170509524Y-93162200D02*
X170604762Y-93209819D01*
X170604762Y-93209819D02*
X170795238Y-93209819D01*
X170795238Y-93209819D02*
X170890476Y-93162200D01*
X170890476Y-93162200D02*
X170938095Y-93114580D01*
X170938095Y-93114580D02*
X170985714Y-93019342D01*
X170985714Y-93019342D02*
X170985714Y-92781247D01*
X170985714Y-92781247D02*
X170938095Y-92686009D01*
X170938095Y-92686009D02*
X170890476Y-92638390D01*
X170890476Y-92638390D02*
X170795238Y-92590771D01*
X170795238Y-92590771D02*
X170604762Y-92590771D01*
X170604762Y-92590771D02*
X170509524Y-92638390D01*
X170509524Y-92638390D02*
X170461905Y-92686009D01*
X170461905Y-92686009D02*
X170414286Y-92781247D01*
X166729580Y-93442857D02*
X166777200Y-93490476D01*
X166777200Y-93490476D02*
X166824819Y-93633333D01*
X166824819Y-93633333D02*
X166824819Y-93728571D01*
X166824819Y-93728571D02*
X166777200Y-93871428D01*
X166777200Y-93871428D02*
X166681961Y-93966666D01*
X166681961Y-93966666D02*
X166586723Y-94014285D01*
X166586723Y-94014285D02*
X166396247Y-94061904D01*
X166396247Y-94061904D02*
X166253390Y-94061904D01*
X166253390Y-94061904D02*
X166062914Y-94014285D01*
X166062914Y-94014285D02*
X165967676Y-93966666D01*
X165967676Y-93966666D02*
X165872438Y-93871428D01*
X165872438Y-93871428D02*
X165824819Y-93728571D01*
X165824819Y-93728571D02*
X165824819Y-93633333D01*
X165824819Y-93633333D02*
X165872438Y-93490476D01*
X165872438Y-93490476D02*
X165920057Y-93442857D01*
X165920057Y-93061904D02*
X165872438Y-93014285D01*
X165872438Y-93014285D02*
X165824819Y-92919047D01*
X165824819Y-92919047D02*
X165824819Y-92680952D01*
X165824819Y-92680952D02*
X165872438Y-92585714D01*
X165872438Y-92585714D02*
X165920057Y-92538095D01*
X165920057Y-92538095D02*
X166015295Y-92490476D01*
X166015295Y-92490476D02*
X166110533Y-92490476D01*
X166110533Y-92490476D02*
X166253390Y-92538095D01*
X166253390Y-92538095D02*
X166824819Y-93109523D01*
X166824819Y-93109523D02*
X166824819Y-92490476D01*
X165824819Y-92157142D02*
X165824819Y-91538095D01*
X165824819Y-91538095D02*
X166205771Y-91871428D01*
X166205771Y-91871428D02*
X166205771Y-91728571D01*
X166205771Y-91728571D02*
X166253390Y-91633333D01*
X166253390Y-91633333D02*
X166301009Y-91585714D01*
X166301009Y-91585714D02*
X166396247Y-91538095D01*
X166396247Y-91538095D02*
X166634342Y-91538095D01*
X166634342Y-91538095D02*
X166729580Y-91585714D01*
X166729580Y-91585714D02*
X166777200Y-91633333D01*
X166777200Y-91633333D02*
X166824819Y-91728571D01*
X166824819Y-91728571D02*
X166824819Y-92014285D01*
X166824819Y-92014285D02*
X166777200Y-92109523D01*
X166777200Y-92109523D02*
X166729580Y-92157142D01*
X175500595Y-90034819D02*
X175500595Y-90844342D01*
X175500595Y-90844342D02*
X175548214Y-90939580D01*
X175548214Y-90939580D02*
X175595833Y-90987200D01*
X175595833Y-90987200D02*
X175691071Y-91034819D01*
X175691071Y-91034819D02*
X175881547Y-91034819D01*
X175881547Y-91034819D02*
X175976785Y-90987200D01*
X175976785Y-90987200D02*
X176024404Y-90939580D01*
X176024404Y-90939580D02*
X176072023Y-90844342D01*
X176072023Y-90844342D02*
X176072023Y-90034819D01*
X176500595Y-90130057D02*
X176548214Y-90082438D01*
X176548214Y-90082438D02*
X176643452Y-90034819D01*
X176643452Y-90034819D02*
X176881547Y-90034819D01*
X176881547Y-90034819D02*
X176976785Y-90082438D01*
X176976785Y-90082438D02*
X177024404Y-90130057D01*
X177024404Y-90130057D02*
X177072023Y-90225295D01*
X177072023Y-90225295D02*
X177072023Y-90320533D01*
X177072023Y-90320533D02*
X177024404Y-90463390D01*
X177024404Y-90463390D02*
X176452976Y-91034819D01*
X176452976Y-91034819D02*
X177072023Y-91034819D01*
D12*
%TO.C,C15*%
X167309420Y-85940000D02*
X167590580Y-85940000D01*
X167309420Y-86960000D02*
X167590580Y-86960000D01*
%TO.C,C13*%
X169340000Y-98092164D02*
X169340000Y-98307836D01*
X170060000Y-98092164D02*
X170060000Y-98307836D01*
%TO.C,R9*%
X172170000Y-92396359D02*
X172170000Y-92703641D01*
X172930000Y-92396359D02*
X172930000Y-92703641D01*
%TO.C,D1*%
X174290000Y-83815000D02*
X174290000Y-85285000D01*
X174290000Y-85285000D02*
X176575000Y-85285000D01*
X176575000Y-83815000D02*
X174290000Y-83815000D01*
%TO.C,C25*%
X176840000Y-93992164D02*
X176840000Y-94207836D01*
X177560000Y-93992164D02*
X177560000Y-94207836D01*
%TO.C,TP1*%
X179920000Y-76670000D02*
G75*
G02*
X177520000Y-76670000I-1200000J0D01*
G01*
X177520000Y-76670000D02*
G75*
G02*
X179920000Y-76670000I1200000J0D01*
G01*
%TO.C,U6*%
X174572500Y-98072500D02*
X175568750Y-98072500D01*
X174572500Y-99327500D02*
X174572500Y-98072500D01*
X175827500Y-98331250D02*
X175827500Y-99327500D01*
X175827500Y-99327500D02*
X174572500Y-99327500D01*
X176327500Y-98072500D02*
X175827500Y-98072500D01*
X175827500Y-97572500D01*
X176327500Y-98072500D01*
G36*
X176327500Y-98072500D02*
G01*
X175827500Y-98072500D01*
X175827500Y-97572500D01*
X176327500Y-98072500D01*
G37*
D13*
%TO.C,U3*%
X173950000Y-93953000D02*
X174005000Y-93953000D01*
X173950000Y-94508000D02*
X173950000Y-93953000D01*
X173950000Y-96953000D02*
X173950000Y-96398000D01*
X173950000Y-96953000D02*
X174005000Y-96953000D01*
X176450000Y-93953000D02*
X176395000Y-93953000D01*
X176450000Y-93953000D02*
X176450000Y-94508000D01*
X176450000Y-96398000D02*
X176450000Y-96953000D01*
X176450000Y-96953000D02*
X176395000Y-96953000D01*
D14*
X174450000Y-97522000D02*
G75*
G02*
X174250000Y-97522000I-100000J0D01*
G01*
X174250000Y-97522000D02*
G75*
G02*
X174450000Y-97522000I100000J0D01*
G01*
D12*
%TO.C,C26*%
X176840000Y-96607836D02*
X176840000Y-96392164D01*
X177560000Y-96607836D02*
X177560000Y-96392164D01*
%TO.C,R10*%
X170046359Y-94720000D02*
X170353641Y-94720000D01*
X170046359Y-95480000D02*
X170353641Y-95480000D01*
%TO.C,R8*%
X170036359Y-95920000D02*
X170343641Y-95920000D01*
X170036359Y-96680000D02*
X170343641Y-96680000D01*
%TO.C,R7*%
X172620000Y-97853641D02*
X172620000Y-97546359D01*
X173380000Y-97853641D02*
X173380000Y-97546359D01*
%TO.C,R5*%
X178108859Y-82770000D02*
X178416141Y-82770000D01*
X178108859Y-83530000D02*
X178416141Y-83530000D01*
%TO.C,C24*%
X167290000Y-89634420D02*
X167290000Y-89915580D01*
X168310000Y-89634420D02*
X168310000Y-89915580D01*
%TO.C,C27*%
X175059420Y-100240000D02*
X175340580Y-100240000D01*
X175059420Y-101260000D02*
X175340580Y-101260000D01*
%TO.C,C12*%
X171440000Y-97812164D02*
X171440000Y-98027836D01*
X172160000Y-97812164D02*
X172160000Y-98027836D01*
%TO.C,C3*%
X175446920Y-90177500D02*
X175728080Y-90177500D01*
X175446920Y-91197500D02*
X175728080Y-91197500D01*
%TO.C,U4*%
X168690000Y-91262500D02*
X168690000Y-90462500D01*
X168690000Y-91262500D02*
X168690000Y-92062500D01*
X171810000Y-91262500D02*
X171810000Y-90462500D01*
X171810000Y-91262500D02*
X171810000Y-92062500D01*
X168740000Y-92562500D02*
X168410000Y-92802500D01*
X168410000Y-92322500D01*
X168740000Y-92562500D01*
G36*
X168740000Y-92562500D02*
G01*
X168410000Y-92802500D01*
X168410000Y-92322500D01*
X168740000Y-92562500D01*
G37*
%TO.C,Y2*%
X169200000Y-101300000D02*
X171600000Y-101300000D01*
X171600000Y-99700000D02*
X169200000Y-99700000D01*
X171600000Y-101300000D02*
X171600000Y-99700000D01*
%TO.C,TP2*%
X176930000Y-76700000D02*
G75*
G02*
X174530000Y-76700000I-1200000J0D01*
G01*
X174530000Y-76700000D02*
G75*
G02*
X176930000Y-76700000I1200000J0D01*
G01*
%TO.C,R4*%
X173120000Y-90603641D02*
X173120000Y-90296359D01*
X173880000Y-90603641D02*
X173880000Y-90296359D01*
%TO.C,R1*%
X178532500Y-88933859D02*
X178532500Y-89241141D01*
X179292500Y-88933859D02*
X179292500Y-89241141D01*
%TO.C,D2*%
X174962500Y-83785000D02*
X177247500Y-83785000D01*
X177247500Y-82315000D02*
X174962500Y-82315000D01*
X177247500Y-83785000D02*
X177247500Y-82315000D01*
%TO.C,C2*%
X178702500Y-86728080D02*
X178702500Y-86446920D01*
X179722500Y-86728080D02*
X179722500Y-86446920D01*
%TO.C,U5*%
X177850000Y-97200000D02*
X181150000Y-97200000D01*
X181150000Y-97200000D02*
X181150000Y-93200000D01*
%TO.C,R2*%
X177382500Y-84486359D02*
X177382500Y-84793641D01*
X178142500Y-84486359D02*
X178142500Y-84793641D01*
%TO.C,R12*%
X165740000Y-88990580D02*
X165740000Y-88709420D01*
X166760000Y-88990580D02*
X166760000Y-88709420D01*
%TO.C,C1*%
X172802500Y-87265580D02*
X172802500Y-86984420D01*
X173822500Y-87265580D02*
X173822500Y-86984420D01*
%TO.C,R3*%
X177232500Y-91041141D02*
X177232500Y-90733859D01*
X177992500Y-91041141D02*
X177992500Y-90733859D01*
%TO.C,L4*%
X165790000Y-92624721D02*
X165790000Y-92950279D01*
X166810000Y-92624721D02*
X166810000Y-92950279D01*
%TO.C,JP1*%
X174350000Y-79500000D02*
X177150000Y-79500000D01*
X174350000Y-81500000D02*
X174350000Y-79500000D01*
X177150000Y-79500000D02*
X177150000Y-81500000D01*
X177150000Y-81500000D02*
X174350000Y-81500000D01*
%TO.C,R11*%
X170615580Y-85940000D02*
X170334420Y-85940000D01*
X170615580Y-86960000D02*
X170334420Y-86960000D01*
%TO.C,R6*%
X170046359Y-93545000D02*
X170353641Y-93545000D01*
X170046359Y-94305000D02*
X170353641Y-94305000D01*
%TO.C,C23*%
X167290000Y-92940580D02*
X167290000Y-92659420D01*
X168310000Y-92940580D02*
X168310000Y-92659420D01*
%TO.C,U2*%
X174652500Y-86140000D02*
X174652500Y-86615000D01*
X174652500Y-89360000D02*
X174652500Y-88885000D01*
X175127500Y-86140000D02*
X174652500Y-86140000D01*
X175127500Y-89360000D02*
X174652500Y-89360000D01*
X177397500Y-86140000D02*
X177872500Y-86140000D01*
X177397500Y-89360000D02*
X177572500Y-89360000D01*
X177872500Y-86140000D02*
X177872500Y-86615000D01*
X177872500Y-88885000D02*
X177872500Y-89120000D01*
X178112500Y-89690000D02*
X177632500Y-89690000D01*
X177872500Y-89360000D01*
X178112500Y-89690000D01*
G36*
X178112500Y-89690000D02*
G01*
X177632500Y-89690000D01*
X177872500Y-89360000D01*
X178112500Y-89690000D01*
G37*
%TD*%
%LPC*%
D15*
%TO.C,U3*%
X174575000Y-95128000D02*
X174000000Y-95128000D01*
X174000000Y-94778000D01*
X174575000Y-94778000D01*
X174575000Y-95128000D01*
G36*
X174575000Y-95128000D02*
G01*
X174000000Y-95128000D01*
X174000000Y-94778000D01*
X174575000Y-94778000D01*
X174575000Y-95128000D01*
G37*
X174575000Y-95628000D02*
X174000000Y-95628000D01*
X174000000Y-95278000D01*
X174575000Y-95278000D01*
X174575000Y-95628000D01*
G36*
X174575000Y-95628000D02*
G01*
X174000000Y-95628000D01*
X174000000Y-95278000D01*
X174575000Y-95278000D01*
X174575000Y-95628000D01*
G37*
X174575000Y-96128000D02*
X174000000Y-96128000D01*
X174000000Y-95778000D01*
X174575000Y-95778000D01*
X174575000Y-96128000D01*
G36*
X174575000Y-96128000D02*
G01*
X174000000Y-96128000D01*
X174000000Y-95778000D01*
X174575000Y-95778000D01*
X174575000Y-96128000D01*
G37*
X174625000Y-94578000D02*
X174275000Y-94578000D01*
X174275000Y-94003000D01*
X174625000Y-94003000D01*
X174625000Y-94578000D01*
G36*
X174625000Y-94578000D02*
G01*
X174275000Y-94578000D01*
X174275000Y-94003000D01*
X174625000Y-94003000D01*
X174625000Y-94578000D01*
G37*
X174625000Y-96903000D02*
X174275000Y-96903000D01*
X174275000Y-96328000D01*
X174625000Y-96328000D01*
X174625000Y-96903000D01*
G36*
X174625000Y-96903000D02*
G01*
X174275000Y-96903000D01*
X174275000Y-96328000D01*
X174625000Y-96328000D01*
X174625000Y-96903000D01*
G37*
X175125000Y-94578000D02*
X174775000Y-94578000D01*
X174775000Y-94003000D01*
X175125000Y-94003000D01*
X175125000Y-94578000D01*
G36*
X175125000Y-94578000D02*
G01*
X174775000Y-94578000D01*
X174775000Y-94003000D01*
X175125000Y-94003000D01*
X175125000Y-94578000D01*
G37*
X175125000Y-96903000D02*
X174775000Y-96903000D01*
X174775000Y-96328000D01*
X175125000Y-96328000D01*
X175125000Y-96903000D01*
G36*
X175125000Y-96903000D02*
G01*
X174775000Y-96903000D01*
X174775000Y-96328000D01*
X175125000Y-96328000D01*
X175125000Y-96903000D01*
G37*
X175625000Y-94578000D02*
X175275000Y-94578000D01*
X175275000Y-94003000D01*
X175625000Y-94003000D01*
X175625000Y-94578000D01*
G36*
X175625000Y-94578000D02*
G01*
X175275000Y-94578000D01*
X175275000Y-94003000D01*
X175625000Y-94003000D01*
X175625000Y-94578000D01*
G37*
X175625000Y-96903000D02*
X175275000Y-96903000D01*
X175275000Y-96328000D01*
X175625000Y-96328000D01*
X175625000Y-96903000D01*
G36*
X175625000Y-96903000D02*
G01*
X175275000Y-96903000D01*
X175275000Y-96328000D01*
X175625000Y-96328000D01*
X175625000Y-96903000D01*
G37*
X176125000Y-94578000D02*
X175775000Y-94578000D01*
X175775000Y-94003000D01*
X176125000Y-94003000D01*
X176125000Y-94578000D01*
G36*
X176125000Y-94578000D02*
G01*
X175775000Y-94578000D01*
X175775000Y-94003000D01*
X176125000Y-94003000D01*
X176125000Y-94578000D01*
G37*
X176125000Y-96903000D02*
X175775000Y-96903000D01*
X175775000Y-96328000D01*
X176125000Y-96328000D01*
X176125000Y-96903000D01*
G36*
X176125000Y-96903000D02*
G01*
X175775000Y-96903000D01*
X175775000Y-96328000D01*
X176125000Y-96328000D01*
X176125000Y-96903000D01*
G37*
X176400000Y-95128000D02*
X175825000Y-95128000D01*
X175825000Y-94778000D01*
X176400000Y-94778000D01*
X176400000Y-95128000D01*
G36*
X176400000Y-95128000D02*
G01*
X175825000Y-95128000D01*
X175825000Y-94778000D01*
X176400000Y-94778000D01*
X176400000Y-95128000D01*
G37*
X176400000Y-95628000D02*
X175825000Y-95628000D01*
X175825000Y-95278000D01*
X176400000Y-95278000D01*
X176400000Y-95628000D01*
G36*
X176400000Y-95628000D02*
G01*
X175825000Y-95628000D01*
X175825000Y-95278000D01*
X176400000Y-95278000D01*
X176400000Y-95628000D01*
G37*
X176400000Y-96128000D02*
X175825000Y-96128000D01*
X175825000Y-95778000D01*
X176400000Y-95778000D01*
X176400000Y-96128000D01*
G36*
X176400000Y-96128000D02*
G01*
X175825000Y-96128000D01*
X175825000Y-95778000D01*
X176400000Y-95778000D01*
X176400000Y-96128000D01*
G37*
%TO.C,JP1*%
G36*
X175600000Y-79750000D02*
G01*
X175900000Y-79750000D01*
X175900000Y-81250000D01*
X175600000Y-81250000D01*
X175600000Y-79750000D01*
G37*
%TD*%
D16*
%TO.C,C15*%
X166675000Y-86450000D03*
X168225000Y-86450000D03*
%TD*%
D17*
%TO.C,C13*%
X169700000Y-97720000D03*
X169700000Y-98680000D03*
%TD*%
D18*
%TO.C,R9*%
X172550000Y-92040000D03*
X172550000Y-93060000D03*
%TD*%
D19*
%TO.C,D1*%
X174987500Y-84550000D03*
X176562500Y-84550000D03*
%TD*%
D17*
%TO.C,C25*%
X177200000Y-93620000D03*
X177200000Y-94580000D03*
%TD*%
D20*
%TO.C,TP1*%
X178720000Y-76670000D03*
%TD*%
D21*
%TO.C,U6*%
X175400000Y-98500000D03*
X175000000Y-98500000D03*
X175000000Y-98900000D03*
X175400000Y-98900000D03*
%TD*%
D22*
%TO.C,C26*%
X177200000Y-96980000D03*
X177200000Y-96020000D03*
%TD*%
D23*
%TO.C,R10*%
X169690000Y-95100000D03*
X170710000Y-95100000D03*
%TD*%
%TO.C,R8*%
X169680000Y-96300000D03*
X170700000Y-96300000D03*
%TD*%
D24*
%TO.C,R7*%
X173000000Y-98210000D03*
X173000000Y-97190000D03*
%TD*%
D23*
%TO.C,R5*%
X177752500Y-83150000D03*
X178772500Y-83150000D03*
%TD*%
D25*
%TO.C,C24*%
X167800000Y-89000000D03*
X167800000Y-90550000D03*
%TD*%
D16*
%TO.C,C27*%
X174425000Y-100750000D03*
X175975000Y-100750000D03*
%TD*%
D17*
%TO.C,C12*%
X171800000Y-97440000D03*
X171800000Y-98400000D03*
%TD*%
D16*
%TO.C,C3*%
X174812500Y-90687500D03*
X176362500Y-90687500D03*
%TD*%
D26*
%TO.C,U4*%
X169300000Y-92400000D03*
X170250000Y-92400000D03*
X171200000Y-92400000D03*
X171200000Y-90125000D03*
X169300000Y-90125000D03*
%TD*%
D27*
%TO.C,Y2*%
X171100000Y-100500000D03*
X169700000Y-100500000D03*
%TD*%
D20*
%TO.C,TP2*%
X175730000Y-76700000D03*
%TD*%
D24*
%TO.C,R4*%
X173500000Y-90960000D03*
X173500000Y-89940000D03*
%TD*%
D18*
%TO.C,R1*%
X178912500Y-88577500D03*
X178912500Y-89597500D03*
%TD*%
D28*
%TO.C,D2*%
X176550000Y-83050000D03*
X174975000Y-83050000D03*
%TD*%
D29*
%TO.C,C2*%
X179212500Y-87362500D03*
X179212500Y-85812500D03*
%TD*%
D30*
%TO.C,U5*%
X180350000Y-96300000D03*
X180350000Y-94100000D03*
X178650000Y-94100000D03*
X178650000Y-96300000D03*
%TD*%
D18*
%TO.C,R2*%
X177762500Y-84130000D03*
X177762500Y-85150000D03*
%TD*%
D29*
%TO.C,R12*%
X166250000Y-89625000D03*
X166250000Y-88075000D03*
%TD*%
%TO.C,C1*%
X173312500Y-87900000D03*
X173312500Y-86350000D03*
%TD*%
D24*
%TO.C,R3*%
X177612500Y-91397500D03*
X177612500Y-90377500D03*
%TD*%
D31*
%TO.C,L4*%
X166300000Y-92000000D03*
X166300000Y-93575000D03*
%TD*%
D32*
%TO.C,JP1*%
X175100000Y-80500000D03*
X176400000Y-80500000D03*
%TD*%
D33*
%TO.C,R11*%
X171250000Y-86450000D03*
X169700000Y-86450000D03*
%TD*%
D23*
%TO.C,R6*%
X169690000Y-93925000D03*
X170710000Y-93925000D03*
%TD*%
D29*
%TO.C,C23*%
X167800000Y-93575000D03*
X167800000Y-92025000D03*
%TD*%
D34*
%TO.C,U2*%
X177700000Y-88500000D03*
X177700000Y-88000000D03*
X177700000Y-87500000D03*
X177700000Y-87000000D03*
D35*
X177012500Y-86312500D03*
X176512500Y-86312500D03*
X176012500Y-86312500D03*
X175512500Y-86312500D03*
D34*
X174825000Y-87000000D03*
X174825000Y-87500000D03*
X174825000Y-88000000D03*
X174825000Y-88500000D03*
D35*
X175512500Y-89187500D03*
X176012500Y-89187500D03*
X176512500Y-89187500D03*
X177012500Y-89187500D03*
D36*
X176262500Y-87750000D03*
%TD*%
D37*
%TO.C,SW1*%
X183250000Y-80125000D03*
X183250000Y-83125000D03*
%TD*%
D38*
%TO.C,J1*%
X171350000Y-83220000D03*
X171350000Y-77440000D03*
D39*
X167700000Y-84650000D03*
D40*
X171880000Y-84650000D03*
D39*
X167700000Y-76010000D03*
D40*
X171880000Y-76010000D03*
%TD*%
%LPD*%
M02*
