%TF.GenerationSoftware,KiCad,Pcbnew,9.0.0*%
%TF.CreationDate,2025-08-18T16:34:53+09:00*%
%TF.ProjectId,SMORES,534d4f52-4553-42e6-9b69-6361645f7063,rev?*%
%TF.SameCoordinates,Original*%
%TF.FileFunction,Legend,Bot*%
%TF.FilePolarity,Positive*%
%FSLAX46Y46*%
G04 Gerber Fmt 4.6, Leading zero omitted, Abs format (unit mm)*
G04 Created by KiCad (PCBNEW 9.0.0) date 2025-08-18 16:34:53*
%MOMM*%
%LPD*%
G01*
G04 APERTURE LIST*
G04 Aperture macros list*
%AMRoundRect*
0 Rectangle with rounded corners*
0 $1 Rounding radius*
0 $2 $3 $4 $5 $6 $7 $8 $9 X,Y pos of 4 corners*
0 Add a 4 corners polygon primitive as box body*
4,1,4,$2,$3,$4,$5,$6,$7,$8,$9,$2,$3,0*
0 Add four circle primitives for the rounded corners*
1,1,$1+$1,$2,$3*
1,1,$1+$1,$4,$5*
1,1,$1+$1,$6,$7*
1,1,$1+$1,$8,$9*
0 Add four rect primitives between the rounded corners*
20,1,$1+$1,$2,$3,$4,$5,0*
20,1,$1+$1,$4,$5,$6,$7,0*
20,1,$1+$1,$6,$7,$8,$9,0*
20,1,$1+$1,$8,$9,$2,$3,0*%
G04 Aperture macros list end*
%ADD10C,0.150000*%
%ADD11C,0.120000*%
%ADD12C,0.127000*%
%ADD13C,0.850000*%
%ADD14RoundRect,0.150000X-0.500000X0.150000X-0.500000X-0.150000X0.500000X-0.150000X0.500000X0.150000X0*%
%ADD15RoundRect,0.175000X-0.175000X0.350000X-0.175000X-0.350000X0.175000X-0.350000X0.175000X0.350000X0*%
%ADD16R,1.350000X1.800000*%
%ADD17C,0.650000*%
%ADD18R,1.450000X0.600000*%
%ADD19R,1.450000X0.300000*%
%ADD20O,1.600000X1.000000*%
%ADD21O,2.100000X1.000000*%
%ADD22R,1.000000X2.000000*%
%ADD23R,2.000000X1.000000*%
%ADD24R,0.900000X0.900000*%
G04 APERTURE END LIST*
D10*
X179957200Y-80291667D02*
X180004819Y-80434524D01*
X180004819Y-80434524D02*
X180004819Y-80672619D01*
X180004819Y-80672619D02*
X179957200Y-80767857D01*
X179957200Y-80767857D02*
X179909580Y-80815476D01*
X179909580Y-80815476D02*
X179814342Y-80863095D01*
X179814342Y-80863095D02*
X179719104Y-80863095D01*
X179719104Y-80863095D02*
X179623866Y-80815476D01*
X179623866Y-80815476D02*
X179576247Y-80767857D01*
X179576247Y-80767857D02*
X179528628Y-80672619D01*
X179528628Y-80672619D02*
X179481009Y-80482143D01*
X179481009Y-80482143D02*
X179433390Y-80386905D01*
X179433390Y-80386905D02*
X179385771Y-80339286D01*
X179385771Y-80339286D02*
X179290533Y-80291667D01*
X179290533Y-80291667D02*
X179195295Y-80291667D01*
X179195295Y-80291667D02*
X179100057Y-80339286D01*
X179100057Y-80339286D02*
X179052438Y-80386905D01*
X179052438Y-80386905D02*
X179004819Y-80482143D01*
X179004819Y-80482143D02*
X179004819Y-80720238D01*
X179004819Y-80720238D02*
X179052438Y-80863095D01*
X179004819Y-81196429D02*
X180004819Y-81434524D01*
X180004819Y-81434524D02*
X179290533Y-81625000D01*
X179290533Y-81625000D02*
X180004819Y-81815476D01*
X180004819Y-81815476D02*
X179004819Y-82053572D01*
X180004819Y-82958333D02*
X180004819Y-82386905D01*
X180004819Y-82672619D02*
X179004819Y-82672619D01*
X179004819Y-82672619D02*
X179147676Y-82577381D01*
X179147676Y-82577381D02*
X179242914Y-82482143D01*
X179242914Y-82482143D02*
X179290533Y-82386905D01*
X179158332Y-80042200D02*
X179015475Y-80089819D01*
X179015475Y-80089819D02*
X178777380Y-80089819D01*
X178777380Y-80089819D02*
X178682142Y-80042200D01*
X178682142Y-80042200D02*
X178634523Y-79994580D01*
X178634523Y-79994580D02*
X178586904Y-79899342D01*
X178586904Y-79899342D02*
X178586904Y-79804104D01*
X178586904Y-79804104D02*
X178634523Y-79708866D01*
X178634523Y-79708866D02*
X178682142Y-79661247D01*
X178682142Y-79661247D02*
X178777380Y-79613628D01*
X178777380Y-79613628D02*
X178967856Y-79566009D01*
X178967856Y-79566009D02*
X179063094Y-79518390D01*
X179063094Y-79518390D02*
X179110713Y-79470771D01*
X179110713Y-79470771D02*
X179158332Y-79375533D01*
X179158332Y-79375533D02*
X179158332Y-79280295D01*
X179158332Y-79280295D02*
X179110713Y-79185057D01*
X179110713Y-79185057D02*
X179063094Y-79137438D01*
X179063094Y-79137438D02*
X178967856Y-79089819D01*
X178967856Y-79089819D02*
X178729761Y-79089819D01*
X178729761Y-79089819D02*
X178586904Y-79137438D01*
X178253570Y-79089819D02*
X178015475Y-80089819D01*
X178015475Y-80089819D02*
X177824999Y-79375533D01*
X177824999Y-79375533D02*
X177634523Y-80089819D01*
X177634523Y-80089819D02*
X177396428Y-79089819D01*
X177110713Y-79089819D02*
X176491666Y-79089819D01*
X176491666Y-79089819D02*
X176824999Y-79470771D01*
X176824999Y-79470771D02*
X176682142Y-79470771D01*
X176682142Y-79470771D02*
X176586904Y-79518390D01*
X176586904Y-79518390D02*
X176539285Y-79566009D01*
X176539285Y-79566009D02*
X176491666Y-79661247D01*
X176491666Y-79661247D02*
X176491666Y-79899342D01*
X176491666Y-79899342D02*
X176539285Y-79994580D01*
X176539285Y-79994580D02*
X176586904Y-80042200D01*
X176586904Y-80042200D02*
X176682142Y-80089819D01*
X176682142Y-80089819D02*
X176967856Y-80089819D01*
X176967856Y-80089819D02*
X177063094Y-80042200D01*
X177063094Y-80042200D02*
X177110713Y-79994580D01*
X179158332Y-83542200D02*
X179015475Y-83589819D01*
X179015475Y-83589819D02*
X178777380Y-83589819D01*
X178777380Y-83589819D02*
X178682142Y-83542200D01*
X178682142Y-83542200D02*
X178634523Y-83494580D01*
X178634523Y-83494580D02*
X178586904Y-83399342D01*
X178586904Y-83399342D02*
X178586904Y-83304104D01*
X178586904Y-83304104D02*
X178634523Y-83208866D01*
X178634523Y-83208866D02*
X178682142Y-83161247D01*
X178682142Y-83161247D02*
X178777380Y-83113628D01*
X178777380Y-83113628D02*
X178967856Y-83066009D01*
X178967856Y-83066009D02*
X179063094Y-83018390D01*
X179063094Y-83018390D02*
X179110713Y-82970771D01*
X179110713Y-82970771D02*
X179158332Y-82875533D01*
X179158332Y-82875533D02*
X179158332Y-82780295D01*
X179158332Y-82780295D02*
X179110713Y-82685057D01*
X179110713Y-82685057D02*
X179063094Y-82637438D01*
X179063094Y-82637438D02*
X178967856Y-82589819D01*
X178967856Y-82589819D02*
X178729761Y-82589819D01*
X178729761Y-82589819D02*
X178586904Y-82637438D01*
X178253570Y-82589819D02*
X178015475Y-83589819D01*
X178015475Y-83589819D02*
X177824999Y-82875533D01*
X177824999Y-82875533D02*
X177634523Y-83589819D01*
X177634523Y-83589819D02*
X177396428Y-82589819D01*
X177063094Y-82685057D02*
X177015475Y-82637438D01*
X177015475Y-82637438D02*
X176920237Y-82589819D01*
X176920237Y-82589819D02*
X176682142Y-82589819D01*
X176682142Y-82589819D02*
X176586904Y-82637438D01*
X176586904Y-82637438D02*
X176539285Y-82685057D01*
X176539285Y-82685057D02*
X176491666Y-82780295D01*
X176491666Y-82780295D02*
X176491666Y-82875533D01*
X176491666Y-82875533D02*
X176539285Y-83018390D01*
X176539285Y-83018390D02*
X177110713Y-83589819D01*
X177110713Y-83589819D02*
X176491666Y-83589819D01*
X173849819Y-79996666D02*
X174564104Y-79996666D01*
X174564104Y-79996666D02*
X174706961Y-79949047D01*
X174706961Y-79949047D02*
X174802200Y-79853809D01*
X174802200Y-79853809D02*
X174849819Y-79710952D01*
X174849819Y-79710952D02*
X174849819Y-79615714D01*
X174849819Y-80996666D02*
X174849819Y-80425238D01*
X174849819Y-80710952D02*
X173849819Y-80710952D01*
X173849819Y-80710952D02*
X173992676Y-80615714D01*
X173992676Y-80615714D02*
X174087914Y-80520476D01*
X174087914Y-80520476D02*
X174135533Y-80425238D01*
X188754819Y-96213095D02*
X189564342Y-96213095D01*
X189564342Y-96213095D02*
X189659580Y-96260714D01*
X189659580Y-96260714D02*
X189707200Y-96308333D01*
X189707200Y-96308333D02*
X189754819Y-96403571D01*
X189754819Y-96403571D02*
X189754819Y-96594047D01*
X189754819Y-96594047D02*
X189707200Y-96689285D01*
X189707200Y-96689285D02*
X189659580Y-96736904D01*
X189659580Y-96736904D02*
X189564342Y-96784523D01*
X189564342Y-96784523D02*
X188754819Y-96784523D01*
X188754819Y-97165476D02*
X188754819Y-97832142D01*
X188754819Y-97832142D02*
X189754819Y-97403571D01*
D11*
%TO.C,SW1*%
X181750000Y-80025000D02*
X181750000Y-81725000D01*
X181750000Y-83025000D02*
X181750000Y-83225000D01*
X182850000Y-78175000D02*
X183650000Y-78175000D01*
X182850000Y-85075000D02*
X183650000Y-85075000D01*
X184750000Y-81675000D02*
X184750000Y-78825000D01*
X184750000Y-83175000D02*
X184750000Y-84425000D01*
X186200000Y-81675000D02*
X184750000Y-81675000D01*
X186200000Y-83125000D02*
X186200000Y-81725000D01*
X186200000Y-83175000D02*
X184750000Y-83175000D01*
D12*
%TO.C,SW3*%
X175400000Y-75550000D02*
X175400000Y-75780000D01*
X175400000Y-78220000D02*
X175400000Y-78450000D01*
X175400000Y-78450000D02*
X179400000Y-78450000D01*
X179400000Y-75550000D02*
X175400000Y-75550000D01*
X179400000Y-75550000D02*
X179400000Y-75780000D01*
X179400000Y-78450000D02*
X179400000Y-78220000D01*
%TO.C,SW2*%
X175400000Y-79050000D02*
X175400000Y-79280000D01*
X175400000Y-81720000D02*
X175400000Y-81950000D01*
X175400000Y-81950000D02*
X179400000Y-81950000D01*
X179400000Y-79050000D02*
X175400000Y-79050000D01*
X179400000Y-79050000D02*
X179400000Y-79280000D01*
X179400000Y-81950000D02*
X179400000Y-81720000D01*
D11*
%TO.C,J1*%
X164850000Y-85030000D02*
X164850000Y-75630000D01*
X166750000Y-75630000D02*
X164850000Y-75630000D01*
X166750000Y-85030000D02*
X164850000Y-85030000D01*
X170650000Y-75630000D02*
X168650000Y-75630000D01*
X170650000Y-85030000D02*
X168650000Y-85030000D01*
D12*
%TO.C,U7*%
X170140000Y-87300000D02*
X188640000Y-87300000D01*
X170140000Y-100300000D02*
X170140000Y-87300000D01*
X188640000Y-87300000D02*
X188640000Y-100300000D01*
X188640000Y-100300000D02*
X170140000Y-100300000D01*
%TD*%
%LPC*%
D13*
%TO.C,SW1*%
X183250000Y-80125000D03*
X183250000Y-83125000D03*
D14*
X181300000Y-79375000D03*
X181300000Y-82375000D03*
X181300000Y-83875000D03*
D15*
X184350000Y-77950000D03*
X182150000Y-77950000D03*
X184350000Y-85300000D03*
X182150000Y-85300000D03*
%TD*%
D16*
%TO.C,SW3*%
X175325000Y-77000000D03*
X179475000Y-77000000D03*
%TD*%
%TO.C,SW2*%
X175325000Y-80500000D03*
X179475000Y-80500000D03*
%TD*%
D17*
%TO.C,J1*%
X171350000Y-83220000D03*
X171350000Y-77440000D03*
D18*
X172795000Y-83580000D03*
X172795000Y-82780000D03*
D19*
X172795000Y-81580000D03*
X172795000Y-80580000D03*
X172795000Y-80080000D03*
X172795000Y-79080000D03*
D18*
X172795000Y-77880000D03*
X172795000Y-77080000D03*
X172795000Y-77080000D03*
X172795000Y-77880000D03*
D19*
X172795000Y-78580000D03*
X172795000Y-79580000D03*
X172795000Y-81080000D03*
X172795000Y-82080000D03*
D18*
X172795000Y-82780000D03*
X172795000Y-83580000D03*
D20*
X167700000Y-84650000D03*
D21*
X171880000Y-84650000D03*
D20*
X167700000Y-76010000D03*
D21*
X171880000Y-76010000D03*
%TD*%
D22*
%TO.C,U7*%
X184170000Y-100300000D03*
X182900000Y-100300000D03*
X181630000Y-100300000D03*
X180360000Y-100300000D03*
X179090000Y-100300000D03*
X177820000Y-100300000D03*
X176550000Y-100300000D03*
X175280000Y-100300000D03*
X174010000Y-100300000D03*
X172740000Y-100300000D03*
D23*
X170140000Y-98240000D03*
D24*
X172240000Y-97610000D03*
D23*
X170140000Y-96970000D03*
D24*
X172240000Y-96340000D03*
D23*
X170140000Y-95700000D03*
D24*
X172240000Y-95070000D03*
D23*
X170140000Y-94430000D03*
D24*
X172240000Y-93800000D03*
D23*
X170140000Y-93160000D03*
D24*
X172240000Y-92530000D03*
D23*
X170140000Y-91890000D03*
D24*
X172240000Y-91260000D03*
D23*
X170140000Y-90620000D03*
D24*
X172240000Y-89990000D03*
D23*
X170140000Y-89350000D03*
D22*
X172740000Y-87300000D03*
X174010000Y-87300000D03*
D24*
X174645000Y-89400000D03*
D22*
X175280000Y-87300000D03*
D24*
X175915000Y-89400000D03*
D22*
X176550000Y-87300000D03*
D24*
X177185000Y-89400000D03*
D22*
X177820000Y-87300000D03*
D24*
X178455000Y-89400000D03*
D22*
X179090000Y-87300000D03*
D24*
X179725000Y-89400000D03*
D22*
X180360000Y-87300000D03*
D24*
X180995000Y-89400000D03*
D22*
X181630000Y-87300000D03*
D24*
X182265000Y-89400000D03*
D22*
X182900000Y-87300000D03*
D24*
X183535000Y-89400000D03*
D22*
X184170000Y-87300000D03*
%TD*%
%LPD*%
M02*
