%TF.GenerationSoftware,KiCad,Pcbnew,9.0.6*%
%TF.CreationDate,2025-11-30T22:56:01+09:00*%
%TF.ProjectId,SMORES,534d4f52-4553-42e6-9b69-6361645f7063,rev?*%
%TF.SameCoordinates,Original*%
%TF.FileFunction,Legend,Top*%
%TF.FilePolarity,Positive*%
%FSLAX46Y46*%
G04 Gerber Fmt 4.6, Leading zero omitted, Abs format (unit mm)*
G04 Created by KiCad (PCBNEW 9.0.6) date 2025-11-30 22:56:01*
%MOMM*%
%LPD*%
G01*
G04 APERTURE LIST*
G04 Aperture macros list*
%AMRoundRect*
0 Rectangle with rounded corners*
0 $1 Rounding radius*
0 $2 $3 $4 $5 $6 $7 $8 $9 X,Y pos of 4 corners*
0 Add a 4 corners polygon primitive as box body*
4,1,4,$2,$3,$4,$5,$6,$7,$8,$9,$2,$3,0*
0 Add four circle primitives for the rounded corners*
1,1,$1+$1,$2,$3*
1,1,$1+$1,$4,$5*
1,1,$1+$1,$6,$7*
1,1,$1+$1,$8,$9*
0 Add four rect primitives between the rounded corners*
20,1,$1+$1,$2,$3,$4,$5,0*
20,1,$1+$1,$4,$5,$6,$7,0*
20,1,$1+$1,$6,$7,$8,$9,0*
20,1,$1+$1,$8,$9,$2,$3,0*%
G04 Aperture macros list end*
%ADD10C,0.100000*%
%ADD11C,0.150000*%
%ADD12C,0.120000*%
%ADD13C,0.127000*%
%ADD14RoundRect,0.237500X0.287500X0.237500X-0.287500X0.237500X-0.287500X-0.237500X0.287500X-0.237500X0*%
%ADD15C,2.000000*%
%ADD16RoundRect,0.102000X-1.000000X-0.500000X1.000000X-0.500000X1.000000X0.500000X-1.000000X0.500000X0*%
%ADD17RoundRect,0.102000X-0.500000X-1.000000X0.500000X-1.000000X0.500000X1.000000X-0.500000X1.000000X0*%
%ADD18RoundRect,0.102000X-0.450000X-0.450000X0.450000X-0.450000X0.450000X0.450000X-0.450000X0.450000X0*%
%ADD19RoundRect,0.237500X-0.237500X0.300000X-0.237500X-0.300000X0.237500X-0.300000X0.237500X0.300000X0*%
%ADD20RoundRect,0.150000X0.150000X0.400000X-0.150000X0.400000X-0.150000X-0.400000X0.150000X-0.400000X0*%
%ADD21RoundRect,0.237500X0.300000X0.237500X-0.300000X0.237500X-0.300000X-0.237500X0.300000X-0.237500X0*%
G04 APERTURE END LIST*
D10*
X129903884Y-61291466D02*
X130665789Y-61291466D01*
X115256265Y-51614856D02*
X115399122Y-51662475D01*
X115399122Y-51662475D02*
X115637217Y-51662475D01*
X115637217Y-51662475D02*
X115732455Y-51614856D01*
X115732455Y-51614856D02*
X115780074Y-51567236D01*
X115780074Y-51567236D02*
X115827693Y-51471998D01*
X115827693Y-51471998D02*
X115827693Y-51376760D01*
X115827693Y-51376760D02*
X115780074Y-51281522D01*
X115780074Y-51281522D02*
X115732455Y-51233903D01*
X115732455Y-51233903D02*
X115637217Y-51186284D01*
X115637217Y-51186284D02*
X115446741Y-51138665D01*
X115446741Y-51138665D02*
X115351503Y-51091046D01*
X115351503Y-51091046D02*
X115303884Y-51043427D01*
X115303884Y-51043427D02*
X115256265Y-50948189D01*
X115256265Y-50948189D02*
X115256265Y-50852951D01*
X115256265Y-50852951D02*
X115303884Y-50757713D01*
X115303884Y-50757713D02*
X115351503Y-50710094D01*
X115351503Y-50710094D02*
X115446741Y-50662475D01*
X115446741Y-50662475D02*
X115684836Y-50662475D01*
X115684836Y-50662475D02*
X115827693Y-50710094D01*
X116256265Y-51662475D02*
X116256265Y-50662475D01*
X116256265Y-50662475D02*
X116589598Y-51376760D01*
X116589598Y-51376760D02*
X116922931Y-50662475D01*
X116922931Y-50662475D02*
X116922931Y-51662475D01*
X117589598Y-50662475D02*
X117780074Y-50662475D01*
X117780074Y-50662475D02*
X117875312Y-50710094D01*
X117875312Y-50710094D02*
X117970550Y-50805332D01*
X117970550Y-50805332D02*
X118018169Y-50995808D01*
X118018169Y-50995808D02*
X118018169Y-51329141D01*
X118018169Y-51329141D02*
X117970550Y-51519617D01*
X117970550Y-51519617D02*
X117875312Y-51614856D01*
X117875312Y-51614856D02*
X117780074Y-51662475D01*
X117780074Y-51662475D02*
X117589598Y-51662475D01*
X117589598Y-51662475D02*
X117494360Y-51614856D01*
X117494360Y-51614856D02*
X117399122Y-51519617D01*
X117399122Y-51519617D02*
X117351503Y-51329141D01*
X117351503Y-51329141D02*
X117351503Y-50995808D01*
X117351503Y-50995808D02*
X117399122Y-50805332D01*
X117399122Y-50805332D02*
X117494360Y-50710094D01*
X117494360Y-50710094D02*
X117589598Y-50662475D01*
X119018169Y-51662475D02*
X118684836Y-51186284D01*
X118446741Y-51662475D02*
X118446741Y-50662475D01*
X118446741Y-50662475D02*
X118827693Y-50662475D01*
X118827693Y-50662475D02*
X118922931Y-50710094D01*
X118922931Y-50710094D02*
X118970550Y-50757713D01*
X118970550Y-50757713D02*
X119018169Y-50852951D01*
X119018169Y-50852951D02*
X119018169Y-50995808D01*
X119018169Y-50995808D02*
X118970550Y-51091046D01*
X118970550Y-51091046D02*
X118922931Y-51138665D01*
X118922931Y-51138665D02*
X118827693Y-51186284D01*
X118827693Y-51186284D02*
X118446741Y-51186284D01*
X119446741Y-51138665D02*
X119780074Y-51138665D01*
X119922931Y-51662475D02*
X119446741Y-51662475D01*
X119446741Y-51662475D02*
X119446741Y-50662475D01*
X119446741Y-50662475D02*
X119922931Y-50662475D01*
X120303884Y-51614856D02*
X120446741Y-51662475D01*
X120446741Y-51662475D02*
X120684836Y-51662475D01*
X120684836Y-51662475D02*
X120780074Y-51614856D01*
X120780074Y-51614856D02*
X120827693Y-51567236D01*
X120827693Y-51567236D02*
X120875312Y-51471998D01*
X120875312Y-51471998D02*
X120875312Y-51376760D01*
X120875312Y-51376760D02*
X120827693Y-51281522D01*
X120827693Y-51281522D02*
X120780074Y-51233903D01*
X120780074Y-51233903D02*
X120684836Y-51186284D01*
X120684836Y-51186284D02*
X120494360Y-51138665D01*
X120494360Y-51138665D02*
X120399122Y-51091046D01*
X120399122Y-51091046D02*
X120351503Y-51043427D01*
X120351503Y-51043427D02*
X120303884Y-50948189D01*
X120303884Y-50948189D02*
X120303884Y-50852951D01*
X120303884Y-50852951D02*
X120351503Y-50757713D01*
X120351503Y-50757713D02*
X120399122Y-50710094D01*
X120399122Y-50710094D02*
X120494360Y-50662475D01*
X120494360Y-50662475D02*
X120732455Y-50662475D01*
X120732455Y-50662475D02*
X120875312Y-50710094D01*
X121970551Y-50995808D02*
X122208646Y-51662475D01*
X122208646Y-51662475D02*
X122446741Y-50995808D01*
X123351503Y-51662475D02*
X122780075Y-51662475D01*
X123065789Y-51662475D02*
X123065789Y-50662475D01*
X123065789Y-50662475D02*
X122970551Y-50805332D01*
X122970551Y-50805332D02*
X122875313Y-50900570D01*
X122875313Y-50900570D02*
X122780075Y-50948189D01*
X115922931Y-52796228D02*
X115875312Y-52748609D01*
X115875312Y-52748609D02*
X115780074Y-52700990D01*
X115780074Y-52700990D02*
X115684836Y-52700990D01*
X115684836Y-52700990D02*
X115589598Y-52748609D01*
X115589598Y-52748609D02*
X115541979Y-52796228D01*
X115541979Y-52796228D02*
X115494360Y-52891466D01*
X115494360Y-52891466D02*
X115494360Y-52986704D01*
X115494360Y-52986704D02*
X115541979Y-53081942D01*
X115541979Y-53081942D02*
X115589598Y-53129561D01*
X115589598Y-53129561D02*
X115684836Y-53177180D01*
X115684836Y-53177180D02*
X115780074Y-53177180D01*
X115780074Y-53177180D02*
X115875312Y-53129561D01*
X115875312Y-53129561D02*
X115922931Y-53081942D01*
X115922931Y-52700990D02*
X115922931Y-53081942D01*
X115922931Y-53081942D02*
X115970550Y-53129561D01*
X115970550Y-53129561D02*
X116018169Y-53129561D01*
X116018169Y-53129561D02*
X116113408Y-53081942D01*
X116113408Y-53081942D02*
X116161027Y-52986704D01*
X116161027Y-52986704D02*
X116161027Y-52748609D01*
X116161027Y-52748609D02*
X116065789Y-52605752D01*
X116065789Y-52605752D02*
X115922931Y-52510514D01*
X115922931Y-52510514D02*
X115732455Y-52462895D01*
X115732455Y-52462895D02*
X115541979Y-52510514D01*
X115541979Y-52510514D02*
X115399122Y-52605752D01*
X115399122Y-52605752D02*
X115303884Y-52748609D01*
X115303884Y-52748609D02*
X115256265Y-52939085D01*
X115256265Y-52939085D02*
X115303884Y-53129561D01*
X115303884Y-53129561D02*
X115399122Y-53272419D01*
X115399122Y-53272419D02*
X115541979Y-53367657D01*
X115541979Y-53367657D02*
X115732455Y-53415276D01*
X115732455Y-53415276D02*
X115922931Y-53367657D01*
X115922931Y-53367657D02*
X116065789Y-53272419D01*
X116589598Y-53272419D02*
X116589598Y-52605752D01*
X116589598Y-52272419D02*
X116541979Y-52320038D01*
X116541979Y-52320038D02*
X116589598Y-52367657D01*
X116589598Y-52367657D02*
X116637217Y-52320038D01*
X116637217Y-52320038D02*
X116589598Y-52272419D01*
X116589598Y-52272419D02*
X116589598Y-52367657D01*
X117065788Y-52605752D02*
X117065788Y-53272419D01*
X117065788Y-52700990D02*
X117113407Y-52653371D01*
X117113407Y-52653371D02*
X117208645Y-52605752D01*
X117208645Y-52605752D02*
X117351502Y-52605752D01*
X117351502Y-52605752D02*
X117446740Y-52653371D01*
X117446740Y-52653371D02*
X117494359Y-52748609D01*
X117494359Y-52748609D02*
X117494359Y-53272419D01*
X117827693Y-52605752D02*
X118208645Y-52605752D01*
X117970550Y-53272419D02*
X117970550Y-52415276D01*
X117970550Y-52415276D02*
X118018169Y-52320038D01*
X118018169Y-52320038D02*
X118113407Y-52272419D01*
X118113407Y-52272419D02*
X118208645Y-52272419D01*
X118684836Y-53272419D02*
X118589598Y-53224800D01*
X118589598Y-53224800D02*
X118541979Y-53177180D01*
X118541979Y-53177180D02*
X118494360Y-53081942D01*
X118494360Y-53081942D02*
X118494360Y-52796228D01*
X118494360Y-52796228D02*
X118541979Y-52700990D01*
X118541979Y-52700990D02*
X118589598Y-52653371D01*
X118589598Y-52653371D02*
X118684836Y-52605752D01*
X118684836Y-52605752D02*
X118827693Y-52605752D01*
X118827693Y-52605752D02*
X118922931Y-52653371D01*
X118922931Y-52653371D02*
X118970550Y-52700990D01*
X118970550Y-52700990D02*
X119018169Y-52796228D01*
X119018169Y-52796228D02*
X119018169Y-53081942D01*
X119018169Y-53081942D02*
X118970550Y-53177180D01*
X118970550Y-53177180D02*
X118922931Y-53224800D01*
X118922931Y-53224800D02*
X118827693Y-53272419D01*
X118827693Y-53272419D02*
X118684836Y-53272419D01*
X110672419Y-63310401D02*
X111386704Y-63310401D01*
X111386704Y-63310401D02*
X111529561Y-63358020D01*
X111529561Y-63358020D02*
X111624800Y-63453258D01*
X111624800Y-63453258D02*
X111672419Y-63596115D01*
X111672419Y-63596115D02*
X111672419Y-63691353D01*
X111672419Y-62358020D02*
X111672419Y-62834210D01*
X111672419Y-62834210D02*
X110672419Y-62834210D01*
X111577180Y-61453258D02*
X111624800Y-61500877D01*
X111624800Y-61500877D02*
X111672419Y-61643734D01*
X111672419Y-61643734D02*
X111672419Y-61738972D01*
X111672419Y-61738972D02*
X111624800Y-61881829D01*
X111624800Y-61881829D02*
X111529561Y-61977067D01*
X111529561Y-61977067D02*
X111434323Y-62024686D01*
X111434323Y-62024686D02*
X111243847Y-62072305D01*
X111243847Y-62072305D02*
X111100990Y-62072305D01*
X111100990Y-62072305D02*
X110910514Y-62024686D01*
X110910514Y-62024686D02*
X110815276Y-61977067D01*
X110815276Y-61977067D02*
X110720038Y-61881829D01*
X110720038Y-61881829D02*
X110672419Y-61738972D01*
X110672419Y-61738972D02*
X110672419Y-61643734D01*
X110672419Y-61643734D02*
X110720038Y-61500877D01*
X110720038Y-61500877D02*
X110767657Y-61453258D01*
X110672419Y-60738972D02*
X111386704Y-60738972D01*
X111386704Y-60738972D02*
X111529561Y-60786591D01*
X111529561Y-60786591D02*
X111624800Y-60881829D01*
X111624800Y-60881829D02*
X111672419Y-61024686D01*
X111672419Y-61024686D02*
X111672419Y-61119924D01*
X111672419Y-59786591D02*
X111672419Y-60262781D01*
X111672419Y-60262781D02*
X110672419Y-60262781D01*
X111577180Y-58881829D02*
X111624800Y-58929448D01*
X111624800Y-58929448D02*
X111672419Y-59072305D01*
X111672419Y-59072305D02*
X111672419Y-59167543D01*
X111672419Y-59167543D02*
X111624800Y-59310400D01*
X111624800Y-59310400D02*
X111529561Y-59405638D01*
X111529561Y-59405638D02*
X111434323Y-59453257D01*
X111434323Y-59453257D02*
X111243847Y-59500876D01*
X111243847Y-59500876D02*
X111100990Y-59500876D01*
X111100990Y-59500876D02*
X110910514Y-59453257D01*
X110910514Y-59453257D02*
X110815276Y-59405638D01*
X110815276Y-59405638D02*
X110720038Y-59310400D01*
X110720038Y-59310400D02*
X110672419Y-59167543D01*
X110672419Y-59167543D02*
X110672419Y-59072305D01*
X110672419Y-59072305D02*
X110720038Y-58929448D01*
X110720038Y-58929448D02*
X110767657Y-58881829D01*
X110672419Y-58167543D02*
X111386704Y-58167543D01*
X111386704Y-58167543D02*
X111529561Y-58215162D01*
X111529561Y-58215162D02*
X111624800Y-58310400D01*
X111624800Y-58310400D02*
X111672419Y-58453257D01*
X111672419Y-58453257D02*
X111672419Y-58548495D01*
X111672419Y-57215162D02*
X111672419Y-57691352D01*
X111672419Y-57691352D02*
X110672419Y-57691352D01*
X111577180Y-56310400D02*
X111624800Y-56358019D01*
X111624800Y-56358019D02*
X111672419Y-56500876D01*
X111672419Y-56500876D02*
X111672419Y-56596114D01*
X111672419Y-56596114D02*
X111624800Y-56738971D01*
X111624800Y-56738971D02*
X111529561Y-56834209D01*
X111529561Y-56834209D02*
X111434323Y-56881828D01*
X111434323Y-56881828D02*
X111243847Y-56929447D01*
X111243847Y-56929447D02*
X111100990Y-56929447D01*
X111100990Y-56929447D02*
X110910514Y-56881828D01*
X110910514Y-56881828D02*
X110815276Y-56834209D01*
X110815276Y-56834209D02*
X110720038Y-56738971D01*
X110720038Y-56738971D02*
X110672419Y-56596114D01*
X110672419Y-56596114D02*
X110672419Y-56500876D01*
X110672419Y-56500876D02*
X110720038Y-56358019D01*
X110720038Y-56358019D02*
X110767657Y-56310400D01*
X110672419Y-55596114D02*
X111386704Y-55596114D01*
X111386704Y-55596114D02*
X111529561Y-55643733D01*
X111529561Y-55643733D02*
X111624800Y-55738971D01*
X111624800Y-55738971D02*
X111672419Y-55881828D01*
X111672419Y-55881828D02*
X111672419Y-55977066D01*
X111672419Y-54643733D02*
X111672419Y-55119923D01*
X111672419Y-55119923D02*
X110672419Y-55119923D01*
X111577180Y-53738971D02*
X111624800Y-53786590D01*
X111624800Y-53786590D02*
X111672419Y-53929447D01*
X111672419Y-53929447D02*
X111672419Y-54024685D01*
X111672419Y-54024685D02*
X111624800Y-54167542D01*
X111624800Y-54167542D02*
X111529561Y-54262780D01*
X111529561Y-54262780D02*
X111434323Y-54310399D01*
X111434323Y-54310399D02*
X111243847Y-54358018D01*
X111243847Y-54358018D02*
X111100990Y-54358018D01*
X111100990Y-54358018D02*
X110910514Y-54310399D01*
X110910514Y-54310399D02*
X110815276Y-54262780D01*
X110815276Y-54262780D02*
X110720038Y-54167542D01*
X110720038Y-54167542D02*
X110672419Y-54024685D01*
X110672419Y-54024685D02*
X110672419Y-53929447D01*
X110672419Y-53929447D02*
X110720038Y-53786590D01*
X110720038Y-53786590D02*
X110767657Y-53738971D01*
X127603884Y-67391466D02*
X128365789Y-67391466D01*
X127984836Y-67772419D02*
X127984836Y-67010514D01*
D11*
X116113095Y-45273319D02*
X116113095Y-46082842D01*
X116113095Y-46082842D02*
X116160714Y-46178080D01*
X116160714Y-46178080D02*
X116208333Y-46225700D01*
X116208333Y-46225700D02*
X116303571Y-46273319D01*
X116303571Y-46273319D02*
X116494047Y-46273319D01*
X116494047Y-46273319D02*
X116589285Y-46225700D01*
X116589285Y-46225700D02*
X116636904Y-46178080D01*
X116636904Y-46178080D02*
X116684523Y-46082842D01*
X116684523Y-46082842D02*
X116684523Y-45273319D01*
X117065476Y-45273319D02*
X117732142Y-45273319D01*
X117732142Y-45273319D02*
X117303571Y-46273319D01*
D12*
%TO.C,L4*%
X121696267Y-66490000D02*
X121353733Y-66490000D01*
X121696267Y-67510000D02*
X121353733Y-67510000D01*
%TO.C,TP2*%
X130600000Y-66100000D02*
G75*
G02*
X128200000Y-66100000I-1200000J0D01*
G01*
X128200000Y-66100000D02*
G75*
G02*
X130600000Y-66100000I1200000J0D01*
G01*
%TO.C,TP1*%
X130600000Y-63100000D02*
G75*
G02*
X128200000Y-63100000I-1200000J0D01*
G01*
X128200000Y-63100000D02*
G75*
G02*
X130600000Y-63100000I1200000J0D01*
G01*
D13*
%TO.C,U7*%
X113550000Y-46478500D02*
X113550000Y-64978500D01*
X113550000Y-64978500D02*
X126550000Y-64978500D01*
X126550000Y-46478500D02*
X113550000Y-46478500D01*
X126550000Y-64978500D02*
X126550000Y-46478500D01*
D12*
%TO.C,C13*%
X110590000Y-65753733D02*
X110590000Y-66046267D01*
X111610000Y-65753733D02*
X111610000Y-66046267D01*
%TO.C,Y2*%
X112140000Y-67460000D02*
X114660000Y-67460000D01*
X114660000Y-65740000D02*
X112140000Y-65740000D01*
X114660000Y-67460000D02*
X114660000Y-65740000D01*
%TO.C,C12*%
X116783767Y-66390000D02*
X116491233Y-66390000D01*
X116783767Y-67410000D02*
X116491233Y-67410000D01*
%TD*%
%LPC*%
D14*
%TO.C,L4*%
X122400000Y-67000000D03*
X120650000Y-67000000D03*
%TD*%
D15*
%TO.C,TP2*%
X129400000Y-66100000D03*
%TD*%
%TO.C,TP1*%
X129400000Y-63100000D03*
%TD*%
D16*
%TO.C,U7*%
X113550000Y-50948500D03*
X113550000Y-52218500D03*
X113550000Y-53488500D03*
X113550000Y-54758500D03*
X113550000Y-56028500D03*
X113550000Y-57298500D03*
X113550000Y-58568500D03*
X113550000Y-59838500D03*
X113550000Y-61108500D03*
X113550000Y-62378500D03*
D17*
X115610000Y-64978500D03*
D18*
X116240000Y-62878500D03*
D17*
X116880000Y-64978500D03*
D18*
X117510000Y-62878500D03*
D17*
X118150000Y-64978500D03*
D18*
X118780000Y-62878500D03*
D17*
X119420000Y-64978500D03*
D18*
X120050000Y-62878500D03*
D17*
X120690000Y-64978500D03*
D18*
X121320000Y-62878500D03*
D17*
X121960000Y-64978500D03*
D18*
X122590000Y-62878500D03*
D17*
X123230000Y-64978500D03*
D18*
X123860000Y-62878500D03*
D17*
X124500000Y-64978500D03*
D16*
X126550000Y-62378500D03*
X126550000Y-61108500D03*
D18*
X124450000Y-60473500D03*
D16*
X126550000Y-59838500D03*
D18*
X124450000Y-59203500D03*
D16*
X126550000Y-58568500D03*
D18*
X124450000Y-57933500D03*
D16*
X126550000Y-57298500D03*
D18*
X124450000Y-56663500D03*
D16*
X126550000Y-56028500D03*
D18*
X124450000Y-55393500D03*
D16*
X126550000Y-54758500D03*
D18*
X124450000Y-54123500D03*
D16*
X126550000Y-53488500D03*
D18*
X124450000Y-52853500D03*
D16*
X126550000Y-52218500D03*
D18*
X124450000Y-51583500D03*
D16*
X126550000Y-50948500D03*
%TD*%
D19*
%TO.C,C13*%
X111100000Y-65037500D03*
X111100000Y-66762500D03*
%TD*%
D20*
%TO.C,Y2*%
X114100000Y-66600000D03*
X112700000Y-66600000D03*
%TD*%
D21*
%TO.C,C12*%
X117500000Y-66900000D03*
X115775000Y-66900000D03*
%TD*%
%LPD*%
M02*
