%TF.GenerationSoftware,KiCad,Pcbnew,9.0.6*%
%TF.CreationDate,2025-11-30T22:56:02+09:00*%
%TF.ProjectId,SMORES,534d4f52-4553-42e6-9b69-6361645f7063,rev?*%
%TF.SameCoordinates,Original*%
%TF.FileFunction,Copper,L2,Bot*%
%TF.FilePolarity,Positive*%
%FSLAX46Y46*%
G04 Gerber Fmt 4.6, Leading zero omitted, Abs format (unit mm)*
G04 Created by KiCad (PCBNEW 9.0.6) date 2025-11-30 22:56:02*
%MOMM*%
%LPD*%
G01*
G04 APERTURE LIST*
G04 Aperture macros list*
%AMRoundRect*
0 Rectangle with rounded corners*
0 $1 Rounding radius*
0 $2 $3 $4 $5 $6 $7 $8 $9 X,Y pos of 4 corners*
0 Add a 4 corners polygon primitive as box body*
4,1,4,$2,$3,$4,$5,$6,$7,$8,$9,$2,$3,0*
0 Add four circle primitives for the rounded corners*
1,1,$1+$1,$2,$3*
1,1,$1+$1,$4,$5*
1,1,$1+$1,$6,$7*
1,1,$1+$1,$8,$9*
0 Add four rect primitives between the rounded corners*
20,1,$1+$1,$2,$3,$4,$5,0*
20,1,$1+$1,$4,$5,$6,$7,0*
20,1,$1+$1,$6,$7,$8,$9,0*
20,1,$1+$1,$8,$9,$2,$3,0*%
G04 Aperture macros list end*
%TA.AperFunction,SMDPad,CuDef*%
%ADD10RoundRect,0.135000X-0.185000X0.135000X-0.185000X-0.135000X0.185000X-0.135000X0.185000X0.135000X0*%
%TD*%
%TA.AperFunction,SMDPad,CuDef*%
%ADD11R,1.350000X1.800000*%
%TD*%
%TA.AperFunction,SMDPad,CuDef*%
%ADD12RoundRect,0.135000X0.185000X-0.135000X0.185000X0.135000X-0.185000X0.135000X-0.185000X-0.135000X0*%
%TD*%
%TA.AperFunction,SMDPad,CuDef*%
%ADD13C,1.500000*%
%TD*%
%TA.AperFunction,SMDPad,CuDef*%
%ADD14RoundRect,0.135000X-0.135000X-0.185000X0.135000X-0.185000X0.135000X0.185000X-0.135000X0.185000X0*%
%TD*%
%TA.AperFunction,SMDPad,CuDef*%
%ADD15RoundRect,0.140000X-0.140000X-0.170000X0.140000X-0.170000X0.140000X0.170000X-0.140000X0.170000X0*%
%TD*%
%TA.AperFunction,SMDPad,CuDef*%
%ADD16RoundRect,0.218750X0.218750X0.256250X-0.218750X0.256250X-0.218750X-0.256250X0.218750X-0.256250X0*%
%TD*%
%TA.AperFunction,SMDPad,CuDef*%
%ADD17RoundRect,0.135000X0.135000X0.185000X-0.135000X0.185000X-0.135000X-0.185000X0.135000X-0.185000X0*%
%TD*%
%TA.AperFunction,SMDPad,CuDef*%
%ADD18RoundRect,0.140000X-0.170000X0.140000X-0.170000X-0.140000X0.170000X-0.140000X0.170000X0.140000X0*%
%TD*%
%TA.AperFunction,SMDPad,CuDef*%
%ADD19RoundRect,0.062500X0.375000X0.062500X-0.375000X0.062500X-0.375000X-0.062500X0.375000X-0.062500X0*%
%TD*%
%TA.AperFunction,SMDPad,CuDef*%
%ADD20RoundRect,0.062500X0.062500X0.375000X-0.062500X0.375000X-0.062500X-0.375000X0.062500X-0.375000X0*%
%TD*%
%TA.AperFunction,HeatsinkPad*%
%ADD21R,1.600000X1.600000*%
%TD*%
%TA.AperFunction,SMDPad,CuDef*%
%ADD22RoundRect,0.140000X0.140000X0.170000X-0.140000X0.170000X-0.140000X-0.170000X0.140000X-0.170000X0*%
%TD*%
%TA.AperFunction,SMDPad,CuDef*%
%ADD23C,0.240000*%
%TD*%
%TA.AperFunction,SMDPad,CuDef*%
%ADD24RoundRect,0.250000X0.350000X-0.450000X0.350000X0.450000X-0.350000X0.450000X-0.350000X-0.450000X0*%
%TD*%
%TA.AperFunction,SMDPad,CuDef*%
%ADD25R,0.250000X0.475000*%
%TD*%
%TA.AperFunction,SMDPad,CuDef*%
%ADD26R,0.475000X0.250000*%
%TD*%
%TA.AperFunction,ViaPad*%
%ADD27C,0.600000*%
%TD*%
%TA.AperFunction,Conductor*%
%ADD28C,0.200000*%
%TD*%
G04 APERTURE END LIST*
D10*
%TO.P,R7,1*%
%TO.N,+3V3*%
X123800000Y-55790000D03*
%TO.P,R7,2*%
%TO.N,SDO*%
X123800000Y-56810000D03*
%TD*%
D11*
%TO.P,SW3,1,1*%
%TO.N,GND*%
X121225000Y-66300000D03*
%TO.P,SW3,2,2*%
%TO.N,SW0*%
X125375000Y-66300000D03*
%TD*%
D12*
%TO.P,R2,1*%
%TO.N,Net-(D1-A)*%
X117461250Y-62651500D03*
%TO.P,R2,2*%
%TO.N,VDDH*%
X117461250Y-61631500D03*
%TD*%
D13*
%TO.P,TP5,1,1*%
%TO.N,D-*%
X129400000Y-57900000D03*
%TD*%
D14*
%TO.P,R4,1*%
%TO.N,+3V3*%
X113091250Y-59160250D03*
%TO.P,R4,2*%
%TO.N,SCX*%
X114111250Y-59160250D03*
%TD*%
D15*
%TO.P,C26,1*%
%TO.N,GND*%
X113001250Y-58044750D03*
%TO.P,C26,2*%
%TO.N,+3V3*%
X113961250Y-58044750D03*
%TD*%
D16*
%TO.P,D1,1,K*%
%TO.N,Net-(D1-K)*%
X119236250Y-63841500D03*
%TO.P,D1,2,A*%
%TO.N,Net-(D1-A)*%
X117661250Y-63841500D03*
%TD*%
D13*
%TO.P,TP3,1,1*%
%TO.N,GND*%
X129400000Y-52800000D03*
%TD*%
D17*
%TO.P,R10,1*%
%TO.N,+3V3*%
X122271250Y-54960250D03*
%TO.P,R10,2*%
%TO.N,SCL*%
X121251250Y-54960250D03*
%TD*%
%TO.P,R5,1*%
%TO.N,Net-(D2-K)*%
X116261250Y-62560250D03*
%TO.P,R5,2*%
%TO.N,GND*%
X115241250Y-62560250D03*
%TD*%
D15*
%TO.P,C3,1*%
%TO.N,VBUS*%
X120361250Y-58641500D03*
%TO.P,C3,2*%
%TO.N,GND*%
X121321250Y-58641500D03*
%TD*%
D12*
%TO.P,R6,1*%
%TO.N,+3V3*%
X119361250Y-59070250D03*
%TO.P,R6,2*%
%TO.N,SDX*%
X119361250Y-58050250D03*
%TD*%
D17*
%TO.P,R3,1*%
%TO.N,GND*%
X123261250Y-58660250D03*
%TO.P,R3,2*%
%TO.N,Net-(U2-ISET)*%
X122241250Y-58660250D03*
%TD*%
D18*
%TO.P,C15,1*%
%TO.N,GND*%
X124161250Y-58100250D03*
%TO.P,C15,2*%
%TO.N,VBUS*%
X124161250Y-59060250D03*
%TD*%
D19*
%TO.P,U2,1,TS*%
%TO.N,Net-(U2-TS)*%
X122548750Y-60554000D03*
%TO.P,U2,2,BAT*%
%TO.N,BAT+*%
X122548750Y-61054000D03*
%TO.P,U2,3,BAT*%
X122548750Y-61554000D03*
%TO.P,U2,4,~{CE}*%
%TO.N,GND*%
X122548750Y-62054000D03*
D20*
%TO.P,U2,5,EN2*%
X121861250Y-62741500D03*
%TO.P,U2,6,EN1*%
%TO.N,VDDH*%
X121361250Y-62741500D03*
%TO.P,U2,7,~{PGOOD}*%
%TO.N,unconnected-(U2-~{PGOOD}-Pad7)*%
X120861250Y-62741500D03*
%TO.P,U2,8,VSS*%
%TO.N,GND*%
X120361250Y-62741500D03*
D19*
%TO.P,U2,9,~{CHG}*%
%TO.N,Net-(D1-K)*%
X119673750Y-62054000D03*
%TO.P,U2,10,OUT*%
%TO.N,VDDH*%
X119673750Y-61554000D03*
%TO.P,U2,11,OUT*%
X119673750Y-61054000D03*
%TO.P,U2,12,ILIM*%
%TO.N,unconnected-(U2-ILIM-Pad12)*%
X119673750Y-60554000D03*
D20*
%TO.P,U2,13,IN*%
%TO.N,VBUS*%
X120361250Y-59866500D03*
%TO.P,U2,14,TMR*%
%TO.N,unconnected-(U2-TMR-Pad14)*%
X120861250Y-59866500D03*
%TO.P,U2,15,SYSOFF*%
%TO.N,GND*%
X121361250Y-59866500D03*
%TO.P,U2,16,ISET*%
%TO.N,Net-(U2-ISET)*%
X121861250Y-59866500D03*
D21*
%TO.P,U2,17,VSS*%
%TO.N,GND*%
X121111250Y-61304000D03*
%TD*%
D22*
%TO.P,C27,1*%
%TO.N,+3V3*%
X117178750Y-58366250D03*
%TO.P,C27,2*%
%TO.N,GND*%
X116218750Y-58366250D03*
%TD*%
D13*
%TO.P,TP4,1,1*%
%TO.N,D+*%
X129400000Y-55340000D03*
%TD*%
D18*
%TO.P,C1,1*%
%TO.N,VDDH*%
X118461250Y-61661500D03*
%TO.P,C1,2*%
%TO.N,GND*%
X118461250Y-62621500D03*
%TD*%
%TO.P,C2,1*%
%TO.N,BAT+*%
X123761250Y-61081500D03*
%TO.P,C2,2*%
%TO.N,GND*%
X123761250Y-62041500D03*
%TD*%
D17*
%TO.P,R8,1*%
%TO.N,+3V3*%
X122071250Y-56060250D03*
%TO.P,R8,2*%
%TO.N,SDA*%
X121051250Y-56060250D03*
%TD*%
D14*
%TO.P,R1,1*%
%TO.N,Net-(U2-TS)*%
X124080000Y-60100000D03*
%TO.P,R1,2*%
%TO.N,GND*%
X125100000Y-60100000D03*
%TD*%
D23*
%TO.P,U6,A1,VSS*%
%TO.N,GND*%
X116461250Y-59360250D03*
%TO.P,U6,A2,SCL*%
%TO.N,SCX*%
X116461250Y-59760250D03*
%TO.P,U6,B1,VDD*%
%TO.N,+3V3*%
X116861250Y-59360250D03*
%TO.P,U6,B2,SDA*%
%TO.N,SDX*%
X116861250Y-59760250D03*
%TD*%
D13*
%TO.P,TP6,1,1*%
%TO.N,VBUS*%
X129400000Y-60400000D03*
%TD*%
D24*
%TO.P,Y1,1,OE*%
%TO.N,CLK_CTL*%
X111911250Y-56544750D03*
%TO.P,Y1,2,GND*%
%TO.N,GND*%
X111911250Y-54144750D03*
%TO.P,Y1,3,OUT*%
%TO.N,CLK*%
X113811250Y-54144750D03*
%TO.P,Y1,4,Vcc*%
%TO.N,+3V3*%
X113811250Y-56544750D03*
%TD*%
D18*
%TO.P,C25,1*%
%TO.N,GND*%
X115461250Y-52484750D03*
%TO.P,C25,2*%
%TO.N,+3V3*%
X115461250Y-53444750D03*
%TD*%
D17*
%TO.P,R9,1*%
%TO.N,+3V3*%
X122661250Y-53760250D03*
%TO.P,R9,2*%
%TO.N,CS*%
X121641250Y-53760250D03*
%TD*%
D16*
%TO.P,D2,1,K*%
%TO.N,Net-(D2-K)*%
X115961250Y-63860250D03*
%TO.P,D2,2,A*%
%TO.N,BLED*%
X114386250Y-63860250D03*
%TD*%
D11*
%TO.P,SW2,1,1*%
%TO.N,GND*%
X119125000Y-66300000D03*
%TO.P,SW2,2,2*%
%TO.N,RESET*%
X114975000Y-66300000D03*
%TD*%
D25*
%TO.P,U3,1,SDO*%
%TO.N,SDO*%
X119061250Y-56860250D03*
%TO.P,U3,2,ASDx*%
%TO.N,SDX*%
X118561250Y-56860250D03*
%TO.P,U3,3,ASCx*%
%TO.N,SCX*%
X118061250Y-56860250D03*
%TO.P,U3,4,INT1*%
%TO.N,INT1*%
X117561250Y-56860250D03*
D26*
%TO.P,U3,5,VDDIO*%
%TO.N,+3V3*%
X117398750Y-56197750D03*
%TO.P,U3,6,GND*%
%TO.N,GND*%
X117398750Y-55697750D03*
%TO.P,U3,7,RESV*%
%TO.N,unconnected-(U3-RESV-Pad7)*%
X117398750Y-55197750D03*
D25*
%TO.P,U3,8,VDD*%
%TO.N,+3V3*%
X117561250Y-54535250D03*
%TO.P,U3,9,INT2*%
%TO.N,CLK*%
X118061250Y-54535250D03*
%TO.P,U3,10,OCS*%
%TO.N,OCS*%
X118561250Y-54535250D03*
%TO.P,U3,11,OSDO*%
%TO.N,OSDO*%
X119061250Y-54535250D03*
D26*
%TO.P,U3,12,CS*%
%TO.N,CS*%
X119223750Y-55197750D03*
%TO.P,U3,13,SCx*%
%TO.N,SCL*%
X119223750Y-55697750D03*
%TO.P,U3,14,SDx*%
%TO.N,SDA*%
X119223750Y-56197750D03*
%TD*%
D27*
%TO.N,VDDH*%
X123700000Y-66500000D03*
%TO.N,GND*%
X115961250Y-55360250D03*
X123117598Y-59369628D03*
X111700000Y-50800000D03*
X128100000Y-50700000D03*
X130200000Y-51400000D03*
X129500000Y-51400000D03*
X115800000Y-60700000D03*
X110800000Y-59900000D03*
X128100000Y-51400000D03*
X115100000Y-61400000D03*
X128100000Y-54100000D03*
X130300000Y-64400000D03*
X110800000Y-61300000D03*
X127900000Y-63700000D03*
X111100000Y-63900000D03*
X116500000Y-60700000D03*
X115800000Y-61400000D03*
X115461250Y-58360250D03*
X118100000Y-66478502D03*
X122232165Y-66025000D03*
X110800000Y-59200000D03*
X129500000Y-50700000D03*
X128800000Y-51400000D03*
X116500000Y-61400000D03*
X128500000Y-64400000D03*
X111000000Y-52200000D03*
X110800000Y-60600000D03*
X111000000Y-51500000D03*
X112000000Y-55000000D03*
X115100000Y-60700000D03*
X130400000Y-54100000D03*
X126100000Y-64400000D03*
X128800000Y-50700000D03*
X117200000Y-60700000D03*
X112400000Y-64900000D03*
X111700000Y-51500000D03*
X125600000Y-63900000D03*
%TO.N,BAT+*%
X127600000Y-65900000D03*
X127600000Y-66600000D03*
X127600000Y-65200000D03*
%TO.N,VBUS*%
X128100000Y-61200000D03*
%TO.N,+3V3*%
X111800000Y-60000000D03*
X115979972Y-56206062D03*
X118100000Y-58300000D03*
X118750000Y-59750000D03*
%TO.N,BLED*%
X113200000Y-63900000D03*
%TO.N,SDO*%
X128050002Y-57100000D03*
%TO.N,SDA*%
X120200000Y-56060250D03*
%TO.N,CS*%
X121700000Y-52800000D03*
%TO.N,SCL*%
X120200000Y-55260247D03*
%TO.N,RESET*%
X126823972Y-67023972D03*
%TO.N,SW0*%
X126300000Y-65699000D03*
%TO.N,INT1*%
X115500000Y-56900000D03*
%TO.N,CLK_CTL*%
X119100000Y-52100000D03*
%TO.N,D+*%
X128700000Y-56100000D03*
%TO.N,D-*%
X128200000Y-59200000D03*
%TD*%
D28*
%TO.N,VDDH*%
X121361250Y-62741500D02*
X121361250Y-63961250D01*
X120304000Y-65018500D02*
X121361250Y-63961250D01*
X116840250Y-64236600D02*
X117622150Y-65018500D01*
X119038750Y-61054000D02*
X119038750Y-61084000D01*
X117461250Y-61631500D02*
X116840250Y-62252500D01*
X121361250Y-63961250D02*
X123700000Y-66300000D01*
X116840250Y-64100000D02*
X116840250Y-64236600D01*
X117622150Y-65018500D02*
X120304000Y-65018500D01*
X119038750Y-61084000D02*
X118461250Y-61661500D01*
X119673750Y-61054000D02*
X119038750Y-61054000D01*
X119673750Y-61554000D02*
X118568750Y-61554000D01*
X123700000Y-66300000D02*
X123700000Y-66500000D01*
X117491250Y-61661500D02*
X117461250Y-61631500D01*
X118568750Y-61554000D02*
X118461250Y-61661500D01*
X116840250Y-62252500D02*
X116840250Y-64100000D01*
X118461250Y-61661500D02*
X117491250Y-61661500D01*
%TO.N,GND*%
X115677500Y-52701000D02*
X119699000Y-52701000D01*
X116218750Y-58366250D02*
X116218750Y-58902750D01*
X116900000Y-66048000D02*
X115222750Y-64370750D01*
X118461250Y-64282600D02*
X118796150Y-64617500D01*
X124301000Y-65181250D02*
X124301000Y-66748943D01*
X123261250Y-58660250D02*
X123601250Y-58660250D01*
X123761250Y-62041500D02*
X122561250Y-62041500D01*
X116218750Y-58366250D02*
X115655250Y-58366250D01*
X120361250Y-62741500D02*
X120412250Y-62690500D01*
X123308165Y-67101000D02*
X122232165Y-66025000D01*
X115461250Y-58360250D02*
X116111250Y-59010250D01*
X120412250Y-62003000D02*
X121111250Y-61304000D01*
X112400000Y-64900000D02*
X114693500Y-64900000D01*
X116298750Y-55697750D02*
X115961250Y-55360250D01*
X118796150Y-64617500D02*
X119676350Y-64617500D01*
X116111250Y-59010250D02*
X116440250Y-59339250D01*
X118100000Y-66478502D02*
X117669498Y-66048000D01*
X113001250Y-58044750D02*
X112926750Y-58044750D01*
X115649250Y-58360250D02*
X115461250Y-58360250D01*
X115655250Y-58366250D02*
X115649250Y-58360250D01*
X115241250Y-62560250D02*
X115222750Y-62578750D01*
X121321250Y-58641500D02*
X122062750Y-57900000D01*
X123948943Y-67101000D02*
X123308165Y-67101000D01*
X111911250Y-53444750D02*
X111911250Y-54144750D01*
X115961250Y-55360250D02*
X115861250Y-55260250D01*
X121861250Y-62054000D02*
X121111250Y-61304000D01*
X121361250Y-61054000D02*
X121111250Y-61304000D01*
X124301000Y-66748943D02*
X123948943Y-67101000D01*
X120412250Y-62690500D02*
X120412250Y-62003000D01*
X123601250Y-58660250D02*
X124161250Y-58100250D01*
X122062750Y-57900000D02*
X122501000Y-57900000D01*
X117398750Y-55697750D02*
X116298750Y-55697750D01*
X119676350Y-64617500D02*
X120361250Y-63932600D01*
X118461250Y-62621500D02*
X118461250Y-64282600D01*
X122501000Y-57900000D02*
X123261250Y-58660250D01*
X121861250Y-62741500D02*
X121861250Y-62054000D01*
X119699000Y-52701000D02*
X121100000Y-51300000D01*
X112926750Y-58044750D02*
X112011250Y-58960250D01*
X121361250Y-59866500D02*
X121361250Y-61054000D01*
X115222750Y-62578750D02*
X115222750Y-64370750D01*
X115461250Y-52484750D02*
X112871250Y-52484750D01*
X121321250Y-59826500D02*
X121361250Y-59866500D01*
X120361250Y-63932600D02*
X120361250Y-62741500D01*
X115461250Y-52484750D02*
X115677500Y-52701000D01*
X112871250Y-52484750D02*
X111911250Y-53444750D01*
X121321250Y-58641500D02*
X121321250Y-59826500D01*
X121861250Y-62741500D02*
X124301000Y-65181250D01*
X122561250Y-62041500D02*
X122548750Y-62054000D01*
X117669498Y-66048000D02*
X116900000Y-66048000D01*
X122548750Y-62054000D02*
X121861250Y-62054000D01*
X114693500Y-64900000D02*
X115222750Y-64370750D01*
X116218750Y-58902750D02*
X116111250Y-59010250D01*
%TO.N,BAT+*%
X123288750Y-61554000D02*
X123761250Y-61081500D01*
X127600000Y-65200000D02*
X127600000Y-65900000D01*
X123733750Y-61054000D02*
X123761250Y-61081500D01*
X124372250Y-63872250D02*
X125599000Y-65099000D01*
X127600000Y-65900000D02*
X127600000Y-66600000D01*
X127499000Y-65099000D02*
X127600000Y-65200000D01*
X122548750Y-61554000D02*
X123288750Y-61554000D01*
X123761250Y-61081500D02*
X123761250Y-61460500D01*
X125599000Y-65099000D02*
X127499000Y-65099000D01*
X124372250Y-61714950D02*
X124372250Y-63872250D01*
X124117800Y-61460500D02*
X124372250Y-61714950D01*
X122548750Y-61054000D02*
X123733750Y-61054000D01*
X123761250Y-61460500D02*
X124117800Y-61460500D01*
%TO.N,VBUS*%
X124772250Y-58449250D02*
X124161250Y-59060250D01*
X127400000Y-61200000D02*
X125260250Y-59060250D01*
X128600000Y-61200000D02*
X128100000Y-61200000D01*
X128100000Y-61200000D02*
X127400000Y-61200000D01*
X121100000Y-57400000D02*
X124398550Y-57400000D01*
X120361250Y-58138750D02*
X121100000Y-57400000D01*
X120361250Y-59866500D02*
X120361250Y-58641500D01*
X125260250Y-59060250D02*
X124161250Y-59060250D01*
X129400000Y-60400000D02*
X128600000Y-61200000D01*
X124398550Y-57400000D02*
X124772250Y-57773700D01*
X120361250Y-58641500D02*
X120361250Y-58138750D01*
X124772250Y-57773700D02*
X124772250Y-58449250D01*
%TO.N,+3V3*%
X117102250Y-56197750D02*
X117398750Y-56197750D01*
X114061250Y-56544750D02*
X114061250Y-57944750D01*
X118033750Y-58366250D02*
X118100000Y-58300000D01*
X112910250Y-53459590D02*
X113269840Y-53100000D01*
X114061250Y-55844750D02*
X114061250Y-56544750D01*
X113091250Y-58914750D02*
X113961250Y-58044750D01*
X113091250Y-59160250D02*
X112639750Y-59160250D01*
X122900000Y-55700000D02*
X123710000Y-55700000D01*
X114061250Y-57944750D02*
X113961250Y-58044750D01*
X113269840Y-53100000D02*
X115116500Y-53100000D01*
X122271250Y-54150250D02*
X122661250Y-53760250D01*
X122539750Y-56060250D02*
X122071250Y-56060250D01*
X122071250Y-56060250D02*
X122071250Y-55160250D01*
X117178750Y-58366250D02*
X118033750Y-58366250D01*
X115800000Y-56197750D02*
X115398750Y-56197750D01*
X115370750Y-54535250D02*
X117561250Y-54535250D01*
X115398750Y-56197750D02*
X114553500Y-55352500D01*
X117093938Y-56206062D02*
X117102250Y-56197750D01*
X114061250Y-55844750D02*
X114553500Y-55352500D01*
X112639750Y-59160250D02*
X111800000Y-60000000D01*
X121948943Y-52199000D02*
X122661250Y-52911307D01*
X115979972Y-56206062D02*
X117093938Y-56206062D01*
X115979972Y-56206062D02*
X115808312Y-56206062D01*
X113091250Y-59160250D02*
X113091250Y-58914750D01*
X119361250Y-59070250D02*
X119361250Y-59138750D01*
X115116500Y-53100000D02*
X115461250Y-53444750D01*
X114076750Y-55860250D02*
X114061250Y-55844750D01*
X117178750Y-58366250D02*
X117178750Y-59042750D01*
X113811250Y-56544750D02*
X112910250Y-55643750D01*
X117178750Y-59042750D02*
X116882250Y-59339250D01*
X115461250Y-53444750D02*
X115706000Y-53200000D01*
X122271250Y-54960250D02*
X122271250Y-54150250D01*
X123710000Y-55700000D02*
X123800000Y-55790000D01*
X112910250Y-55643750D02*
X112910250Y-53459590D01*
X122900000Y-55700000D02*
X122539750Y-56060250D01*
X122071250Y-55160250D02*
X122271250Y-54960250D01*
X115706000Y-53200000D02*
X120450057Y-53200000D01*
X120450057Y-53200000D02*
X121451057Y-52199000D01*
X122661250Y-52911307D02*
X122661250Y-53760250D01*
X115808312Y-56206062D02*
X115800000Y-56197750D01*
X121451057Y-52199000D02*
X121948943Y-52199000D01*
X119361250Y-59138750D02*
X118750000Y-59750000D01*
X114553500Y-55352500D02*
X115370750Y-54535250D01*
%TO.N,Net-(D1-K)*%
X119236250Y-62491500D02*
X119673750Y-62054000D01*
X119236250Y-63841500D02*
X119236250Y-62491500D01*
%TO.N,Net-(D1-A)*%
X117661250Y-63841500D02*
X117661250Y-62851500D01*
X117661250Y-62851500D02*
X117461250Y-62651500D01*
%TO.N,BLED*%
X114386250Y-63860250D02*
X113239750Y-63860250D01*
X113239750Y-63860250D02*
X113200000Y-63900000D01*
%TO.N,Net-(D2-K)*%
X115961250Y-62860250D02*
X116261250Y-62560250D01*
X115961250Y-63860250D02*
X115961250Y-62860250D01*
%TO.N,Net-(U2-TS)*%
X122548750Y-60554000D02*
X122673750Y-60429000D01*
X123751000Y-60429000D02*
X124080000Y-60100000D01*
X122673750Y-60429000D02*
X123751000Y-60429000D01*
%TO.N,SDO*%
X127890000Y-56810000D02*
X123800000Y-56810000D01*
X119174250Y-56810000D02*
X123800000Y-56810000D01*
X128050002Y-56970002D02*
X127890000Y-56810000D01*
X128050002Y-57100000D02*
X128050002Y-56970002D01*
X119124000Y-56860250D02*
X119174250Y-56810000D01*
%TO.N,SDA*%
X120106497Y-56060250D02*
X120200000Y-56060250D01*
X119286250Y-56260250D02*
X119223750Y-56197750D01*
X120106497Y-56060250D02*
X120091529Y-56075218D01*
X120091529Y-56078501D02*
X119909780Y-56260250D01*
X120200000Y-56060250D02*
X121051250Y-56060250D01*
X120091529Y-56075218D02*
X120091529Y-56078501D01*
X119909780Y-56260250D02*
X119286250Y-56260250D01*
%TO.N,CS*%
X119223750Y-55197750D02*
X119323750Y-55197750D01*
X121641250Y-53760250D02*
X121641250Y-52858750D01*
X121641250Y-53760250D02*
X120767748Y-53760250D01*
X121641250Y-52858750D02*
X121700000Y-52800000D01*
X119661250Y-54060250D02*
X119661250Y-54860250D01*
X120761248Y-53753750D02*
X119967750Y-53753750D01*
X119323750Y-55197750D02*
X119661250Y-54860250D01*
X119967750Y-53753750D02*
X119661250Y-54060250D01*
X120767748Y-53760250D02*
X120761248Y-53753750D01*
%TO.N,SCL*%
X120200000Y-55260247D02*
X120460253Y-55260247D01*
X120460253Y-55260247D02*
X120760250Y-54960250D01*
X119223750Y-55697750D02*
X119712557Y-55697750D01*
X120150060Y-55260247D02*
X120200000Y-55260247D01*
X119712557Y-55697750D02*
X120150060Y-55260247D01*
X120760250Y-54960250D02*
X121251250Y-54960250D01*
%TO.N,RESET*%
X126823972Y-67023972D02*
X126345943Y-67502000D01*
X126345943Y-67502000D02*
X116177000Y-67502000D01*
X126900000Y-66947943D02*
X126900000Y-66600000D01*
X126823972Y-67023972D02*
X126900000Y-66947943D01*
X116177000Y-67502000D02*
X114975000Y-66300000D01*
%TO.N,SW0*%
X125375000Y-66300000D02*
X125699000Y-66300000D01*
X125699000Y-66300000D02*
X126300000Y-65699000D01*
%TO.N,INT1*%
X117561250Y-56860250D02*
X115539750Y-56860250D01*
X115539750Y-56860250D02*
X115500000Y-56900000D01*
%TO.N,SDX*%
X118723000Y-57760250D02*
X118723000Y-58830384D01*
X119361250Y-58050250D02*
X119013000Y-58050250D01*
X118561250Y-57598500D02*
X118561250Y-56860250D01*
X119013000Y-58050250D02*
X118723000Y-57760250D01*
X118723000Y-58830384D02*
X117772134Y-59781250D01*
X118723000Y-57760250D02*
X118561250Y-57598500D01*
X117772134Y-59781250D02*
X116882250Y-59781250D01*
%TO.N,CLK*%
X118061250Y-54070750D02*
X117987250Y-53996750D01*
X113821750Y-54134250D02*
X113811250Y-54144750D01*
X115803250Y-53996750D02*
X115665750Y-54134250D01*
X115665750Y-54134250D02*
X113821750Y-54134250D01*
X118061250Y-54535250D02*
X118061250Y-54070750D01*
X117987250Y-53996750D02*
X115803250Y-53996750D01*
%TO.N,SCX*%
X118061250Y-57324750D02*
X118061250Y-56860250D01*
X116440250Y-59781250D02*
X116361250Y-59860250D01*
X115961250Y-59860250D02*
X114961250Y-58860250D01*
X115021500Y-57700000D02*
X117686000Y-57700000D01*
X114661250Y-59160250D02*
X114961250Y-58860250D01*
X114961250Y-58860250D02*
X114761250Y-58660250D01*
X114761250Y-57960250D02*
X115021500Y-57700000D01*
X114661250Y-59160250D02*
X114111250Y-59160250D01*
X114761250Y-58660250D02*
X114761250Y-57960250D01*
X116361250Y-59860250D02*
X115961250Y-59860250D01*
X117686000Y-57700000D02*
X118061250Y-57324750D01*
%TO.N,CLK_CTL*%
X112566090Y-51903750D02*
X118903750Y-51903750D01*
X110834920Y-53634920D02*
X110834920Y-55468420D01*
X110834920Y-53634920D02*
X112566090Y-51903750D01*
X110834920Y-55468420D02*
X111911250Y-56544750D01*
X118903750Y-51903750D02*
X119100000Y-52100000D01*
%TO.N,Net-(U2-ISET)*%
X121861250Y-59040250D02*
X122241250Y-58660250D01*
X121861250Y-59866500D02*
X121861250Y-59040250D01*
%TO.N,D+*%
X128700000Y-56100000D02*
X129400000Y-55400000D01*
X129400000Y-55400000D02*
X129400000Y-55340000D01*
%TO.N,D-*%
X129400000Y-57900000D02*
X129400000Y-58000000D01*
X129400000Y-58000000D02*
X128200000Y-59200000D01*
%TD*%
%TA.AperFunction,Conductor*%
%TO.N,GND*%
G36*
X110705703Y-56188884D02*
G01*
X110712181Y-56194916D01*
X110774431Y-56257166D01*
X110807916Y-56318489D01*
X110810750Y-56344847D01*
X110810750Y-57044751D01*
X110810751Y-57044769D01*
X110821250Y-57147546D01*
X110821251Y-57147549D01*
X110872904Y-57303426D01*
X110876436Y-57314084D01*
X110968538Y-57463406D01*
X111092594Y-57587462D01*
X111241916Y-57679564D01*
X111408453Y-57734749D01*
X111511241Y-57745250D01*
X112311258Y-57745249D01*
X112311266Y-57745248D01*
X112311269Y-57745248D01*
X112367552Y-57739498D01*
X112414047Y-57734749D01*
X112580584Y-57679564D01*
X112729906Y-57587462D01*
X112773569Y-57543799D01*
X112834892Y-57510314D01*
X112904584Y-57515298D01*
X112933781Y-57530906D01*
X112941875Y-57536743D01*
X112992594Y-57587462D01*
X113128088Y-57671034D01*
X113131717Y-57673652D01*
X113150514Y-57697851D01*
X113171007Y-57720635D01*
X113171889Y-57725369D01*
X113174578Y-57728831D01*
X113176464Y-57749928D01*
X113182804Y-57783952D01*
X113180750Y-57810047D01*
X113180750Y-57924652D01*
X113161065Y-57991691D01*
X113144431Y-58012333D01*
X112819547Y-58337216D01*
X112766461Y-58368611D01*
X112701861Y-58387379D01*
X112701858Y-58387380D01*
X112563654Y-58469113D01*
X112563650Y-58469116D01*
X112464419Y-58568347D01*
X112415159Y-58596788D01*
X112415479Y-58597560D01*
X112409619Y-58599987D01*
X112408841Y-58600437D01*
X112407973Y-58600669D01*
X112407963Y-58600673D01*
X112375755Y-58619268D01*
X112375756Y-58619269D01*
X112271037Y-58679727D01*
X112271032Y-58679731D01*
X111785339Y-59165425D01*
X111724016Y-59198910D01*
X111721850Y-59199361D01*
X111566508Y-59230261D01*
X111566498Y-59230264D01*
X111420827Y-59290602D01*
X111420814Y-59290609D01*
X111289711Y-59378210D01*
X111289707Y-59378213D01*
X111178213Y-59489707D01*
X111178210Y-59489711D01*
X111090609Y-59620814D01*
X111090602Y-59620827D01*
X111030264Y-59766498D01*
X111030261Y-59766510D01*
X110999500Y-59921153D01*
X110999500Y-60078846D01*
X111030261Y-60233489D01*
X111030264Y-60233501D01*
X111090602Y-60379172D01*
X111090609Y-60379185D01*
X111178210Y-60510288D01*
X111178213Y-60510292D01*
X111289707Y-60621786D01*
X111289711Y-60621789D01*
X111420814Y-60709390D01*
X111420827Y-60709397D01*
X111566498Y-60769735D01*
X111566503Y-60769737D01*
X111721153Y-60800499D01*
X111721156Y-60800500D01*
X111721158Y-60800500D01*
X111878844Y-60800500D01*
X111878845Y-60800499D01*
X112033497Y-60769737D01*
X112179179Y-60709394D01*
X112310289Y-60621789D01*
X112421789Y-60510289D01*
X112509394Y-60379179D01*
X112569737Y-60233497D01*
X112600500Y-60078842D01*
X112600500Y-60078839D01*
X112600637Y-60078151D01*
X112609402Y-60061394D01*
X112613422Y-60042915D01*
X112632162Y-60017880D01*
X112633021Y-60016240D01*
X112634532Y-60014701D01*
X112661052Y-59988182D01*
X112722374Y-59954698D01*
X112783325Y-59956787D01*
X112856046Y-59977915D01*
X112892069Y-59980750D01*
X113290430Y-59980749D01*
X113326454Y-59977915D01*
X113480643Y-59933119D01*
X113538132Y-59899119D01*
X113605852Y-59881938D01*
X113664367Y-59899119D01*
X113721857Y-59933119D01*
X113721860Y-59933119D01*
X113721862Y-59933121D01*
X113876041Y-59977914D01*
X113876044Y-59977914D01*
X113876046Y-59977915D01*
X113912069Y-59980750D01*
X114310430Y-59980749D01*
X114346454Y-59977915D01*
X114500643Y-59933119D01*
X114638848Y-59851385D01*
X114702027Y-59788205D01*
X114715913Y-59780188D01*
X114725169Y-59770007D01*
X114757608Y-59756115D01*
X114885839Y-59721755D01*
X114955688Y-59723418D01*
X115005613Y-59753849D01*
X115592534Y-60340770D01*
X115592536Y-60340771D01*
X115592540Y-60340774D01*
X115729459Y-60419823D01*
X115729462Y-60419825D01*
X115729466Y-60419827D01*
X115882193Y-60460751D01*
X115882195Y-60460751D01*
X116047904Y-60460751D01*
X116047920Y-60460750D01*
X116274581Y-60460750D01*
X116274597Y-60460751D01*
X116282193Y-60460751D01*
X116440304Y-60460751D01*
X116440307Y-60460751D01*
X116593035Y-60419827D01*
X116656027Y-60383458D01*
X116682050Y-60377144D01*
X116706974Y-60367338D01*
X116719664Y-60368018D01*
X116723924Y-60366985D01*
X116742212Y-60369227D01*
X116793536Y-60379436D01*
X116801436Y-60381279D01*
X116803193Y-60381750D01*
X117685465Y-60381750D01*
X117685481Y-60381751D01*
X117693077Y-60381751D01*
X117851188Y-60381751D01*
X117851191Y-60381751D01*
X118003919Y-60340827D01*
X118051374Y-60313428D01*
X118119272Y-60296955D01*
X118185299Y-60319806D01*
X118201055Y-60333134D01*
X118239707Y-60371786D01*
X118239711Y-60371789D01*
X118370814Y-60459390D01*
X118370827Y-60459397D01*
X118496677Y-60511525D01*
X118509997Y-60522258D01*
X118525879Y-60528617D01*
X118536637Y-60543726D01*
X118551081Y-60555365D01*
X118556483Y-60571597D01*
X118566406Y-60585532D01*
X118567288Y-60604059D01*
X118573146Y-60621659D01*
X118568932Y-60638587D01*
X118569729Y-60655322D01*
X118556611Y-60688088D01*
X118525409Y-60742129D01*
X118505705Y-60767807D01*
X118428834Y-60844680D01*
X118367512Y-60878166D01*
X118341152Y-60881000D01*
X118226552Y-60881000D01*
X118190258Y-60883856D01*
X118190252Y-60883857D01*
X118027364Y-60931182D01*
X118026981Y-60929863D01*
X117965870Y-60937397D01*
X117922866Y-60921772D01*
X117900650Y-60908634D01*
X117900641Y-60908630D01*
X117746458Y-60863835D01*
X117746452Y-60863834D01*
X117710431Y-60861000D01*
X117212080Y-60861000D01*
X117212058Y-60861001D01*
X117176044Y-60863835D01*
X117021861Y-60908629D01*
X117021856Y-60908631D01*
X116883654Y-60990363D01*
X116883646Y-60990369D01*
X116770119Y-61103896D01*
X116770113Y-61103904D01*
X116688381Y-61242106D01*
X116688379Y-61242111D01*
X116643585Y-61396291D01*
X116643584Y-61396297D01*
X116640750Y-61432311D01*
X116640750Y-61551402D01*
X116632105Y-61580839D01*
X116625582Y-61610830D01*
X116621826Y-61615846D01*
X116621065Y-61618441D01*
X116604435Y-61639078D01*
X116562994Y-61680520D01*
X116540082Y-61703432D01*
X116478758Y-61736916D01*
X116452401Y-61739750D01*
X116062080Y-61739750D01*
X116062058Y-61739751D01*
X116026044Y-61742585D01*
X115871861Y-61787379D01*
X115871856Y-61787381D01*
X115733654Y-61869113D01*
X115733646Y-61869119D01*
X115620119Y-61982646D01*
X115620113Y-61982654D01*
X115538381Y-62120856D01*
X115538379Y-62120861D01*
X115493585Y-62275041D01*
X115493584Y-62275047D01*
X115490750Y-62311061D01*
X115490750Y-62440952D01*
X115486600Y-62456439D01*
X115487255Y-62470185D01*
X115474138Y-62502951D01*
X115434019Y-62572441D01*
X115434018Y-62572442D01*
X115401673Y-62628464D01*
X115401673Y-62628465D01*
X115360749Y-62781193D01*
X115360749Y-62781195D01*
X115360749Y-62925194D01*
X115341064Y-62992233D01*
X115318316Y-63018590D01*
X115310577Y-63025348D01*
X115293359Y-63035969D01*
X115258482Y-63070845D01*
X115255316Y-63073611D01*
X115227241Y-63086564D01*
X115200105Y-63101382D01*
X115195795Y-63101073D01*
X115191874Y-63102883D01*
X115161257Y-63098602D01*
X115130414Y-63096396D01*
X115126227Y-63093705D01*
X115122677Y-63093209D01*
X115114451Y-63086137D01*
X115086068Y-63067896D01*
X115054141Y-63035969D01*
X115054137Y-63035966D01*
X114911045Y-62947705D01*
X114911039Y-62947702D01*
X114911037Y-62947701D01*
X114751435Y-62894814D01*
X114751433Y-62894813D01*
X114652931Y-62884750D01*
X114652924Y-62884750D01*
X114119576Y-62884750D01*
X114119568Y-62884750D01*
X114021066Y-62894813D01*
X114021065Y-62894814D01*
X113941969Y-62921023D01*
X113861465Y-62947700D01*
X113861454Y-62947705D01*
X113718362Y-63035966D01*
X113626835Y-63127493D01*
X113565511Y-63160977D01*
X113495820Y-63155993D01*
X113491702Y-63154372D01*
X113433498Y-63130263D01*
X113433488Y-63130260D01*
X113278845Y-63099500D01*
X113278842Y-63099500D01*
X113121158Y-63099500D01*
X113121155Y-63099500D01*
X112966510Y-63130261D01*
X112966498Y-63130264D01*
X112820827Y-63190602D01*
X112820814Y-63190609D01*
X112689711Y-63278210D01*
X112689707Y-63278213D01*
X112578213Y-63389707D01*
X112578210Y-63389711D01*
X112490609Y-63520814D01*
X112490602Y-63520827D01*
X112430264Y-63666498D01*
X112430261Y-63666510D01*
X112399500Y-63821153D01*
X112399500Y-63978846D01*
X112430261Y-64133489D01*
X112430264Y-64133501D01*
X112490602Y-64279172D01*
X112490609Y-64279185D01*
X112578210Y-64410288D01*
X112578213Y-64410292D01*
X112689707Y-64521786D01*
X112689711Y-64521789D01*
X112820814Y-64609390D01*
X112820827Y-64609397D01*
X112909556Y-64646149D01*
X112966503Y-64669737D01*
X113121153Y-64700499D01*
X113121156Y-64700500D01*
X113121158Y-64700500D01*
X113278844Y-64700500D01*
X113278845Y-64700499D01*
X113433497Y-64669737D01*
X113490444Y-64646149D01*
X113547918Y-64622343D01*
X113617387Y-64614874D01*
X113679866Y-64646149D01*
X113683051Y-64649223D01*
X113718358Y-64684530D01*
X113718362Y-64684533D01*
X113861454Y-64772794D01*
X113861457Y-64772795D01*
X113861463Y-64772799D01*
X113941911Y-64799457D01*
X113999356Y-64839228D01*
X114026179Y-64903744D01*
X114013864Y-64972520D01*
X113977220Y-65016427D01*
X113942454Y-65042453D01*
X113942452Y-65042455D01*
X113856206Y-65157664D01*
X113856202Y-65157671D01*
X113805908Y-65292517D01*
X113799501Y-65352116D01*
X113799501Y-65352123D01*
X113799500Y-65352135D01*
X113799500Y-67247870D01*
X113799501Y-67247876D01*
X113805909Y-67307485D01*
X113815115Y-67332168D01*
X113820099Y-67401860D01*
X113786613Y-67463182D01*
X113725289Y-67496667D01*
X113698933Y-67499500D01*
X111258676Y-67499500D01*
X111191637Y-67479815D01*
X111170995Y-67463181D01*
X110536819Y-66829005D01*
X110503334Y-66767682D01*
X110500500Y-66741324D01*
X110500500Y-56282597D01*
X110520185Y-56215558D01*
X110572989Y-56169803D01*
X110642147Y-56159859D01*
X110705703Y-56188884D01*
G37*
%TD.AperFunction*%
%TA.AperFunction,Conductor*%
G36*
X125033061Y-59687842D02*
G01*
X125057713Y-59706948D01*
X126915139Y-61564374D01*
X126915149Y-61564385D01*
X126919479Y-61568715D01*
X126919480Y-61568716D01*
X127031284Y-61680520D01*
X127031286Y-61680521D01*
X127031290Y-61680524D01*
X127168209Y-61759573D01*
X127168216Y-61759577D01*
X127266022Y-61785784D01*
X127266021Y-61785784D01*
X127271982Y-61787381D01*
X127320942Y-61800500D01*
X127320943Y-61800500D01*
X127520234Y-61800500D01*
X127587273Y-61820185D01*
X127589125Y-61821398D01*
X127720814Y-61909390D01*
X127720827Y-61909397D01*
X127866498Y-61969735D01*
X127866503Y-61969737D01*
X128021153Y-62000499D01*
X128021156Y-62000500D01*
X128021158Y-62000500D01*
X128178844Y-62000500D01*
X128178845Y-62000499D01*
X128333497Y-61969737D01*
X128479179Y-61909394D01*
X128558278Y-61856542D01*
X128610873Y-61821399D01*
X128671124Y-61802532D01*
X128670997Y-61801562D01*
X128676568Y-61800828D01*
X128677550Y-61800521D01*
X128679002Y-61800507D01*
X128679054Y-61800501D01*
X128679057Y-61800501D01*
X128831785Y-61759577D01*
X128881904Y-61730639D01*
X128968716Y-61680520D01*
X129003339Y-61645896D01*
X129012478Y-61639558D01*
X129035496Y-61631909D01*
X129056788Y-61620283D01*
X129071775Y-61619854D01*
X129078784Y-61617526D01*
X129086270Y-61619440D01*
X129102546Y-61618976D01*
X129301578Y-61650500D01*
X129301583Y-61650500D01*
X129498422Y-61650500D01*
X129692826Y-61619709D01*
X129696728Y-61618441D01*
X129880025Y-61558884D01*
X130055405Y-61469524D01*
X130214646Y-61353828D01*
X130287819Y-61280655D01*
X130349142Y-61247170D01*
X130418834Y-61252154D01*
X130474767Y-61294026D01*
X130499184Y-61359490D01*
X130499500Y-61368336D01*
X130499500Y-66741324D01*
X130479815Y-66808363D01*
X130463181Y-66829005D01*
X129829005Y-67463181D01*
X129767682Y-67496666D01*
X129741324Y-67499500D01*
X128103439Y-67499500D01*
X128036400Y-67479815D01*
X127990645Y-67427011D01*
X127980701Y-67357853D01*
X128009726Y-67294297D01*
X128034548Y-67272398D01*
X128071256Y-67247870D01*
X128110289Y-67221789D01*
X128221789Y-67110289D01*
X128309394Y-66979179D01*
X128369737Y-66833497D01*
X128400500Y-66678842D01*
X128400500Y-66521158D01*
X128400500Y-66521155D01*
X128400499Y-66521153D01*
X128369737Y-66366503D01*
X128341134Y-66297450D01*
X128333666Y-66227984D01*
X128341133Y-66202552D01*
X128369737Y-66133497D01*
X128400500Y-65978842D01*
X128400500Y-65821158D01*
X128400500Y-65821155D01*
X128400499Y-65821153D01*
X128369738Y-65666510D01*
X128369737Y-65666503D01*
X128341134Y-65597450D01*
X128333666Y-65527984D01*
X128341133Y-65502552D01*
X128369737Y-65433497D01*
X128400500Y-65278842D01*
X128400500Y-65121158D01*
X128400500Y-65121155D01*
X128400499Y-65121153D01*
X128384845Y-65042455D01*
X128369737Y-64966503D01*
X128351350Y-64922113D01*
X128309397Y-64820827D01*
X128309390Y-64820814D01*
X128221789Y-64689711D01*
X128221786Y-64689707D01*
X128110292Y-64578213D01*
X128110288Y-64578210D01*
X127979185Y-64490609D01*
X127979172Y-64490602D01*
X127833501Y-64430264D01*
X127833489Y-64430261D01*
X127678845Y-64399500D01*
X127678842Y-64399500D01*
X127521158Y-64399500D01*
X127521155Y-64399500D01*
X127366510Y-64430261D01*
X127366498Y-64430264D01*
X127224550Y-64489061D01*
X127177098Y-64498500D01*
X125899097Y-64498500D01*
X125832058Y-64478815D01*
X125811416Y-64462181D01*
X125009069Y-63659834D01*
X124975584Y-63598511D01*
X124972750Y-63572153D01*
X124972750Y-61804010D01*
X124972751Y-61803997D01*
X124972751Y-61635894D01*
X124968218Y-61618976D01*
X124931827Y-61483166D01*
X124915334Y-61454599D01*
X124852774Y-61346240D01*
X124852768Y-61346232D01*
X124615761Y-61109226D01*
X124608062Y-61101527D01*
X124588645Y-61065962D01*
X124574584Y-61040210D01*
X124574583Y-61040204D01*
X124574582Y-61040202D01*
X124574582Y-61040195D01*
X124571750Y-61013852D01*
X124571750Y-60878345D01*
X124591435Y-60811306D01*
X124608064Y-60790668D01*
X124721135Y-60677598D01*
X124802869Y-60539393D01*
X124843512Y-60399500D01*
X124847664Y-60385208D01*
X124847665Y-60385202D01*
X124847974Y-60381280D01*
X124850500Y-60349181D01*
X124850499Y-59850820D01*
X124847665Y-59814796D01*
X124847664Y-59814795D01*
X124847168Y-59808480D01*
X124848956Y-59808339D01*
X124855362Y-59747439D01*
X124899079Y-59692935D01*
X124965322Y-59670718D01*
X125033061Y-59687842D01*
G37*
%TD.AperFunction*%
%TA.AperFunction,Conductor*%
G36*
X116571047Y-64816633D02*
G01*
X117253434Y-65499020D01*
X117253436Y-65499021D01*
X117253440Y-65499024D01*
X117390359Y-65578073D01*
X117390366Y-65578077D01*
X117543093Y-65619001D01*
X117543095Y-65619001D01*
X117708804Y-65619001D01*
X117708820Y-65619000D01*
X120217331Y-65619000D01*
X120217347Y-65619001D01*
X120224943Y-65619001D01*
X120383054Y-65619001D01*
X120383057Y-65619001D01*
X120535785Y-65578077D01*
X120585904Y-65549139D01*
X120672716Y-65499020D01*
X120784520Y-65387216D01*
X120784520Y-65387214D01*
X120794728Y-65377007D01*
X120794729Y-65377004D01*
X121273572Y-64898162D01*
X121334891Y-64864680D01*
X121404583Y-64869664D01*
X121448930Y-64898165D01*
X122864649Y-66313884D01*
X122898134Y-66375207D01*
X122898490Y-66414937D01*
X122900097Y-66415096D01*
X122899500Y-66421158D01*
X122899500Y-66578846D01*
X122930261Y-66733489D01*
X122932031Y-66739324D01*
X122929902Y-66739969D01*
X122936301Y-66799524D01*
X122905023Y-66862001D01*
X122844932Y-66897650D01*
X122814273Y-66901500D01*
X116477098Y-66901500D01*
X116410059Y-66881815D01*
X116389417Y-66865181D01*
X116186818Y-66662582D01*
X116153333Y-66601259D01*
X116150499Y-66574901D01*
X116150499Y-65352129D01*
X116150498Y-65352123D01*
X116150497Y-65352116D01*
X116144091Y-65292517D01*
X116138991Y-65278844D01*
X116093797Y-65157671D01*
X116093793Y-65157664D01*
X116002232Y-65035355D01*
X116004856Y-65033390D01*
X115979038Y-64986108D01*
X115984022Y-64916416D01*
X116025894Y-64860483D01*
X116091358Y-64836066D01*
X116100204Y-64835750D01*
X116227919Y-64835750D01*
X116227924Y-64835750D01*
X116326435Y-64825686D01*
X116444364Y-64786607D01*
X116514190Y-64784206D01*
X116571047Y-64816633D01*
G37*
%TD.AperFunction*%
%TA.AperFunction,Conductor*%
G36*
X123719670Y-62082298D02*
G01*
X123762864Y-62137216D01*
X123771750Y-62183311D01*
X123771750Y-63785580D01*
X123771749Y-63785598D01*
X123771749Y-63951304D01*
X123771748Y-63951304D01*
X123771749Y-63951307D01*
X123812673Y-64104035D01*
X123812674Y-64104037D01*
X123812673Y-64104037D01*
X123828692Y-64131781D01*
X123828694Y-64131783D01*
X123828695Y-64131785D01*
X123836714Y-64145674D01*
X123891729Y-64240965D01*
X124010599Y-64359835D01*
X124010605Y-64359840D01*
X124441863Y-64791098D01*
X124475348Y-64852421D01*
X124470364Y-64922113D01*
X124428494Y-64978044D01*
X124342454Y-65042454D01*
X124342453Y-65042455D01*
X124342452Y-65042456D01*
X124256206Y-65157664D01*
X124256202Y-65157671D01*
X124205908Y-65292517D01*
X124199501Y-65352116D01*
X124199501Y-65352123D01*
X124199500Y-65352135D01*
X124199500Y-65650903D01*
X124179815Y-65717942D01*
X124127011Y-65763697D01*
X124057853Y-65773641D01*
X123994297Y-65744616D01*
X123987819Y-65738584D01*
X121998069Y-63748834D01*
X121964584Y-63687511D01*
X121961750Y-63661153D01*
X121961750Y-63313507D01*
X121971190Y-63266051D01*
X121972259Y-63263472D01*
X121986750Y-63153401D01*
X121986749Y-62329600D01*
X121985085Y-62316959D01*
X121995851Y-62247925D01*
X122042231Y-62195669D01*
X122109499Y-62176784D01*
X122124209Y-62177836D01*
X122125195Y-62177965D01*
X122136849Y-62179500D01*
X122960650Y-62179499D01*
X122960653Y-62179499D01*
X123070713Y-62165011D01*
X123070716Y-62165009D01*
X123070722Y-62165009D01*
X123073308Y-62163938D01*
X123081483Y-62162311D01*
X123085823Y-62159523D01*
X123120758Y-62154500D01*
X123202081Y-62154500D01*
X123202097Y-62154501D01*
X123209693Y-62154501D01*
X123367804Y-62154501D01*
X123367807Y-62154501D01*
X123520535Y-62113577D01*
X123574238Y-62082571D01*
X123585745Y-62075927D01*
X123653641Y-62059451D01*
X123719670Y-62082298D01*
G37*
%TD.AperFunction*%
%TA.AperFunction,Conductor*%
G36*
X120379453Y-63499042D02*
G01*
X120396622Y-63517265D01*
X120397214Y-63518036D01*
X120514821Y-63608279D01*
X120514822Y-63608279D01*
X120514823Y-63608280D01*
X120590972Y-63639822D01*
X120645375Y-63683663D01*
X120667440Y-63749957D01*
X120650161Y-63817656D01*
X120631200Y-63842064D01*
X120385931Y-64087333D01*
X120324608Y-64120818D01*
X120254916Y-64115834D01*
X120198983Y-64073962D01*
X120174566Y-64008498D01*
X120174250Y-63999652D01*
X120174250Y-63592755D01*
X120193935Y-63525716D01*
X120246739Y-63479961D01*
X120315897Y-63470017D01*
X120379453Y-63499042D01*
G37*
%TD.AperFunction*%
%TA.AperFunction,Conductor*%
G36*
X118520431Y-62444549D02*
G01*
X118529388Y-62443261D01*
X118553432Y-62454239D01*
X118578788Y-62461685D01*
X118584712Y-62468521D01*
X118592945Y-62472281D01*
X118607238Y-62494518D01*
X118624543Y-62514489D01*
X118626829Y-62524997D01*
X118630724Y-62531057D01*
X118635749Y-62565991D01*
X118635750Y-62580550D01*
X118635750Y-62906444D01*
X118616065Y-62973483D01*
X118576849Y-63011981D01*
X118568361Y-63017216D01*
X118568357Y-63017219D01*
X118536431Y-63049146D01*
X118529983Y-63052666D01*
X118525742Y-63058667D01*
X118499729Y-63069186D01*
X118475108Y-63082631D01*
X118467780Y-63082106D01*
X118460968Y-63084862D01*
X118433397Y-63079648D01*
X118405416Y-63077647D01*
X118397841Y-63072923D01*
X118392316Y-63071879D01*
X118369227Y-63055081D01*
X118363495Y-63051507D01*
X118362253Y-63050331D01*
X118329141Y-63017219D01*
X118323807Y-63013929D01*
X118314525Y-63005140D01*
X118303112Y-62985531D01*
X118287945Y-62968660D01*
X118285874Y-62955914D01*
X118279378Y-62944753D01*
X118280378Y-62922088D01*
X118276740Y-62899694D01*
X118277799Y-62892814D01*
X118278915Y-62886704D01*
X118281749Y-62850688D01*
X118281750Y-62850681D01*
X118281749Y-62565999D01*
X118301433Y-62498961D01*
X118354237Y-62453206D01*
X118405749Y-62442000D01*
X118511749Y-62442000D01*
X118520431Y-62444549D01*
G37*
%TD.AperFunction*%
%TA.AperFunction,Conductor*%
G36*
X121373596Y-60652816D02*
G01*
X121396732Y-60652923D01*
X121414770Y-60661261D01*
X121419377Y-60662206D01*
X121425944Y-60666426D01*
X121428769Y-60667732D01*
X121432857Y-60670385D01*
X121514821Y-60733279D01*
X121556034Y-60750350D01*
X121565580Y-60756547D01*
X121611091Y-60809561D01*
X121621000Y-60876738D01*
X121610750Y-60954597D01*
X121610750Y-61153403D01*
X121625239Y-61263468D01*
X121627344Y-61271322D01*
X121624064Y-61272200D01*
X121629831Y-61326073D01*
X121626767Y-61336522D01*
X121627345Y-61336677D01*
X121625240Y-61344529D01*
X121610750Y-61454598D01*
X121610750Y-61653400D01*
X121612415Y-61666045D01*
X121601646Y-61735080D01*
X121555263Y-61787333D01*
X121487993Y-61806215D01*
X121473296Y-61805164D01*
X121460651Y-61803500D01*
X121261846Y-61803500D01*
X121151781Y-61817989D01*
X121143928Y-61820094D01*
X121143052Y-61816824D01*
X121089103Y-61822567D01*
X121078727Y-61819518D01*
X121078573Y-61820095D01*
X121070720Y-61817990D01*
X120960651Y-61803500D01*
X120761848Y-61803500D01*
X120749203Y-61805165D01*
X120680168Y-61794395D01*
X120627915Y-61748012D01*
X120609034Y-61680742D01*
X120610086Y-61666039D01*
X120611750Y-61653401D01*
X120611749Y-61454600D01*
X120597259Y-61344528D01*
X120597258Y-61344525D01*
X120595155Y-61336674D01*
X120598457Y-61335789D01*
X120592642Y-61282075D01*
X120595751Y-61271485D01*
X120595155Y-61271326D01*
X120597258Y-61263475D01*
X120597258Y-61263474D01*
X120597259Y-61263472D01*
X120611750Y-61153401D01*
X120611749Y-60954600D01*
X120610085Y-60941959D01*
X120620851Y-60872925D01*
X120667231Y-60820669D01*
X120734499Y-60801784D01*
X120749209Y-60802836D01*
X120750195Y-60802965D01*
X120761849Y-60804500D01*
X120960650Y-60804499D01*
X120960653Y-60804499D01*
X121070713Y-60790011D01*
X121070717Y-60790009D01*
X121070722Y-60790009D01*
X121207679Y-60733279D01*
X121285765Y-60673360D01*
X121307343Y-60665019D01*
X121326863Y-60652601D01*
X121339316Y-60652658D01*
X121350932Y-60648168D01*
X121373596Y-60652816D01*
G37*
%TD.AperFunction*%
%TA.AperFunction,Conductor*%
G36*
X124114789Y-58020185D02*
G01*
X124160544Y-58072989D01*
X124171750Y-58124500D01*
X124171750Y-58149153D01*
X124163105Y-58178593D01*
X124156582Y-58208580D01*
X124152827Y-58213595D01*
X124152065Y-58216192D01*
X124135431Y-58236834D01*
X124128834Y-58243431D01*
X124067511Y-58276916D01*
X124041153Y-58279750D01*
X123926552Y-58279750D01*
X123890258Y-58282606D01*
X123890252Y-58282607D01*
X123734859Y-58327754D01*
X123734856Y-58327755D01*
X123595565Y-58410131D01*
X123595557Y-58410137D01*
X123481137Y-58524557D01*
X123481131Y-58524565D01*
X123398755Y-58663856D01*
X123398754Y-58663859D01*
X123353607Y-58819252D01*
X123353606Y-58819258D01*
X123350750Y-58855552D01*
X123350750Y-59264947D01*
X123353606Y-59301241D01*
X123353607Y-59301247D01*
X123398754Y-59456640D01*
X123398756Y-59456645D01*
X123400925Y-59460313D01*
X123401748Y-59463560D01*
X123401853Y-59463801D01*
X123401814Y-59463817D01*
X123402311Y-59465780D01*
X123406080Y-59469980D01*
X123410810Y-59499279D01*
X123418106Y-59528038D01*
X123416553Y-59534849D01*
X123417216Y-59538956D01*
X123412428Y-59552943D01*
X123407859Y-59572987D01*
X123404803Y-59579996D01*
X123357131Y-59660607D01*
X123332105Y-59746747D01*
X123328919Y-59754055D01*
X123311408Y-59774982D01*
X123296722Y-59797980D01*
X123289315Y-59801388D01*
X123284083Y-59807642D01*
X123258038Y-59815780D01*
X123233250Y-59827187D01*
X123217967Y-59828301D01*
X123217394Y-59828481D01*
X123216999Y-59828372D01*
X123215252Y-59828500D01*
X122760420Y-59828500D01*
X122760404Y-59828499D01*
X122752808Y-59828499D01*
X122610749Y-59828499D01*
X122602063Y-59825948D01*
X122593102Y-59827237D01*
X122569061Y-59816258D01*
X122543710Y-59808814D01*
X122537782Y-59801973D01*
X122529546Y-59798212D01*
X122515256Y-59775977D01*
X122497955Y-59756010D01*
X122495667Y-59745495D01*
X122491772Y-59739434D01*
X122486749Y-59704499D01*
X122486749Y-59568025D01*
X122506434Y-59500986D01*
X122559238Y-59455231D01*
X122576144Y-59448952D01*
X122630643Y-59433119D01*
X122768848Y-59351385D01*
X122882385Y-59237848D01*
X122964119Y-59099643D01*
X123003322Y-58964704D01*
X123008914Y-58945458D01*
X123008915Y-58945452D01*
X123011750Y-58909431D01*
X123011749Y-58411070D01*
X123008915Y-58375046D01*
X122964119Y-58220857D01*
X122944462Y-58187620D01*
X122927280Y-58119897D01*
X122949440Y-58053635D01*
X123003906Y-58009871D01*
X123051195Y-58000500D01*
X124047750Y-58000500D01*
X124114789Y-58020185D01*
G37*
%TD.AperFunction*%
%TA.AperFunction,Conductor*%
G36*
X116341289Y-58320185D02*
G01*
X116387044Y-58372989D01*
X116398250Y-58424500D01*
X116398250Y-58600947D01*
X116401106Y-58637241D01*
X116401107Y-58637247D01*
X116448432Y-58800137D01*
X116446029Y-58800835D01*
X116453085Y-58857986D01*
X116422797Y-58920950D01*
X116418406Y-58925573D01*
X116379275Y-58964704D01*
X116311368Y-59066335D01*
X116311366Y-59066339D01*
X116296041Y-59103337D01*
X116252200Y-59157740D01*
X116185905Y-59179804D01*
X116118206Y-59162524D01*
X116093800Y-59143564D01*
X115462416Y-58512181D01*
X115428931Y-58450858D01*
X115433915Y-58381167D01*
X115475786Y-58325233D01*
X115541251Y-58300816D01*
X115550097Y-58300500D01*
X116274250Y-58300500D01*
X116341289Y-58320185D01*
G37*
%TD.AperFunction*%
%TA.AperFunction,Conductor*%
G36*
X121498344Y-58020185D02*
G01*
X121544099Y-58072989D01*
X121554043Y-58142147D01*
X121538037Y-58187619D01*
X121533944Y-58194542D01*
X121518381Y-58220856D01*
X121518379Y-58220861D01*
X121473585Y-58375041D01*
X121473584Y-58375047D01*
X121470750Y-58411061D01*
X121470750Y-58530150D01*
X121463220Y-58555791D01*
X121459284Y-58582228D01*
X121452680Y-58591688D01*
X121451065Y-58597189D01*
X121440054Y-58611823D01*
X121437340Y-58614922D01*
X121380730Y-58671534D01*
X121367059Y-58695213D01*
X121359054Y-58704358D01*
X121339412Y-58716841D01*
X121322571Y-58732900D01*
X121310478Y-58735230D01*
X121300086Y-58741836D01*
X121276816Y-58741719D01*
X121253964Y-58746124D01*
X121242530Y-58741546D01*
X121230218Y-58741485D01*
X121210704Y-58728805D01*
X121189099Y-58720156D01*
X121181956Y-58710125D01*
X121171630Y-58703416D01*
X121162068Y-58682197D01*
X121148570Y-58663242D01*
X121145619Y-58645693D01*
X121142925Y-58639715D01*
X121143718Y-58634388D01*
X121141750Y-58622685D01*
X121141750Y-58406817D01*
X121141749Y-58406802D01*
X121141174Y-58399500D01*
X121138893Y-58370507D01*
X121123295Y-58316820D01*
X121123494Y-58246951D01*
X121154686Y-58194547D01*
X121312417Y-58036816D01*
X121321815Y-58031685D01*
X121328460Y-58023286D01*
X121351949Y-58015231D01*
X121373740Y-58003334D01*
X121392547Y-58001311D01*
X121394553Y-58000624D01*
X121395889Y-58000952D01*
X121400097Y-58000500D01*
X121431305Y-58000500D01*
X121498344Y-58020185D01*
G37*
%TD.AperFunction*%
%TA.AperFunction,Conductor*%
G36*
X129808363Y-50520185D02*
G01*
X129829005Y-50536819D01*
X130463181Y-51170995D01*
X130496666Y-51232318D01*
X130499500Y-51258676D01*
X130499500Y-54371664D01*
X130479815Y-54438703D01*
X130427011Y-54484458D01*
X130357853Y-54494402D01*
X130294297Y-54465377D01*
X130287819Y-54459345D01*
X130214648Y-54386174D01*
X130214646Y-54386172D01*
X130055405Y-54270476D01*
X129880029Y-54181117D01*
X129692826Y-54120290D01*
X129498422Y-54089500D01*
X129498417Y-54089500D01*
X129301583Y-54089500D01*
X129301578Y-54089500D01*
X129107173Y-54120290D01*
X128919970Y-54181117D01*
X128744594Y-54270476D01*
X128653741Y-54336485D01*
X128585354Y-54386172D01*
X128585352Y-54386174D01*
X128585351Y-54386174D01*
X128446174Y-54525351D01*
X128446174Y-54525352D01*
X128446172Y-54525354D01*
X128404765Y-54582346D01*
X128330476Y-54684594D01*
X128241117Y-54859970D01*
X128180290Y-55047173D01*
X128149500Y-55241577D01*
X128149500Y-55438421D01*
X128150555Y-55445084D01*
X128141597Y-55514377D01*
X128115764Y-55552156D01*
X128078213Y-55589708D01*
X128078208Y-55589714D01*
X127990609Y-55720814D01*
X127990602Y-55720827D01*
X127930264Y-55866498D01*
X127930261Y-55866510D01*
X127899500Y-56021153D01*
X127899500Y-56085500D01*
X127879815Y-56152539D01*
X127827011Y-56198294D01*
X127775500Y-56209500D01*
X124729275Y-56209500D01*
X124662236Y-56189815D01*
X124616481Y-56137011D01*
X124606537Y-56067853D01*
X124610198Y-56050906D01*
X124611419Y-56046699D01*
X124617665Y-56025204D01*
X124620500Y-55989181D01*
X124620499Y-55590820D01*
X124617665Y-55554796D01*
X124572869Y-55400607D01*
X124491135Y-55262402D01*
X124491133Y-55262400D01*
X124491130Y-55262396D01*
X124377603Y-55148869D01*
X124377595Y-55148863D01*
X124239393Y-55067131D01*
X124239388Y-55067129D01*
X124085208Y-55022335D01*
X124085202Y-55022334D01*
X124049181Y-55019500D01*
X123550830Y-55019500D01*
X123550808Y-55019501D01*
X123514799Y-55022334D01*
X123360606Y-55067131D01*
X123335073Y-55082232D01*
X123319171Y-55086582D01*
X123306887Y-55094477D01*
X123271952Y-55099500D01*
X123165750Y-55099500D01*
X123098711Y-55079815D01*
X123052956Y-55027011D01*
X123041750Y-54975500D01*
X123041749Y-54711080D01*
X123041748Y-54711058D01*
X123038915Y-54675048D01*
X123038915Y-54675046D01*
X123032281Y-54652212D01*
X123032480Y-54582346D01*
X123070421Y-54523675D01*
X123088237Y-54510886D01*
X123188842Y-54451389D01*
X123188843Y-54451387D01*
X123188848Y-54451385D01*
X123302385Y-54337848D01*
X123384119Y-54199643D01*
X123428915Y-54045454D01*
X123431750Y-54009431D01*
X123431749Y-53511070D01*
X123428915Y-53475046D01*
X123384119Y-53320857D01*
X123302385Y-53182652D01*
X123302383Y-53182650D01*
X123302380Y-53182646D01*
X123298069Y-53178335D01*
X123264584Y-53117012D01*
X123261750Y-53090654D01*
X123261750Y-52832253D01*
X123261749Y-52832246D01*
X123247668Y-52779693D01*
X123220827Y-52679522D01*
X123174626Y-52599500D01*
X123141770Y-52542591D01*
X123029966Y-52430787D01*
X123029965Y-52430786D01*
X123025635Y-52426456D01*
X123025624Y-52426446D01*
X122436533Y-51837355D01*
X122436531Y-51837352D01*
X122317660Y-51718481D01*
X122317659Y-51718480D01*
X122230847Y-51668360D01*
X122230847Y-51668359D01*
X122230843Y-51668358D01*
X122180728Y-51639423D01*
X122028000Y-51598499D01*
X121869886Y-51598499D01*
X121862290Y-51598499D01*
X121862274Y-51598500D01*
X121537727Y-51598500D01*
X121537711Y-51598499D01*
X121530115Y-51598499D01*
X121372000Y-51598499D01*
X121295636Y-51618961D01*
X121219271Y-51639423D01*
X121219266Y-51639426D01*
X121082347Y-51718475D01*
X121082339Y-51718481D01*
X120237641Y-52563181D01*
X120210713Y-52577884D01*
X120184895Y-52594477D01*
X120178694Y-52595368D01*
X120176318Y-52596666D01*
X120149960Y-52599500D01*
X119945134Y-52599500D01*
X119878095Y-52579815D01*
X119832340Y-52527011D01*
X119822396Y-52457853D01*
X119830573Y-52428047D01*
X119831232Y-52426456D01*
X119869737Y-52333497D01*
X119900500Y-52178842D01*
X119900500Y-52021158D01*
X119900500Y-52021155D01*
X119900499Y-52021153D01*
X119869738Y-51866510D01*
X119869737Y-51866503D01*
X119857664Y-51837355D01*
X119809397Y-51720827D01*
X119809390Y-51720814D01*
X119721789Y-51589711D01*
X119721786Y-51589707D01*
X119610292Y-51478213D01*
X119610288Y-51478210D01*
X119479185Y-51390609D01*
X119479172Y-51390602D01*
X119333501Y-51330264D01*
X119333489Y-51330261D01*
X119178845Y-51299500D01*
X119178842Y-51299500D01*
X119021158Y-51299500D01*
X119021155Y-51299500D01*
X119014284Y-51300867D01*
X118990098Y-51303249D01*
X118982807Y-51303249D01*
X118824693Y-51303249D01*
X118824689Y-51303249D01*
X118817082Y-51303250D01*
X118817081Y-51303249D01*
X118817081Y-51303250D01*
X112645147Y-51303250D01*
X112487033Y-51303250D01*
X112334305Y-51344173D01*
X112334304Y-51344173D01*
X112334302Y-51344174D01*
X112334299Y-51344175D01*
X112284186Y-51373109D01*
X112284185Y-51373110D01*
X112253888Y-51390602D01*
X112197375Y-51423229D01*
X112197372Y-51423231D01*
X110712181Y-52908423D01*
X110650858Y-52941908D01*
X110581166Y-52936924D01*
X110525233Y-52895052D01*
X110500816Y-52829588D01*
X110500500Y-52820742D01*
X110500500Y-51258676D01*
X110520185Y-51191637D01*
X110536819Y-51170995D01*
X111170995Y-50536819D01*
X111232318Y-50503334D01*
X111258676Y-50500500D01*
X129741324Y-50500500D01*
X129808363Y-50520185D01*
G37*
%TD.AperFunction*%
%TA.AperFunction,Conductor*%
G36*
X116603790Y-55155435D02*
G01*
X116649545Y-55208239D01*
X116660751Y-55259750D01*
X116660751Y-55370626D01*
X116667159Y-55430237D01*
X116668225Y-55433095D01*
X116668394Y-55435462D01*
X116668942Y-55437781D01*
X116668566Y-55437869D01*
X116673204Y-55502787D01*
X116639714Y-55564107D01*
X116578388Y-55597587D01*
X116508697Y-55592597D01*
X116483149Y-55579521D01*
X116359157Y-55496671D01*
X116359144Y-55496664D01*
X116213473Y-55436326D01*
X116213461Y-55436323D01*
X116058817Y-55405562D01*
X116058814Y-55405562D01*
X115901130Y-55405562D01*
X115901127Y-55405562D01*
X115746482Y-55436323D01*
X115746470Y-55436326D01*
X115639233Y-55480745D01*
X115619357Y-55482881D01*
X115600627Y-55489868D01*
X115585330Y-55486540D01*
X115569764Y-55488214D01*
X115551887Y-55479265D01*
X115532354Y-55475016D01*
X115510061Y-55458328D01*
X115507285Y-55456938D01*
X115504100Y-55453865D01*
X115490416Y-55440181D01*
X115456931Y-55378858D01*
X115461915Y-55309166D01*
X115490416Y-55264819D01*
X115583166Y-55172069D01*
X115644489Y-55138584D01*
X115670847Y-55135750D01*
X116536751Y-55135750D01*
X116603790Y-55155435D01*
G37*
%TD.AperFunction*%
%TA.AperFunction,Conductor*%
G36*
X112249404Y-53172183D02*
G01*
X112305338Y-53214054D01*
X112329755Y-53279519D01*
X112325846Y-53320458D01*
X112309749Y-53380533D01*
X112309749Y-53548636D01*
X112309750Y-53548649D01*
X112309750Y-55220250D01*
X112290065Y-55287289D01*
X112237261Y-55333044D01*
X112185750Y-55344250D01*
X111611347Y-55344250D01*
X111581906Y-55335605D01*
X111551920Y-55329082D01*
X111546904Y-55325327D01*
X111544308Y-55324565D01*
X111523666Y-55307931D01*
X111471739Y-55256004D01*
X111438254Y-55194681D01*
X111435420Y-55168323D01*
X111435420Y-53935017D01*
X111455105Y-53867978D01*
X111471739Y-53847336D01*
X111780428Y-53538647D01*
X112118392Y-53200682D01*
X112179713Y-53167199D01*
X112249404Y-53172183D01*
G37*
%TD.AperFunction*%
%TD*%
M02*
