%TF.GenerationSoftware,KiCad,Pcbnew,9.0.0*%
%TF.CreationDate,2025-08-18T16:34:53+09:00*%
%TF.ProjectId,SMORES,534d4f52-4553-42e6-9b69-6361645f7063,rev?*%
%TF.SameCoordinates,Original*%
%TF.FileFunction,Soldermask,Bot*%
%TF.FilePolarity,Negative*%
%FSLAX46Y46*%
G04 Gerber Fmt 4.6, Leading zero omitted, Abs format (unit mm)*
G04 Created by KiCad (PCBNEW 9.0.0) date 2025-08-18 16:34:53*
%MOMM*%
%LPD*%
G01*
G04 APERTURE LIST*
G04 Aperture macros list*
%AMRoundRect*
0 Rectangle with rounded corners*
0 $1 Rounding radius*
0 $2 $3 $4 $5 $6 $7 $8 $9 X,Y pos of 4 corners*
0 Add a 4 corners polygon primitive as box body*
4,1,4,$2,$3,$4,$5,$6,$7,$8,$9,$2,$3,0*
0 Add four circle primitives for the rounded corners*
1,1,$1+$1,$2,$3*
1,1,$1+$1,$4,$5*
1,1,$1+$1,$6,$7*
1,1,$1+$1,$8,$9*
0 Add four rect primitives between the rounded corners*
20,1,$1+$1,$2,$3,$4,$5,0*
20,1,$1+$1,$4,$5,$6,$7,0*
20,1,$1+$1,$6,$7,$8,$9,0*
20,1,$1+$1,$8,$9,$2,$3,0*%
G04 Aperture macros list end*
%ADD10C,0.850000*%
%ADD11RoundRect,0.150000X-0.500000X0.150000X-0.500000X-0.150000X0.500000X-0.150000X0.500000X0.150000X0*%
%ADD12RoundRect,0.175000X-0.175000X0.350000X-0.175000X-0.350000X0.175000X-0.350000X0.175000X0.350000X0*%
%ADD13R,1.350000X1.800000*%
%ADD14C,0.650000*%
%ADD15R,1.450000X0.600000*%
%ADD16R,1.450000X0.300000*%
%ADD17O,1.600000X1.000000*%
%ADD18O,2.100000X1.000000*%
%ADD19R,1.000000X2.000000*%
%ADD20R,2.000000X1.000000*%
%ADD21R,0.900000X0.900000*%
G04 APERTURE END LIST*
D10*
%TO.C,SW1*%
X183250000Y-80125000D03*
X183250000Y-83125000D03*
D11*
X181300000Y-79375000D03*
X181300000Y-82375000D03*
X181300000Y-83875000D03*
D12*
X184350000Y-77950000D03*
X182150000Y-77950000D03*
X184350000Y-85300000D03*
X182150000Y-85300000D03*
%TD*%
D13*
%TO.C,SW3*%
X175325000Y-77000000D03*
X179475000Y-77000000D03*
%TD*%
%TO.C,SW2*%
X175325000Y-80500000D03*
X179475000Y-80500000D03*
%TD*%
D14*
%TO.C,J1*%
X171350000Y-83220000D03*
X171350000Y-77440000D03*
D15*
X172795000Y-83580000D03*
X172795000Y-82780000D03*
D16*
X172795000Y-81580000D03*
X172795000Y-80580000D03*
X172795000Y-80080000D03*
X172795000Y-79080000D03*
D15*
X172795000Y-77880000D03*
X172795000Y-77080000D03*
X172795000Y-77080000D03*
X172795000Y-77880000D03*
D16*
X172795000Y-78580000D03*
X172795000Y-79580000D03*
X172795000Y-81080000D03*
X172795000Y-82080000D03*
D15*
X172795000Y-82780000D03*
X172795000Y-83580000D03*
D17*
X167700000Y-84650000D03*
D18*
X171880000Y-84650000D03*
D17*
X167700000Y-76010000D03*
D18*
X171880000Y-76010000D03*
%TD*%
D19*
%TO.C,U7*%
X184170000Y-100300000D03*
X182900000Y-100300000D03*
X181630000Y-100300000D03*
X180360000Y-100300000D03*
X179090000Y-100300000D03*
X177820000Y-100300000D03*
X176550000Y-100300000D03*
X175280000Y-100300000D03*
X174010000Y-100300000D03*
X172740000Y-100300000D03*
D20*
X170140000Y-98240000D03*
D21*
X172240000Y-97610000D03*
D20*
X170140000Y-96970000D03*
D21*
X172240000Y-96340000D03*
D20*
X170140000Y-95700000D03*
D21*
X172240000Y-95070000D03*
D20*
X170140000Y-94430000D03*
D21*
X172240000Y-93800000D03*
D20*
X170140000Y-93160000D03*
D21*
X172240000Y-92530000D03*
D20*
X170140000Y-91890000D03*
D21*
X172240000Y-91260000D03*
D20*
X170140000Y-90620000D03*
D21*
X172240000Y-89990000D03*
D20*
X170140000Y-89350000D03*
D19*
X172740000Y-87300000D03*
X174010000Y-87300000D03*
D21*
X174645000Y-89400000D03*
D19*
X175280000Y-87300000D03*
D21*
X175915000Y-89400000D03*
D19*
X176550000Y-87300000D03*
D21*
X177185000Y-89400000D03*
D19*
X177820000Y-87300000D03*
D21*
X178455000Y-89400000D03*
D19*
X179090000Y-87300000D03*
D21*
X179725000Y-89400000D03*
D19*
X180360000Y-87300000D03*
D21*
X180995000Y-89400000D03*
D19*
X181630000Y-87300000D03*
D21*
X182265000Y-89400000D03*
D19*
X182900000Y-87300000D03*
D21*
X183535000Y-89400000D03*
D19*
X184170000Y-87300000D03*
%TD*%
M02*
