M48
; DRILL file {KiCad 9.0.6} date 2025-11-30T21:38:22+0900
; FORMAT={-:-/ absolute / inch / decimal}
; #@! TF.CreationDate,2025-11-30T21:38:22+09:00
; #@! TF.GenerationSoftware,Kicad,Pcbnew,9.0.6
; #@! TF.FileFunction,Plated,1,2,PTH
FMAT,2
INCH
; #@! TA.AperFunction,Plated,PTH,ViaDrill
T1C0.0118
%
G90
G05
T1
X4.3189Y-2.3268
X4.3189Y-2.3543
X4.3228Y-2.5433
X4.3465Y-2.1417
X4.3465Y-2.3268
X4.3465Y-2.3543
X4.3937Y-2.3661
X4.4173Y-2.5591
X4.4488Y-2.5197
X4.5378Y-2.3016
X4.5394Y-2.2441
X4.5512Y-2.3937
X4.5512Y-2.4213
X4.5575Y-2.1835
X4.5583Y-2.2168
X4.5787Y-2.3937
X4.5787Y-2.4213
X4.6063Y-2.3937
X4.6417Y-2.2992
X4.6417Y-2.6212
X4.6673Y-2.3563
X4.6811Y-2.0551
X4.7244Y-2.211
X4.7283Y-2.1496
X4.7835Y-2.0827
X4.8044Y-2.6033
X4.8465Y-2.3504
X4.8622Y-2.622
X4.937Y-2.5197
X4.9567Y-2.5394
X4.9646Y-2.5905
X4.9852Y-2.6427
X5.0157Y-2.5709
X5.0157Y-2.5984
X5.0157Y-2.626
X5.0276Y-2.5118
X5.0335Y-2.252
X5.0354Y-2.0
X5.0354Y-2.0276
X5.0354Y-2.4134
X5.0394Y-2.3346
X5.0512Y-2.5394
X5.0591Y-2.2126
X5.063Y-2.0
X5.063Y-2.0276
X5.0906Y-2.0
X5.0906Y-2.0276
X5.1181Y-2.0
X5.1181Y-2.0276
X5.122Y-2.5394
M30
