%TF.GenerationSoftware,KiCad,Pcbnew,9.0.6*%
%TF.CreationDate,2025-11-30T21:38:22+09:00*%
%TF.ProjectId,SMORES,534d4f52-4553-42e6-9b69-6361645f7063,rev?*%
%TF.SameCoordinates,Original*%
%TF.FileFunction,Soldermask,Top*%
%TF.FilePolarity,Negative*%
%FSLAX46Y46*%
G04 Gerber Fmt 4.6, Leading zero omitted, Abs format (unit mm)*
G04 Created by KiCad (PCBNEW 9.0.6) date 2025-11-30 21:38:22*
%MOMM*%
%LPD*%
G01*
G04 APERTURE LIST*
G04 Aperture macros list*
%AMRoundRect*
0 Rectangle with rounded corners*
0 $1 Rounding radius*
0 $2 $3 $4 $5 $6 $7 $8 $9 X,Y pos of 4 corners*
0 Add a 4 corners polygon primitive as box body*
4,1,4,$2,$3,$4,$5,$6,$7,$8,$9,$2,$3,0*
0 Add four circle primitives for the rounded corners*
1,1,$1+$1,$2,$3*
1,1,$1+$1,$4,$5*
1,1,$1+$1,$6,$7*
1,1,$1+$1,$8,$9*
0 Add four rect primitives between the rounded corners*
20,1,$1+$1,$2,$3,$4,$5,0*
20,1,$1+$1,$4,$5,$6,$7,0*
20,1,$1+$1,$6,$7,$8,$9,0*
20,1,$1+$1,$8,$9,$2,$3,0*%
G04 Aperture macros list end*
%ADD10RoundRect,0.237500X0.300000X0.237500X-0.300000X0.237500X-0.300000X-0.237500X0.300000X-0.237500X0*%
%ADD11RoundRect,0.237500X0.287500X0.237500X-0.287500X0.237500X-0.287500X-0.237500X0.287500X-0.237500X0*%
%ADD12RoundRect,0.237500X-0.237500X0.300000X-0.237500X-0.300000X0.237500X-0.300000X0.237500X0.300000X0*%
%ADD13RoundRect,0.102000X-0.500000X-1.000000X0.500000X-1.000000X0.500000X1.000000X-0.500000X1.000000X0*%
%ADD14RoundRect,0.102000X-1.000000X-0.500000X1.000000X-0.500000X1.000000X0.500000X-1.000000X0.500000X0*%
%ADD15RoundRect,0.102000X-0.450000X-0.450000X0.450000X-0.450000X0.450000X0.450000X-0.450000X0.450000X0*%
%ADD16C,2.000000*%
%ADD17RoundRect,0.150000X0.150000X0.400000X-0.150000X0.400000X-0.150000X-0.400000X0.150000X-0.400000X0*%
G04 APERTURE END LIST*
D10*
%TO.C,C12*%
X115575000Y-67000000D03*
X117300000Y-67000000D03*
%TD*%
D11*
%TO.C,L4*%
X120450000Y-67100000D03*
X122200000Y-67100000D03*
%TD*%
D12*
%TO.C,C13*%
X110900000Y-65137500D03*
X110900000Y-66862500D03*
%TD*%
D13*
%TO.C,U7*%
X115410000Y-65078500D03*
X116680000Y-65078500D03*
X117950000Y-65078500D03*
X119220000Y-65078500D03*
X120490000Y-65078500D03*
X121760000Y-65078500D03*
X123030000Y-65078500D03*
X124300000Y-65078500D03*
D14*
X113350000Y-62478500D03*
X113350000Y-61208500D03*
X113350000Y-59938500D03*
X113350000Y-58668500D03*
X113350000Y-57398500D03*
X113350000Y-56128500D03*
X113350000Y-54858500D03*
X113350000Y-53588500D03*
X113350000Y-52318500D03*
X113350000Y-51048500D03*
X126350000Y-62478500D03*
X126350000Y-61208500D03*
X126350000Y-59938500D03*
X126350000Y-58668500D03*
X126350000Y-57398500D03*
X126350000Y-56128500D03*
X126350000Y-54858500D03*
X126350000Y-53588500D03*
X126350000Y-52318500D03*
X126350000Y-51048500D03*
D15*
X116040000Y-62978500D03*
X117310000Y-62978500D03*
X118580000Y-62978500D03*
X119850000Y-62978500D03*
X121120000Y-62978500D03*
X122390000Y-62978500D03*
X123660000Y-62978500D03*
X124250000Y-60573500D03*
X124250000Y-59303500D03*
X124250000Y-58033500D03*
X124250000Y-56763500D03*
X124250000Y-55493500D03*
X124250000Y-54223500D03*
X124250000Y-52953500D03*
X124250000Y-51683500D03*
%TD*%
D16*
%TO.C,TP2*%
X129200000Y-66200000D03*
%TD*%
%TO.C,TP1*%
X129200000Y-63200000D03*
%TD*%
D17*
%TO.C,Y2*%
X112500000Y-66700000D03*
X113900000Y-66700000D03*
%TD*%
M02*
