%TF.GenerationSoftware,KiCad,Pcbnew,9.0.6*%
%TF.CreationDate,2025-11-30T21:38:22+09:00*%
%TF.ProjectId,SMORES,534d4f52-4553-42e6-9b69-6361645f7063,rev?*%
%TF.SameCoordinates,Original*%
%TF.FileFunction,Copper,L2,Bot*%
%TF.FilePolarity,Positive*%
%FSLAX46Y46*%
G04 Gerber Fmt 4.6, Leading zero omitted, Abs format (unit mm)*
G04 Created by KiCad (PCBNEW 9.0.6) date 2025-11-30 21:38:22*
%MOMM*%
%LPD*%
G01*
G04 APERTURE LIST*
G04 Aperture macros list*
%AMRoundRect*
0 Rectangle with rounded corners*
0 $1 Rounding radius*
0 $2 $3 $4 $5 $6 $7 $8 $9 X,Y pos of 4 corners*
0 Add a 4 corners polygon primitive as box body*
4,1,4,$2,$3,$4,$5,$6,$7,$8,$9,$2,$3,0*
0 Add four circle primitives for the rounded corners*
1,1,$1+$1,$2,$3*
1,1,$1+$1,$4,$5*
1,1,$1+$1,$6,$7*
1,1,$1+$1,$8,$9*
0 Add four rect primitives between the rounded corners*
20,1,$1+$1,$2,$3,$4,$5,0*
20,1,$1+$1,$4,$5,$6,$7,0*
20,1,$1+$1,$6,$7,$8,$9,0*
20,1,$1+$1,$8,$9,$2,$3,0*%
G04 Aperture macros list end*
%TA.AperFunction,SMDPad,CuDef*%
%ADD10RoundRect,0.140000X-0.170000X0.140000X-0.170000X-0.140000X0.170000X-0.140000X0.170000X0.140000X0*%
%TD*%
%TA.AperFunction,SMDPad,CuDef*%
%ADD11RoundRect,0.140000X-0.140000X-0.170000X0.140000X-0.170000X0.140000X0.170000X-0.140000X0.170000X0*%
%TD*%
%TA.AperFunction,SMDPad,CuDef*%
%ADD12RoundRect,0.140000X0.140000X0.170000X-0.140000X0.170000X-0.140000X-0.170000X0.140000X-0.170000X0*%
%TD*%
%TA.AperFunction,SMDPad,CuDef*%
%ADD13RoundRect,0.218750X0.218750X0.256250X-0.218750X0.256250X-0.218750X-0.256250X0.218750X-0.256250X0*%
%TD*%
%TA.AperFunction,SMDPad,CuDef*%
%ADD14RoundRect,0.135000X0.135000X0.185000X-0.135000X0.185000X-0.135000X-0.185000X0.135000X-0.185000X0*%
%TD*%
%TA.AperFunction,SMDPad,CuDef*%
%ADD15RoundRect,0.135000X-0.185000X0.135000X-0.185000X-0.135000X0.185000X-0.135000X0.185000X0.135000X0*%
%TD*%
%TA.AperFunction,SMDPad,CuDef*%
%ADD16RoundRect,0.062500X0.375000X0.062500X-0.375000X0.062500X-0.375000X-0.062500X0.375000X-0.062500X0*%
%TD*%
%TA.AperFunction,SMDPad,CuDef*%
%ADD17RoundRect,0.062500X0.062500X0.375000X-0.062500X0.375000X-0.062500X-0.375000X0.062500X-0.375000X0*%
%TD*%
%TA.AperFunction,HeatsinkPad*%
%ADD18R,1.600000X1.600000*%
%TD*%
%TA.AperFunction,SMDPad,CuDef*%
%ADD19RoundRect,0.250000X0.350000X-0.450000X0.350000X0.450000X-0.350000X0.450000X-0.350000X-0.450000X0*%
%TD*%
%TA.AperFunction,SMDPad,CuDef*%
%ADD20R,0.250000X0.475000*%
%TD*%
%TA.AperFunction,SMDPad,CuDef*%
%ADD21R,0.475000X0.250000*%
%TD*%
%TA.AperFunction,SMDPad,CuDef*%
%ADD22C,0.240000*%
%TD*%
%TA.AperFunction,SMDPad,CuDef*%
%ADD23RoundRect,0.135000X0.185000X-0.135000X0.185000X0.135000X-0.185000X0.135000X-0.185000X-0.135000X0*%
%TD*%
%TA.AperFunction,SMDPad,CuDef*%
%ADD24RoundRect,0.135000X-0.135000X-0.185000X0.135000X-0.185000X0.135000X0.185000X-0.135000X0.185000X0*%
%TD*%
%TA.AperFunction,SMDPad,CuDef*%
%ADD25C,1.500000*%
%TD*%
%TA.AperFunction,SMDPad,CuDef*%
%ADD26R,1.350000X1.800000*%
%TD*%
%TA.AperFunction,ViaPad*%
%ADD27C,0.600000*%
%TD*%
%TA.AperFunction,Conductor*%
%ADD28C,0.200000*%
%TD*%
G04 APERTURE END LIST*
D10*
%TO.P,C2,1*%
%TO.N,BAT+*%
X123561250Y-61181500D03*
%TO.P,C2,2*%
%TO.N,GND*%
X123561250Y-62141500D03*
%TD*%
%TO.P,C1,1*%
%TO.N,VDDH*%
X118261250Y-61761500D03*
%TO.P,C1,2*%
%TO.N,GND*%
X118261250Y-62721500D03*
%TD*%
D11*
%TO.P,C3,1*%
%TO.N,VBUS*%
X120161250Y-58741500D03*
%TO.P,C3,2*%
%TO.N,GND*%
X121121250Y-58741500D03*
%TD*%
D12*
%TO.P,C27,1*%
%TO.N,+3V3*%
X116978750Y-58466250D03*
%TO.P,C27,2*%
%TO.N,GND*%
X116018750Y-58466250D03*
%TD*%
D10*
%TO.P,C15,2*%
%TO.N,VBUS*%
X123961250Y-59160250D03*
%TO.P,C15,1*%
%TO.N,GND*%
X123961250Y-58200250D03*
%TD*%
D13*
%TO.P,D1,1,K*%
%TO.N,Net-(D1-K)*%
X119036250Y-63941500D03*
%TO.P,D1,2,A*%
%TO.N,Net-(D1-A)*%
X117461250Y-63941500D03*
%TD*%
%TO.P,D2,1,K*%
%TO.N,Net-(D2-K)*%
X115761250Y-63960250D03*
%TO.P,D2,2,A*%
%TO.N,BLED*%
X114186250Y-63960250D03*
%TD*%
D10*
%TO.P,C25,2*%
%TO.N,+3V3*%
X115261250Y-53544750D03*
%TO.P,C25,1*%
%TO.N,GND*%
X115261250Y-52584750D03*
%TD*%
D11*
%TO.P,C26,2*%
%TO.N,+3V3*%
X113761250Y-58144750D03*
%TO.P,C26,1*%
%TO.N,GND*%
X112801250Y-58144750D03*
%TD*%
D14*
%TO.P,R3,1*%
%TO.N,GND*%
X123061250Y-58760250D03*
%TO.P,R3,2*%
%TO.N,Net-(U2-ISET)*%
X122041250Y-58760250D03*
%TD*%
%TO.P,R8,1*%
%TO.N,+3V3*%
X121871250Y-56160250D03*
%TO.P,R8,2*%
%TO.N,SDA*%
X120851250Y-56160250D03*
%TD*%
%TO.P,R9,1*%
%TO.N,+3V3*%
X122461250Y-53860250D03*
%TO.P,R9,2*%
%TO.N,CS*%
X121441250Y-53860250D03*
%TD*%
%TO.P,R5,1*%
%TO.N,Net-(D2-K)*%
X116061250Y-62660250D03*
%TO.P,R5,2*%
%TO.N,GND*%
X115041250Y-62660250D03*
%TD*%
D15*
%TO.P,R7,1*%
%TO.N,+3V3*%
X123600000Y-55890000D03*
%TO.P,R7,2*%
%TO.N,SDO*%
X123600000Y-56910000D03*
%TD*%
D14*
%TO.P,R10,1*%
%TO.N,+3V3*%
X122071250Y-55060250D03*
%TO.P,R10,2*%
%TO.N,SCL*%
X121051250Y-55060250D03*
%TD*%
D16*
%TO.P,U2,1,TS*%
%TO.N,Net-(U2-TS)*%
X122348750Y-60654000D03*
%TO.P,U2,2,BAT*%
%TO.N,BAT+*%
X122348750Y-61154000D03*
%TO.P,U2,3,BAT*%
X122348750Y-61654000D03*
%TO.P,U2,4,~{CE}*%
%TO.N,GND*%
X122348750Y-62154000D03*
D17*
%TO.P,U2,5,EN2*%
X121661250Y-62841500D03*
%TO.P,U2,6,EN1*%
%TO.N,VDDH*%
X121161250Y-62841500D03*
%TO.P,U2,7,~{PGOOD}*%
%TO.N,unconnected-(U2-~{PGOOD}-Pad7)*%
X120661250Y-62841500D03*
%TO.P,U2,8,VSS*%
%TO.N,GND*%
X120161250Y-62841500D03*
D16*
%TO.P,U2,9,~{CHG}*%
%TO.N,Net-(D1-K)*%
X119473750Y-62154000D03*
%TO.P,U2,10,OUT*%
%TO.N,VDDH*%
X119473750Y-61654000D03*
%TO.P,U2,11,OUT*%
X119473750Y-61154000D03*
%TO.P,U2,12,ILIM*%
%TO.N,unconnected-(U2-ILIM-Pad12)*%
X119473750Y-60654000D03*
D17*
%TO.P,U2,13,IN*%
%TO.N,VBUS*%
X120161250Y-59966500D03*
%TO.P,U2,14,TMR*%
%TO.N,unconnected-(U2-TMR-Pad14)*%
X120661250Y-59966500D03*
%TO.P,U2,15,SYSOFF*%
%TO.N,GND*%
X121161250Y-59966500D03*
%TO.P,U2,16,ISET*%
%TO.N,Net-(U2-ISET)*%
X121661250Y-59966500D03*
D18*
%TO.P,U2,17,VSS*%
%TO.N,GND*%
X120911250Y-61404000D03*
%TD*%
D19*
%TO.P,Y1,1,OE*%
%TO.N,CLK_CTL*%
X111711250Y-56644750D03*
%TO.P,Y1,2,GND*%
%TO.N,GND*%
X111711250Y-54244750D03*
%TO.P,Y1,3,OUT*%
%TO.N,CLK*%
X113611250Y-54244750D03*
%TO.P,Y1,4,Vcc*%
%TO.N,+3V3*%
X113611250Y-56644750D03*
%TD*%
D20*
%TO.P,U3,4,INT1*%
%TO.N,INT1*%
X117361250Y-56960250D03*
%TO.P,U3,3,ASCx*%
%TO.N,SCX*%
X117861250Y-56960250D03*
%TO.P,U3,2,ASDx*%
%TO.N,SDX*%
X118361250Y-56960250D03*
%TO.P,U3,1,SDO*%
%TO.N,SDO*%
X118861250Y-56960250D03*
D21*
%TO.P,U3,14,SDx*%
%TO.N,SDA*%
X119023750Y-56297750D03*
%TO.P,U3,13,SCx*%
%TO.N,SCL*%
X119023750Y-55797750D03*
%TO.P,U3,12,CS*%
%TO.N,CS*%
X119023750Y-55297750D03*
D20*
%TO.P,U3,11,OSDO*%
%TO.N,OSDO*%
X118861250Y-54635250D03*
%TO.P,U3,10,OCS*%
%TO.N,OCS*%
X118361250Y-54635250D03*
%TO.P,U3,9,INT2*%
%TO.N,CLK*%
X117861250Y-54635250D03*
%TO.P,U3,8,VDD*%
%TO.N,+3V3*%
X117361250Y-54635250D03*
D21*
%TO.P,U3,7,RESV*%
%TO.N,unconnected-(U3-RESV-Pad7)*%
X117198750Y-55297750D03*
%TO.P,U3,6,GND*%
%TO.N,GND*%
X117198750Y-55797750D03*
%TO.P,U3,5,VDDIO*%
%TO.N,+3V3*%
X117198750Y-56297750D03*
%TD*%
D22*
%TO.P,U6,A1,VSS*%
%TO.N,GND*%
X116261250Y-59460250D03*
%TO.P,U6,A2,SCL*%
%TO.N,SCX*%
X116261250Y-59860250D03*
%TO.P,U6,B1,VDD*%
%TO.N,+3V3*%
X116661250Y-59460250D03*
%TO.P,U6,B2,SDA*%
%TO.N,SDX*%
X116661250Y-59860250D03*
%TD*%
D23*
%TO.P,R2,1*%
%TO.N,Net-(D1-A)*%
X117261250Y-62751500D03*
%TO.P,R2,2*%
%TO.N,VDDH*%
X117261250Y-61731500D03*
%TD*%
%TO.P,R6,2*%
%TO.N,SDX*%
X119161250Y-58150250D03*
%TO.P,R6,1*%
%TO.N,+3V3*%
X119161250Y-59170250D03*
%TD*%
D24*
%TO.P,R4,2*%
%TO.N,SCX*%
X113911250Y-59260250D03*
%TO.P,R4,1*%
%TO.N,+3V3*%
X112891250Y-59260250D03*
%TD*%
%TO.P,R1,2*%
%TO.N,GND*%
X124900000Y-60200000D03*
%TO.P,R1,1*%
%TO.N,Net-(U2-TS)*%
X123880000Y-60200000D03*
%TD*%
D25*
%TO.P,TP5,1,1*%
%TO.N,D-*%
X129200000Y-58000000D03*
%TD*%
%TO.P,TP3,1,1*%
%TO.N,GND*%
X129200000Y-52900000D03*
%TD*%
%TO.P,TP4,1,1*%
%TO.N,D+*%
X129200000Y-55440000D03*
%TD*%
%TO.P,TP6,1,1*%
%TO.N,VBUS*%
X129200000Y-60500000D03*
%TD*%
D26*
%TO.P,SW2,2,2*%
%TO.N,RESET*%
X114775000Y-66400000D03*
%TO.P,SW2,1,1*%
%TO.N,GND*%
X118925000Y-66400000D03*
%TD*%
%TO.P,SW3,2,2*%
%TO.N,SW0*%
X125175000Y-66400000D03*
%TO.P,SW3,1,1*%
%TO.N,GND*%
X121025000Y-66400000D03*
%TD*%
D27*
%TO.N,RESET*%
X126623972Y-67123972D03*
%TO.N,SW0*%
X126100000Y-65799000D03*
%TO.N,GND*%
X125400000Y-64000000D03*
X122032165Y-66125000D03*
X127900000Y-51500000D03*
X128600000Y-51500000D03*
X129300000Y-51500000D03*
X130000000Y-51500000D03*
X130000000Y-50800000D03*
X129300000Y-50800000D03*
X128600000Y-50800000D03*
X127900000Y-50800000D03*
X117900000Y-66578502D03*
X125900000Y-64500000D03*
X110400000Y-54400000D03*
X115600000Y-61500000D03*
X116300000Y-61500000D03*
X117000000Y-60800000D03*
X116300000Y-60800000D03*
X115600000Y-60800000D03*
%TO.N,D-*%
X128000000Y-59300000D03*
%TO.N,GND*%
X109700000Y-59800000D03*
X110400000Y-59800000D03*
X110400000Y-59100000D03*
X109700000Y-59100000D03*
%TO.N,CLK_CTL*%
X118900000Y-52200000D03*
%TO.N,INT1*%
X115300000Y-57000000D03*
%TO.N,SDA*%
X120000000Y-56160250D03*
%TO.N,SCL*%
X120100000Y-54600000D03*
%TO.N,CS*%
X121500000Y-52900000D03*
%TO.N,SDO*%
X127850002Y-57200000D03*
%TO.N,BLED*%
X113000000Y-64000000D03*
%TO.N,GND*%
X123100000Y-59700000D03*
%TO.N,+3V3*%
X115779972Y-56306062D03*
X117900000Y-58400000D03*
X118550000Y-59850000D03*
X111600000Y-60100000D03*
%TO.N,BAT+*%
X127400000Y-66000000D03*
X127400000Y-66700000D03*
%TO.N,VDDH*%
X123500000Y-66600000D03*
%TO.N,GND*%
X115761250Y-55460250D03*
X115261250Y-58460250D03*
X109800000Y-64600000D03*
X127700000Y-63800000D03*
X130100000Y-64500000D03*
X128300000Y-64500000D03*
X112200000Y-65000000D03*
%TO.N,VBUS*%
X127900000Y-61300000D03*
%TO.N,D+*%
X128500000Y-56200000D03*
%TO.N,BAT+*%
X127400000Y-65300000D03*
%TD*%
D28*
%TO.N,RESET*%
X126145943Y-67602000D02*
X115977000Y-67602000D01*
X115977000Y-67602000D02*
X114775000Y-66400000D01*
X126623972Y-67123972D02*
X126145943Y-67602000D01*
%TO.N,GND*%
X116700000Y-66148000D02*
X115022750Y-64470750D01*
X117469498Y-66148000D02*
X116700000Y-66148000D01*
X117900000Y-66578502D02*
X117469498Y-66148000D01*
%TO.N,RESET*%
X126623972Y-67123972D02*
X126700000Y-67047943D01*
X126700000Y-67047943D02*
X126700000Y-66700000D01*
%TO.N,SW0*%
X125499000Y-66400000D02*
X126100000Y-65799000D01*
X125175000Y-66400000D02*
X125499000Y-66400000D01*
%TO.N,GND*%
X123748943Y-67201000D02*
X123108165Y-67201000D01*
X123108165Y-67201000D02*
X122032165Y-66125000D01*
X124101000Y-65281250D02*
X124101000Y-66848943D01*
X121661250Y-62841500D02*
X124101000Y-65281250D01*
X124101000Y-66848943D02*
X123748943Y-67201000D01*
X114493500Y-65000000D02*
X115022750Y-64470750D01*
X112200000Y-65000000D02*
X114493500Y-65000000D01*
X115022750Y-62678750D02*
X115022750Y-64470750D01*
X115041250Y-62660250D02*
X115022750Y-62678750D01*
%TO.N,BAT+*%
X127299000Y-65199000D02*
X127400000Y-65300000D01*
X123917800Y-61560500D02*
X124172250Y-61814950D01*
X125399000Y-65199000D02*
X127299000Y-65199000D01*
X123561250Y-61560500D02*
X123917800Y-61560500D01*
X124172250Y-63972250D02*
X125399000Y-65199000D01*
X123561250Y-61181500D02*
X123561250Y-61560500D01*
X124172250Y-61814950D02*
X124172250Y-63972250D01*
%TO.N,VDDH*%
X117422150Y-65118500D02*
X120104000Y-65118500D01*
X116640250Y-64336600D02*
X117422150Y-65118500D01*
X116640250Y-64200000D02*
X116640250Y-64336600D01*
X120104000Y-65118500D02*
X121161250Y-64061250D01*
%TO.N,GND*%
X119476350Y-64717500D02*
X120161250Y-64032600D01*
X118596150Y-64717500D02*
X119476350Y-64717500D01*
X118261250Y-62721500D02*
X118261250Y-64382600D01*
X118261250Y-64382600D02*
X118596150Y-64717500D01*
X120161250Y-64032600D02*
X120161250Y-62841500D01*
%TO.N,Net-(U2-TS)*%
X122473750Y-60529000D02*
X123551000Y-60529000D01*
X123551000Y-60529000D02*
X123880000Y-60200000D01*
X122348750Y-60654000D02*
X122473750Y-60529000D01*
%TO.N,VBUS*%
X125060250Y-59160250D02*
X123961250Y-59160250D01*
X127200000Y-61300000D02*
X125060250Y-59160250D01*
X127900000Y-61300000D02*
X127200000Y-61300000D01*
%TO.N,D+*%
X129200000Y-55500000D02*
X129200000Y-55440000D01*
X128500000Y-56200000D02*
X129200000Y-55500000D01*
%TO.N,SDO*%
X127850002Y-57200000D02*
X127850002Y-57070002D01*
X127690000Y-56910000D02*
X123600000Y-56910000D01*
X127850002Y-57070002D02*
X127690000Y-56910000D01*
%TO.N,CLK_CTL*%
X118703750Y-52003750D02*
X118900000Y-52200000D01*
X110634920Y-53734920D02*
X112366090Y-52003750D01*
X109965080Y-53734920D02*
X110634920Y-53734920D01*
X112366090Y-52003750D02*
X118703750Y-52003750D01*
X109400000Y-55800000D02*
X109400000Y-54300000D01*
X111711250Y-56644750D02*
X110244750Y-56644750D01*
X110244750Y-56644750D02*
X109400000Y-55800000D01*
X109400000Y-54300000D02*
X109965080Y-53734920D01*
%TO.N,GND*%
X119499000Y-52801000D02*
X120900000Y-51400000D01*
X115477500Y-52801000D02*
X119499000Y-52801000D01*
X115261250Y-52584750D02*
X115477500Y-52801000D01*
X111711250Y-53544750D02*
X111711250Y-54244750D01*
X112671250Y-52584750D02*
X111711250Y-53544750D01*
X115261250Y-52584750D02*
X112671250Y-52584750D01*
%TO.N,D-*%
X129200000Y-58100000D02*
X128000000Y-59300000D01*
X129200000Y-58000000D02*
X129200000Y-58100000D01*
%TO.N,+3V3*%
X113069840Y-53200000D02*
X114916500Y-53200000D01*
X114916500Y-53200000D02*
X115261250Y-53544750D01*
X112710250Y-53559590D02*
X113069840Y-53200000D01*
X112710250Y-55743750D02*
X112710250Y-53559590D01*
X113611250Y-56644750D02*
X112710250Y-55743750D01*
%TO.N,CLK*%
X113621750Y-54234250D02*
X113611250Y-54244750D01*
X115603250Y-54096750D02*
X115465750Y-54234250D01*
X117787250Y-54096750D02*
X115603250Y-54096750D01*
X117861250Y-54170750D02*
X117787250Y-54096750D01*
X117861250Y-54635250D02*
X117861250Y-54170750D01*
X115465750Y-54234250D02*
X113621750Y-54234250D01*
%TO.N,+3V3*%
X122461250Y-53011307D02*
X122461250Y-53860250D01*
X121251057Y-52299000D02*
X121748943Y-52299000D01*
X121748943Y-52299000D02*
X122461250Y-53011307D01*
X120250057Y-53300000D02*
X121251057Y-52299000D01*
X115506000Y-53300000D02*
X120250057Y-53300000D01*
X115261250Y-53544750D02*
X115506000Y-53300000D01*
%TO.N,INT1*%
X115339750Y-56960250D02*
X115300000Y-57000000D01*
X117361250Y-56960250D02*
X115339750Y-56960250D01*
%TO.N,+3V3*%
X115198750Y-56297750D02*
X114353500Y-55452500D01*
X115600000Y-56297750D02*
X115198750Y-56297750D01*
X115608312Y-56306062D02*
X115600000Y-56297750D01*
X116902250Y-56297750D02*
X117198750Y-56297750D01*
X115779972Y-56306062D02*
X115608312Y-56306062D01*
X116893938Y-56306062D02*
X116902250Y-56297750D01*
X115779972Y-56306062D02*
X116893938Y-56306062D01*
%TO.N,SCX*%
X117861250Y-57424750D02*
X117861250Y-56960250D01*
X117486000Y-57800000D02*
X117861250Y-57424750D01*
X114821500Y-57800000D02*
X117486000Y-57800000D01*
X114561250Y-58760250D02*
X114561250Y-58060250D01*
X114761250Y-58960250D02*
X114561250Y-58760250D01*
X114561250Y-58060250D02*
X114821500Y-57800000D01*
%TO.N,SDA*%
X120000000Y-56160250D02*
X120851250Y-56160250D01*
%TO.N,SCL*%
X120100000Y-54600000D02*
X120560250Y-55060250D01*
X120000000Y-54500000D02*
X120100000Y-54600000D01*
X121051250Y-55060250D02*
X120560250Y-55060250D01*
X119562250Y-55723750D02*
X119562250Y-55426350D01*
X119297750Y-55723750D02*
X119562250Y-55723750D01*
X119223750Y-55797750D02*
X119297750Y-55723750D01*
X119862250Y-55126350D02*
X119862250Y-54637750D01*
X119023750Y-55797750D02*
X119223750Y-55797750D01*
X119562250Y-55426350D02*
X119862250Y-55126350D01*
X119862250Y-54637750D02*
X120000000Y-54500000D01*
%TO.N,CS*%
X121441250Y-52958750D02*
X121500000Y-52900000D01*
X121441250Y-53860250D02*
X121441250Y-52958750D01*
%TO.N,VBUS*%
X124572250Y-57873700D02*
X124572250Y-58549250D01*
X124572250Y-58549250D02*
X123961250Y-59160250D01*
X124198550Y-57500000D02*
X124572250Y-57873700D01*
X120900000Y-57500000D02*
X124198550Y-57500000D01*
X120161250Y-58741500D02*
X120161250Y-58238750D01*
X120161250Y-58238750D02*
X120900000Y-57500000D01*
%TO.N,GND*%
X122301000Y-58000000D02*
X123061250Y-58760250D01*
X121862750Y-58000000D02*
X122301000Y-58000000D01*
X121121250Y-58741500D02*
X121862750Y-58000000D01*
%TO.N,SDO*%
X118974250Y-56910000D02*
X123600000Y-56910000D01*
X118924000Y-56960250D02*
X118974250Y-56910000D01*
%TO.N,+3V3*%
X123510000Y-55800000D02*
X123600000Y-55890000D01*
X122700000Y-55800000D02*
X123510000Y-55800000D01*
%TO.N,VDDH*%
X116640250Y-62352500D02*
X116640250Y-64200000D01*
X117261250Y-61731500D02*
X116640250Y-62352500D01*
%TO.N,BLED*%
X113039750Y-63960250D02*
X113000000Y-64000000D01*
X114186250Y-63960250D02*
X113039750Y-63960250D01*
%TO.N,Net-(D1-A)*%
X117461250Y-62951500D02*
X117261250Y-62751500D01*
X117461250Y-63941500D02*
X117461250Y-62951500D01*
%TO.N,+3V3*%
X122339750Y-56160250D02*
X121871250Y-56160250D01*
X122700000Y-55800000D02*
X122339750Y-56160250D01*
X122071250Y-54250250D02*
X122461250Y-53860250D01*
X122071250Y-55060250D02*
X122071250Y-54250250D01*
X121871250Y-55260250D02*
X122071250Y-55060250D01*
X121871250Y-56160250D02*
X121871250Y-55260250D01*
X119161250Y-59238750D02*
X118550000Y-59850000D01*
X119161250Y-59170250D02*
X119161250Y-59238750D01*
X117833750Y-58466250D02*
X117900000Y-58400000D01*
X116978750Y-58466250D02*
X117833750Y-58466250D01*
X112439750Y-59260250D02*
X111600000Y-60100000D01*
X112891250Y-59260250D02*
X112439750Y-59260250D01*
X112891250Y-59014750D02*
X113761250Y-58144750D01*
X112891250Y-59260250D02*
X112891250Y-59014750D01*
%TO.N,BAT+*%
X127400000Y-65300000D02*
X127400000Y-66000000D01*
X127400000Y-66000000D02*
X127400000Y-66700000D01*
%TO.N,VDDH*%
X121161250Y-64061250D02*
X123500000Y-66400000D01*
X121161250Y-62841500D02*
X121161250Y-64061250D01*
X123500000Y-66400000D02*
X123500000Y-66600000D01*
%TO.N,+3V3*%
X116978750Y-59142750D02*
X116682250Y-59439250D01*
X116978750Y-58466250D02*
X116978750Y-59142750D01*
%TO.N,Net-(U2-ISET)*%
X121661250Y-59966500D02*
X121661250Y-59140250D01*
X121661250Y-59140250D02*
X122041250Y-58760250D01*
%TO.N,GND*%
X123401250Y-58760250D02*
X123961250Y-58200250D01*
X123061250Y-58760250D02*
X123401250Y-58760250D01*
%TO.N,CS*%
X119767750Y-53853750D02*
X119461250Y-54160250D01*
X119023750Y-55297750D02*
X119123750Y-55297750D01*
X120561248Y-53853750D02*
X119767750Y-53853750D01*
X119461250Y-54160250D02*
X119461250Y-54960250D01*
X119123750Y-55297750D02*
X119461250Y-54960250D01*
%TO.N,SDA*%
X119709780Y-56360250D02*
X119086250Y-56360250D01*
X119086250Y-56360250D02*
X119023750Y-56297750D01*
X119891529Y-56175218D02*
X119891529Y-56178501D01*
X119891529Y-56178501D02*
X119709780Y-56360250D01*
%TO.N,GND*%
X112726750Y-58144750D02*
X111811250Y-59060250D01*
X112801250Y-58144750D02*
X112726750Y-58144750D01*
%TO.N,+3V3*%
X113861250Y-55944750D02*
X114353500Y-55452500D01*
X114353500Y-55452500D02*
X115170750Y-54635250D01*
X113876750Y-55960250D02*
X113861250Y-55944750D01*
X113861250Y-56644750D02*
X113861250Y-58044750D01*
X113861250Y-58044750D02*
X113761250Y-58144750D01*
%TO.N,GND*%
X116098750Y-55797750D02*
X115761250Y-55460250D01*
X115761250Y-55460250D02*
X115661250Y-55360250D01*
X117198750Y-55797750D02*
X116098750Y-55797750D01*
%TO.N,SDX*%
X118523000Y-58930384D02*
X117572134Y-59881250D01*
X118523000Y-57860250D02*
X118523000Y-58930384D01*
X117572134Y-59881250D02*
X116682250Y-59881250D01*
%TO.N,GND*%
X116018750Y-58466250D02*
X115455250Y-58466250D01*
X115455250Y-58466250D02*
X115449250Y-58460250D01*
X115261250Y-58460250D02*
X115911250Y-59110250D01*
X115449250Y-58460250D02*
X115261250Y-58460250D01*
X116018750Y-58466250D02*
X116018750Y-59002750D01*
X115911250Y-59110250D02*
X116240250Y-59439250D01*
X116018750Y-59002750D02*
X115911250Y-59110250D01*
%TO.N,SDX*%
X118813000Y-58150250D02*
X118523000Y-57860250D01*
X119161250Y-58150250D02*
X118813000Y-58150250D01*
%TO.N,+3V3*%
X115170750Y-54635250D02*
X117361250Y-54635250D01*
%TO.N,GND*%
X122361250Y-62141500D02*
X122348750Y-62154000D01*
%TO.N,BAT+*%
X123088750Y-61654000D02*
X123561250Y-61181500D01*
X123533750Y-61154000D02*
X123561250Y-61181500D01*
%TO.N,GND*%
X123561250Y-62141500D02*
X122361250Y-62141500D01*
%TO.N,BAT+*%
X122348750Y-61654000D02*
X123088750Y-61654000D01*
X122348750Y-61154000D02*
X123533750Y-61154000D01*
%TO.N,+3V3*%
X113861250Y-55944750D02*
X113861250Y-56644750D01*
%TO.N,GND*%
X121661250Y-62841500D02*
X121661250Y-62154000D01*
X121661250Y-62154000D02*
X120911250Y-61404000D01*
%TO.N,Net-(D1-K)*%
X119036250Y-62591500D02*
X119473750Y-62154000D01*
%TO.N,VDDH*%
X119473750Y-61154000D02*
X118838750Y-61154000D01*
%TO.N,GND*%
X120212250Y-62103000D02*
X120911250Y-61404000D01*
%TO.N,Net-(D1-K)*%
X119036250Y-63941500D02*
X119036250Y-62591500D01*
%TO.N,GND*%
X120212250Y-62790500D02*
X120212250Y-62103000D01*
X120161250Y-62841500D02*
X120212250Y-62790500D01*
X122348750Y-62154000D02*
X121661250Y-62154000D01*
X121161250Y-61154000D02*
X120911250Y-61404000D01*
X121161250Y-59966500D02*
X121161250Y-61154000D01*
%TO.N,SDX*%
X118361250Y-57698500D02*
X118361250Y-56960250D01*
X118523000Y-57860250D02*
X118361250Y-57698500D01*
%TO.N,SDA*%
X119906497Y-56160250D02*
X119891529Y-56175218D01*
%TO.N,CS*%
X121441250Y-53860250D02*
X120567748Y-53860250D01*
X120567748Y-53860250D02*
X120561248Y-53853750D01*
%TO.N,SDA*%
X119906497Y-56160250D02*
X120000000Y-56160250D01*
%TO.N,Net-(D2-K)*%
X115761250Y-62960250D02*
X116061250Y-62660250D01*
X115761250Y-63960250D02*
X115761250Y-62960250D01*
%TO.N,VBUS*%
X120161250Y-59966500D02*
X120161250Y-58741500D01*
%TO.N,GND*%
X121121250Y-58741500D02*
X121121250Y-59926500D01*
X121121250Y-59926500D02*
X121161250Y-59966500D01*
%TO.N,VDDH*%
X117291250Y-61761500D02*
X117261250Y-61731500D01*
X118838750Y-61184000D02*
X118261250Y-61761500D01*
X118838750Y-61154000D02*
X118838750Y-61184000D01*
X118368750Y-61654000D02*
X118261250Y-61761500D01*
X118261250Y-61761500D02*
X117291250Y-61761500D01*
X119473750Y-61654000D02*
X118368750Y-61654000D01*
%TO.N,SCX*%
X114461250Y-59260250D02*
X114761250Y-58960250D01*
X116161250Y-59960250D02*
X115761250Y-59960250D01*
X114461250Y-59260250D02*
X113911250Y-59260250D01*
X116240250Y-59881250D02*
X116161250Y-59960250D01*
X115761250Y-59960250D02*
X114761250Y-58960250D01*
%TO.N,VBUS*%
X128400000Y-61300000D02*
X127900000Y-61300000D01*
X129200000Y-60500000D02*
X128400000Y-61300000D01*
%TD*%
%TA.AperFunction,Conductor*%
%TO.N,GND*%
G36*
X109505703Y-56755384D02*
G01*
X109512181Y-56761416D01*
X109759889Y-57009124D01*
X109759899Y-57009135D01*
X109764229Y-57013465D01*
X109764230Y-57013466D01*
X109876034Y-57125270D01*
X109962845Y-57175389D01*
X109962847Y-57175391D01*
X110000901Y-57197361D01*
X110012965Y-57204327D01*
X110165693Y-57245251D01*
X110165696Y-57245251D01*
X110331403Y-57245251D01*
X110331419Y-57245250D01*
X110530949Y-57245250D01*
X110597988Y-57264935D01*
X110643743Y-57317739D01*
X110648653Y-57330242D01*
X110676436Y-57414084D01*
X110768538Y-57563406D01*
X110892594Y-57687462D01*
X111041916Y-57779564D01*
X111208453Y-57834749D01*
X111311241Y-57845250D01*
X112111258Y-57845249D01*
X112111266Y-57845248D01*
X112111269Y-57845248D01*
X112167552Y-57839498D01*
X112214047Y-57834749D01*
X112380584Y-57779564D01*
X112529906Y-57687462D01*
X112573569Y-57643799D01*
X112634892Y-57610314D01*
X112704584Y-57615298D01*
X112733781Y-57630906D01*
X112741875Y-57636743D01*
X112792594Y-57687462D01*
X112928088Y-57771034D01*
X112931717Y-57773652D01*
X112950514Y-57797851D01*
X112971007Y-57820635D01*
X112971889Y-57825369D01*
X112974578Y-57828831D01*
X112976464Y-57849928D01*
X112982804Y-57883952D01*
X112980750Y-57910047D01*
X112980750Y-58024652D01*
X112961065Y-58091691D01*
X112944431Y-58112333D01*
X112619547Y-58437216D01*
X112566461Y-58468611D01*
X112501861Y-58487379D01*
X112501858Y-58487380D01*
X112363654Y-58569113D01*
X112363650Y-58569116D01*
X112264419Y-58668347D01*
X112215159Y-58696788D01*
X112215479Y-58697560D01*
X112209619Y-58699987D01*
X112208841Y-58700437D01*
X112207973Y-58700669D01*
X112207963Y-58700673D01*
X112175755Y-58719268D01*
X112175756Y-58719269D01*
X112071037Y-58779727D01*
X112071032Y-58779731D01*
X111585339Y-59265425D01*
X111524016Y-59298910D01*
X111521850Y-59299361D01*
X111366508Y-59330261D01*
X111366498Y-59330264D01*
X111220827Y-59390602D01*
X111220814Y-59390609D01*
X111089711Y-59478210D01*
X111089707Y-59478213D01*
X110978213Y-59589707D01*
X110978210Y-59589711D01*
X110890609Y-59720814D01*
X110890602Y-59720827D01*
X110830264Y-59866498D01*
X110830261Y-59866510D01*
X110799500Y-60021153D01*
X110799500Y-60178846D01*
X110830261Y-60333489D01*
X110830264Y-60333501D01*
X110890602Y-60479172D01*
X110890609Y-60479185D01*
X110978210Y-60610288D01*
X110978213Y-60610292D01*
X111089707Y-60721786D01*
X111089711Y-60721789D01*
X111220814Y-60809390D01*
X111220827Y-60809397D01*
X111366498Y-60869735D01*
X111366503Y-60869737D01*
X111521153Y-60900499D01*
X111521156Y-60900500D01*
X111521158Y-60900500D01*
X111678844Y-60900500D01*
X111678845Y-60900499D01*
X111833497Y-60869737D01*
X111979179Y-60809394D01*
X112110289Y-60721789D01*
X112221789Y-60610289D01*
X112309394Y-60479179D01*
X112369737Y-60333497D01*
X112400500Y-60178842D01*
X112400500Y-60178839D01*
X112400637Y-60178151D01*
X112409402Y-60161394D01*
X112413422Y-60142915D01*
X112432162Y-60117880D01*
X112433021Y-60116240D01*
X112434532Y-60114701D01*
X112461052Y-60088182D01*
X112522374Y-60054698D01*
X112583325Y-60056787D01*
X112656046Y-60077915D01*
X112692069Y-60080750D01*
X113090430Y-60080749D01*
X113126454Y-60077915D01*
X113280643Y-60033119D01*
X113338132Y-59999119D01*
X113405852Y-59981938D01*
X113464367Y-59999119D01*
X113521857Y-60033119D01*
X113521860Y-60033119D01*
X113521862Y-60033121D01*
X113676041Y-60077914D01*
X113676044Y-60077914D01*
X113676046Y-60077915D01*
X113712069Y-60080750D01*
X114110430Y-60080749D01*
X114146454Y-60077915D01*
X114300643Y-60033119D01*
X114438848Y-59951385D01*
X114502027Y-59888205D01*
X114515913Y-59880188D01*
X114525169Y-59870007D01*
X114557608Y-59856115D01*
X114685839Y-59821755D01*
X114755688Y-59823418D01*
X114805613Y-59853849D01*
X115392534Y-60440770D01*
X115392536Y-60440771D01*
X115392540Y-60440774D01*
X115529459Y-60519823D01*
X115529462Y-60519825D01*
X115529466Y-60519827D01*
X115682193Y-60560751D01*
X115682195Y-60560751D01*
X115847904Y-60560751D01*
X115847920Y-60560750D01*
X116074581Y-60560750D01*
X116074597Y-60560751D01*
X116082193Y-60560751D01*
X116240304Y-60560751D01*
X116240307Y-60560751D01*
X116393035Y-60519827D01*
X116456027Y-60483458D01*
X116482050Y-60477144D01*
X116506974Y-60467338D01*
X116519664Y-60468018D01*
X116523924Y-60466985D01*
X116542212Y-60469227D01*
X116593536Y-60479436D01*
X116601436Y-60481279D01*
X116603193Y-60481750D01*
X117485465Y-60481750D01*
X117485481Y-60481751D01*
X117493077Y-60481751D01*
X117651188Y-60481751D01*
X117651191Y-60481751D01*
X117803919Y-60440827D01*
X117851374Y-60413428D01*
X117919272Y-60396955D01*
X117985299Y-60419806D01*
X118001055Y-60433134D01*
X118039707Y-60471786D01*
X118039711Y-60471789D01*
X118170814Y-60559390D01*
X118170827Y-60559397D01*
X118296677Y-60611525D01*
X118309997Y-60622258D01*
X118325879Y-60628617D01*
X118336637Y-60643726D01*
X118351081Y-60655365D01*
X118356483Y-60671597D01*
X118366406Y-60685532D01*
X118367288Y-60704059D01*
X118373146Y-60721659D01*
X118368932Y-60738587D01*
X118369729Y-60755322D01*
X118356611Y-60788088D01*
X118325409Y-60842129D01*
X118305705Y-60867807D01*
X118228834Y-60944680D01*
X118167512Y-60978166D01*
X118141152Y-60981000D01*
X118026552Y-60981000D01*
X117990258Y-60983856D01*
X117990252Y-60983857D01*
X117827364Y-61031182D01*
X117826981Y-61029863D01*
X117765870Y-61037397D01*
X117722866Y-61021772D01*
X117700650Y-61008634D01*
X117700641Y-61008630D01*
X117546458Y-60963835D01*
X117546452Y-60963834D01*
X117510431Y-60961000D01*
X117012080Y-60961000D01*
X117012058Y-60961001D01*
X116976044Y-60963835D01*
X116821861Y-61008629D01*
X116821856Y-61008631D01*
X116683654Y-61090363D01*
X116683646Y-61090369D01*
X116570119Y-61203896D01*
X116570113Y-61203904D01*
X116488381Y-61342106D01*
X116488379Y-61342111D01*
X116443585Y-61496291D01*
X116443584Y-61496297D01*
X116440750Y-61532311D01*
X116440750Y-61651402D01*
X116432105Y-61680839D01*
X116425582Y-61710830D01*
X116421826Y-61715846D01*
X116421065Y-61718441D01*
X116404435Y-61739078D01*
X116362994Y-61780520D01*
X116340082Y-61803432D01*
X116278758Y-61836916D01*
X116252401Y-61839750D01*
X115862080Y-61839750D01*
X115862058Y-61839751D01*
X115826044Y-61842585D01*
X115671861Y-61887379D01*
X115671856Y-61887381D01*
X115533654Y-61969113D01*
X115533646Y-61969119D01*
X115420119Y-62082646D01*
X115420113Y-62082654D01*
X115338381Y-62220856D01*
X115338379Y-62220861D01*
X115293585Y-62375041D01*
X115293584Y-62375047D01*
X115290750Y-62411061D01*
X115290750Y-62540952D01*
X115286600Y-62556439D01*
X115287255Y-62570185D01*
X115274138Y-62602951D01*
X115234019Y-62672441D01*
X115234018Y-62672442D01*
X115201673Y-62728464D01*
X115201673Y-62728465D01*
X115160749Y-62881193D01*
X115160749Y-62881195D01*
X115160749Y-63025194D01*
X115141064Y-63092233D01*
X115118316Y-63118590D01*
X115110577Y-63125348D01*
X115093359Y-63135969D01*
X115058482Y-63170845D01*
X115055316Y-63173611D01*
X115027241Y-63186564D01*
X115000105Y-63201382D01*
X114995795Y-63201073D01*
X114991874Y-63202883D01*
X114961257Y-63198602D01*
X114930414Y-63196396D01*
X114926227Y-63193705D01*
X114922677Y-63193209D01*
X114914451Y-63186137D01*
X114886068Y-63167896D01*
X114854141Y-63135969D01*
X114854137Y-63135966D01*
X114711045Y-63047705D01*
X114711039Y-63047702D01*
X114711037Y-63047701D01*
X114551435Y-62994814D01*
X114551433Y-62994813D01*
X114452931Y-62984750D01*
X114452924Y-62984750D01*
X113919576Y-62984750D01*
X113919568Y-62984750D01*
X113821066Y-62994813D01*
X113821065Y-62994814D01*
X113741969Y-63021023D01*
X113661465Y-63047700D01*
X113661454Y-63047705D01*
X113518362Y-63135966D01*
X113426835Y-63227493D01*
X113365511Y-63260977D01*
X113295820Y-63255993D01*
X113291702Y-63254372D01*
X113233498Y-63230263D01*
X113233488Y-63230260D01*
X113078845Y-63199500D01*
X113078842Y-63199500D01*
X112921158Y-63199500D01*
X112921155Y-63199500D01*
X112766510Y-63230261D01*
X112766498Y-63230264D01*
X112620827Y-63290602D01*
X112620814Y-63290609D01*
X112489711Y-63378210D01*
X112489707Y-63378213D01*
X112378213Y-63489707D01*
X112378210Y-63489711D01*
X112290609Y-63620814D01*
X112290602Y-63620827D01*
X112230264Y-63766498D01*
X112230261Y-63766510D01*
X112199500Y-63921153D01*
X112199500Y-64078846D01*
X112230261Y-64233489D01*
X112230264Y-64233501D01*
X112290602Y-64379172D01*
X112290609Y-64379185D01*
X112378210Y-64510288D01*
X112378213Y-64510292D01*
X112489707Y-64621786D01*
X112489711Y-64621789D01*
X112620814Y-64709390D01*
X112620827Y-64709397D01*
X112709556Y-64746149D01*
X112766503Y-64769737D01*
X112921153Y-64800499D01*
X112921156Y-64800500D01*
X112921158Y-64800500D01*
X113078844Y-64800500D01*
X113078845Y-64800499D01*
X113233497Y-64769737D01*
X113290444Y-64746149D01*
X113347918Y-64722343D01*
X113417387Y-64714874D01*
X113479866Y-64746149D01*
X113483051Y-64749223D01*
X113518358Y-64784530D01*
X113518362Y-64784533D01*
X113661454Y-64872794D01*
X113661457Y-64872795D01*
X113661463Y-64872799D01*
X113741911Y-64899457D01*
X113799356Y-64939228D01*
X113826179Y-65003744D01*
X113813864Y-65072520D01*
X113777220Y-65116427D01*
X113742454Y-65142453D01*
X113742452Y-65142455D01*
X113656206Y-65257664D01*
X113656202Y-65257671D01*
X113605908Y-65392517D01*
X113599501Y-65452116D01*
X113599501Y-65452123D01*
X113599500Y-65452135D01*
X113599500Y-67347870D01*
X113599501Y-67347876D01*
X113605909Y-67407485D01*
X113615115Y-67432168D01*
X113620099Y-67501860D01*
X113586613Y-67563182D01*
X113525289Y-67596667D01*
X113498933Y-67599500D01*
X109424500Y-67599500D01*
X109357461Y-67579815D01*
X109311706Y-67527011D01*
X109300500Y-67475500D01*
X109300500Y-56849097D01*
X109320185Y-56782058D01*
X109372989Y-56736303D01*
X109442147Y-56726359D01*
X109505703Y-56755384D01*
G37*
%TD.AperFunction*%
%TA.AperFunction,Conductor*%
G36*
X124833061Y-59787842D02*
G01*
X124857713Y-59806948D01*
X126715139Y-61664374D01*
X126715149Y-61664385D01*
X126719479Y-61668715D01*
X126719480Y-61668716D01*
X126831284Y-61780520D01*
X126831286Y-61780521D01*
X126831290Y-61780524D01*
X126968209Y-61859573D01*
X126968216Y-61859577D01*
X127066022Y-61885784D01*
X127066021Y-61885784D01*
X127071982Y-61887381D01*
X127120942Y-61900500D01*
X127120943Y-61900500D01*
X127320234Y-61900500D01*
X127387273Y-61920185D01*
X127389125Y-61921398D01*
X127520814Y-62009390D01*
X127520827Y-62009397D01*
X127666498Y-62069735D01*
X127666503Y-62069737D01*
X127821153Y-62100499D01*
X127821156Y-62100500D01*
X127821158Y-62100500D01*
X127978844Y-62100500D01*
X127978845Y-62100499D01*
X128133497Y-62069737D01*
X128279179Y-62009394D01*
X128358278Y-61956542D01*
X128410873Y-61921399D01*
X128471124Y-61902532D01*
X128470997Y-61901562D01*
X128476568Y-61900828D01*
X128477550Y-61900521D01*
X128479002Y-61900507D01*
X128479054Y-61900501D01*
X128479057Y-61900501D01*
X128631785Y-61859577D01*
X128681904Y-61830639D01*
X128768716Y-61780520D01*
X128803339Y-61745896D01*
X128812478Y-61739558D01*
X128835496Y-61731909D01*
X128856788Y-61720283D01*
X128871775Y-61719854D01*
X128878784Y-61717526D01*
X128886270Y-61719440D01*
X128902546Y-61718976D01*
X129101578Y-61750500D01*
X129101583Y-61750500D01*
X129298422Y-61750500D01*
X129492826Y-61719709D01*
X129496728Y-61718441D01*
X129680025Y-61658884D01*
X129855405Y-61569524D01*
X130014646Y-61453828D01*
X130087819Y-61380655D01*
X130149142Y-61347170D01*
X130218834Y-61352154D01*
X130274767Y-61394026D01*
X130299184Y-61459490D01*
X130299500Y-61468336D01*
X130299500Y-67475500D01*
X130279815Y-67542539D01*
X130227011Y-67588294D01*
X130175500Y-67599500D01*
X127903439Y-67599500D01*
X127836400Y-67579815D01*
X127790645Y-67527011D01*
X127780701Y-67457853D01*
X127809726Y-67394297D01*
X127834548Y-67372398D01*
X127871256Y-67347870D01*
X127910289Y-67321789D01*
X128021789Y-67210289D01*
X128109394Y-67079179D01*
X128169737Y-66933497D01*
X128200500Y-66778842D01*
X128200500Y-66621158D01*
X128200500Y-66621155D01*
X128200499Y-66621153D01*
X128169737Y-66466503D01*
X128141134Y-66397450D01*
X128133666Y-66327984D01*
X128141133Y-66302552D01*
X128169737Y-66233497D01*
X128200500Y-66078842D01*
X128200500Y-65921158D01*
X128200500Y-65921155D01*
X128200499Y-65921153D01*
X128169738Y-65766510D01*
X128169737Y-65766503D01*
X128141134Y-65697450D01*
X128133666Y-65627984D01*
X128141133Y-65602552D01*
X128169737Y-65533497D01*
X128200500Y-65378842D01*
X128200500Y-65221158D01*
X128200500Y-65221155D01*
X128200499Y-65221153D01*
X128184845Y-65142455D01*
X128169737Y-65066503D01*
X128151350Y-65022113D01*
X128109397Y-64920827D01*
X128109390Y-64920814D01*
X128021789Y-64789711D01*
X128021786Y-64789707D01*
X127910292Y-64678213D01*
X127910288Y-64678210D01*
X127779185Y-64590609D01*
X127779172Y-64590602D01*
X127633501Y-64530264D01*
X127633489Y-64530261D01*
X127478845Y-64499500D01*
X127478842Y-64499500D01*
X127321158Y-64499500D01*
X127321155Y-64499500D01*
X127166510Y-64530261D01*
X127166498Y-64530264D01*
X127024550Y-64589061D01*
X126977098Y-64598500D01*
X125699097Y-64598500D01*
X125632058Y-64578815D01*
X125611416Y-64562181D01*
X124809069Y-63759834D01*
X124775584Y-63698511D01*
X124772750Y-63672153D01*
X124772750Y-61904010D01*
X124772751Y-61903997D01*
X124772751Y-61735894D01*
X124768218Y-61718976D01*
X124731827Y-61583166D01*
X124715334Y-61554599D01*
X124652774Y-61446240D01*
X124652768Y-61446232D01*
X124415761Y-61209226D01*
X124408062Y-61201527D01*
X124388645Y-61165962D01*
X124374584Y-61140210D01*
X124374583Y-61140204D01*
X124374582Y-61140202D01*
X124374582Y-61140195D01*
X124371750Y-61113852D01*
X124371750Y-60978345D01*
X124391435Y-60911306D01*
X124408064Y-60890668D01*
X124521135Y-60777598D01*
X124602869Y-60639393D01*
X124643512Y-60499500D01*
X124647664Y-60485208D01*
X124647665Y-60485202D01*
X124647974Y-60481280D01*
X124650500Y-60449181D01*
X124650499Y-59950820D01*
X124647665Y-59914796D01*
X124647664Y-59914795D01*
X124647168Y-59908480D01*
X124648956Y-59908339D01*
X124655362Y-59847439D01*
X124699079Y-59792935D01*
X124765322Y-59770718D01*
X124833061Y-59787842D01*
G37*
%TD.AperFunction*%
%TA.AperFunction,Conductor*%
G36*
X116371047Y-64916633D02*
G01*
X117053434Y-65599020D01*
X117053436Y-65599021D01*
X117053440Y-65599024D01*
X117190359Y-65678073D01*
X117190366Y-65678077D01*
X117343093Y-65719001D01*
X117343095Y-65719001D01*
X117508804Y-65719001D01*
X117508820Y-65719000D01*
X120017331Y-65719000D01*
X120017347Y-65719001D01*
X120024943Y-65719001D01*
X120183054Y-65719001D01*
X120183057Y-65719001D01*
X120335785Y-65678077D01*
X120385904Y-65649139D01*
X120472716Y-65599020D01*
X120584520Y-65487216D01*
X120584520Y-65487214D01*
X120594728Y-65477007D01*
X120594729Y-65477004D01*
X121073572Y-64998162D01*
X121134891Y-64964680D01*
X121204583Y-64969664D01*
X121248930Y-64998165D01*
X122664649Y-66413884D01*
X122698134Y-66475207D01*
X122698490Y-66514937D01*
X122700097Y-66515096D01*
X122699500Y-66521158D01*
X122699500Y-66678846D01*
X122730261Y-66833489D01*
X122732031Y-66839324D01*
X122729902Y-66839969D01*
X122736301Y-66899524D01*
X122705023Y-66962001D01*
X122644932Y-66997650D01*
X122614273Y-67001500D01*
X116277098Y-67001500D01*
X116210059Y-66981815D01*
X116189417Y-66965181D01*
X115986818Y-66762582D01*
X115953333Y-66701259D01*
X115950499Y-66674901D01*
X115950499Y-65452129D01*
X115950498Y-65452123D01*
X115950497Y-65452116D01*
X115944091Y-65392517D01*
X115938991Y-65378844D01*
X115893797Y-65257671D01*
X115893793Y-65257664D01*
X115802232Y-65135355D01*
X115804856Y-65133390D01*
X115779038Y-65086108D01*
X115784022Y-65016416D01*
X115825894Y-64960483D01*
X115891358Y-64936066D01*
X115900204Y-64935750D01*
X116027919Y-64935750D01*
X116027924Y-64935750D01*
X116126435Y-64925686D01*
X116244364Y-64886607D01*
X116314190Y-64884206D01*
X116371047Y-64916633D01*
G37*
%TD.AperFunction*%
%TA.AperFunction,Conductor*%
G36*
X123519670Y-62182298D02*
G01*
X123562864Y-62237216D01*
X123571750Y-62283311D01*
X123571750Y-63885580D01*
X123571749Y-63885598D01*
X123571749Y-64051304D01*
X123571748Y-64051304D01*
X123571749Y-64051307D01*
X123612673Y-64204035D01*
X123612674Y-64204037D01*
X123612673Y-64204037D01*
X123628692Y-64231781D01*
X123628694Y-64231783D01*
X123628695Y-64231785D01*
X123636714Y-64245674D01*
X123691729Y-64340965D01*
X123810599Y-64459835D01*
X123810605Y-64459840D01*
X124241863Y-64891098D01*
X124275348Y-64952421D01*
X124270364Y-65022113D01*
X124228494Y-65078044D01*
X124142454Y-65142454D01*
X124142453Y-65142455D01*
X124142452Y-65142456D01*
X124056206Y-65257664D01*
X124056202Y-65257671D01*
X124005908Y-65392517D01*
X123999501Y-65452116D01*
X123999501Y-65452123D01*
X123999500Y-65452135D01*
X123999500Y-65750903D01*
X123979815Y-65817942D01*
X123927011Y-65863697D01*
X123857853Y-65873641D01*
X123794297Y-65844616D01*
X123787819Y-65838584D01*
X121798069Y-63848834D01*
X121764584Y-63787511D01*
X121761750Y-63761153D01*
X121761750Y-63413507D01*
X121771190Y-63366051D01*
X121772259Y-63363472D01*
X121786750Y-63253401D01*
X121786749Y-62429600D01*
X121785085Y-62416959D01*
X121795851Y-62347925D01*
X121842231Y-62295669D01*
X121909499Y-62276784D01*
X121924209Y-62277836D01*
X121925195Y-62277965D01*
X121936849Y-62279500D01*
X122760650Y-62279499D01*
X122760653Y-62279499D01*
X122870713Y-62265011D01*
X122870716Y-62265009D01*
X122870722Y-62265009D01*
X122873308Y-62263938D01*
X122881483Y-62262311D01*
X122885823Y-62259523D01*
X122920758Y-62254500D01*
X123002081Y-62254500D01*
X123002097Y-62254501D01*
X123009693Y-62254501D01*
X123167804Y-62254501D01*
X123167807Y-62254501D01*
X123320535Y-62213577D01*
X123374238Y-62182571D01*
X123385745Y-62175927D01*
X123453641Y-62159451D01*
X123519670Y-62182298D01*
G37*
%TD.AperFunction*%
%TA.AperFunction,Conductor*%
G36*
X120179453Y-63599042D02*
G01*
X120196622Y-63617265D01*
X120197214Y-63618036D01*
X120314821Y-63708279D01*
X120314822Y-63708279D01*
X120314823Y-63708280D01*
X120390972Y-63739822D01*
X120445375Y-63783663D01*
X120467440Y-63849957D01*
X120450161Y-63917656D01*
X120431200Y-63942064D01*
X120185931Y-64187333D01*
X120124608Y-64220818D01*
X120054916Y-64215834D01*
X119998983Y-64173962D01*
X119974566Y-64108498D01*
X119974250Y-64099652D01*
X119974250Y-63692755D01*
X119993935Y-63625716D01*
X120046739Y-63579961D01*
X120115897Y-63570017D01*
X120179453Y-63599042D01*
G37*
%TD.AperFunction*%
%TA.AperFunction,Conductor*%
G36*
X118320431Y-62544549D02*
G01*
X118329388Y-62543261D01*
X118353432Y-62554239D01*
X118378788Y-62561685D01*
X118384712Y-62568521D01*
X118392945Y-62572281D01*
X118407238Y-62594518D01*
X118424543Y-62614489D01*
X118426829Y-62624997D01*
X118430724Y-62631057D01*
X118435749Y-62665991D01*
X118435750Y-62680550D01*
X118435750Y-63006444D01*
X118416065Y-63073483D01*
X118376849Y-63111981D01*
X118368361Y-63117216D01*
X118368357Y-63117219D01*
X118336431Y-63149146D01*
X118329983Y-63152666D01*
X118325742Y-63158667D01*
X118299729Y-63169186D01*
X118275108Y-63182631D01*
X118267780Y-63182106D01*
X118260968Y-63184862D01*
X118233397Y-63179648D01*
X118205416Y-63177647D01*
X118197841Y-63172923D01*
X118192316Y-63171879D01*
X118169227Y-63155081D01*
X118163495Y-63151507D01*
X118162253Y-63150331D01*
X118129141Y-63117219D01*
X118123807Y-63113929D01*
X118114525Y-63105140D01*
X118103112Y-63085531D01*
X118087945Y-63068660D01*
X118085874Y-63055914D01*
X118079378Y-63044753D01*
X118080378Y-63022088D01*
X118076740Y-62999694D01*
X118077799Y-62992814D01*
X118078915Y-62986704D01*
X118081749Y-62950688D01*
X118081750Y-62950681D01*
X118081749Y-62665999D01*
X118101433Y-62598961D01*
X118154237Y-62553206D01*
X118205749Y-62542000D01*
X118311749Y-62542000D01*
X118320431Y-62544549D01*
G37*
%TD.AperFunction*%
%TA.AperFunction,Conductor*%
G36*
X121173596Y-60752816D02*
G01*
X121196732Y-60752923D01*
X121214770Y-60761261D01*
X121219377Y-60762206D01*
X121225944Y-60766426D01*
X121228769Y-60767732D01*
X121232857Y-60770385D01*
X121314821Y-60833279D01*
X121356034Y-60850350D01*
X121365580Y-60856547D01*
X121411091Y-60909561D01*
X121421000Y-60976738D01*
X121410750Y-61054597D01*
X121410750Y-61253403D01*
X121425239Y-61363468D01*
X121427344Y-61371322D01*
X121424064Y-61372200D01*
X121429831Y-61426073D01*
X121426767Y-61436522D01*
X121427345Y-61436677D01*
X121425240Y-61444529D01*
X121410750Y-61554598D01*
X121410750Y-61753400D01*
X121412415Y-61766045D01*
X121401646Y-61835080D01*
X121355263Y-61887333D01*
X121287993Y-61906215D01*
X121273296Y-61905164D01*
X121260651Y-61903500D01*
X121061846Y-61903500D01*
X120951781Y-61917989D01*
X120943928Y-61920094D01*
X120943052Y-61916824D01*
X120889103Y-61922567D01*
X120878727Y-61919518D01*
X120878573Y-61920095D01*
X120870720Y-61917990D01*
X120760651Y-61903500D01*
X120561848Y-61903500D01*
X120549203Y-61905165D01*
X120480168Y-61894395D01*
X120427915Y-61848012D01*
X120409034Y-61780742D01*
X120410086Y-61766039D01*
X120411750Y-61753401D01*
X120411749Y-61554600D01*
X120397259Y-61444528D01*
X120397258Y-61444525D01*
X120395155Y-61436674D01*
X120398457Y-61435789D01*
X120392642Y-61382075D01*
X120395751Y-61371485D01*
X120395155Y-61371326D01*
X120397258Y-61363475D01*
X120397258Y-61363474D01*
X120397259Y-61363472D01*
X120411750Y-61253401D01*
X120411749Y-61054600D01*
X120410085Y-61041959D01*
X120420851Y-60972925D01*
X120467231Y-60920669D01*
X120534499Y-60901784D01*
X120549209Y-60902836D01*
X120550195Y-60902965D01*
X120561849Y-60904500D01*
X120760650Y-60904499D01*
X120760653Y-60904499D01*
X120870713Y-60890011D01*
X120870717Y-60890009D01*
X120870722Y-60890009D01*
X121007679Y-60833279D01*
X121085765Y-60773360D01*
X121107343Y-60765019D01*
X121126863Y-60752601D01*
X121139316Y-60752658D01*
X121150932Y-60748168D01*
X121173596Y-60752816D01*
G37*
%TD.AperFunction*%
%TA.AperFunction,Conductor*%
G36*
X123914789Y-58120185D02*
G01*
X123960544Y-58172989D01*
X123971750Y-58224500D01*
X123971750Y-58249153D01*
X123963105Y-58278593D01*
X123956582Y-58308580D01*
X123952827Y-58313595D01*
X123952065Y-58316192D01*
X123935431Y-58336834D01*
X123928834Y-58343431D01*
X123867511Y-58376916D01*
X123841153Y-58379750D01*
X123726552Y-58379750D01*
X123690258Y-58382606D01*
X123690252Y-58382607D01*
X123534859Y-58427754D01*
X123534856Y-58427755D01*
X123395565Y-58510131D01*
X123395557Y-58510137D01*
X123281137Y-58624557D01*
X123281131Y-58624565D01*
X123198755Y-58763856D01*
X123198754Y-58763859D01*
X123153607Y-58919252D01*
X123153606Y-58919258D01*
X123150750Y-58955552D01*
X123150750Y-59364947D01*
X123153606Y-59401241D01*
X123153607Y-59401247D01*
X123198754Y-59556640D01*
X123198756Y-59556645D01*
X123200925Y-59560313D01*
X123201748Y-59563560D01*
X123201853Y-59563801D01*
X123201814Y-59563817D01*
X123202311Y-59565780D01*
X123206080Y-59569980D01*
X123210810Y-59599279D01*
X123218106Y-59628038D01*
X123216553Y-59634849D01*
X123217216Y-59638956D01*
X123212428Y-59652943D01*
X123207859Y-59672987D01*
X123204803Y-59679996D01*
X123157131Y-59760607D01*
X123132105Y-59846747D01*
X123128919Y-59854055D01*
X123111408Y-59874982D01*
X123096722Y-59897980D01*
X123089315Y-59901388D01*
X123084083Y-59907642D01*
X123058038Y-59915780D01*
X123033250Y-59927187D01*
X123017967Y-59928301D01*
X123017394Y-59928481D01*
X123016999Y-59928372D01*
X123015252Y-59928500D01*
X122560420Y-59928500D01*
X122560404Y-59928499D01*
X122552808Y-59928499D01*
X122410749Y-59928499D01*
X122402063Y-59925948D01*
X122393102Y-59927237D01*
X122369061Y-59916258D01*
X122343710Y-59908814D01*
X122337782Y-59901973D01*
X122329546Y-59898212D01*
X122315256Y-59875977D01*
X122297955Y-59856010D01*
X122295667Y-59845495D01*
X122291772Y-59839434D01*
X122286749Y-59804499D01*
X122286749Y-59668025D01*
X122306434Y-59600986D01*
X122359238Y-59555231D01*
X122376144Y-59548952D01*
X122430643Y-59533119D01*
X122568848Y-59451385D01*
X122682385Y-59337848D01*
X122764119Y-59199643D01*
X122803322Y-59064704D01*
X122808914Y-59045458D01*
X122808915Y-59045452D01*
X122811750Y-59009431D01*
X122811749Y-58511070D01*
X122808915Y-58475046D01*
X122764119Y-58320857D01*
X122744462Y-58287620D01*
X122727280Y-58219897D01*
X122749440Y-58153635D01*
X122803906Y-58109871D01*
X122851195Y-58100500D01*
X123847750Y-58100500D01*
X123914789Y-58120185D01*
G37*
%TD.AperFunction*%
%TA.AperFunction,Conductor*%
G36*
X116141289Y-58420185D02*
G01*
X116187044Y-58472989D01*
X116198250Y-58524500D01*
X116198250Y-58700947D01*
X116201106Y-58737241D01*
X116201107Y-58737247D01*
X116248432Y-58900137D01*
X116246029Y-58900835D01*
X116253085Y-58957986D01*
X116222797Y-59020950D01*
X116218406Y-59025573D01*
X116179275Y-59064704D01*
X116111368Y-59166335D01*
X116111366Y-59166339D01*
X116096041Y-59203337D01*
X116052200Y-59257740D01*
X115985905Y-59279804D01*
X115918206Y-59262524D01*
X115893800Y-59243564D01*
X115262416Y-58612181D01*
X115228931Y-58550858D01*
X115233915Y-58481167D01*
X115275786Y-58425233D01*
X115341251Y-58400816D01*
X115350097Y-58400500D01*
X116074250Y-58400500D01*
X116141289Y-58420185D01*
G37*
%TD.AperFunction*%
%TA.AperFunction,Conductor*%
G36*
X121298344Y-58120185D02*
G01*
X121344099Y-58172989D01*
X121354043Y-58242147D01*
X121338037Y-58287619D01*
X121333944Y-58294542D01*
X121318381Y-58320856D01*
X121318379Y-58320861D01*
X121273585Y-58475041D01*
X121273584Y-58475047D01*
X121270750Y-58511061D01*
X121270750Y-58630150D01*
X121263220Y-58655791D01*
X121259284Y-58682228D01*
X121252680Y-58691688D01*
X121251065Y-58697189D01*
X121240054Y-58711823D01*
X121237340Y-58714922D01*
X121180730Y-58771534D01*
X121167059Y-58795213D01*
X121159054Y-58804358D01*
X121139412Y-58816841D01*
X121122571Y-58832900D01*
X121110478Y-58835230D01*
X121100086Y-58841836D01*
X121076816Y-58841719D01*
X121053964Y-58846124D01*
X121042530Y-58841546D01*
X121030218Y-58841485D01*
X121010704Y-58828805D01*
X120989099Y-58820156D01*
X120981956Y-58810125D01*
X120971630Y-58803416D01*
X120962068Y-58782197D01*
X120948570Y-58763242D01*
X120945619Y-58745693D01*
X120942925Y-58739715D01*
X120943718Y-58734388D01*
X120941750Y-58722685D01*
X120941750Y-58506817D01*
X120941749Y-58506802D01*
X120941174Y-58499500D01*
X120938893Y-58470507D01*
X120923295Y-58416820D01*
X120923494Y-58346951D01*
X120954686Y-58294547D01*
X121112417Y-58136816D01*
X121121815Y-58131685D01*
X121128460Y-58123286D01*
X121151949Y-58115231D01*
X121173740Y-58103334D01*
X121192547Y-58101311D01*
X121194553Y-58100624D01*
X121195889Y-58100952D01*
X121200097Y-58100500D01*
X121231305Y-58100500D01*
X121298344Y-58120185D01*
G37*
%TD.AperFunction*%
%TA.AperFunction,Conductor*%
G36*
X130242539Y-50620185D02*
G01*
X130288294Y-50672989D01*
X130299500Y-50724500D01*
X130299500Y-54471664D01*
X130279815Y-54538703D01*
X130227011Y-54584458D01*
X130157853Y-54594402D01*
X130094297Y-54565377D01*
X130087819Y-54559345D01*
X130014648Y-54486174D01*
X130014646Y-54486172D01*
X129855405Y-54370476D01*
X129680029Y-54281117D01*
X129492826Y-54220290D01*
X129298422Y-54189500D01*
X129298417Y-54189500D01*
X129101583Y-54189500D01*
X129101578Y-54189500D01*
X128907173Y-54220290D01*
X128719970Y-54281117D01*
X128544594Y-54370476D01*
X128453741Y-54436485D01*
X128385354Y-54486172D01*
X128385352Y-54486174D01*
X128385351Y-54486174D01*
X128246174Y-54625351D01*
X128246174Y-54625352D01*
X128246172Y-54625354D01*
X128204765Y-54682346D01*
X128130476Y-54784594D01*
X128041117Y-54959970D01*
X127980290Y-55147173D01*
X127949500Y-55341577D01*
X127949500Y-55538421D01*
X127950555Y-55545084D01*
X127941597Y-55614377D01*
X127915764Y-55652156D01*
X127878213Y-55689708D01*
X127878208Y-55689714D01*
X127790609Y-55820814D01*
X127790602Y-55820827D01*
X127730264Y-55966498D01*
X127730261Y-55966510D01*
X127699500Y-56121153D01*
X127699500Y-56185500D01*
X127679815Y-56252539D01*
X127627011Y-56298294D01*
X127575500Y-56309500D01*
X124529275Y-56309500D01*
X124462236Y-56289815D01*
X124416481Y-56237011D01*
X124406537Y-56167853D01*
X124410198Y-56150906D01*
X124411419Y-56146699D01*
X124417665Y-56125204D01*
X124420500Y-56089181D01*
X124420499Y-55690820D01*
X124417665Y-55654796D01*
X124372869Y-55500607D01*
X124291135Y-55362402D01*
X124291133Y-55362400D01*
X124291130Y-55362396D01*
X124177603Y-55248869D01*
X124177595Y-55248863D01*
X124039393Y-55167131D01*
X124039388Y-55167129D01*
X123885208Y-55122335D01*
X123885202Y-55122334D01*
X123849181Y-55119500D01*
X123350830Y-55119500D01*
X123350808Y-55119501D01*
X123314799Y-55122334D01*
X123160606Y-55167131D01*
X123135073Y-55182232D01*
X123119171Y-55186582D01*
X123106887Y-55194477D01*
X123071952Y-55199500D01*
X122965750Y-55199500D01*
X122898711Y-55179815D01*
X122852956Y-55127011D01*
X122841750Y-55075500D01*
X122841749Y-54811080D01*
X122841748Y-54811058D01*
X122838915Y-54775048D01*
X122838915Y-54775046D01*
X122832281Y-54752212D01*
X122832480Y-54682346D01*
X122870421Y-54623675D01*
X122888237Y-54610886D01*
X122988842Y-54551389D01*
X122988843Y-54551387D01*
X122988848Y-54551385D01*
X123102385Y-54437848D01*
X123184119Y-54299643D01*
X123228915Y-54145454D01*
X123231750Y-54109431D01*
X123231749Y-53611070D01*
X123228915Y-53575046D01*
X123184119Y-53420857D01*
X123102385Y-53282652D01*
X123102383Y-53282650D01*
X123102380Y-53282646D01*
X123098069Y-53278335D01*
X123064584Y-53217012D01*
X123061750Y-53190654D01*
X123061750Y-52932253D01*
X123061749Y-52932246D01*
X123047668Y-52879693D01*
X123020827Y-52779522D01*
X122974626Y-52699500D01*
X122941770Y-52642591D01*
X122829966Y-52530787D01*
X122829965Y-52530786D01*
X122825635Y-52526456D01*
X122825624Y-52526446D01*
X122236533Y-51937355D01*
X122236531Y-51937352D01*
X122117660Y-51818481D01*
X122117659Y-51818480D01*
X122030847Y-51768360D01*
X122030847Y-51768359D01*
X122030843Y-51768358D01*
X121980728Y-51739423D01*
X121828000Y-51698499D01*
X121669886Y-51698499D01*
X121662290Y-51698499D01*
X121662274Y-51698500D01*
X121337727Y-51698500D01*
X121337711Y-51698499D01*
X121330115Y-51698499D01*
X121172000Y-51698499D01*
X121095636Y-51718961D01*
X121019271Y-51739423D01*
X121019266Y-51739426D01*
X120882347Y-51818475D01*
X120882339Y-51818481D01*
X120037641Y-52663181D01*
X120010713Y-52677884D01*
X119984895Y-52694477D01*
X119978694Y-52695368D01*
X119976318Y-52696666D01*
X119949960Y-52699500D01*
X119745134Y-52699500D01*
X119678095Y-52679815D01*
X119632340Y-52627011D01*
X119622396Y-52557853D01*
X119630573Y-52528047D01*
X119631232Y-52526456D01*
X119669737Y-52433497D01*
X119700500Y-52278842D01*
X119700500Y-52121158D01*
X119700500Y-52121155D01*
X119700499Y-52121153D01*
X119669738Y-51966510D01*
X119669737Y-51966503D01*
X119657664Y-51937355D01*
X119609397Y-51820827D01*
X119609390Y-51820814D01*
X119521789Y-51689711D01*
X119521786Y-51689707D01*
X119410292Y-51578213D01*
X119410288Y-51578210D01*
X119279185Y-51490609D01*
X119279172Y-51490602D01*
X119133501Y-51430264D01*
X119133489Y-51430261D01*
X118978845Y-51399500D01*
X118978842Y-51399500D01*
X118821158Y-51399500D01*
X118821155Y-51399500D01*
X118814284Y-51400867D01*
X118790098Y-51403249D01*
X118782807Y-51403249D01*
X118624693Y-51403249D01*
X118624689Y-51403249D01*
X118617082Y-51403250D01*
X118617081Y-51403249D01*
X118617081Y-51403250D01*
X112445147Y-51403250D01*
X112287033Y-51403250D01*
X112134305Y-51444173D01*
X112134304Y-51444173D01*
X112134302Y-51444174D01*
X112134299Y-51444175D01*
X112084186Y-51473109D01*
X112084185Y-51473110D01*
X112053888Y-51490602D01*
X111997375Y-51523229D01*
X111997372Y-51523231D01*
X111885568Y-51635036D01*
X110422504Y-53098101D01*
X110361181Y-53131586D01*
X110334823Y-53134420D01*
X110051750Y-53134420D01*
X110051734Y-53134419D01*
X110044138Y-53134419D01*
X109886023Y-53134419D01*
X109733295Y-53175343D01*
X109733293Y-53175343D01*
X109733293Y-53175344D01*
X109596361Y-53254402D01*
X109512181Y-53338583D01*
X109450858Y-53372068D01*
X109381166Y-53367084D01*
X109325233Y-53325212D01*
X109300816Y-53259748D01*
X109300500Y-53250902D01*
X109300500Y-50724500D01*
X109320185Y-50657461D01*
X109372989Y-50611706D01*
X109424500Y-50600500D01*
X130175500Y-50600500D01*
X130242539Y-50620185D01*
G37*
%TD.AperFunction*%
%TA.AperFunction,Conductor*%
G36*
X112049405Y-53272182D02*
G01*
X112105338Y-53314054D01*
X112129755Y-53379518D01*
X112125846Y-53420456D01*
X112109749Y-53480530D01*
X112109749Y-53648636D01*
X112109750Y-53648649D01*
X112109750Y-55320250D01*
X112090065Y-55387289D01*
X112037261Y-55433044D01*
X111985750Y-55444250D01*
X111311248Y-55444250D01*
X111311230Y-55444251D01*
X111208453Y-55454750D01*
X111208450Y-55454751D01*
X111041918Y-55509935D01*
X111041913Y-55509937D01*
X110892592Y-55602039D01*
X110768539Y-55726092D01*
X110676437Y-55875413D01*
X110676436Y-55875416D01*
X110652114Y-55948816D01*
X110612341Y-56006260D01*
X110547825Y-56033083D01*
X110479049Y-56020768D01*
X110446727Y-55997492D01*
X110036819Y-55587584D01*
X110003334Y-55526261D01*
X110000500Y-55499903D01*
X110000500Y-54600097D01*
X110009144Y-54570656D01*
X110015668Y-54540670D01*
X110019422Y-54535654D01*
X110020185Y-54533058D01*
X110036814Y-54512421D01*
X110177498Y-54371737D01*
X110238820Y-54338254D01*
X110265178Y-54335420D01*
X110548251Y-54335420D01*
X110548267Y-54335421D01*
X110555863Y-54335421D01*
X110713974Y-54335421D01*
X110713977Y-54335421D01*
X110866705Y-54294497D01*
X110944108Y-54249808D01*
X111003636Y-54215440D01*
X111115440Y-54103636D01*
X111115440Y-54103634D01*
X111125644Y-54093431D01*
X111125647Y-54093426D01*
X111918393Y-53300681D01*
X111979713Y-53267198D01*
X112049405Y-53272182D01*
G37*
%TD.AperFunction*%
%TA.AperFunction,Conductor*%
G36*
X116403790Y-55255435D02*
G01*
X116449545Y-55308239D01*
X116460750Y-55359747D01*
X116460751Y-55470622D01*
X116467159Y-55530233D01*
X116472764Y-55545262D01*
X116474683Y-55558121D01*
X116471603Y-55580378D01*
X116473204Y-55602787D01*
X116466906Y-55614316D01*
X116465106Y-55627332D01*
X116450482Y-55644390D01*
X116439714Y-55664107D01*
X116428183Y-55670402D01*
X116419632Y-55680377D01*
X116398107Y-55686821D01*
X116378388Y-55697587D01*
X116365284Y-55696648D01*
X116352698Y-55700417D01*
X116331106Y-55694201D01*
X116308697Y-55692597D01*
X116287057Y-55681521D01*
X116285555Y-55681089D01*
X116285020Y-55680478D01*
X116283149Y-55679521D01*
X116159157Y-55596671D01*
X116159144Y-55596664D01*
X116013473Y-55536326D01*
X116013461Y-55536323D01*
X115858817Y-55505562D01*
X115858814Y-55505562D01*
X115701130Y-55505562D01*
X115701127Y-55505562D01*
X115546482Y-55536323D01*
X115546470Y-55536326D01*
X115439233Y-55580745D01*
X115419357Y-55582881D01*
X115400627Y-55589868D01*
X115385330Y-55586540D01*
X115369764Y-55588214D01*
X115351887Y-55579265D01*
X115332354Y-55575016D01*
X115310061Y-55558328D01*
X115307285Y-55556938D01*
X115304100Y-55553865D01*
X115290416Y-55540181D01*
X115256931Y-55478858D01*
X115261915Y-55409166D01*
X115290416Y-55364819D01*
X115383166Y-55272069D01*
X115444489Y-55238584D01*
X115470847Y-55235750D01*
X116336751Y-55235750D01*
X116403790Y-55255435D01*
G37*
%TD.AperFunction*%
%TD*%
M02*
