M48
; DRILL file {KiCad 9.0.0} date 2025-08-18T16:34:53+0900
; FORMAT={-:-/ absolute / inch / decimal}
; #@! TF.CreationDate,2025-08-18T16:34:53+09:00
; #@! TF.GenerationSoftware,Kicad,Pcbnew,9.0.0
; #@! TF.FileFunction,Plated,1,4,PTH
FMAT,2
INCH
; #@! TA.AperFunction,Plated,PTH,ViaDrill
T1C0.0118
; #@! TA.AperFunction,Plated,PTH,ComponentDrill
T2C0.0236
%
G90
G05
T1
X6.5492Y-3.5807
X6.5492Y-3.7205
X6.5512Y-3.7717
X6.5512Y-3.7992
X6.5512Y-3.8268
X6.5512Y-3.9311
X6.5531Y-3.2598
X6.561Y-3.0748
X6.561Y-3.1024
X6.561Y-3.1299
X6.5807Y-3.7992
X6.5807Y-3.9311
X6.5886Y-3.0748
X6.5886Y-3.1024
X6.5886Y-3.1299
X6.6004Y-3.1949
X6.6004Y-3.4587
X6.6015Y-3.7235
X6.6161Y-3.0748
X6.6161Y-3.1024
X6.6161Y-3.1299
X6.6299Y-3.8346
X6.6319Y-3.9626
X6.6378Y-3.4587
X6.6378Y-3.6004
X6.6516Y-3.2776
X6.6673Y-3.4764
X6.6811Y-3.9094
X6.6988Y-3.4783
X6.7047Y-3.3504
X6.7283Y-3.1437
X6.7283Y-3.187
X6.7638Y-3.8976
X6.811Y-3.8858
X6.813Y-3.7933
X6.8138Y-3.7429
X6.8314Y-3.708
X6.8366Y-3.498
X6.8386Y-3.6614
X6.8406Y-3.2933
X6.8415Y-3.814
X6.8445Y-2.9921
X6.8514Y-3.2569
X6.8583Y-3.0551
X6.8622Y-3.376
X6.8642Y-3.0906
X6.8672Y-3.6388
X6.872Y-3.6063
X6.878Y-3.8661
X6.9094Y-3.8622
X6.9193Y-3.2382
X6.9409Y-3.1063
X6.9488Y-3.3681
X6.9488Y-3.6614
X6.9488Y-3.7122
X6.9528Y-3.7913
X6.9614Y-3.8535
X6.9783Y-3.8839
X7.0197Y-3.561
X7.0308Y-3.3058
X7.043Y-3.62
X7.065Y-3.8681
X7.0866Y-3.5551
X7.0906Y-3.8681
X7.1142Y-3.0846
X7.1161Y-3.8681
X7.1358Y-3.1791
X7.1378Y-3.0846
X7.1417Y-3.8681
X7.1457Y-3.7913
X7.1594Y-3.6654
X7.1594Y-3.6949
X7.1594Y-3.7224
X7.1909Y-3.2185
X7.2146Y-3.3602
X7.2185Y-3.2185
X7.2461Y-3.2185
X7.2579Y-3.7559
X7.2579Y-3.7835
X7.2579Y-3.811
X7.2579Y-3.8386
X7.2598Y-3.5531
T2
G00X6.5906Y-2.9925
M15
G01X6.6142Y-2.9925
M16
G05
G00X6.5906Y-3.3327
M15
G01X6.6142Y-3.3327
M16
G05
G00X6.7453Y-2.9925
M15
G01X6.7886Y-2.9925
M16
G05
G00X6.7453Y-3.3327
M15
G01X6.7886Y-3.3327
M16
G05
M30
